<svg xmlns="http://www.w3.org/2000/svg" xmlns:xlink="http://www.w3.org/1999/xlink" width="17" height="10" viewBox="0 0 17 10">
  <defs>
    <rect id="rect-1" width="17" height="10" x="0" y="0"/>
    <mask id="mask-2" maskContentUnits="userSpaceOnUse" maskUnits="userSpaceOnUse">
      <rect width="17" height="10" x="0" y="0" fill="black"/>
      <use fill="white" xlink:href="#rect-1"/>
    </mask>
  </defs>
  <g>
    <use fill="rgb(200,200,200)" fill-opacity="0" opacity="0" xlink:href="#rect-1"/>
    <g mask="url(#mask-2)">
      <path fill="rgb(79,79,79)" fill-rule="evenodd" d="M9.58398438 0c.14575195 0 .2824707.05664063.38488769.15966797l4.42858887 4.45019531c.10266113.10351563.15905761.24121094.1586914.3881836.00036621.14697265-.05603027.28466796-.1586914.38818359L9.96472168 9.84033203C9.86230468 9.94335937 9.72558594 10 9.57983398 10c-.14587402 0-.2824707-.05664063-.38500976-.15966797l-.3260498-.32763672c-.102417-.10302734-.15905762-.24023437-.15905762-.38671875 0-.14648437.05664062-.2836914.15905761-.38671875l2.98425293-2.99902343H2.7401123C2.33129883 5.74023438 2 5.40917967 2 5.00048828s.33129883-.74023437.7401123-.74023437h9.1171875L8.87280273 1.26123047c-.2121582-.2133789-.2121582-.56054688 0-.77392578l.32617188-.32763672C9.3013916.05664063 9.43811035 0 9.58398437 0z"/>
    </g>
  </g>
</svg>
