<svg xmlns="http://www.w3.org/2000/svg" xmlns:xlink="http://www.w3.org/1999/xlink" width="40" height="40" viewBox="0 0 40 40">
  <defs>
    <rect id="rect-1" width="40" height="40" x="0" y="0"/>
    <mask id="mask-2" maskContentUnits="userSpaceOnUse" maskUnits="userSpaceOnUse">
      <rect width="40" height="40" x="0" y="0" fill="black"/>
      <use fill="white" xlink:href="#rect-1"/>
    </mask>
  </defs>
  <g>
    <use fill="none" xlink:href="#rect-1"/>
    <g mask="url(#mask-2)">
      <path fill="rgb(18,42,136)" fill-rule="evenodd" d="M15.9760437 15.32770827c.68832398-3.46044922 3.72525025-5.95275879 7.25344849-5.95272827 1.96246338-.00534058 3.84552002.7746582 5.22943115 2.16610718 2.49481201 2.494812 2.87988281 6.40457153.91973877 9.3381958-1.96020508 2.93362427-5.71972656 4.07403564-8.97937012 2.72384643-3.25964355-1.35021972-5.11160278-4.81500244-4.42324829-8.27542114zm4.90164185 7.12042236c2.29644775.9512024 4.93969726.42541504 6.69732666-1.33221435 1.16253662-1.14712524 1.81695556-2.71224976 1.81695556-4.34545899 0-1.63320922-.65441894-3.19833374-1.81695556-4.34545898-1.7576294-1.7576294-4.4008789-2.28341675-6.69732666-1.33221435-2.29638672.95120239-3.79370117 3.19204711-3.79370117 5.67767333 0 2.48562623 1.49731445 4.72650147 3.79370117 5.67767334z"/>
      <path fill="rgb(18,42,136)" fill-rule="evenodd" d="M11.296875 26.93515625l-2.65164062 2.6515625c-.24408397.24408397-.24408397.63982228 0 .88390625.24408397.24408396.63982227.24408397.88390624 0l2.65164063-2.6515625c.24408397-.24408397.24408396-.63982228 0-.88390625-.24408397-.24408396-.63982228-.24408397-.88390625 0z"/>
      <path fill="rgb(18,42,136)" fill-rule="evenodd" d="M8.125.62501052h28.75c1.03497314.00137329 1.87365723.84002685 1.875 1.875v18.75c-.00134277 1.03497314-.84002686 1.8736267-1.875 1.875h-6.328125c-.11914063.00024414-.2357788-.03393555-.3359375-.0984497-.16949463.18984984-.35235596.37268065-.35235596.37268065-3.14624023 3.15914917-8.08477783 3.65875245-11.79998779 1.1937256l-2.3421936 2.3421936.4421997.4421997c.24389649.24404907.24389649.63955689 0 .88357544L5.55157471 38.86719801c-.73260498.73126221-1.91897583.73126221-2.65158081 0l-1.7671814-1.76718139c-.7312622-.73260498-.7312622-1.91897583 0-2.6515808l10.6062622-10.60702516c.24404908-.24386596.6395569-.24386596.88357545 0l.4421997.44219971 1.15859986-1.15859985H8.125c-1.03494263-.0013733-1.8736267-.84002686-1.875-1.875v-18.75c.0013733-1.03497315.84005737-1.87362671 1.875-1.875zm-.625 3.75h30v-1.875c-.00048828-.3449707-.2800293-.62451172-.625-.625H8.125c-.3449707.00048828-.62451172.2800293-.625.625v1.875zm30 16.875c-.00048828.3449707-.2800293.62454223-.625.625h-5.77893066c2.5415039-3.91998291 1.80895996-9.11291504-1.71759034-12.17697144-3.52661132-3.0640564-8.77093505-3.0640564-12.29754638 0-3.52661133 3.0640564-4.25909424 8.25698853-1.71765137 12.17697144H8.125c-.3449707-.00045777-.62451172-.2800293-.625-.625v-15.625h30v15.625zM18.15350342 23.0201216c3.2006836 2.63821411 7.88012695 2.42004395 10.82147217-.50448608.756958-.7527771 1.35705566-1.64816284 1.765625-2.6343689 1.5871582-3.83215332.010437-8.24337768-3.64630127-10.20117187-3.65667725-1.9577942-8.20202637-.8243103-10.51132203 2.62121582-2.30929565 3.44552612-1.63015747 8.08059692 1.57052613 10.71881103zm-3.32070923 3.0314331l-.8843689-.88436889 2.21014405-2.2093811.88360595.88360595-2.2093811 2.21014405zM3.78436279 37.98359207c.24404908.24389648.63955689.24389648.88360596 0L14.83282471 27.8187361l-2.65158081-2.65155029L2.01641846 35.33204177c-.24389649.24401855-.24389649.63952636 0 .88357544l1.76794433 1.76797485z"/>
      <ellipse cx="8.75" cy="3.125" fill="rgb(18,42,136)" rx=".625" ry=".625"/>
      <ellipse cx="10.625" cy="3.125" fill="rgb(18,42,136)" rx=".625" ry=".625"/>
      <ellipse cx="12.5" cy="3.125" fill="rgb(18,42,136)" rx=".625" ry=".625"/>
      <path fill="rgb(18,42,136)" fill-rule="evenodd" d="M25.15106201 15.86088088c.50958252-.9642334.269104-2.1539917-.5750122-2.84451294-.84411622-.69055176-2.0579834-.69055176-2.90209961 0-.84411622.69052124-1.08465577 1.88027954-.57507325 2.84451294-.94213867.56420898-1.5178833 1.58258057-1.515625 2.68075561v.83337403c0 .16577148.06585694.32473755.18310547.44192505.1171875.11721801.27618408.18307495.44189453.18307495h5.833313c.3451538 0 .625-.27981568.625-.625v-.83337403c.00231933-1.09814453-.57336427-2.1164856-1.51550294-2.68075561zM23.125 13.75001052c.42132568-.00003052.8012085.25375366.96246338.64303589.16125488.38928222.07214355.8373413-.22576904 1.13528442-.29797364.29794312-.74603272.38705444-1.13531495.22579956-.38928222-.16125488-.6430664-.5411377-.64300537-.96246338.00061035-.57504272.46661377-1.04101562 1.04162598-1.0416565zm-2.29162598 4.79162597V18.74998h4.58325196v-.2083435c.00158691-.77005005-.46948243-1.46218873-1.1864624-1.74313355-.68780518.37979126-1.52246094.37979126-2.21032715 0-.71691895.28094482-1.18804932.9730835-1.1864624 1.74313354z"/>
      <path fill="rgb(18,42,136)" fill-rule="evenodd" d="M9.375 8.125h3.75c.34517797 0 .625-.27982203.625-.625s-.27982203-.625-.625-.625h-3.75c-.34517797 0-.625.27982203-.625.625s.27982203.625.625.625z"/>
      <path fill="rgb(18,42,136)" fill-rule="evenodd" d="M9.375 10h1.25c.34517797 0 .625-.27982203.625-.625s-.27982203-.625-.625-.625h-1.25c-.34517797 0-.625.27982203-.625.625s.27982203.625.625.625z"/>
      <path fill="rgb(18,42,136)" fill-rule="evenodd" d="M35.625 10.62501052h-3.75c-.3451538 0-.625-.27981568-.625-.625v-2.5c0-.34518433.2798462-.625.625-.625h3.75c.3451538 0 .625.27981567.625.625v2.5c0 .34518432-.2798462.625-.625.625zm-.625-2.5h-2.5v1.25H35v-1.25z"/>
    </g>
  </g>
</svg>
