<svg xmlns="http://www.w3.org/2000/svg" width="37" height="31.628" viewBox="0 0 37 31.628">
  <g>
    <path fill="rgb(0,0,0)" fill-rule="evenodd" d="M18.50024414 29.89852905c-1.21380615 0-2.4140625.03704834-3.5680542.11019898-1.26300049.08041382-2.49230957.20529175-3.62869263.36834717-.02609252.00375366-.05212402.0055542-.07769775.0055542-.26522827 0-.4970398-.19491578-.53579712-.46511841-.0425415-.29626465.163208-.57095337.45947266-.61346436 1.0109558-.14511108 2.08294677-.2593689 3.1930542-.3407898v-1.08544921c-2.8041687.2022705-5.32180786.60421753-7.29769898 1.1675415-.65509033.18673706-1.11260986.7932434-1.11260986 1.47509766 0 .00534057 0 .01263427.01052856.0198059.00906372.0062561.01397705.0043335.01916504.00231934.7546692-.29711914 1.68069458-.56732178 2.75247193-.80310058.29290771-.06411744.58154297.12060546.6458435.41290283.06433106.29232788-.12051391.58148193-.41290283.64587402-1.01593018.2234497-1.88668823.47686768-2.58810425.75299072-.13079834.05145264-.26803589.07684327-.40460205.07684327-.21868896.00006103-.43563843-.06497193-.62185669-.19180298-.3033142-.20654297-.48440552-.54885865-.48440552-.91583252 0-1.16348267.7810669-2.19869995 1.89938355-2.51748657 2.0645752-.5885315 4.68640137-1.00601197 7.5949707-1.21166993v-1.61502075H1.39559937C.6260376 25.17626953 0 24.55014038 0 23.7807312V1.39559937C0 .62612915.6260376 0 1.39559937 0h13.49923706c.29937744 0 .54199218.24258423.54199218.54199219s-.24261474.54199219-.54199218.54199219H1.39559937c-.17175293 0-.311615.13986206-.311615.31161499V20.0147705h34.83221436V1.39559937c0-.17175293-.1397705-.311615-.31152344-.311615H17.33917236c-.29937744 0-.54199218-.24258422-.54199218-.54199218C16.79718018.24258423 17.03979492 0 17.33917236 0H35.6046753c.76947022 0 1.39556885.62612915 1.39556885 1.39559937V23.7805786c0 .76950074-.62615967 1.39553833-1.39556885 1.39553833H22.65777588v1.61502076c2.90893555.20565795 5.52990723.6229248 7.5949707 1.21170043 1.11828613.31881714 1.89941406 1.35403443 1.89941406 2.51760865 0 .36697387-.1810913.70935058-.48443603.91583252-.18615723.12683105-.4031372.19180298-.62182617.19180298-.13659668 0-.27380371-.02529908-.40472412-.07684327-.95648194-.3765564-2.25213623-.71658325-3.74694825-.98309326-1.46514892-.26068115-3.08453369-.4484253-4.81292724-.55819702-1.15557862-.07333374-2.36541748-.11141968-3.58105469-.11141968zm17.10437012-5.80627441c.17175293 0 .31152344-.13974.31152344-.31152344v-2.68188476H1.08398437v2.68188476c0 .17178345.13983155.31152344.311615.31152344h34.20901489zm-14.03094483 4.80197143c-1.00183105-.05288696-2.03308105-.07971191-3.07348632-.07971191-1.04040528 0-2.07165528.02676392-3.07348633.07971191v-3.71795654h6.14703369l-.00006104 3.71795654zm9.4944458 1.6262207c0-.68176269-.45751953-1.28836059-1.11260986-1.47509765-1.97644043-.56344604-4.49334717-.965271-7.29785156-1.16760254v1.08566284c1.5789795.11547852 3.06634521.29541016 4.42651367.53744507 1.5645752.27893067 2.93182373.63919068 3.9541626 1.04171753.00524902.00216675.01013183.00405884.01922607-.00231933.01055908-.00708008.01055908-.01443482.01055908-.01980591z"/>
    <path fill="rgb(0,0,0)" fill-rule="evenodd" d="M2.83413696 15.13983154c0-.69729614.5673523-1.26464843 1.26464844-1.26464843h1.73254395c.69729614 0 1.26464843.56735229 1.26464843 1.26464843v1.73254395c0 .69729614-.5673523 1.26464844-1.26464843 1.26464844H4.0987854c-.69729614 0-1.26464844-.5673523-1.26464844-1.26464844v-1.73254395zm3.17779541 1.73251343v-1.73251343c0-.09957885-.08102417-.18066406-.18060302-.18066406H4.09881592c-.0996399 0-.18066406.08102417-.18066406.18066406v1.73251343c0 .09967041.08102417.18066406.18066406.18066406h1.7324524c.09963988 0 .18066405-.08099365.18066405-.18066406z"/>
    <path fill="rgb(0,0,0)" fill-rule="evenodd" d="M9.12731934 13.87545776h1.73245239c.6973877 0 1.26467895.5673523 1.26467895 1.26464844v1.73254395c0 .69729614-.5673828 1.26464843-1.26467895 1.26464843h-1.7324524c-.69729614 0-1.26464843-.5673523-1.26464843-1.26464843V15.1401062c0-.69729614.5673523-1.26464844 1.26464844-1.26464844zm1.73245239 3.17785645c.0996399 0 .18066406-.08099365.18066406-.18066406v-1.73251343c0-.0996399-.08102417-.18066406-.18066406-.18066406h-1.7324524c-.09963989 0-.18066406.08102417-.18066406.18066406v1.73251343c0 .0996704.08102417.18066406.18066407.18066406h1.73245239z"/>
    <path fill="rgb(0,0,0)" fill-rule="evenodd" d="M10.85977173 8.08483887c.69729614 0 1.26464844.5673523 1.26464844 1.26464843l.00009155 2.06414795c0 .69732666-.56738281 1.26467896-1.26467896 1.26467896H4.0987854c-.69729614 0-1.26464844-.5673523-1.26464844-1.26467896V9.3494873c0-.69729614.5673523-1.26464843 1.26464844-1.26464843h6.76098633zm0 3.50952148c.0996704 0 .18066406-.08099365.18066406-.18066406l.00009155-2.06414795c0-.0996399-.08102417-.18066406-.18066406-.18066406H4.09881592c-.0996399 0-.18066406.08102417-.18066406.18066406v2.06414795c0 .0996704.08102417.18066406.18066406.18066406h6.7609558z"/>
    <path fill="rgb(0,0,0)" fill-rule="evenodd" d="M3.37614491 5.7661541h1.5888506c.29939998 0 .54199851-.24259854.54199851-.54199852s-.24259853-.54199852-.54199852-.54199852H3.37614491c-.29939998 0-.54199852.24259854-.54199852.54199852s.24259854.54199852.54199852.54199852z"/>
    <path fill="rgb(0,0,0)" fill-rule="evenodd" d="M3.37614491 3.98521923h8.20621892c.29939998 0 .54199852-.24259854.54199852-.54199852s-.24259854-.54199852-.54199852-.54199852H3.3761449c-.29939998 0-.54199852.24259854-.54199852.54199852s.24259854.54199852.54199852.54199852z"/>
    <path fill="rgb(0,0,0)" fill-rule="evenodd" d="M33.62426758 8.24337769c.29943847 0 .54199219-.24258423.54199219-.5419922V3.42840577c0-.69729614-.56732178-1.26464844-1.26464844-1.26464844h-5.67443848c-.69726562 0-1.26464844.5673523-1.26464844 1.26464844v14.18173218c0 .69729614.56738282 1.26464844 1.26464844 1.26464844h5.67443848c.69732666 0 1.26464844-.5673523 1.26464844-1.26464844v-7.4644165c0-.29937745-.24255372-.5419922-.5419922-.5419922-.29937743 0-.54199218.24261475-.54199218.5419922v5.52731323h-6.0357666V5.36550903h6.0357666V7.7013855c0 .29934692.24267578.54199219.54199219.54199219zm-6.57769776-4.81497193v.8531189h6.0357666v-.8531189c0-.0996399-.08099365-.18066406-.18066406-.18066406H27.2272339c-.09967041 0-.18066407.08102417-.18066407.18066406zm6.03570557 13.32861328v.8531189c0 .0996399-.08099365.18066406-.18066406.18066406h-5.67443848c-.0996704 0-.18066406-.08102417-.18066406-.18066406v-.8531189h6.0357666z"/>
    <path fill="rgb(0,0,0)" fill-rule="evenodd" d="M16.82800293 4.8826294c.83007812 0 1.52215576.60031127 1.6665039 1.38961791.09020997-.00527954.1809082-.00866699.2723999-.00860595.72021485 0 1.40246583.16549682 2.01104737.46011352.30444336-.47354126.83319092-.77441406 1.42456055-.77441406.93481445 0 1.6953125.76055908 1.6953125 1.69537354 0 .6243286-.33886719 1.1783142-.855896 1.47238159.22839356.54748535.35510254 1.14752197.35510254 1.7767334 0 1.11694336-.39660644 2.18121337-1.12145996 3.02108764.05853272.1715088.09075928.3550415.09075928.54611206 0 .93463135-.76031494 1.6949463-1.6949463 1.6949463-.54791259 0-1.03564452-.26153565-1.34570312-.66607667-.18408203.02224732-.37121582.0340271-.55877685.0340271-.72094727 0-1.43719483-.17047119-2.07818604-.49282837-.20965576.09298706-.44134521.14508057-.68499756.14508057-.93469238 0-1.69500732-.76031494-1.69500732-1.69500733 0-.28347778.0703125-.55081176.19384766-.78588867-.24176026-.56939697-.3657837-1.17462158-.3657837-1.80151367 0-1.2758789.5187378-2.43286133 1.35638428-3.27114868-.23071289-.29333496-.36053467-.6581421-.36053467-1.0446167 0-.93484497.76049805-1.69537354 1.69537354-1.69537354zm.5993042 1.57928466c-.05438233-.28173828-.30230713-.49530029-.5993042-.49530029-.3371582 0-.61138916.27426147-.61138916.61138916 0 .1375122.04626465.2669983.12756348.37200928.33520507-.20666504.69866943-.37167359 1.08312988-.48809815zm5.38641357 1.18273926c0-.33712769-.27423095-.61138916-.61126709-.61138916-.2113037 0-.40039062.1065979-.510437.27462769.30822753.25189209.58306884.54290771.81781005.86508178.18377686-.10650634.30389404-.30496216.30389404-.52832031zm-1.22320556 5.39331055c-.26495362-.17178345-.58050537-.27200318-.91912842-.27200318-.92529297 0-1.67926026.74526978-1.6942749 1.66705323-.06982422.00411987-.13983155.00686645-.21026612.00686645-.42938232 0-.8435669-.07510376-1.23675537-.222229.1079712-.22286988.1685791-.47268677.1685791-.73654175 0-.93463135-.76031494-1.69494629-1.69488525-1.69494629-.22424316 0-.43823242.04415894-.63427734.1235962-.09802246-.32687379-.14868164-.6668091-.14868164-1.01608277 0-1.9553833 1.5908203-3.54611206 3.5460205-3.54611206 1.9553833 0 3.54614258 1.5907898 3.54614258 3.54611206 0 .78222656-.2546997 1.53024292-.72247314 2.1442871zm-6.19781494.44314575c0-.33682251.27410888-.6109314.61102294-.6109314.33685303 0 .61090088.27410889.61090088.6109314 0 .33691406-.27404785.61102295-.61090088.61102295-.33691406 0-.61102294-.27410889-.61102294-.61102295zm4.66766357.9798584c0 .3368225.27410889.6109314.61102295.6109314.33685303 0 .61090088-.2741089.61090088-.6109314 0-.33691406-.27404785-.61102295-.61090088-.61102295-.33691406 0-.61102295.27410889-.61102295.61102295z"/>
    <path fill="rgb(0,0,0)" fill-rule="evenodd" d="M18.28405762 10.31936646c0-.93469239.76031494-1.69500733 1.69500732-1.69500733.93463135 0 1.69500733.76031494 1.69500733 1.69500733 0 .93469238-.76031495 1.69500732-1.69500733 1.69500732-.93469238 0-1.69500732-.76031494-1.69500732-1.69500732zm1.08398437.00003051c0 .33688355.27410889.61099243.61102295.61099243.33691406 0 .61102295-.27410888.61102295-.61099243 0-.33691406-.27410889-.61102295-.61102295-.61102295-.33691406 0-.61102295.27410889-.61102295.61102295z"/>
    <path fill="rgb(0,0,0)" fill-rule="evenodd" d="M16.00369868 16.69269972c-.29939998 0-.54199852.24259853-.54199852.54199852 0 .29939998.24259854.54199851.54199852.54199851h1.15279472c.29939998 0 .54199852-.24259853.54199852-.54199851 0-.29939999-.24259854-.54199852-.54199852-.54199852h-1.15279472z"/>
    <path fill="rgb(0,0,0)" fill-rule="evenodd" d="M23.35529433 5.03062597c.29939998 0 .54199852-.24259853.54199852-.54199852 0-.29939998-.24259854-.54199851-.54199852-.54199851H21.0001301c-.29939998 0-.54199852.24259853-.54199852.54199851 0 .29939999.24259854.54199852.54199852.54199852h2.35516423z"/>
  </g>
</svg>
