<svg xmlns="http://www.w3.org/2000/svg" xmlns:xlink="http://www.w3.org/1999/xlink" width="37" height="37" viewBox="0 0 37 37">
  <defs>
    <rect id="rect-1" width="37" height="37" x="0" y="0"/>
    <mask id="mask-2" maskContentUnits="userSpaceOnUse" maskUnits="userSpaceOnUse">
      <rect width="37" height="37" x="0" y="0" fill="black"/>
      <use fill="white" xlink:href="#rect-1"/>
    </mask>
  </defs>
  <g>
    <use fill="none" xlink:href="#rect-1"/>
    <g mask="url(#mask-2)">
      <path fill="rgb(0,0,0)" fill-rule="evenodd" d="M10.1295166 25.01013287c0-3.65838623 2.9761963-6.63464355 6.63439942-6.63464355 3.65936279 0 6.63653564 2.97625732 6.63653564 6.63464355 0 3.6593628-2.97711182 6.63656616-6.63653564 6.63656616-3.65820313 0-6.63439942-2.97711181-6.63439942-6.63656616zm1.4453125 0c0 2.86242676 2.32781983 5.19125366 5.18908692 5.19125366 2.86248779 0 5.19122314-2.32873535 5.19122314-5.19125366 0-2.8614502-2.32873535-5.18933105-5.19122314-5.18933105-2.8612671 0-5.18908692 2.3279724-5.18908692 5.18933105z"/>
      <path fill="rgb(0,0,0)" fill-rule="evenodd" d="M18.84311719 24.28746484h-1.35649805v-2.2681289c0-.39912305-.32360547-.72265625-.72265625-.72265625s-.72265625.3235332-.72265625.72265625v2.99078515c0 .39912305.32360547.72265625.72265625.72265625h2.0791543c.39905078 0 .72265625-.3235332.72265625-.72265625 0-.39912304-.3235332-.72265625-.72265625-.72265625z"/>
      <path fill="rgb(0,0,0)" fill-rule="evenodd" d="M14.59259033 2.42797955h20.27746582C36.04449463 2.42797955 37 3.38348492 37 4.55801495v20.27584839c0 1.174469-.95550537 2.12994385-2.12994385 2.12994385h-8.7454834c-.90429687 4.33862304-4.75775146 7.6081543-9.3605957 7.6081543-2.57702637 0-4.9187622-1.02560425-6.63970947-2.68966675H7.19781494c-.39904785 0-.72265625-.32354737-.72265625-.72265625 0-.3991394.3236084-.72265625.72265625-.72265625h1.69989014c-.35253906-.50961304-.65679932-1.05493164-.90637207-1.62945557H4.557312c-.39904785 0-.72265625-.32351685-.72265625-.72265625 0-.39910889.3236084-.72265625.72265625-.72265625h2.9399414c-.13385009-.5272522-.22393798-1.0716858-.26574706-1.62942505H.72265625C.3236084 25.73278912 0 25.40924176 0 25.01013287c0-.3991394.3236084-.72265625.72265625-.72265625h6.50915527c.04193116-.55767822.13153077-1.10229492.2654419-1.62945557h-2.9399414c-.39904786 0-.72265626-.32354736-.72265626-.72265625 0-.3991394.3236084-.72265625.72265625-.72265625h3.4354248c.2496338-.57452392.55395508-1.11984252.90679932-1.62945556H7.19781494c-.39904785 0-.72265625-.32351685-.72265625-.72265625 0-.39910889.3236084-.72265625.72265625-.72265625h2.92877197c.68786621-.66461182 1.4744873-1.22772217 2.33605957-1.66360474V4.55801495c0-1.17453003.95550538-2.1300354 2.12994385-2.1300354zm20.27746582 23.09060669c.37750244 0 .68463135-.3071289.68463135-.68466186l.0001831-20.27590943c0-.377594-.3071289-.6847229-.68463134-.6847229h-6.06793213v7.93634033c0 .26919556-.14959717.51605225-.3881836.64065552-.10516357.05490112-.2199707.08200073-.33441162.08200073-.1451416 0-.28961181-.04364013-.41308593-.1296997l-2.93603516-2.04541016-2.93408203 2.04525757c-.22094727.1539917-.5090332.17242431-.74761963.04785156-.2387085-.12451172-.38830566-.37145996-.38830566-.64065552V3.87329205h-6.06793213c-.37750244 0-.68463135.30718994-.68463135.6847229v11.32806397c.90228271-.2829895 1.8616333-.43582154 2.85601807-.43582154 5.27227783 0 9.56158447 4.28851319 9.56158447 9.5598755 0 .17053222-.0046997.34005736-.0135498.50845336h8.5579834zM27.35681152 3.87329205h-5.2510376l-.00006103 6.55166626 2.21124268-1.54141235c.24829101-.17300415.57806396-.1730957.82635498-.00009156l2.21350097 1.5420227V3.87329206zM16.76397705 33.12671002c-4.47424316 0-8.11425781-3.64108276-8.11425781-8.11657715 0-4.47439575 3.64001465-8.11456299 8.11425781-8.11456299 4.47540283 0 8.116333 3.64016724 8.116333 8.114563 0 4.47549438-3.6409912 8.11657714-8.116333 8.11657714z"/>
      <path fill="rgb(0,0,0)" fill-rule="evenodd" d="M3.01073047 19.58318945h1.23111719c.39905078 0 .72265625-.3235332.72265625-.72265625 0-.39912304-.32360547-.72265625-.72265625-.72265625h-1.2311172c-.39905077 0-.72265624.3235332-.72265624.72265625s.32360547.72265625.72265625.72265625z"/>
      <path fill="rgb(0,0,0)" fill-rule="evenodd" d="M4.24184766 30.43705273h-1.2311172c-.39905077 0-.72265624.3235332-.72265624.72265625s.32360547.72265625.72265625.72265625h1.23111719c.39905078 0 .72265625-.3235332.72265625-.72265625 0-.39912304-.3235332-.72265625-.72265625-.72265625z"/>
    </g>
  </g>
</svg>
