<svg xmlns="http://www.w3.org/2000/svg" xmlns:xlink="http://www.w3.org/1999/xlink" width="60" height="60" viewBox="0 0 60 60">
  <defs>
    <rect id="rect-1" width="60" height="60" x="0" y="0"/>
    <mask id="mask-2" maskContentUnits="userSpaceOnUse" maskUnits="userSpaceOnUse">
      <rect width="60" height="60" x="0" y="0" fill="black"/>
      <use fill="white" xlink:href="#rect-1"/>
    </mask>
  </defs>
  <g>
    <use fill="none" xlink:href="#rect-1"/>
    <g mask="url(#mask-2)">
      <path fill="rgb(189,189,189)" fill-rule="evenodd" d="M3.00000072 0H45c1.79999828 0 2.99999714 1.19999886 2.99999714 3.00000072v29.99999642c0 1.79999828-1.19999886 3.0000043-2.99999714 3.0000043H21.00000143l-15 15v-15H3.00000072C1.19999886 36.00000143 0 34.79999541 0 32.99999713V3.00000072C0 1.19999886 1.19999886 0 3.00000072 0zm5.99999785 17.99999714c0 1.80000543 1.19999886 3.0000043 3.00000071 3.0000043C13.79999757 21.00000143 15 19.80000256 15 17.99999713 15 16.19999886 13.79999757 15 11.99999928 15c-1.80000185 0-3.00000071 1.19999886-3.00000071 2.99999714zm15.00000358 3.0000043c-1.80000186 0-3.00000072-1.19999887-3.00000072-3.0000043C21.00000143 16.19999886 22.2000003 15 24.00000215 15c1.79999828 0 3.00000071 1.19999886 3.00000071 2.99999714 0 1.80000543-1.20000243 3.0000043-3.00000071 3.0000043zm8.99999499-3.0000043c0 1.80000543 1.19999885 3.0000043 2.99999714 3.0000043 1.80000543 0 3.00000429-1.19999887 3.00000429-3.0000043C38.99999857 16.19999886 37.7999997 15 35.99999427 15c-1.79999828 0-2.99999713 1.19999886-2.99999713 2.99999714z"/>
      <path fill="rgb(189,189,189)" fill-rule="evenodd" d="M57 27h-3v12c0 1.8-1.2 3-3 3H24v6c0 1.8 1.2 3 3 3h15l12 9v-9h3c1.5 0 3-1.2 3-3V30c0-1.5-1.5-3-3-3z"/>
    </g>
  </g>
</svg>
