<svg xmlns="http://www.w3.org/2000/svg" xmlns:xlink="http://www.w3.org/1999/xlink" width="40" height="40" viewBox="0 0 40 40">
  <defs>
    <path id="path-1" fill-rule="evenodd" d="M36.62322998 14.06451416l-2.95422363 4.643219 5.8071289 9.0342102-4.3251953 6.72839355c.61743163.59869385.97808837 1.41998291.97808837 2.30386353C36.12902832 38.55291748 34.6819458 40 32.90319824 40c-1.55804443 0-2.8605957-1.11032104-3.16064453-2.58065796h-4.05480957c-.26708984.74905396-.97680664 1.29034424-1.81677246 1.29034424-1.06707764 0-1.93548584-.8684082-1.93548584-1.93548584 0-.42904663.1586914-.83743286.4154663-1.17163086l-4.63867187-7.21548462H9.36065674l-3.49938965 4.81097412c.3729248.44967652.59033203 1.03097534.59033203 1.64065552 0 1.42321777-1.15740967 2.58062744-2.58062744 2.58062744-1.42321777 0-2.58062744-1.15740967-2.58062744-2.58062744 0-1.42321777 1.15740967-2.58065796 2.58062744-2.58065796.33099365 0 .64776611.0683899.94384766.18582153l3.43615722-4.72451782-3.86322021-6.00967407c-.3684082.143219-.76000977.22579956-1.16192627.22579956C1.44708252 21.93548584 0 20.4883728 0 18.70968628c0-1.77871704 1.44708252-3.22583008 3.22583008-3.22583008.40124512 0 .79223633.08261109 1.16125488.22647095l2.75164795-4.28063965c-.43743896-.46905518-.68713379-1.09033203-.68713379-1.7522583 0-1.4232483 1.15740967-2.58065796 2.58068848-2.58065796 1.19934082 0 2.20062256.8251648 2.48901367 1.93548584h6.21484375l3.49932861-4.81097412c-.37286377-.44967651-.59033203-1.03097534-.59033203-1.640625C20.6451416 1.15740966 21.80255127 0 23.22583008 0c1.42321777 0 2.58062744 1.15740967 2.58062744 2.58065796 0 1.42321777-1.15740967 2.58062744-2.58062744 2.58062744-.33099365 0-.64776612-.0683899-.9439087-.18579102L18.8458252 9.70001221l5.37738037 8.36450195h8.32580566l2.98321533-4.68774414c-.44061279-.46902466-.69354248-1.09484863-.69354248-1.76385498 0-1.4232483 1.1574707-2.58065796 2.58068848-2.58065796C38.84259033 9.03225708 40 10.18966675 40 11.61291504c0 1.42321777-1.15740967 2.58062744-2.58062744 2.58062744-.27423096 0-.54193115-.04644775-.79614258-.12902832zM23.22583008 1.29034424c.71160888 0 1.2902832.57870483 1.2902832 1.29031372 0 .71160889-.57867432 1.29034424-1.2902832 1.29034424-.27746582 0-.53485108-.0845337-.76324463-.25549317-.32965088-.2341919-.52709961-.62063598-.52709961-1.03485107 0-.71160889.57873535-1.29031372 1.29034424-1.29031372zM9.0322876 8.38711548c.71160888 0 1.2902832.57870483 1.2902832 1.29031372 0 .71160889-.57867432 1.29034424-1.2902832 1.29034424-.24713135 0-.48132324-.06970215-.69805908-.20840454-.37097168-.23675537-.59228516-.64065552-.59228516-1.0819397 0-.71160889.57873535-1.29031372 1.29034424-1.29031372zm8.67999267 1.93548584h-6.190979c-.28839111 1.11032104-1.28967285 1.93548584-2.48901367 1.93548584-.27484131 0-.54516602-.04904175-.80517578-.13613892l-2.75354004 4.28387451c.61743164.59872437.97808838 1.42001343.97808838 2.30386353 0 .88259888-.36004639 1.70388794-.97808838 2.30325317l3.9109497 6.0838623h8.3277588l5.39160156-8.38711547-5.39160157-8.38708496zm20.9973755 1.29031372c0-.71160889-.57867432-1.29031372-1.29028321-1.29031372-.71160889 0-1.29034424.57870483-1.29034424 1.29031372 0 .44451904.22320557.85098267.59613037 1.08709717.2064209.13485717.44384766.20324707.69421387.20324707.71160889 0 1.2902832-.57873535 1.2902832-1.29034424zM9.0322876 15.48388672h5.16131592v1.29031372H9.0322876v-1.29031372zm9.03222656 0h-2.58062744v1.29031372h2.58062744v-1.29031372zM3.22583008 16.77420044c-1.06707764 0-1.93548584.86837768-1.93548584 1.93548584 0 1.06710815.8684082 1.93548584 1.93548584 1.93548584.37097168 0 .73162842-.10644531 1.04193115-.30905151.56066895-.35806275.89355469-.9657898.89355469-1.62643433 0-.66064453-.33288574-1.2684021-.88970947-1.62515259-.31414795-.20388794-.6748047-.31033325-1.04577637-.31033325zm5.80645752 1.29034424h9.0322876v1.29031372H9.0322876v-1.29031372zM29.7425537 36.12905884h-4.05480957c-.26708984-.74905396-.97680664-1.29034424-1.81677246-1.29034424-.15228272 0-.29937744.02194214-.44256592.05484009L18.831604 27.74194336l5.39160157-8.38708496h8.32775879l5.39160156 8.38708496-3.87805176 6.03292847c-.36901855-.14389038-.76000977-.22647095-1.16131592-.22647095-1.55737304 0-2.8605957 1.11032104-3.16064453 2.58065796zM12.90325928 20.64517212H9.0322876v1.29031372h3.87097168v-1.29031372zm1.2902832 0h1.29034424v1.29031372h-1.29034424v-1.29031372zm3.87097168 0h-1.29034424v1.29031372h1.29034424v-1.29031372zm5.80645752 3.87097168h5.16131592v1.29031372h-5.16131592V24.5161438zm9.03222656 0H30.3225708v1.29031372h2.58062744V24.5161438zm-9.03222656 2.58065796h9.0322876v1.29031372h-9.0322876v-1.29031372zm3.87097168 2.58062744h-3.87097168v1.29031372h3.87097168V29.6774292zm1.29034424 0h1.29034424v1.29031372H29.0322876V29.6774292zm3.87097168 0h-1.29034424v1.29031372h1.29034424V29.6774292zm-29.0322876 6.45162964c-.71160889 0-1.29034424-.57873535-1.29034424-1.29034424s.57873535-1.29031372 1.29034424-1.29031372c.27740478 0 .53479004.08450317.7631836.25549316.3297119.2341919.5270996.62063599.5270996 1.03482056 0 .71160889-.57867431 1.29034424-1.2902832 1.29034424zm27.09674072.6451416c0 1.06710815.8684082 1.93548584 1.93548584 1.93548584s1.93548584-.86837769 1.93548584-1.93548584c0-.66064453-.33288574-1.2684021-.88970947-1.62515259-.31414795-.20388794-.67480469-.31033325-1.04577637-.31033325-1.06707763 0-1.93548584.86837769-1.93548584 1.93548584zm-7.74188232.00003052c0 .35610962.2890625.6451416.6451416.6451416.35614014 0 .64520264-.28903198.64520264-.6451416 0-.35614014-.2890625-.64517212-.64520264-.64517212-.12835693 0-.24127197.03225708-.33544922.0954895-.19677734.12579346-.30969238.33224487-.30969238.54968262z"/>
    <mask id="mask-2" x="0" y="0" maskContentUnits="userSpaceOnUse" maskUnits="userSpaceOnUse">
      <rect width="40" height="40" x="0" y="0" fill="black"/>
      <use fill="white" xlink:href="#path-1"/>
    </mask>
  </defs>
  <g>
    <use fill="rgb(18,42,136)" xlink:href="#path-1"/>
    <use fill-opacity="0" stroke="rgb(18,42,136)" stroke-linecap="butt" stroke-linejoin="miter" stroke-width="2" mask="url(#mask-2)" xlink:href="#path-1"/>
  </g>
</svg>
