<svg xmlns="http://www.w3.org/2000/svg" width="40" height="40" viewBox="0 0 40 40">
  <g>
    <path fill="rgb(18,42,136)" fill-rule="evenodd" d="M39.42800903 22.765625l-2.60467529-.37011719c-.12387085-.36230469-.27017212-.71679687-.43798828-1.06103515l1.57598877-2.09033203c.19900513-.26367188.1725769-.63330079-.06201172-.86669922l-2.8286438-2.81347657c-.1086731-.10742187-.25152588-.17382812-.40402222-.1875V8.99316406c1.26345826-1.00634765 1.99920655-2.5288086 2-4.13867187.0124817-2.05273438-1.1784668-3.92382813-3.04864502-4.79052735-.20651245-.09716796-.44854736-.08251953-.64144897.0390625-.19290161.12158204-.30984497.33300782-.30987549.5600586v3.71386718l-1.3333435.44238282L30 4.37695312V.66308595c-.00097656-.2265625-.11825562-.43701172-.31100464-.55810547-.19274902-.12060547-.43426514-.1352539-.64031982-.03857422C27.1793518.93310547 25.98858643 2.80273438 26 4.85449219c.00082397 1.60986328.73657227 3.13232422 2 4.13867187v4.4819336h-2c-.33163452 0-.61288452.2421875-.65997314.56884765l-.43133545 3.00341797 1.3199768.1875.34933472-2.43359375h2.84399414l.34933472 2.43359375c.0371704.2578125.22225952.46972656.47332763.54248047.55566407.15966797 1.09216309.37939453 1.6000061.65478516.2294922.125.51135255.10498047.72067261-.05126953l1.97399903-1.47216797 2.01065063 2-1.48330688 1.96386718c-.1571045.20800782-.17715454.48828125-.05136109.71679688.27682496.50488281.49746705 1.03857422.65802002 1.5913086.07318116.25.286438.43408202.5453186.47070312l2.4466858.34765625V26.828125l-2.4466858.34716797c-.2588806.03710937-.47213744.2211914-.5453186.4711914-.16055297.55273438-.38119506 1.08642579-.65802002 1.5913086-.12579345.22851562-.1057434.50878906.05136109.71679687l1.47998047 1.9638672-2.01065064 2-1.97265625-1.47753907c-.20935058-.15625-.49121094-.17626953-.7206726-.05126953-.50784302.27539062-1.04434205.49511718-1.6000061.65478515-.25109864.07275391-.43618775.28466797-.47332765.54248047l-.34735107 2.4350586h-2.75531006v-2.8046875c-.00048828-.7006836-.10150146-1.39746094-.3000183-2.06982422 2.60931396.7602539 5.40838622-.29785156 6.85235595-2.58935547 1.44396972-2.2915039 1.18096924-5.25830078-.64382935-7.2631836-1.8248291-2.00439453-4.76678467-2.55859374-7.20214843-1.3564453-2.4353943 1.20214843-3.77072144 3.86816406-3.26904297 6.52636718-.01599121-.00683594-.03131104-.01464844-.04733277-.0209961l-5.38998413-2.14453124v-1.01904297c.89083862-.45361328 1.67990112-1.08203125 2.31933594-1.84765625H20.666687c1.10455322 0 2-.890625 2-1.98925781v-1.4482422C23.46292114 17.71484376 23.996521 16.96777345 24 16.12744142v-1.98925782c-.003479-.83984375-.53707886-1.58740234-1.33331299-1.8671875v-.78515625c0-5.1274414-4.17868042-9.28417968-9.3333435-9.28417968-5.15463257 0-9.333313 4.15673828-9.333313 9.28417968v.78515625c-.79623412.27978516-1.32983398 1.02734375-1.3333435 1.8671875v1.98925782c0 1.09912109.89544678 1.98974609 2 1.98974609h1.3333435c.04266358 0 .0840149-.00683594.12600709-.00927734.41540527 2.22802734 1.8463745 4.13867187 3.87399292 5.17236328v1.01904297l-5.38998413 2.14453125C1.81942749 27.5439453-.00961304 30.2314453.00003052 33.21728516v6.12011718c0 .36621094.29849243.66308594.666687.66308594H26c.36819458 0 .66668701-.296875.66668701-.66308594v-1.9892578H30c.33166504 0 .61291504-.24267579.66000366-.56933595l.37200928-2.5908203c.3642273-.12304688.72045898-.2685547 1.06665039-.43554688l2.10134888 1.56787109c.26541137.1977539.63674926.17138672.87133789-.06201172l2.8286438-2.81347656c.23458862-.23339844.26101684-.60253906.06201172-.86669922l-1.5760193-2.09033203c.16784669-.34423828.31414796-.69873047.4380188-1.06103516l2.60464478-.37011719c.3277893-.046875.57110596-.32617187.5713501-.65576171v-3.97851563c.00003052-.33007812-.24371338-.60986328-.57199097-.65673828zm-7.3333435-5.69482422c-.03131104-.015625-.0666504-.02539062-.09799195-.04003906v-8.1977539h-1.32998657v5.25878905l-.00668335-.04785156c-.04708862-.32666015-.32833862-.56884765-.65997314-.56884765h-.66668701V8.66064453c.00003051-.21728516-.10681153-.42041016-.28598023-.5444336-1.00402832-.6953125-1.63296509-1.8095703-1.70718384-3.02392577-.07418823-1.21484375.41452027-2.39648438 1.32650757-3.20751954V4.8544922c-.00006103.28515625.18362427.5390625.45599365.62890625l2 .66357422c.13674927.04492187.28457642.04492187.42132569 0l2-.66357422c.27236938-.08984375.4560852-.34375.45599365-.62890625V1.88476562c.91278076.81103516 1.40197754 1.99316407 1.32775879 3.2084961-.07418823 1.21533203-.70367432 2.32958984-1.70840454 3.02490234-.17861939.12353516-.28536988.32617188-.28601074.54248047v7.48876953l-1.23867798.92138672zM21.3333435 11.48535156c-.00476075-4.39257812-3.5836792-7.95263672-7.99996949-7.95751953-4.41629028.00488281-7.99520874 3.5649414-8 7.95751953v.66308594h.6666565c0-4.02832031 3.28326416-7.2944336 7.3333435-7.2944336 4.05007935 0 7.333313 3.26611329 7.333313 7.2944336h.66665649v-.66308594zm-3.59997559.53076172c.37872314.5.97085571.7944336 1.6000061.79589844v-.66308594c0-3.29638672-2.68630981-5.96826172-6-5.96826172-3.3137207 0-6 2.671875-6 5.96826172v.66308594h3.9333191c.756073-.0024414 1.48901367-.25976563 2.0793457-.72949219l2.2373352-1.77783203c.14135743-.11132813.32165528-.1616211.50067139-.14013672.17895508.02294922.34106445.11669922.4493103.2602539l1.20001221 1.5913086zM7.33334351 14.1381836v2.65283203c-.00216675 2.29833985 1.3241272 4.3935547 3.40896606 5.38476563 2.08480835.99121094 4.55682373.70214844 6.35369873-.74316406h-3.7626648V20.1064453h4.98532105c.66247559-.97998047 1.01574707-2.13476562 1.01467896-3.31542969V14.1381836c-1.04858399-.0024414-2.03543091-.49316406-2.6666565-1.32617187l-.78466797-1.0444336-1.7006836 1.35351563c-.82791137.65722656-1.8554077 1.015625-2.91464232 1.01708984H7.3333435zM4.666687 16.79101562c-.36819458 0-.6666565-.29736328-.6666565-.66357421v-1.98925782c0-.36621093.29846192-.66308593.6666565-.66308593h1.3333435v3.31591797h-1.3333435zm18-.66357421c0 .36621093-.29849243.66357422-.6666565.66357422h-1.3333435v-3.31591797h1.3333435c.36816407 0 .6666565.296875.6666565.66308593v1.98925782zm-2 3.97851562h-.80932617c.32489014-.62939453.55511475-1.30273437.6833191-1.99853515.0420227 0 .0833435.00927734.12600707.00927734h.66668701v1.32617187c0 .36621094-.29849243.66308594-.666687.66308594zm6.16210938.75341797c-2.07260132.546875-3.51055909 2.4194336-3.49545288 4.5522461-.0006714.70507812.16415405 1.4008789.48132324 2.03173827.69024658.52734376 1.27978515 1.17333985 1.74066162 1.90771485 1.82199097 1.12451172 4.17810059.87988281 5.72729492-.59472656 1.54919434-1.47460938 1.89868164-3.80517578.84957886-5.66503907-1.04910278-1.86035156-3.23083496-2.7783203-5.30340576-2.23193359zM13.3333435 24.08544922c.67660522-.00195313 1.3496704-.09716797 2-.28271485v.94580079c0 1.0986328-.89544678 1.9892578-2 1.9892578-1.10458374 0-2-.890625-2-1.9892578v-.94580078c.65029907.18554687 1.32339477.28076171 2 .28271484zm8 14.58886719h3.99996948v-5.45703125c.00796509-2.4428711-1.48861695-4.64208985-3.77197266-5.5419922l-5.04199219-2.00585937c-.40454101 1.4169922-1.70532226 2.39453125-3.18600463 2.39453125-1.48068238 0-2.78146363-.97753906-3.18600464-2.39453125l-5.04199219 2.00585938c-2.28335571.89990234-3.77993774 3.0991211-3.77200317 5.54199219v5.45703125h4v-7.2944336H6.666687v7.2944336H20v-7.2944336h1.3333435v7.2944336z"/>
    <path fill="rgb(18,42,136)" fill-rule="evenodd" d="M9.3333435 16.79052734v-1.32617187h1.33334351v1.32617187h-1.3333435zm6.66668702 0v-1.32617187H18v1.32617187h-1.99996948zm12.6666565.66308594H27.3333435v-1.32617187h1.3333435v1.32617187zm5.45877074 2.80273438l-.93780517-.93798828.94281006-.9428711.93780517.93798828-.94281006.9428711zM36 26.07421875v-1.32617188h1.3333435v1.32617188H36zm-1.87490845 6.37353516l-.93780517-.93798829.94281006-.94287109.93780517.93798828-.94281006.9428711zm-6.79174804 2.24755859v-1.32617188h1.3333435v1.32617188h-1.3333435z"/>
  </g>
</svg>
