<svg xmlns="http://www.w3.org/2000/svg" xmlns:xlink="http://www.w3.org/1999/xlink" width="37" height="37" viewBox="0 0 37 37">
  <defs>
    <rect id="rect-1" width="37" height="37" x="0" y="0"/>
    <mask id="mask-2" maskContentUnits="userSpaceOnUse" maskUnits="userSpaceOnUse">
      <rect width="37" height="37" x="0" y="0" fill="black"/>
      <use fill="white" xlink:href="#rect-1"/>
    </mask>
  </defs>
  <g>
    <use fill="none" xlink:href="#rect-1"/>
    <g mask="url(#mask-2)">
      <path fill="rgb(18,42,136)" fill-rule="evenodd" d="M37.61114502 19.60331726h1.80126953c.32434082 0 .58737183.26281738.58737183.58737183v13.50785827c0 .32434082-.263031.5871582-.58737183.5871582H25.71429443v-.95237731h2.53933716l.0635376-7.85713196c0-.3241272.26306152-.5871582.58737183-.5871582h4.69836425c.32434082 0 .58758545.263031.58758545.5871582v7.63497925h4.63433838V20.7780609h-9.98382568c-.32434082 0-.58737183-.26281738-.58737183-.58737182v-2.88868714l-4.9185791 3.93481446c-.1043396.0832367-.23379517.12882995-.36715698.12882995-.32455445 0-.5871582-.26324463-.5871582-.58758545v-3.47605896l-4.9185791 3.93481446c-.10430909.0832367-.23376466.12882995-.36712647.12882995-.32455445-.00042724-.5871582-.26324463-.5871582-.58779907v-3.47605896l-4.9185791 3.93481445c-.10430909.08345032-.2340088.12904358-.3673401.12904358-.32434081-.00042724-.5871582-.26324463-.5871582-.58779907v-3.661026l-4.9205017 2.81900024v1.01655579h-.95239258v-1.34906006c0-.20625305.10818481-.3970337.28475952-.50328064l5.87307739-3.52380371c.09143066-.05485535.19573975-.08387756.3026123-.08387756.3241272 0 .5871582.263031.58737183.5871582v3.47627258l4.9185791-3.93481445c.10388184-.08345032.23358154-.12905884.36715698-.12884522.32434082 0 .5871582.2632599.5871582.58738709v3.47627258l4.9185791-3.93481445c.10409547-.08345032.23355103-.12905884.36712647-.12884522.32434082 0 .5871582.2632599.5871582.58738709v3.47627258l4.9185791-3.93481445c.10409547-.08345032.23358155-.12905884.3673401-.12882996.3241272 0 .5871582.26324463.5871582.58737183v3.52380371h1.21368408l1.13516236-16.4842987c.02130126-.30863953.27789306-.5478058.58737182-.54737855h3.52383423c.30947876-.00042724.56607056.23873902.58737183.54737854l1.13516235 16.48429871zM4.76190186 33.69854736v.5871582h.58737182c-.32434082 0-.58737182-.26281738-.58737182-.5871582zM35.34017944 3.74617004h-2.42694091l-1.09387207 15.85714722h4.61468505L35.34017944 3.74617004zM29.49169922 33.1111908v-7.04762268h3.52380371v7.04762268h-3.52380371z"/>
      <path fill="rgb(18,42,136)" fill-rule="evenodd" d="M22.372204 22.4411592l4.14431618 7.12714786c.30226935.51984514.13375419 1.1896188-.37641253 1.49727958l-1.00783575.60843331c-.52562895.3171939-1.15280878.35397484-1.70238676.12413388l-.64964658.38671585c.15688942.18970307.27117048.41432698.33331008.66178094.10864258.43250675.04545666.88214693-.17784482 1.26623245-.41524251.71403867-1.27455938.99814279-2.00982956.70418585-.02368746.2321661-.09570894.462879-.21993002.67645845-.37859235.65104166-1.12624395.94460623-1.81225004.76888311-.01781646.2496338-.09100052.49874442-.22452219.72839646-.46104794.79277402-1.46905808 1.05570476-2.24734351.5860683l-.00267392-.00164214c-.02679734.22766113-.10012672.44917515-.21830241.65243675-.46218146.79508464-1.46789551 1.05663481-2.24737258.58601016l-1.178647-.7113938c-.54536365.66494896-1.51216053.79879033-2.21403576.28555733-.2687872-.19663493-.46145485-.46155657-.57230632-.75491769-.5065918.22045317-1.11456008.17909459-1.60353887-.1785133-.36385673-.2661714-.5885533-.65713065-.65894718-1.07490176-.44320242.07113502-.8690825-.04273914-1.21099562-.29283796-.36403111-.26637486-.58884394-.65766834-.65906343-1.07574463-.4424177.07078625-.87024508-.0429426-1.21079218-.29198056-.7364037-.53857713-.90433757-1.58171154-.37580218-2.33187721l.4435512-.62941778-.2100772-.12629918c-.31133742.20536877-.67545572.31440371-1.04474748.31440371-.33118839 0-.66641672-.08752732-.97141811-.27166457l-1.00801014-.60844785c-.51016671-.3078497-.67821684-.97775413-.37618001-1.49727957l4.14443243-7.12720599c.30142648-.51846459.96069336-.69035121 1.46955218-.38328625l1.00801013.60843332c.7045201.42524065 1.03719076 1.23183477.9119815 1.99616932l.25658017.1540847c.40225074.2428182.88187081.28345017 1.31716773.1120867l.94020299-.37032354c1.05474563-.41570754 1.65198916-.24421328 2.64555431.3321475.15351795-.05359467.10195778-.03156389 1.79882232-.47174362.73372977-.18906366 1.25494094.0373477 1.79518926.27204241.19557408.08495513.39361863.17100016.60514904.23880732.34287226.13503301.71524484.13702392 1.05489096.01164027-.26867095-.84696452.06208147-1.8027024.8445231-2.27496919l1.0080392-.60850598c.51031204-.30799502 1.16763161-.13623918 1.46963938.38341704zm2.26152693 8.37552025l1.00806827-.60850597c.04504976-.02718971.05978539-.08601597.03304618-.1319958l-4.14428711-7.1272205c-.02729144-.04683723-.08553641-.06046841-.12956892-.03380186l-1.00798107.60837519c-.44398717.26816231-.59055874.85119338-.32749721 1.30362374l.58146159.99993025c.13761974.23680187.06086077.54247175-.17156692.68273635-.2323405.14020647-.53237189.06212507-.67010789-.1748076l-.2952067-.50773984c-.59134348.25732132-1.25755674.27220227-1.87026251.0307065-.26750837-.09225028-.48456102-.18599737-.67356655-.26763916-.43454125-.18771217-.72088332-.31139555-1.13167899-.20563035l-1.62452334.41887556c-.52711124.13597761-.9168643.62293643-.9168643 1.20015462v2.20953079c0 .037711.02973283.06840297.0662958.06840297h.00078474c.31619117 0 .6134905-.12544178.83714076-.35310291.35577683-.36237444.34865606-.81061954.34688314-.92227028-.00020345-.01312256-.00034877-.02159482.00020345-.02473377 0-.38574218.41277204-.6250436.73829287-.4287429l6.6447812 4.00918143c.07969448-.06251744.16299294-.1200794.2496338-.17235166l.42852492-.2550543c-.03258115-.04625592-.06408691-.09368896-.0931222-.14357793l-1.54139928-2.6509167c-.13759068-.23680186-.0608317-.54247174.17156692-.68273634.23222423-.14013381.53237188-.06199428.67010788.17479306l1.54139928 2.65085856c.26236398.4512242.8362979.60096378 1.2794422.33365885zm-22.65648251-.6085205l1.00801014.60850597c.4431443.26736305 1.01707821.11776879 1.27955845-.33373151l3.28857422-5.6556629c.26053292-.44799805.12041364-1.0332816-.32746815-1.30368188l-1.00792294-.60837518c-.04455566-.0270008-.10280064-.01211984-.12951079.03374372l-4.14440337 7.12733678c-.0265067.0456601-.01162574.10480608.03316244.131865zm20.11701311 3.39678083c-.1860991.3200422-.59288388.42617071-.90706961.23661295l-4.32948521-2.61333647c-.23248582-.1402646-.53243002-.06212507-.6701079.17466227-.13767787.23680188-.06097702.54248629.17145067.68275089l3.27311198 1.975708c.31430199.18968855.41913714.60288203.23228236.92430479-.18615722.32017299-.59314546.42609805-.90718587.23667108l-3.2748849-1.97676886c-.23254395-.1402646-.53243002-.06212507-.67010789.1746768-.13767787.23678735-.06097703.54247176.1714216.68273636l2.41173153 1.45573207.00052316.00033424c.31441825.1902117.41820708.60321626.23175921.92397054-.1861863.320173-.5930292.42622884-.90727307.23659843l-1.29429408-.78119187-.00084287-.00046503-.94453357-.57019915c-.23248582-.14032273-.53245908-.0621832-.67010789.1746768-.13767787.23680187-.06097703.54247175.1714216.68273635l.94473702.57027181.0004069.00026158c.31424387.18963042.41904995.60275123.23222424.924174-.18618629.32017298-.5930292.42622883-.90727306.23659842l-1.10209148-.66513789c.47244118-.74275425.29273624-1.74367268-.42035784-2.2651745-.20940871-.15311105-.44262114-.24845668-.68115234-.28940836.25300526-.6892177.03487723-1.49390811-.57936895-1.94315593-.36365328-.26611328-.79909552-.35801479-1.21000744-.29237293-.07312593-.43568929-.30697778-.81731887-.65979004-1.07529413-.6635684-.4851859-1.56529018-.39194743-2.12227958.18214634-.11320568-.20252046-.26942662-.3842163-.4671224-.52878243-.55137997-.40319534-1.26729329-.4069737-1.81315104-.06735666l-.22411528-.13477143 3.07617188-5.29038203.14642624.08800689c.64679827.39036342 1.43607004.47174363 2.16756185.18354143l.94017392-.37032354c.53803944-.21185012.83472843-.22568476 1.36692592.0301688-.3482201.3985741-.55492582.92186338-.55492582 1.48584275v2.20953079c0 .58686756.46828497 1.06464204 1.04384649 1.06503441h.00142415c.57730539 0 1.12019857-.2289981 1.52861096-.64483643.23806617-.2424113.4137893-.53142729.51911854-.84689185.63153948.38103376 5.84920247 3.5290382 6.454119 3.89420282.15215192.09182884.26009696.23851667.30392601.41304815.04382906.17434257.01831055.35583496-.0718471.51084973zm-16.8786621.30434745c-.29703777-.21727063-.36496118-.63820976-.15157064-.9409732l.6519136-.92523484c.20769391-.2947562.62154133-.3754098.92357816-.1544916.29645648.21682012.36443802.63887823.1516869.94091506l-.65197173.92523484c-.21280924.30216762-.62732515.37123907-.9236363.15454974zm1.71828496.42676653c-.21280924.30196417-.1448277.72415306.15162877.94104585.29715402.21740141.71036203.14814104.92349098-.15456427l1.37145996-1.9463966c.10312035-.14629546.1441011-.3247361.1154727-.50252278-.02857026-.17771403-.12352353-.33332462-.26704334-.43839228-.1137579-.08316767-.2473377-.12670608-.38463774-.12670608-.0360398 0-.0723412.0029791-.10855539.00906808-.17444428.02910796-.32723563.12583415-.43035598.2721296L7.585798 33.41087706l-.6519136.9251767zm2.02157157 2.30871291c-.29631115-.21674746-.36437988-.63861665-.15197754-.94058082l.00026158-.00039237 1.37145996-1.94633847c.21269299-.3019787.62726702-.37131173.92357817-.15456427.29642741.21682013.36443802.6389509.15162877.94098772l-.6093343.86482457-.76212566 1.08157204c-.21280924.30203683-.62697638.37144252-.92349098.1544916zm2.0237514-.00701904c-.21228609.30203683-.14415923.72368803.1520938.94045003.29631114.21687826.71076892.14754523.92349097-.15456427l.45607794-.64714704c.21280925-.30203683.14474051-.72422572-.15162877-.94097319-.29634021-.21668934-.71082705-.14761788-.92357817.1544916l-.45645577.64774287z"/>
      <path fill="rgb(18,42,136)" fill-rule="evenodd" d="M25.29693604.6641388c-.16452027-.17787171-.3574524-.32713318-.5710144-.44155884-.32434083-.00106812-.58651734-.2651825-.58544923-.5893097.00106812-.32453918.26519776-.58650207.58932495-.58543396.53552246.07032776 1.02416993.34089661 1.36743164.75772095.15466309.16453552.33273316.3047638.52844239.4170227.20928955-.12086486.39962768-.2720642.56436157-.44885253.3258667-.3970337.78955078-.65641785 1.29864502-.72589112.5520935.07032776 1.0562439.3488617 1.4093933.77900696.14666749.15420532.31271363.28842163.49468995.39854431.12408447-.00280761.45098877-.30993652.64608765-.49382019.30108642-.3733673.73339843-.6177063 1.2084961-.68373108.64093017-.01182556 1.2364807.3307953 1.54833983.8910675.19076539.2755127.21356202.28367616.33120728.28367616.3241272 0 .5871582.26283264.5871582.58738708 0 .32411194-.263031.5871582-.5871582.5871582-.54498291-.00538635-1.04312134-.30885315-1.29797363-.79040527-.19400025-.27960205-.26626587-.38414001-.58157349-.38414001-.04214477.025177-.26000976.23013305-.40390015.36520385-.37145996.44692994-.89859008.73620606-1.47543335.80934143-.49942016-.06625366-.95449829-.32154846-1.27130126-.71362304-.17034913-.15916443-.48693848-.4555359-.6078186-.46092224-.1808777.11721801-.34713746.25508117-.49575807.41101074-.34735107.42155456-.8420105.69448852-1.38378906.76353454-.5142517-.0699005-.98312378-.33143615-1.31240844-.73298645z"/>
    </g>
  </g>
</svg>
