<svg xmlns="http://www.w3.org/2000/svg" xmlns:xlink="http://www.w3.org/1999/xlink" width="40" height="40" viewBox="0 0 40 40">
  <defs>
    <rect id="rect-1" width="40" height="40" x="0" y="0"/>
    <mask id="mask-2" maskContentUnits="userSpaceOnUse" maskUnits="userSpaceOnUse">
      <rect width="40" height="40" x="0" y="0" fill="black"/>
      <use fill="white" xlink:href="#rect-1"/>
    </mask>
    <path id="path-3" fill-rule="evenodd" d="M39.79179624 38.08296919l-9.14499998-13.71750116c-.229218-.34374953-.61273336-.5490613-1.0259366-.5490613-.41328192 0-.79679728.20531177-1.02601528.5490613l-1.19593859 1.79390668-5.51874876-8.27812433V10.2317965h4.00523424s.00078202 3.35859418.00211 3.38703156c.04718781 1.00382805.8882022 1.79007768 1.91468716 1.79007768h7.9082036c.44460774 0 .84327937-.22953033 1.06648446-.61414003.2232027-.38453102.22476434-.84468722.00413894-1.2307036l-1.8517971-3.24070214c-.01070261-.01867295-.01070261-.04187584 0-.06062508l1.8517971-3.24062526c.2206254-.38601578.21906376-.84617198-.00413894-1.2307036-.2232051-.3846091-.62187672-.61414062-1.06648445-.61414062h-6.0645318V3.17445308c0-1.03679687-.84343911-1.88015625-1.880157-1.88015625H21.8802357v-.0611718C21.88015703.553125 21.3270307 0 20.64711098 0h-1.2942195c-.6799221 0-1.23312592.553125-1.23312592 1.23304687v2.18624987c0 .323672.26234388.5859375.5859375.5859375.3235948 0 .5859375-.2622655.5859375-.5859375V1.23304687c0-.03375.02750039-.06117187.06125092-.06117187h1.2942195c.03374815 0 .06117105.02750002.06117105.06117187v15.04117169c-.20437479-.14351487-.45054674-.22351503-.708282-.22351503-.25773405 0-.50398349.07992148-.70835947.22351503V5.76312482c0-.3236717-.2623427-.5859375-.5859375-.5859375-.32359362 0-.5859375.2622658-.5859375.5859375v12.11812556l-5.51874995 8.27812433-1.1959374-1.79390668c-.229218-.3438282-.61273456-.5490613-1.0259366-.5490613-.41320384 0-.7967198.2052331-1.0259384.5490613L.20820312 38.08296919c-.25273437.37914038-.27617187.86414099-.06125 1.26578092C.36195312 39.75046873.77851567 40 1.23414058 40h7.23976538c.32359361 0 .5859375-.2622652.5859375-.5859375s-.26234389-.5859375-.5859375-.5859375H5.56359354l8.36632908-12.54953146 3.41960907-1.70976639 2.29890585 1.72414065c.20835995.15625.49484491.15632867.703125 0l2.29882955-1.72406197 3.41976404 1.70984507 8.366251 12.5493741H10.83984379c-.32359362 0-.5859375.2622652-.5859375.5859375S10.51625017 40 10.83984379 40h27.92601585c.45562506 0 .87210894-.24953127 1.08711004-.65124989.21499634-.40171861.1915598-.88664054-.06117344-1.26578092zM27.76562694 2.46609375c.39054633 0 .70827961.31773433.70827961.70828125v6.02445334c-.21874904-.0892967-.45781135-.13898432-.7082796-.13898432h-5.88546992V2.46609375h5.88546991zm7.99773217 3.91343728c-.01773358-.03054679-.04241944-.03054679-.05296707-.03054679h-6.06461049v4.59109306c0 1.03672028-.84335804 1.880157-1.8801546 1.880157-.19546986 0-.37757874.07804632-.5125785.21960974-.13492345.14132738-.20414113.32742142-.19492149.52382707.01742125.3712511.35125018.67328215.74406147.67328215h7.9082036c.01054764 0 .0352335 0 .05296708-.03054738.01762628-.03027678.005548-.051682.00033378-.06092072l-.00009775-.00017285-1.8517971-3.24062467c-.21570444-.37726521-.21570444-.84617257 0-1.22351587l1.8517971-3.24054718.00011683-.00020504c.00522375-.0092566.01724958-.03057003-.00035286-.06088852zm-7.99773455 3.85226547c.3905487 0 .708282.31773448.708282.7082808 0 .39054752-.3177333.708282-.708282.708282-.24437427 0-.48499823.04898429-.70835829.13999939V10.2317965h.70835829zm-4.91507769 13.12695384c-.19851446-.09937524-.4360938-.07781267-.61367035.05531311l-2.23687648 1.67773247-2.23695278-1.67773247c-.17750025-.1330471-.4150784-.15460968-.61359406-.0553131l-1.90929651.95468759 4.7089839-7.06351519c.00500083-.00750065.01820325-.02734422.05085945-.02734422.03265619 0 .04585981.01984357.05085945.02734422l4.7089839 7.06351519-1.90929652-.9546876zM1.18015621 38.79585981c.01734376.03226519.04210949.03226519.05398437.03226519h2.92109356l7.7416408-11.61250114-1.4667964-2.20015526c-.00500083-.00742197-.01820325-.02726555-.05093813-.02726555-.03281235 0-.04601597.01984358-.05093693.02726555L1.1832032 38.73296738c-.006641.01004219-.0202632.03064155-.003047.06289243zm37.5857821.03226519c.01187564 0 .0365615 0 .05390645-.03226519.01717567-.03232002.00353575-.05294084-.00304699-.06289243L29.6717978 25.0154686c-.00492096-.00750065-.01812458-.02726555-.05085945-.02726555-.03281355 0-.0459385.0197649-.05093813.02726555l-1.4667964 2.20023393 7.741642 11.61242247h2.9210925z"/>
    <mask id="mask-4" x="0" y="0" maskContentUnits="userSpaceOnUse" maskUnits="userSpaceOnUse">
      <rect width="40" height="40" x="0" y="0" fill="black"/>
      <use fill="white" xlink:href="#path-3"/>
    </mask>
  </defs>
  <g>
    <use fill="none" xlink:href="#rect-1"/>
    <g mask="url(#mask-2)">
      <use fill="rgb(18,42,136)" xlink:href="#path-3"/>
      <use fill-opacity="0" stroke="rgb(18,42,136)" stroke-linecap="butt" stroke-linejoin="miter" stroke-width="4" mask="url(#mask-4)" xlink:href="#path-3"/>
    </g>
  </g>
</svg>
