<svg xmlns="http://www.w3.org/2000/svg" width="37" height="37" viewBox="0 0 37 37">
  <g>
    <path fill="rgb(0,0,0)" fill-rule="evenodd" d="M15.41666667 6.16666563h6.16666666v1.23333333h-6.16666666V6.16666563z"/>
    <path fill="rgb(0,0,0)" fill-rule="evenodd" d="M15.41666667 8.6333323h6.16666666v1.23333333h-6.16666666V8.6333323z"/>
    <path fill="rgb(0,0,0)" fill-rule="evenodd" d="M33.91668701 27.1333313v4.9333191c0 .2738037-.18066406.51492309-.44403076.59201049l-14.7999878 4.3166809C18.6159668 36.99197389 18.55859376 37 18.5 37s-.11590576-.00802612-.17266846-.0246582L3.52734375 32.65866089c-.26330566-.0770874-.44400024-.31820679-.44400024-.5920105v-4.9333191c0-.2738037.18069458-.51492309.44400024-.59201049l14.35601807-4.1871643v-7.5541687h-4.31671143c-.34100342 0-.61663818-.27624512-.61663818-.6166687V.6166687c0-.34039307.27563476-.6166687.61663818-.6166687h6.16668701c.1640625 0 .32067871.0647583.43597412.18069458l3.70001221 3.69998169c.11590576.11532593.18066406.272583.18066406.43600464v9.86663818c0 .34042359-.27563476.6166687-.61663818.6166687h-4.3166504v7.5541687l14.35595704 4.18716431c.2633667.0770874.44403076.31820679.44403076.5920105zM14.18334961 1.2333374h4.9333496v3.0833435c0 .34039307.27563477.6166687.6166382.6166687h3.08337402v8.6333313H14.1833496V1.2333374zm7.76135254 2.46664429l-1.59472656-1.59469605V3.6999817h1.59472656zm-4.06134033 23.17803955v-3.23934936L5.90213012 27.1333313 18.5 30.80743408l12.5979004-3.67410278-11.98120118-3.49465942v3.23934936l1.41400146-1.41400146.87194825.87194824-2.4666748 2.4666748c-.12023927.12023926-.27807618.18066406-.43597413.18066406-.15783691 0-.31573486-.0604248-.43597412-.18066406l-2.4666748-2.4666748.87200927-.87194824 1.41400147 1.41400146zM4.3166809 27.95535278l13.5666809 3.95715332v3.64880371L4.31668092 31.6041565v-3.6488037zm14.79995727 3.95715332v3.64880371l13.5666504-3.95715332v-3.6488037l-13.5666504 3.95715331z"/>
    <path fill="rgb(0,0,0)" fill-rule="evenodd" d="M15.41666667 3.69999896h2.46666666V4.9333323h-2.46666666V3.69999896z"/>
    <path fill="rgb(0,0,0)" fill-rule="evenodd" d="M.6166687 14.7999878h4.3166504c0 1.70016479 1.38320922 3.0833435 3.0833435 3.0833435h1.8500061c1.0199585 0 1.8500061.8300476 1.8500061 1.8500061v.97802735l-1.41403198-1.41400147-.87194824.87194824 2.46664429 2.4666748c.12026977.12023927.2781372.18069459.43600464.18069459.15786743 0 .31573486-.06045532.43597412-.18069458l2.46664428-2.4666748-.87194824-.87194825-1.41400146 1.41400147v-.97802735c0-1.7001648-1.38320923-3.0833435-3.0833435-3.0833435H8.0166626c-1.0199585 0-1.8500061-.8300171-1.8500061-1.8500061h4.3166809c.34100342 0 .6166687-.27624512.6166687-.6166687V4.3166809c0-.16342162-.0647583-.3206787-.18069458-.43600463L7.21932983.18069458C7.10400391.0647583 6.94735718 0 6.7833252 0H.6166687C.27563477 0 0 .27627563 0 .6166687v13.5666504c0 .34042358.27563477.6166687.6166687.6166687zM6.1666565 1.2333374H1.2333374v12.3333435h8.6333313V4.9333496H6.7833252c-.34100342 0-.6166687-.27627563-.6166687-.6166687V1.2333374zm1.2333374.87194824L8.99468994 3.6999817H7.3999939V2.10528564z"/>
    <path fill="rgb(0,0,0)" fill-rule="evenodd" d="M2.46666667 6.16666563h6.16666666v1.23333333H2.46666667V6.16666563z"/>
    <path fill="rgb(0,0,0)" fill-rule="evenodd" d="M2.46666667 8.6333323h6.16666666v1.23333333H2.46666667V8.6333323z"/>
    <path fill="rgb(0,0,0)" fill-rule="evenodd" d="M2.46666667 11.09999896h6.16666666v1.23333334H2.46666667v-1.23333334z"/>
    <path fill="rgb(0,0,0)" fill-rule="evenodd" d="M2.46666667 3.69999896h2.46666666V4.9333323H2.46666667V3.69999896z"/>
    <path fill="rgb(0,0,0)" fill-rule="evenodd" d="M37 14.1833191V4.3166809c0-.16342162-.0647583-.3206787-.18066406-.43600463L33.11932373.18069458C33.00402832.0647583 32.84741211 0 32.68334961 0H26.5166626c-.34100342 0-.61663819.27627563-.61663819.6166687v13.5666504c0 .34042358.27563477.6166687.61663819.6166687h4.31671142c0 1.019989-.83007812 1.8500061-1.85003662 1.8500061h-1.84997558c-1.70013428 0-3.083313 1.3831787-3.083313 3.0833435v.97802735l-1.4140625-1.41400147-.87194823.87194824 2.4666748 2.4666748c.12023926.12023927.2781372.18069459.43597412.18069459.15789795 0 .31573486-.06045532.43597412-.18069458l2.4666748-2.4666748-.87194823-.87194825-1.4140625 1.41400147v-.97802735c0-1.0199585.83007812-1.8500061 1.85003662-1.8500061h1.84997558c1.70019531 0 3.08337403-1.38317871 3.08337403-3.0833435h4.31665039c.34100341 0 .61663818-.27624512.61663818-.6166687zM27.13336182 1.2333374v12.3333435h8.63336181V4.9333496h-3.08337402c-.34100342 0-.61663818-.27627563-.61663818-.6166687V1.2333374h-4.93334961zm6.16662597.87194824l1.59472657 1.59469605h-1.59472657V2.10528564z"/>
    <path fill="rgb(0,0,0)" fill-rule="evenodd" d="M28.36666667 6.16666563h6.16666666v1.23333333h-6.16666666V6.16666563z"/>
    <path fill="rgb(0,0,0)" fill-rule="evenodd" d="M28.36666667 8.6333323h6.16666666v1.23333333h-6.16666666V8.6333323z"/>
    <path fill="rgb(0,0,0)" fill-rule="evenodd" d="M28.36666667 11.09999896h6.16666666v1.23333334h-6.16666666v-1.23333334z"/>
    <path fill="rgb(0,0,0)" fill-rule="evenodd" d="M28.36666667 3.69999896h2.46666666V4.9333323h-2.46666666V3.69999896z"/>
    <path fill="rgb(0,0,0)" fill-rule="evenodd" d="M15.41666667 11.09999896H16.65v1.23333334h-1.23333333v-1.23333334z"/>
    <path fill="rgb(0,0,0)" fill-rule="evenodd" d="M17.88333333 11.09999896h1.23333334v1.23333334h-1.23333334v-1.23333334z"/>
    <path fill="rgb(0,0,0)" fill-rule="evenodd" d="M20.35 11.09999896h1.23333333v1.23333334H20.35v-1.23333334z"/>
  </g>
</svg>
