<svg xmlns="http://www.w3.org/2000/svg" xmlns:xlink="http://www.w3.org/1999/xlink" width="22" height="22" viewBox="0 0 22 22">
  <defs>
    <rect id="rect-1" width="22" height="22" x="0" y="0"/>
    <mask id="mask-2" maskContentUnits="userSpaceOnUse" maskUnits="userSpaceOnUse">
      <rect width="22" height="22" x="0" y="0" fill="black"/>
      <use fill="white" xlink:href="#rect-1"/>
    </mask>
  </defs>
  <g>
    <use fill="none" xlink:href="#rect-1"/>
    <g mask="url(#mask-2)">
      <path fill="rgb(130,130,130)" fill-rule="evenodd" d="M18.97501908 5.85752191v3.98749638l2.72247756-2.08999447-2.72247756-1.89750191z"/>
      <path fill="rgb(130,130,130)" fill-rule="evenodd" d="M3.02498092 5.85752191L.30250336 7.75502381 3.02498092 9.8450183V5.85752191z"/>
      <path fill="rgb(130,130,130)" fill-rule="evenodd" d="M18.14999008 1.6499939v8.82748413l-7.14996338 5.50003051-7.15001678-5.50003051V1.6499939h14.29998016zM9.07499313 4.4000244h-2.4749794c-.2278099 0-.41251373.18469239-.41251373.4125061 0 .22781373.18470383.41253663.41251373.41253663h2.4749794c.22781372 0 .41251374-.1847229.41251374-.41253662 0-.22781372-.18470002-.4125061-.41251374-.4125061zM6.60001373 6.875h8.80002213c.2278099 0 .41251373.18469238.41251373.4125061s-.18470383.41253662-.41251373.41253662H6.60001373c-.2278099 0-.41251373-.1847229-.41251373-.41253662 0-.22781372.18470383-.4125061.41251373-.4125061zm0 2.47497559c-.2278099 0-.41251373.18469238-.41251373.4125061s.18470383.41253662.41251373.41253662h8.80002213c.2278099 0 .41251373-.1847229.41251373-.41253662 0-.22781372-.18470383-.4125061-.41251373-.4125061H6.60001373z"/>
      <path fill="rgb(130,130,130)" fill-rule="evenodd" d="M0 8.52499408V20.0750217l7.97499276-5.39000237L0 8.52499408z"/>
      <path fill="rgb(130,130,130)" fill-rule="evenodd" d="M14.02500724 14.68501934L22 20.07502171V8.52499408l-7.97499276 6.16002526z"/>
      <path fill="rgb(130,130,130)" fill-rule="evenodd" d="M11.24752428 16.8024902c-.14664596.11001079-.34834996.11001079-.49499592 0l-2.0625181-1.56752218-7.64501302 5.11502803h19.91000552l-7.617484-5.1425044-2.08999448 1.59499855z"/>
    </g>
  </g>
</svg>
