<svg xmlns="http://www.w3.org/2000/svg" xmlns:xlink="http://www.w3.org/1999/xlink" width="40" height="40" viewBox="0 0 40 40">
  <defs>
    <rect id="rect-1" width="40" height="40" x="0" y="0"/>
    <mask id="mask-2" maskContentUnits="userSpaceOnUse" maskUnits="userSpaceOnUse">
      <rect width="40" height="40" x="0" y="0" fill="black"/>
      <use fill="white" xlink:href="#rect-1"/>
    </mask>
  </defs>
  <g>
    <use fill="none" xlink:href="#rect-1"/>
    <g mask="url(#mask-2)">
      <path fill="rgb(18,42,136)" fill-rule="evenodd" d="M38 24.31675246v-8.63348389h-3.59997559c-.30480957-1.07473754-.72399902-2.11151123-1.24981689-3.09184265l2.54748535-2.61849975-5.93988037-6.10510254-2.54748535 2.61849975c-.95446778-.54109192-1.96368408-.97286987-3.0102539-1.28633117V1.49999526h-8.4001465V5.1999922c-1.04565429.31323242-2.05444335.7441101-3.00830077 1.28453064l-2.5477295-2.61895752-5.94006347 6.10510254 2.54772949 2.61804199c-.5269165.98146057-.94659424 2.0189209-1.25158691 3.09455871H2v8.6334839h3.59997559c.30480957 1.07473754.72399902 2.11151122 1.24981689 3.0918579L4.30163574 30.026866l5.94006348 6.10510254 2.54730224-2.61828614c.95495606.54110718 1.96435547.97244263 3.0109253 1.28634644v3.7000122h8.40014648v-3.7000122c1.0456543-.31323242 2.05444336-.7441101 3.00830078-1.2845459l2.54748535 2.61828613 5.94006348-6.1048584-2.54748535-2.61849975c.52648926-.98077393.946167-2.01846314 1.25158691-3.09365845H38zm-4.63665771-.77142334c-.3225708 1.2824707-.81958008 2.51123047-1.4765625 3.65054321l-.24017334.4121399 2.35394287 2.4190979-4.2444458 4.36325073-2.35369873-2.4190979-.40100098.24661255c-1.1083374.67590332-2.30407715 1.1869812-3.55187988 1.51757812l-.44934082.11880493v3.4125061h-6.00030518v-3.4125061l-.44934082-.11968994c-1.24780274-.33129883-2.44360352-.84213257-3.55187988-1.51757812l-.40100098-.2468567-2.35369873 2.42022706-4.24536133-4.36349487 2.35369873-2.4190979-.2399292-.41189576c-.65740967-1.13931274-1.15441894-2.36849975-1.4765625-3.6505432l-.11553955-.46228028h-3.3203125v-6.16651917h3.3203125l.11645508-.4618225c.32232666-1.28250123.81933594-2.51145936 1.4765625-3.65055848l.2401123-.4121399L5.9985962 9.97292618l4.24536133-4.363266 2.35369873 2.41908265.40100098-.2465973c1.10827636-.67591857 2.30407715-1.18696594 3.55187988-1.51757812l.44934082-.11878967V2.73325637h6.00030518v3.41252136l.44934082.11968994c1.24780273.33129883 2.44354248.84211731 3.55187988 1.51757813l.40100098.24682617 2.35369873-2.4202118 4.24536132 4.363266-2.35375976 2.41908264.23999023.4121399c.65759278 1.13909911 1.1548462 2.36805724 1.4765625 3.65055846l.11645508.46182251h3.31939697v6.16697693h-3.3203125l-.11645507.46182251z"/>
      <path fill="rgb(18,42,136)" fill-rule="evenodd" d="M9.80004883 19.98893264C9.80291748 14.20249464 14.36975098 9.51357558 20 9.51673415c4.94140625-.00315857 9.17382813 3.63609314 10.04327393 8.63552856.99053955 5.69702149-2.70001221 11.14065552-8.24328614 12.15893555v.02752686l-.52752685.06549072-.67236328.08694458v-.0263977c-.19799805.01171874-.39752198.01849365-.60009766.01849365-1.01708984.0007019-2.02850342-.15649414-3.00012207-.46633911v.0420227l-.82489014-.34350586h-.00372314l-.3713379-.15716553v-.01422119c-3.65405273-1.6953125-6.00183105-5.4343872-5.99987792-9.55511474zm11.99993896 9.07611084v-4.41293335c2.49127198-.82180786 4.18579102-3.19662476 4.19989014-5.88536072.00262451-.67027283-.10375977-1.33624268-.31420898-1.9703827l-.3125-.93357848-3.81311036 3.92063904-2.22845459-.32789612-.32080078-2.2921753 3.81463623-3.92132568-.90856933-.32067871c-.6171875-.21566772-1.26513672-.32429504-1.91687012-.3213501-3.31213379-.00158691-5.99829102 2.75669861-5.99987793 6.16064453-.0008545 1.6573639.64776611 3.24517823 1.79980469 4.40527344v5.01545715c-4.39300537-2.38522338-6.07324219-7.97834777-3.75292969-12.49360656 2.3203125-4.51524353 7.76293945-6.24194336 12.15594482-3.85717774 4.39300538 2.38476563 6.0734253 7.97836304 3.7529297 12.49360657-1.25817872 2.44754028-3.51696778 4.18734741-6.1558838 4.74084473zm-4.80010986-6.44291687v6.09944152c1.15466309.4166565 2.37921143.58987427 3.60021973.50924683v-5.5425415l.46734619-.10861206c2.17773437-.52371216 3.72174072-2.51417542 3.7324829-4.812912 0-.18043517-.0093994-.36064147-.02789306-.53973388l-2.78961182 2.8673706-3.71209716-.54740905-.53302002-3.81517029 2.79003906-2.8696289c-.17529297-.01919556-.35131836-.02868653-.52734375-.02868653-1.36560059-.00090027-2.66699219.59664917-3.57733154 1.64291382-1.76617432 2.02908325-1.59741211 5.14555359.37701416 6.96054077l.20019531.18518067z"/>
    </g>
  </g>
</svg>
