<svg xmlns="http://www.w3.org/2000/svg" xmlns:xlink="http://www.w3.org/1999/xlink" width="37" height="37" viewBox="0 0 37 37">
  <defs>
    <rect id="rect-1" width="37" height="37" x="0" y="0"/>
    <mask id="mask-2" maskContentUnits="userSpaceOnUse" maskUnits="userSpaceOnUse">
      <rect width="37" height="37" x="0" y="0" fill="black"/>
      <use fill="white" xlink:href="#rect-1"/>
    </mask>
  </defs>
  <g>
    <use fill="none" xlink:href="#rect-1"/>
    <g mask="url(#mask-2)">
      <path fill="rgb(0,0,0)" fill-rule="evenodd" d="M37 30.08496197V6.95108136h-3.4755249V.00000104H5.17712402v1.08609008H32.4383545v2.38946534H1.08605957V1.08609112h2.93249512V.00000104H0V30.0489207h3.4755249v6.95108033H37V31.2435313h-1.08605957v4.6703186H4.56164551V11.51269635h31.35217285v18.57226562H37zM3.4755249 6.95108136v22.01174927H1.08605957V4.56161603h31.35223389v2.38946533H3.4755249zm1.0861206 1.08609009v2.38946533h31.3522339V8.03717145H4.5616455z"/>
      <rect width="1.158" height="1.086" x="2.86" y="1.738" fill="rgb(0,0,0)" rx="0" ry="0"/>
      <rect width="1.158" height="1.086" x="5.177" y="1.738" fill="rgb(0,0,0)" rx="0" ry="0"/>
      <rect width="1.158" height="1.086" x="7.494" y="1.738" fill="rgb(0,0,0)" rx="0" ry="0"/>
      <rect width="1.158" height="1.086" x="29.506" y="1.738" fill="rgb(0,0,0)" rx="0" ry="0"/>
      <path fill="rgb(0,0,0)" fill-rule="evenodd" d="M31.24360937 12.74360938v1.08615234h2.35325782v2.35318555h1.08608008v-3.4393379h-3.4393379z"/>
      <path fill="rgb(0,0,0)" fill-rule="evenodd" d="M6.87867578 33.59686719v-2.35325781H5.7925957v3.43933789h3.4393379v-1.08608008H6.87867577z"/>
      <rect width="1.086" height="1.158" x="33.597" y="21.396" fill="rgb(0,0,0)" rx="0" ry="0"/>
      <rect width="1.086" height="2.896" x="33.597" y="17.342" fill="rgb(0,0,0)" rx="0" ry="0"/>
      <rect width="1.086" height="1.158" x="5.793" y="24.872" fill="rgb(0,0,0)" rx="0" ry="0"/>
      <rect width="1.086" height="2.896" x="5.793" y="27.189" fill="rgb(0,0,0)" rx="0" ry="0"/>
      <rect width="1.158" height="1.086" x="6.336" y="8.689" fill="rgb(0,0,0)" rx="0" ry="0"/>
      <rect width="1.158" height="1.086" x="8.653" y="8.689" fill="rgb(0,0,0)" rx="0" ry="0"/>
      <rect width="1.158" height="1.086" x="10.97" y="8.689" fill="rgb(0,0,0)" rx="0" ry="0"/>
      <rect width="1.158" height="1.086" x="32.981" y="8.689" fill="rgb(0,0,0)" rx="0" ry="0"/>
      <path fill="rgb(0,0,0)" fill-rule="evenodd" d="M24.07922363 27.68560895l2.26477051-.5914917 1.64453125 1.66564941-.62017822 2.25714111-2.26483154.59133911-1.64453126-1.66555786.62023926-2.25708007zm1.35662842 2.71334838l1.0513916-.27453613.28790283-1.04769897-.76342773-.77331543-1.05133057.27453613-.28796386 1.04779053.76342773.77322387z"/>
      <path fill="rgb(0,0,0)" fill-rule="evenodd" d="M25.74963379 25.2858897l-.02661133-.00006103c-.34350586 0-.68048096.04278565-1.00518799.12509155l-1.9545288-1.97943115 2.71923828-2.68487549 1.78131103-.34448242 3.0098877-2.97192383-3.5914917-3.63735962-3.00982666 2.97192383-.36712647 1.7767334-2.71923828 2.68493652-1.95727539-1.98239135c.35943603-1.34817505.01733398-2.84716797-1.03173828-3.90979004-1.09680176-1.11083985-2.75872803-1.49645996-4.23382569-.98208618l-.81134033.28292846 1.8579712 1.88171387-.46142579.90838623-.91418457.44979859-1.85791015-1.88165284-.2932129.8076172c-.53302001 1.46844481-.16882324 3.1351013.92803956 4.24606322.76300048.7727356 1.78118896 1.20205689 2.86706543 1.20898438l.02661132.00009155c.34344483 0 .68041993-.04278564 1.00512696-.12509155l1.24768066 1.26361084-6.57702637 6.49407959-.00726318 1.16131592 2.4373169 2.46853637 1.16137695.00750733 6.57702637-6.493927 1.24761962 1.2635498c-.08862304.33190918-.13623046.67721558-.1383667 1.02993774-.006958 1.08587647.40942383 2.10949707 1.17242432 2.88223267.79406738.80426025 1.84332276 1.20721436 2.89312744 1.20721436 1.03234864 0 2.06518555-.38980103 2.8560791-1.1706543 1.59515381-1.5750122 1.6116333-4.15411377.03656006-5.74923706-.76275634-.77301026-1.7810669-1.20233155-2.86688232-1.20928955zm-11.04498291-4.11596679l-.01953125-.00006103c-.79571533-.00497437-1.54205322-.31970215-2.10113526-.88598633-.57885742-.5862732-.87927246-1.383667-.85620117-2.1860962l1.08355713 1.09741211 1.94140625-.95520019.9798584-1.92913818-1.08355713-1.09741211c.80352783-.0151062 1.59631348.29779052 2.17510986.88394165 1.15417481 1.16903686 1.14215088 3.05908203-.02679443 4.21331787-.56158447.55456543-1.30407715.85922241-2.0927124.85922241zm9.96496582-3.86340332l2.00305176-1.97769165 2.06530761 2.09173584-2.00305175 1.97769165-1.33459473.2579956-1.0057373-1.01867675.2750244-1.33105469zm-.21948242 2.93319702l-.65106201-.65942383-2.4498291 2.41879273.65112304.65942383 2.44976807-2.41879273zm-3.70507813 5.4447937l-2.43743896-2.46871948-1.51599121-1.53530884c.27581787-.16577148.53399658-.36514282.76885986-.59698486.23693848-.23397827.43829346-.49053955.60546875-.76239014l5.4701538 5.54025269c-.27581786.16571045-.53393554.36514282-.76879882.59698486-.23480225.23181152-.43743896.4874878-.60662842.76132202l-1.515625-1.53515625zm-7.21582031 6.75234986l6.12512207-6.04760743.00177002-.26184082-1.80529785-1.8283081-.26171875-.00158692-6.1251831 6.04769898-.00158692.26159668.52111816.52774048 4.26843262-4.21450806.76312256.77285767-4.26843262 4.21453857.52105713.527771.26159668.00164795zm10.07452393-.99227906c1.1541748 1.16906739 3.04425048 1.1810608 4.21325683.02682495 1.16894531-1.15438842 1.18096924-3.04440307.0269165-4.2133789-.58190917-.58938599-1.35095214-.88467407-2.12030029-.88467407-.7565918 0-1.51342773.2855835-2.09307861.85787963-.56628418.55911255-.88098145 1.3053894-.88604736 2.10110474-.00506592.79580689.30010986 1.54599.85925293 2.11224365z"/>
    </g>
  </g>
</svg>
