<svg xmlns="http://www.w3.org/2000/svg" width="37" height="37" viewBox="0 0 37 37">
  <g>
    <path fill="rgb(0,0,0)" fill-rule="evenodd" d="M33.41937256 20.00982666V8.30709839C35.44061279 8.01586914 37 6.27746582 37 4.17742919 37 1.8744812 35.12609863 0 32.8225708 0c-2.30352783 0-4.1774292 1.8744812-4.1774292 4.1774292H0v23.87097168h17.93365479C18.24395752 33.03503418 22.3885498 37 27.45159912 37 32.71636962 37 37 32.71636963 37 27.45159912c0-3.00714111-1.40063477-5.69021606-3.58062744-7.44177246zM32.8225708 1.19354248c1.64526367 0 2.98382568 1.33856201 2.98382568 2.9838562 0 1.6453247-1.338562 2.98388672-2.98382568 2.98388672-1.6453247 0-2.98388672-1.33856201-2.98388672-2.98388672 0-1.64529419 1.33856201-2.9838562 2.98388672-2.9838562zm-4.00134277 4.1774292H1.19354248V26.8548584h16.7401123c.02508545-.40463257.06982422-.80386353.14379883-1.193573h-1.36779785V18.5h3.58068848v2.65744019c1.75091553-1.99023438 4.30865478-3.25421143 7.16125488-3.25421143 1.74017334 0 3.36761475.47561645 4.77423096 1.29260254V8.30770874c-.70599365-.10205078-1.35412598-.37954712-1.90014649-.78894043l-3.65045166 3.64987183c.11218262.2333374.17962647.4911499.17962647.7668457 0 .98706055-.8032837 1.79031372-1.79034424 1.79031372-.98706055 0-1.79034424-.80325317-1.79034424-1.79031372 0-.2756958.06744385-.5335083.17907715-.76745605l-1.20251465-1.20248414c-.2333374.11218262-.4911499.17962647-.7668457.17962647-.27575684 0-.5335083-.06744385-.76745606-.17904663l-2.99285888 2.99282837c.11224365.2333374.17962646.4911499.17962646.7668457 0 .98709106-.80322265 1.79034424-1.7902832 1.79034424-.98706055 0-1.79034424-.80325318-1.79034424-1.79034424 0-.98706055.8032837-1.79031372 1.79034424-1.79031372.2756958 0 .5335083.06744385.76745605.17904663l2.99279786-2.99282837c-.11218262-.2333374-.17962647-.4911499-.17962647-.76687622 0-.98706055.8032837-1.79031372 1.79034424-1.79031372.98706055 0 1.7902832.80325317 1.7902832 1.79031372 0 .27572632-.06744385.53353882-.17901611.76745606l1.20251465 1.20251464c.2333374-.11221313.4911499-.17962646.7668457-.17962646s.5335083.06741333.76745605.17962646l3.64984131-3.64987182c-.29119873-.38909912-.51800537-.82772827-.6605835-1.30395508zm-7.33734131 2.38708496c-.32885742 0-.59680176.2673645-.59680176.59677124 0 .32943726.26794434.59677124.59680176.59677124.32879639 0 .59674072-.26733398.59674072-.59677124 0-.32940674-.26794433-.59677124-.59674072-.59677124zm3.58062744 3.58065796c.32879639 0 .59674072.2673645.59674072.59677124 0 .32943726-.26794433.59677124-.59674072.59677124-.32885742 0-.59680176-.26733398-.59680176-.59677124 0-.32940674.26794434-.59677124.59680176-.59677124zm-8.3548584 2.38708496c0 .32943726-.26794433.59677124-.59674072.59677124-.32885742 0-.59680176-.26733398-.59680176-.59677124 0-.32940674.26794434-.59677124.59680176-.59677124.32879639 0 .59674072.2673645.59674072.59677124zm10.14520264 7.78848267v-2.38708496c-4.32836914.30792236-7.75805664 3.91900634-7.75805664 8.32440185 0 1.30752564.31030273 2.5416565.84863281 3.64450073l2.07019043-1.19534301c-.3383789-.74835205-.53173828-1.57608033-.53173828-2.44915772 0-3.0888977 2.35968017-5.63653564 5.37097168-5.9373169zm6.03277588 8.3864746l2.07019043 1.19534302c.53833008-1.10284423.84863281-2.3369751.84863281-3.64450073 0-4.4053955-3.42962647-8.0164795-7.75805664-8.32440185v2.38708496c3.01135254.30020141 5.37097168 2.84841919 5.37097168 5.9373169 0 .87307738-.19335938 1.70080566-.53173828 2.4491577zm-13.79089356-7.06161498c-.28582763.515625-.52215576 1.06045532-.70953369 1.62860107h-.48400879v-4.77420044h1.19354248v3.14559937zm3.58068848 4.61248779c0 2.63235473 2.1418457 4.77420044 4.77416992 4.77420044 2.63238525 0 4.77423096-2.1418457 4.77423096-4.77420044 0-2.63238526-2.1418457-4.77420044-4.77423096-4.77420044-2.63232422 0-4.77416992 2.14181518-4.77416992 4.77420044zm4.77416992 8.35482788c-2.87286377 0-5.41156006-1.45791626-6.91540527-3.67315674l2.07855224-1.20010376c1.08496094 1.50268555 2.8460083 2.48617554 4.83685303 2.48617554 1.99084473 0 3.75195313-.98349 4.83685303-2.48617554l2.07855224 1.20010376c-1.50384521 2.21524048-4.0425415 3.67315674-6.91540527 3.67315674z"/>
    <path fill="rgb(0,0,0)" fill-rule="evenodd" d="M23.87097168 27.45162964c0-1.97473145 1.605896-3.58065796 3.58062744-3.58065796 1.97473145 0 3.58068848 1.60592651 3.58068848 3.58065796 0 1.97470093-1.60595703 3.58062744-3.58068848 3.58062744-1.97473144 0-3.58062744-1.60592651-3.58062744-3.58062744zm1.19354248-.00003052c0 1.3164978 1.07061768 2.38711548 2.38708496 2.38711548 1.31646729 0 2.38708496-1.07061768 2.38708496-2.38711548 0-1.31646728-1.07061767-2.38708496-2.38708496-2.38708496-1.31646728 0-2.38708496 1.07061768-2.38708496 2.38708496z"/>
    <path fill="rgb(0,0,0)" fill-rule="evenodd" d="M2.38709677 6.5645151h1.1935484v1.19354838h-1.1935484V6.5645151z"/>
    <path fill="rgb(0,0,0)" fill-rule="evenodd" d="M4.77419355 6.5645151h8.3548387v1.19354838h-8.3548387V6.5645151z"/>
    <path fill="rgb(0,0,0)" fill-rule="evenodd" d="M2.38709677 8.95161187h1.1935484v1.19354839h-1.1935484v-1.1935484z"/>
    <path fill="rgb(0,0,0)" fill-rule="evenodd" d="M4.77419355 8.95161187h8.3548387v1.19354839h-8.3548387v-1.1935484z"/>
    <path fill="rgb(0,0,0)" fill-rule="evenodd" d="M2.38709677 11.33870864h1.1935484v1.19354839h-1.1935484v-1.19354839z"/>
    <path fill="rgb(0,0,0)" fill-rule="evenodd" d="M4.77419355 11.33870864h8.3548387v1.19354839h-8.3548387v-1.19354839z"/>
    <path fill="rgb(0,0,0)" fill-rule="evenodd" d="M2.38709677 13.72580542h1.1935484v1.19354838h-1.1935484v-1.19354838z"/>
    <path fill="rgb(0,0,0)" fill-rule="evenodd" d="M4.77419355 13.72580542h8.3548387v1.19354838h-8.3548387v-1.19354838z"/>
    <path fill="rgb(0,0,0)" fill-rule="evenodd" d="M5.9677124 25.6612854H2.38708496v-5.96774292H5.9677124v5.96774292zm-1.19354248-4.77420044H3.58062744v3.58065796h1.19354248v-3.58065796z"/>
    <path fill="rgb(0,0,0)" fill-rule="evenodd" d="M10.74194336 25.6612854H7.16131592v-4.77420044h3.58062744v4.77420044zm-1.19354248-3.58062744H8.3548584v2.38708496h1.19354248v-2.38708496z"/>
    <path fill="rgb(0,0,0)" fill-rule="evenodd" d="M15.51611328 25.66131592h-3.58062744v-9.54840088h3.58062744v9.54840088zm-1.19354248-8.3548584h-1.19354248v7.1612854h1.19354248v-7.1612854z"/>
  </g>
</svg>
