<svg xmlns="http://www.w3.org/2000/svg" xmlns:xlink="http://www.w3.org/1999/xlink" width="37" height="37" viewBox="0 0 37 37">
  <defs>
    <rect id="rect-1" width="37" height="37" x="0" y="0"/>
    <mask id="mask-2" maskContentUnits="userSpaceOnUse" maskUnits="userSpaceOnUse">
      <rect width="37" height="37" x="0" y="0" fill="black"/>
      <use fill="white" xlink:href="#rect-1"/>
    </mask>
  </defs>
  <g>
    <use fill="none" xlink:href="#rect-1"/>
    <g mask="url(#mask-2)">
      <path fill="rgb(0,0,0)" fill-rule="evenodd" d="M37.00000002 3.608985V.03514167H26.74306893c-.90715985 0-1.67017435.67962518-1.77441327 1.579639l-.92800718 7.95060988h-9.67498955v3.57384333h1.24786655l.92562593 9.25446428c-.64031405-2.24436772-2.70480398-3.89369929-5.15169526-3.89369929-2.55470208 0-4.69364764 1.79764185-5.22853272 4.19331006L1.20378951 12.2874677l-1.0757267.51225124 5.64726807 11.8597964c-2.25628649.6319774-3.91812361 2.70182742-3.91812361 5.15765408 0 .40503576.05003359.8023279.13818853 1.19128111H.89346083L0 32.79537219l2.08474194 4.16947935h31.28482817l2.38256222-23.82561766h1.24786769V9.56539055h-9.15320876l.7445507-5.95640555h8.40865806zM26.64598059 9.56539055l.89346084-7.14768666h8.26927748V1.22642278h-9.06564998c-.30198974 0-.55632715.22634177-.59147109.52654785l-.91132932 7.81241992h1.40571207zm9.16273832 1.1912811v1.19128112h-2.38256222v1.1912811h1.12873912l-.59564055 5.95640556H17.406999l-.59623587-5.95640555h15.42411245v-1.19128111H15.55694004v-1.19128111H35.8087189zm-20.42927996 11.9056628c-.5164207-1.71663379-2.10975874-2.97105447-3.9919828-2.97105447-1.59810395 0-2.9877329.90537165-3.68701535 2.22828972.70285603-.55335058 1.57725661-1.0370086 2.49573424-1.0370086.94885565 0 1.61954659.41277937 2.26879488.81304808.74574246.45864577 1.52245712.92800718 2.91446903.96672527zm4.94262553 1.79406997c0 1.68327807.78148057 3.18608075 1.9989691 4.16948389h-1.54092092c-.35559748-1.5581941-1.39022483-2.85848117-2.77628134-3.57324802l-.47770375-4.76571975h4.7943107c-1.21689322.98340314-1.9983738 2.48620582-1.9983738 4.16948388zm9.53024888 0c0-2.29857759-1.87031098-4.16948388-4.16948389-4.16948388-2.2991729 0-4.16948388 1.8709063-4.16948388 4.16948388 0 2.2985776 1.87031098 4.16948389 4.16948388 4.16948389 2.2991729 0 4.16948389-1.8709063 4.16948389-4.16948389zm-.807688 4.16948389h3.96160592l.83389541-8.33896777h-4.79550133c1.21748854.98340314 1.9989691 2.48620582 1.9989691 4.16948388 0 1.68327807-.78148056 3.18608075-1.9989691 4.16948389zm-18.84845032-6.5520461c.6111278 0 1.06738777.2805471 1.64396807.63554927.83330123.51344186 1.86971566 1.15137239 3.71679693 1.15137239 0 .20132498-.01846494.40086402-.04645944.59861712-1.6112088.01429661-3.12234814.76182387-4.12183382 1.99718544-.97446662-1.20676835-2.45939911-1.98348414-4.12421451-1.99778075-.01906082-.13461353-.02799507-.26982237-.03454692-.40622639.55275413-.67485813 1.84946365-1.97871709 2.96628969-1.97871709zm6.52822107 2.17111236c-.00833893.11198253-.01191308.22515115-.02680387.33653837.02084733.0047625.04109935.0113155.06194668.01608255l-.0351428-.35262092zM11.20995506 28.61874c-.5164207-1.71663378-2.10975873-2.97105447-3.9919828-2.97105447-1.59810394 0-2.9877329.90537165-3.68701507 2.22828972.70285576-.55335058 1.57725634-1.0370086 2.49573396-1.0370086.94885565 0 1.6195466.41277937 2.26879489.81304808.74574245.45864577 1.52245711.92800718 2.91446902.96672527zm8.33896778 0c-1.39201192-.03871809-2.16872657-.5080795-2.91446903-.96672527-.6492483-.4002687-1.31994037-.81304809-2.26879488-.81304809-.70464312 0-1.45336328.28769541-2.2312697.84699913-.02025201-.04645717-.04467236-.09053762-.06611613-.13639947.76658978-1.17519856 2.0787854-1.90188077 3.48866694-1.90188077 1.88222406 0 3.47556209 1.25442069 3.9919828 2.97105447zm-13.52223169-.58849225c.61112723 0 1.06738777.2805471 1.64396807.63554928.83330067.51344186 1.86971567 1.15137239 3.71679693 1.15137239 0 .40741701-.05837252.8064951-.1727363 1.19128111H3.22122411c-.0964936-.32283707-.14771895-.65639433-.16320561-.99590926.55096762-.67426737 1.85005953-1.98229352 2.96867264-1.98229352zm6.46984742.88393128c.69213472-.57181439 1.33721241-.88393128 1.86912036-.88393128.61112665 0 1.06738776.2805471 1.64396806.63554928.83330124.51344186 1.86971453 1.15137239 3.71679693 1.15137239 0 .40741701-.05837252.8064951-.1727363 1.19128111h-7.11313918c.08815523-.38895321.13818882-.78624535.13818882-1.19128111 0-.30854046-.0321651-.60874654-.08219869-.9029904zm19.79492132 6.8593914H21.2858109l1.48910139-2.97819824-.89346083-1.78692166h-1.10252943c.0887494-.38895321.138783-.78624535.138783-1.19128111h11.9693954l-.59564055 5.956401zM18.5351428 34.58228932v-1.19127657h2.6100969l.29782027-.59564056-.29782027-.59564055H1.6296726l-.29782028.59564055.29782028.59564056h15.7141891v1.19127657H2.22531315l.59564056 1.1912811h17.13300488l.59564056-1.1912811h-2.01445634z"/>
    </g>
  </g>
</svg>
