<svg xmlns="http://www.w3.org/2000/svg" xmlns:xlink="http://www.w3.org/1999/xlink" width="40" height="40" viewBox="0 0 40 40">
  <defs>
    <rect id="rect-1" width="40" height="40" x="0" y="0"/>
    <mask id="mask-2" maskContentUnits="userSpaceOnUse" maskUnits="userSpaceOnUse">
      <rect width="40" height="40" x="0" y="0" fill="black"/>
      <use fill="white" xlink:href="#rect-1"/>
    </mask>
  </defs>
  <g>
    <use fill="none" xlink:href="#rect-1"/>
    <g mask="url(#mask-2)">
      <path fill="rgb(18,42,136)" fill-rule="evenodd" d="M12.47353871 23.7405492c.2813129.42464757.4296879.91544838.4296879 1.42074112 0 1.4232613-1.15738387 2.58064516-2.58064516 2.58064516-.50529193 0-.99609355-.14837419-1.42074113-.4296871l-.71226048 1.07610888c.63634113.42118226 1.37380322.64390161 2.13300161.64390161 2.13489194 0 3.87096774-1.7360758 3.87096774-3.87096774 0-.75919839-.22271935-1.49666048-.6439008-2.13363145l-1.07610968.71288951z"/>
      <path fill="rgb(18,42,136)" fill-rule="evenodd" d="M11.74267578 23.00969985c-.42337036-.28068543-.91482544-.42904663-1.42010498-.42904663-1.4232788 0-2.58065796 1.15736389-2.58065796 2.5806427 0 .50527954.14837647.99609375.4296875 1.4213562l-1.07611084.71228027c-.4211731-.6369934-.64389038-1.37445068-.64389038-2.13363647 0-2.13490296 1.73608399-3.87097168 3.87097168-3.87097168.76013184 0 1.49728394.22271728 2.1329956.64390564l-.71289062 1.07546997z"/>
      <path fill="rgb(18,42,136)" fill-rule="evenodd" d="M23.22583008 30.96775344v-3.87097168h1.29034424v2.58065796h1.2902832v1.29031372h-2.58062744z"/>
      <path fill="rgb(18,42,136)" fill-rule="evenodd" d="M19.38006592 24.82831862c1.26324463-1.03356933 2.8581543-1.60250854 4.49090576-1.60250854 3.91290283 0 7.09680176 3.18389892 7.09680176 7.09677124 0 1.63275146-.56958008 3.22769165-1.60314942 4.49093628l-.99829101-.81747437c.7084961-.86569214 1.14605713-1.9225769 1.27044678-3.0282898h-1.2496338V29.6774092h1.25219727c-.29864502-2.68649292-2.43609619-4.82452393-5.12316894-5.12316895v1.25222779h-1.29034424V24.5567732c-1.10510254.12442017-2.16259766.5619812-3.02764893 1.2704773l-.81811523-.99893189z"/>
      <path fill="rgb(18,42,136)" fill-rule="evenodd" d="M24.51611328 34.8386946v1.24969482c1.1057129-.12445068 2.1626587-.56201171 3.02770996-1.2704773l.8180542.9989319c-1.2631836 1.03356933-2.8581543 1.60250854-4.49090576 1.60250854-3.9128418 0-7.09677124-3.18392944-7.09677124-7.09677124 0-1.63275147.56954956-3.22769165 1.6031189-4.49093628l.99829101.81747436c-.70843506.86569214-1.1459961 1.9225769-1.27044678 3.0282898h1.24969483v1.29031372h-1.25219727c.29864502 2.68649292 2.43603516 4.82455444 5.12316895 5.12319946V34.8386946h1.2902832z"/>
      <path fill="rgb(18,42,136)" fill-rule="evenodd" d="M36.12902832 29.6774092h-1.29034424V11.61289504H30.9677124v12.15222168c-.39404297-.4265442-.82562256-.81622315-1.2902832-1.16651917v-7.7598877h-3.87097168v6.00112916c-.41992188-.0856781-.8527832-.133255-1.29034424-.16255188v-2.61277771H20.6451416v3.14515686c-.64892578.23028564-1.26574707.52766418-1.84313965.88458252-.12982177-.35943604-.27282715-.71226502-.44580078-1.04901123l1.02008057-1.42861939-3.5090332-3.51026916-1.42922974 1.0206604c-.43032837-.21987915-.8798523-.40574646-1.34451294-.55474854l-.28823853-1.73355102H7.84054565l-.28823852 1.73355102c-.46466065.14900208-.91421509.33486939-1.34451294.55474854l-1.42892456-1.0206604-3.50933838 3.51026916 1.02005005 1.42861939c-.22052002.4296875-.40640259.87921142-.5553894 1.34449768L0 22.67924025v4.96408081l1.73355103.2888794c.14901733.46530151.33551025.91482544.5553894 1.34451294l-1.02005005 1.42828369 3.5090332 3.5105896 1.42922974-1.0206604c.43032837.21987915.8798523.40576172 1.34451294.55474853l.28823853 1.7341919h4.96472167l.28823853-1.73355103c.46466064-.14901733.91418457-.33486938 1.34451294-.55474853l.2579956.18429565C15.9800415 37.22056105 19.60400392 39.99998 23.87097169 39.99998c5.11877441 0 9.3104248-3.99664307 9.64465332-9.03222656H40V6.45160964h-3.87097168V29.6774092zm1.29034424-21.93547058h1.29034424V29.6774092h-1.29034424V7.74193862zm-5.16131592 5.1612854h1.29034424V29.6774092H33.515625c-.1001587-1.50769043-.543396-2.92053223-1.25756836-4.16204834V12.90322402zM12.35412598 32.62382033c.63824463-.17294311 1.24655151-.42434692 1.8104248-.7475586l.15216065-.08724975c-.07339478-.47946167-.12316895-.9664917-.12316895-1.46643066 0-.00567627.00064087-.01165772.00064087-.01733399-1.10699463.83102417-2.46252441 1.3076477-3.87161255 1.3076477-3.55752563 0-6.45159912-2.89407348-6.45159912-6.45159911 0-3.55752564 2.89407349-6.45161438 6.45159912-6.45161438 3.12658691 0 5.73934937 2.23600769 6.32717896 5.1927948.32574462-.36575318.67227172-.71351624 1.0496521-1.02696228-.16851807-.54467774-.38275147-1.07044983-.66125489-1.55557251l-.20599365-.35943604.85998535-1.20433044-1.96444702-1.96383667-1.20306396.86001587-.35943604-.20602417c-.5639038-.32321167-1.17282104-.57460022-1.8104248-.74754334l-.39944458-.10836792-.24383545-1.46138H8.93426514l-.24380493 1.46138-.39944458.10836792c-.63824463.17294312-1.24655152.42433167-1.81042481.74754334l-.35943603.20602417-1.20306397-.86001587-1.96447754 1.96383667.86001587 1.20433044-.20602417.35943604c-.3225708.56137085-.57333374 1.17030334-.7475586 1.80978393l-.10836791.39945984-1.46136475.24319458v2.77783203l1.46136475.24319458.10775757.39944458c.17294311.6388855.42495727 1.24716187.74752807 1.80981446l.20602417.35943603-.85998535 1.20431519 1.96444702 1.96383667 1.20306397-.86001587.35943603.20602417c.56390381.32321167 1.17282105.57461548 1.8104248.7475586l.39944459.10836791.24383545 1.46136475h2.77722167l.24380494-1.46136475.39944458-.10836792zM28.387146 16.12903883h-1.29034424v5.08126832c.4451294.15814209.87799072.34117126 1.29034424.56011963v-5.64138794zm-6.45166016 3.22579957h1.29034424v1.3230896c-.43756104.02929687-.87042237.07685852-1.29034424.16285705V19.3548384zm-6.46768188 6.18637085c-.48577881.85116577-.84960938 1.77890014-1.0600586 2.76522827-.97433472 1.26260376-2.4895935 2.0161438-4.08517456 2.0161438-2.84588623 0-5.1612854-2.31539917-5.1612854-5.1612854 0-2.8459015 2.31539917-5.16130066 5.1612854-5.16130066 2.84588623 0 5.1612854 2.31539917 5.1612854 5.16130066 0 .12850952-.00723266.25421142-.01605224.37991333zm.01605224 4.78137207c0 4.6244812 3.76260376 8.38708496 8.38711548 8.38708496 4.62445068 0 8.38708496-3.76260376 8.38708496-8.38708496 0-4.62451172-3.76263428-8.38710022-8.38708496-8.38710022-4.62451172 0-8.38711548 3.7625885-8.38711548 8.38710022z"/>
      <path fill="rgb(18,42,136)" fill-rule="evenodd" d="M36.12902832-.00000474v1.29032898h1.38641357l-4.56433105 3.65170288L30.9677124 2.9586592l-3.04180908 3.0418396c-.25231934-.12127686-.53112793-.19404602-.82910156-.19404602-1.0670166 0-1.93548584.86849975-1.93548584 1.93547058 0 .33361816.0928955.64328003.24188232.91734314l-3.37225342 3.74716186c-.22839355-.09481811-.47790527-.1483612-.74060058-.1483612-.0123291 0-.02331543.0031433-.03564453.00376892l-2.59417725-6.9184723c.42089844-.35502624.69433594-.87953185.69433594-1.47239684 0-1.06697083-.86853028-1.93548584-1.93548584-1.93548584-1.06698609 0-1.93551636.86851501-1.93551636 1.93548584 0 .13923645.01608276.27468872.0444336.40637207l-5.2888794 3.25416565c-.33169556-.2677765-.74847412-.43473816-1.20715332-.43473816-.83984375 0-1.54959106.54121399-1.81671143 1.29032898H3.75219727c-.26712037-.749115-.97686768-1.29032898-1.81671143-1.29032898C.86849976 7.0967665 0 7.9652815 0 9.03225234c0 1.06697082.86849976 1.93548584 1.93548584 1.93548584.83984375 0 1.54959106-.54119873 1.81671143-1.29032898H7.216156c.26715087.74913025.97689819 1.29032898 1.81674194 1.29032898 1.06695557 0 1.93548584-.86851502 1.93548584-1.93548584 0-.13923645-.01608276-.27470398-.0444336-.40637207l5.2888794-3.25416565c.3310852.26777649.74786377.43473816 1.20654297.43473816.01226807 0 .02331543-.00315857.0355835-.00378418l2.59417724 6.91784668c-.4208374.35565185-.6942749.88015747-.6942749 1.47302246 0 1.06698608.86846924 1.93548584 1.93548584 1.93548584 1.06695556 0 1.93548584-.86849976 1.93548584-1.93548584 0-.3336029-.0923462-.64326477-.24194336-.91732788l3.37225342-3.74717713c.22839355.09483338.47790527.14837647.74066162.14837647 1.06695556 0 1.93548584-.86849976 1.93548584-1.93548584 0-.29800415-.07281494-.57679749-.1940918-.82913208l2.1295166-2.12953186 1.88763428 1.88760376 5.85430908-4.68309021v1.88319397H40V-.00000474h-3.87097168zM16.77420044 3.87096694c0-.35533142.28921509-.64515686.64517212-.64515686s.6451416.28982544.6451416.64515686c0 .35534668-.28918457.64517212-.6451416.64517212s-.64517212-.28982544-.64517212-.64517212zm10.32254028 4.5161438c-.35595703 0-.6451416-.28982544-.6451416-.64517212 0-.35533142.28918457-.64515686.6451416-.64515686.35601807 0 .64520264.28982544.64520264.64515686 0 .35534668-.28918457.64517212-.64520264.64517212zM1.93548584 9.67742446c-.35598755 0-.64517212-.28982544-.64517212-.64517212 0-.35533142.28918457-.64515686.64517212-.64515686.35595703 0 .6451416.28982544.6451416.64515686 0 .35534668-.28918457.64517212-.6451416.64517212zm6.45159912-.64517212c0 .35534668.28918457.64517212.64517212.64517212.35595703 0 .6451416-.28982544.6451416-.64517212 0-.35533142-.28918457-.64515686-.6451416-.64515686-.35598755 0-.64517212.28982544-.64517212.64515686zm12.25805664 5.1612854c0 .35534668.28918457.64517212.6451416.64517212.35601807 0 .64520264-.28982544.64520264-.64517212 0-.35533142-.28918457-.64515686-.64520264-.64515686-.35595703 0-.6451416.28982544-.6451416.64515686z"/>
    </g>
  </g>
</svg>
