<svg xmlns="http://www.w3.org/2000/svg" width="36" height="36" viewBox="0 0 36 36">
  <g>
    <path fill="rgb(18,42,136)" fill-rule="evenodd" d="M8.41638184 8.60089111c0-.67221069.46551513-1.2191162 1.03765869-1.2191162.68011474 0 16.49517822 0 17.0918579-.00009156.57214356 0 1.03759766.54690552 1.03759766 1.21911621v13.55136108c0 .6722107-.4654541 1.21911622-1.03759765 1.21911622H9.45404053c-.57214356 0-1.0376587-.54690552-1.0376587-1.21911622V8.60089111zm2.41503906.02008057v1.6612854H9.47113037v-1.6612854h1.36029053zm1.05474853 0h12.22766114v13.5111084H11.88616943V8.62097168zm14.64263916 1.6612854h-1.36029052v-1.6612854h1.36029052v1.6612854zm-15.6973877 2.98309326H9.47113038v-1.74389648h1.36029053v1.74389648zm15.6973877 0h-1.36029052v-1.74389648h1.36029052v1.74389648zm-15.6973877 1.23919678H9.47113038v1.74380493h1.36029053v-1.74380493zm15.69750977 0h-1.36029052v1.74380493h1.36029052v-1.74380493zM10.8314209 17.48764038H9.47113037v1.74389649h1.36029053v-1.74389649zm15.69750976 0h-1.36029052v1.74389649h1.36029052v-1.74389649zM10.8314209 20.47073364H9.47113037v1.6612854h1.36029053v-1.6612854zm14.33721924 0v1.6612854h1.36029052v-1.6612854h-1.36029052z"/>
    <path fill="rgb(18,42,136)" fill-rule="evenodd" d="M17.00891113 12.17242432l3.03771973 2.19628906c.63861084.46148682.63989258 1.5531311 0 2.01553345l-3.03771973 2.19628906c-.6642456.4803772-1.53497314-.07699585-1.53497314-1.00772095v-4.39266968c0-.92434692.86535644-1.49182129 1.53497314-1.00772094zm-.48028564 1.10787964v4.1923828l2.89941406-2.09616088-2.89941406-2.09622192z"/>
    <path fill="rgb(18,42,136)" fill-rule="evenodd" d="M36 2.75234985C36 1.23464965 34.94909668 0 33.65740967 0H19.5970459c-.2913208 0-.52734375.27740479-.52734375.61959839 0 .3421936.23602295.61959839.52734375.61959839h14.06036377c.71020508 0 1.2878418.678833 1.2878418 1.51315307v25.2482605c0 .83441162-.57769776 1.51315308-1.2878418 1.51315308H2.34265137c-.71020508 0-1.2878418-.67883301-1.2878418-1.51315308V2.75234985c0-.8343811.57769775-1.51315307 1.2878418-1.51315307h14.79333496c.2913208 0 .52740478-.27740479.52740478-.6195984C17.66339111.27740479 17.42730713 0 17.13598633 0h-14.793396C1.0508423 0 0 1.23474121 0 2.75234985v25.2482605c0 1.5177002 1.05084229 2.75234986 2.34259033 2.75234986h5.98077393v1.3843689H6.46258545c-.58728027 0-1.06500244.56134032-1.06500244 1.25125121v1.3600769C5.397583 35.4387207 5.8753662 36 6.46258545 36h23.07476807c.58728027 0 1.06500244-.56137085 1.06500244-1.25134277v-1.3600769c0-.68997193-.47784424-1.25125123-1.06500244-1.25125123H27.6765747v-1.3843689h5.98077392c1.29168701 0 2.34259033-1.23464965 2.34259033-2.75234985L36 2.75234985zM9.3781128 32.13735962h17.24371337v-1.3843689H9.3781128v1.3843689zm20.16955566 1.2512207v1.3600769c0 .00668336-.00457764.012146-.0102539.012146H6.46258544c-.00567627 0-.0102539-.00546264-.0102539-.012146v-1.3600769c0-.00668335.00457763-.01205444.0102539-.01205444h23.07476807c.00567627 0 .01031494.0053711.01031494.01205444z"/>
    <path fill="rgb(18,42,136)" fill-rule="evenodd" d="M33.23962547 14.55039715c.29131907 0 .52736979-.27733375.52736979-.61960176V3.76337847c0-.6284414-.43518555-1.13981938-.97014946-1.13981938H3.20317377c-.5348936 0-.97014946.51129536-.97014946 1.13981938v23.22622608c0 .6284414.43518555 1.13981938.97014946 1.13981938H32.7968458c.5348936 0 .97014946-.51129536.97014946-1.13981938v-10.1673343c0-.34226802-.23605072-.61960176-.52736979-.61960176-.29131907 0-.52736978.27733374-.52736978.61960175v10.06795019H3.28776389V3.86276259h29.4244918v10.0680328c0 .34226801.23605071.61960176.52736978.61960176z"/>
  </g>
</svg>
