<svg xmlns="http://www.w3.org/2000/svg" width="37" height="37" viewBox="0 0 37 37">
  <g>
    <path fill="rgb(0,0,0)" fill-rule="evenodd" d="M4.3166809 8.0166626h12.333313c1.02172851 0 1.8500061.82827759 1.8500061 1.8500061V18.5c0 1.02172852-.82827759 1.8500061-1.8500061 1.8500061H4.3166809c-1.0217285 0-1.8500061-.82827758-1.8500061-1.8500061V9.8666687c0-1.02172851.8282776-1.8500061 1.8500061-1.8500061zm12.33334351 11.1000061c.34057618 0 .6166687-.27609253.6166687-.6166687V9.8666687c0-.34057617-.27609252-.6166687-.6166687-.6166687H4.31668091c-.34057617 0-.6166687.27609253-.6166687.6166687V18.5c0 .34057617.27609253.6166687.6166687.6166687h12.3333435z"/>
    <path fill="rgb(0,0,0)" fill-rule="evenodd" d="M4.3166809 21.5833435h1.23333741c.68115234 0 1.2333374.55218506 1.2333374 1.2333374v2.46667481c0 .68115235-.55218506 1.23330689-1.2333374 1.23330689h-1.2333374c-.68115235 0-1.2333374-.55215454-1.2333374-1.23330689v-2.4666748c0-.68115235.55218505-1.2333374 1.2333374-1.2333374zm0 1.2333374v2.46667481h1.23333741v-2.4666748h-1.2333374z"/>
    <path fill="rgb(0,0,0)" fill-rule="evenodd" d="M15.4166565 21.5833435h1.2333374c.68115234 0 1.2333374.55218506 1.2333374 1.2333374v2.46667481c0 .68115235-.55218506 1.23330689-1.2333374 1.23330689h-1.2333374c-.68115235 0-1.2333374-.55215454-1.2333374-1.23330689v-2.4666748c0-.68115235.55218505-1.2333374 1.2333374-1.2333374zm0 1.2333374v2.46667481h1.2333374v-2.4666748h-1.2333374z"/>
    <path fill="rgb(0,0,0)" fill-rule="evenodd" d="M4.3166809 27.75h1.23333741c.68115234 0 1.2333374.55218506 1.2333374 1.2333374v2.4666748c0 .68115235-.55218506 1.2333069-1.2333374 1.2333069h-1.2333374c-.68115235 0-1.2333374-.55215455-1.2333374-1.2333069v-2.4666748c0-.68115234.55218505-1.2333374 1.2333374-1.2333374zm0 1.2333374v2.4666748h1.23333741v-2.4666748h-1.2333374z"/>
    <path fill="rgb(0,0,0)" fill-rule="evenodd" d="M15.4166565 27.75h1.2333374c.68115234 0 1.2333374.55218506 1.2333374 1.2333374v2.4666748c0 .68115235-.55218506 1.2333069-1.2333374 1.2333069h-1.2333374c-.68115235 0-1.2333374-.55215455-1.2333374-1.2333069v-2.4666748c0-.68115234.55218505-1.2333374 1.2333374-1.2333374zm0 1.2333374v2.4666748h1.2333374v-2.4666748h-1.2333374z"/>
    <path fill="rgb(0,0,0)" fill-rule="evenodd" d="M12.33333333 22.20000948h-3.7c-.34057556 0-.61666666.2760911-.61666666.61666667 0 .34057556.2760911.61666667.61666666.61666667h3.7c.34057557 0 .61666667-.2760911.61666667-.61666667s-.2760911-.61666667-.61666667-.61666667z"/>
    <path fill="rgb(0,0,0)" fill-rule="evenodd" d="M12.33333333 24.66667615h-3.7c-.34057556 0-.61666666.2760911-.61666666.61666667 0 .34057556.2760911.61666666.61666666.61666666h3.7c.34057557 0 .61666667-.2760911.61666667-.61666666 0-.34057557-.2760911-.61666667-.61666667-.61666667z"/>
    <path fill="rgb(0,0,0)" fill-rule="evenodd" d="M12.33333333 28.36667615h-3.7c-.34057556 0-.61666666.2760911-.61666666.61666667 0 .34057556.2760911.61666666.61666666.61666666h3.7c.34057557 0 .61666667-.2760911.61666667-.61666666 0-.34057557-.2760911-.61666667-.61666667-.61666667z"/>
    <path fill="rgb(0,0,0)" fill-rule="evenodd" d="M12.33333333 30.83334282h-3.7c-.34057556 0-.61666666.2760911-.61666666.61666666 0 .34057557.2760911.61666667.61666666.61666667h3.7c.34057557 0 .61666667-.2760911.61666667-.61666667 0-.34057556-.2760911-.61666666-.61666667-.61666666z"/>
    <path fill="rgb(0,0,0)" fill-rule="evenodd" d="M30.2166748 0h3.6999817C35.61871337.00204468 36.99795531 1.38128662 37 3.0833435v4.9333191c-.00204468 1.70202636-1.38128662 3.08129883-3.0833435 3.0833435h-1.2333069v4.3166504c-.00091552 1.24093627-.62384032 2.39877319-1.65884398 3.0833435 1.03500366.68457031 1.65792846 1.84240723 1.65884399 3.0833435v1.2333374h1.23330688c1.70205689.00201417 3.08129883 1.38128663 3.08334351 3.083313v4.9333496c-.00204468 1.70202637-1.38128662 3.08129883-3.0833435 3.083313h-1.2333069C32.68130494 35.61868285 31.30203248 36.99795531 29.6000061 37h-3.7000122c-1.70202637-.00204468-3.08129883-1.38131714-3.083313-3.0833435v-4.9333191c.00201417-1.70202636 1.38128663-3.08129883 3.083313-3.0833435h1.2333374v-4.3166504c0-1.36230468-1.10437012-2.4666748-2.4666748-2.4666748h-3.6999817v12.3333435C20.96292114 34.51364137 18.48028564 36.99624635 15.4166565 37H5.5499878C2.48635863 36.99624634.00372313 34.51364136 0 31.4500122V9.25c.00250244-2.14389038 1.57809448-3.96105957 3.7000122-4.26733398V1.2333374C3.7000122.55218506 4.25219728 0 4.9333191 0h1.2333374c.68115234 0 1.2333374.55218506 1.2333374 1.2333374v3.6999817h6.166687V1.2333374C13.5666809.55218506 14.11883546 0 14.7999878 0h1.2333374c.68115234 0 1.2333374.55218506 1.2333374 1.2333374v3.74932862c2.12191772.30627441 3.69747925 2.1234436 3.7000122 4.26733398v8.6333313h3.6999817c1.36230468 0 2.4666748-1.10437012 2.4666748-2.4666748v-1.2333374h-1.2333374c-1.70202637-.00201417-3.08129883-1.38128663-3.083313-3.083313V6.1666565c.00201417-1.70202637 1.38128663-3.08129883 3.083313-3.083313h1.2333374C27.13537598 1.38128663 28.51464844.00204469 30.2166748 0zM4.9333191 1.2333374h1.2333374v3.7000122H4.9333191V1.2333374zm11.1000061 0h-1.2333374v3.7000122h1.2333374V1.2333374zm17.8833313 8.6333313c1.02172851 0 1.8500061-.82827759 1.8500061-1.8500061V3.0833435c0-1.02172851-.82827759-1.8500061-1.8500061-1.8500061h-3.6999817c-1.02172851 0-1.8500061.82827759-1.8500061 1.8500061h1.2333374c1.70202637.00204468 3.08129883 1.38128663 3.0833435 3.083313v3.7000122h1.2333069zm-9.8666687 1.2333374V6.16668701c0-1.02172851.82827758-1.8500061 1.8500061-1.8500061h3.69998169c1.02172851 0 1.8500061.82827759 1.8500061 1.8500061v4.9333191c0 1.0217285-.82827759 1.8500061-1.8500061 1.8500061h-3.6999817c-1.0217285 0-1.8500061-.8282776-1.8500061-1.8500061zm-8.6333313 24.66668702c2.38290405-.00271607 4.31396484-1.93377686 4.3166809-4.31668091V9.2500305c-.00204468-1.70205688-1.38128662-3.08129882-3.0833435-3.0833435H4.3166809c-1.70205688.00204468-3.08129882 1.38128662-3.0833435 3.0833435v22.1999817c.00271607 2.38290405 1.93377686 4.31396484 4.31668091 4.3166809h9.86663818zM28.9833374 17.8833313H27.4169922c.61102295-.67630005.94943237-1.55523682.94967651-2.4666748v-1.2333374h1.2333374c.66937256-.0022583 1.3194275-.22457887 1.84997559-.63269044v1.86602783c0 .65420533-.25985718 1.28161622-.72247315 1.74420166-.46258544.46258545-1.08999633.72247315-1.74417114.72247315zm2.46664429 4.9333496v-1.2333374c0-1.36230468-1.1043396-2.4666748-2.46664429-2.4666748H27.4169922c.61102295.67630005.94943237 1.55523682.94967651 2.4666748v1.86602784c.5305481-.40811157 1.18060303-.63043213 1.84997559-.63269043h1.2333374zm4.3166809 3.08334351v4.9333191c0 1.02172851-.82827758 1.8500061-1.8500061 1.8500061H30.2166748c-1.02172851 0-1.8500061-.82827759-1.8500061-1.8500061v-4.9333191c0-1.02172851.82827759-1.8500061 1.8500061-1.8500061h3.6999817c1.02172851 0 1.8500061.82827759 1.8500061 1.8500061zm-9.8666687 9.86663819h3.6999817c1.02172851 0 1.8500061-.82827759 1.8500061-1.8500061h-1.2333374c-1.70202637-.00204468-3.08129883-1.38128663-3.083313-3.083313v-3.7000122h-1.2333374c-1.0217285 0-1.8500061.82827759-1.8500061 1.8500061v4.9333191c0 1.02172851.8282776 1.8500061 1.8500061 1.8500061z"/>
    <path fill="rgb(0,0,0)" fill-rule="evenodd" d="M5.55 12.33334282c.1635368-.0000349.32036282-.06502787.43598333-.18068334l.61666667-.61666666c.23369952-.241967.23035731-.62658563-.00751186-.8644548-.23786918-.23786918-.62248782-.2412114-.8644548-.00751187l-.61666667.61666667c-.17630989.17636315-.22904351.4415559-.1336181.67195367.09542543.2303977.32022396.3806431.56960143.38069633z"/>
    <path fill="rgb(0,0,0)" fill-rule="evenodd" d="M9.43068333 10.66402615l-4.31666666 4.31666667c-.16030656.15482927-.22459777.38410803-.16816325.59971283.05643452.21560486.22481224.38398255.44041707.4404171.21560481.0564345.44488359-.0078567.59971284-.16816327L10.30265 11.53599282c.23369952-.241967.23035731-.62658563-.00751186-.8644548-.23786918-.23786918-.62248782-.2412114-.8644548-.00751187z"/>
  </g>
</svg>
