<svg xmlns="http://www.w3.org/2000/svg" width="37" height="37" viewBox="0 0 37 37">
  <g>
    <path fill="rgb(18,42,136)" fill-rule="evenodd" d="M33.8764801 13.00967407l-2.73262024 4.29498291 5.37155152 8.35662842-4.00076294 6.22375488c.57110595.5538025.90470886 1.31350708.90470886 2.131073C33.4193573 35.66143798 32.08079529 37 30.43548584 37c-1.44120789 0-2.6461029-1.02703857-2.92359924-2.38708496h-3.7507248c-.24706268.69284058-.90351867 1.19354248-1.6805191 1.19354248-.98706055 0-1.79032135-.80325317-1.79032135-1.79034424 0-.39685058.14681244-.77459717.38432312-1.08374023l-4.29080963-6.6743164H8.65859985L5.4216919 30.70822143c.34494019.41592407.54605103.9536438.54605103 1.51757812 0 1.3164978-1.07061768 2.38711548-2.38710022 2.38711548-1.31648254 0-2.38709259-1.07061768-2.38709259-2.38711548 0-1.31646728 1.07061005-2.38708496 2.38709259-2.38708496.30614471 0 .59916687.06326294.87308502.171875l3.1784134-4.37017822-3.5734787-5.55895996c-.34075928.1324768-.70300294.2088623-1.07479096.2088623C1.33856201 20.29031372 0 18.95175171 0 17.30645752c0-1.6453247 1.33856201-2.98388672 2.98387146-2.98388672.37119293 0 .7328415.0763855 1.07419586.20947266l2.54524231-3.95959473c-.4046173-.43383789-.63556671-1.00854492-.63556671-1.6208496 0-1.3164673 1.07061005-2.38708497 2.38709259-2.38708497 1.10940552 0 2.03559876.76327515 2.30236053 1.79031372h5.7487259l3.23690033-4.45013428c-.34493256-.41595459-.54605103-.9536438-.54605103-1.51760864C19.09677124 1.07061768 20.16738892 0 21.48387146 0c1.31648254 0 2.38710022 1.07061768 2.38710022 2.38708496 0 1.3164978-1.07061768 2.38711548-2.38710022 2.38711548-.30614471 0-.59915924-.06326294-.8730774-.171875l-3.17842101 4.37017822 4.97411346 7.73718262h7.70136261l2.75949097-4.33618164c-.40759278-.4338379-.64154053-1.01272583-.64154053-1.63156128 0-1.3164978 1.07061768-2.38711548 2.38710022-2.38711548C35.92938232 8.35482788 37 9.42544556 37 10.74194336c0 1.31646728-1.07061768 2.38708496-2.38710022 2.38708496-.25361633 0-.50128174-.04296875-.73641968-.11935425zM21.48387146 1.19354248c.65824127 0 1.19355011.53530884 1.19355011 1.19354248 0 .65823364-.53530884 1.19354248-1.19355011 1.19354248-.25661469 0-.49472809-.07815552-.70598602-.2362976-.30495453-.2166443-.48756409-.57409669-.48756409-.95724488 0-.65823364.53530884-1.19354248 1.19355011-1.19354248zM8.35484314 7.75805664c.65824127 0 1.19355011.53530884 1.19355011 1.19354248 0 .65823364-.53530884 1.19354248-1.19355011 1.19354248-.22856903 0-.44519806-.06445312-.6457138-.19274902-.34313965-.21902466-.54783631-.59259033-.54783631-1.00079346 0-.65823364.53530884-1.19354248 1.19355011-1.19354248zm8.02899933 1.79034424h-5.72664643c-.26676177 1.02703857-1.19295501 1.79031372-2.3023529 1.79031372-.25422668 0-.5042801-.04534912-.74477387-.12591553l-2.54703521 3.96258545c.57111358.5538025.90470886 1.31350708.90470886 2.131073 0 .81640625-.33300018 1.57608032-.90470886 2.13049316l3.61764526 5.627594h7.70316315l4.98723602-7.75808716-4.98723602-7.75805664zm19.42261505 1.19354248c0-.65823364-.53530884-1.19354248-1.19355774-1.19354248-.65823364 0-1.19354248.53530884-1.19354248 1.19354248 0 .41119385.20648193.7871399.55142212 1.00558472.19096374.12472534.4105835.18795776.64212036.18795776.6582489 0 1.19355774-.53530884 1.19355774-1.19354248zM2.98387146 15.5161438c-.98706055 0-1.79032135.80325317-1.79032135 1.79031372 0 .98706055.8032608 1.79034424 1.79032135 1.79034424.34314728 0 .67674255-.09848023.9637909-.28585816.51860046-.33120727.82653045-.89337158.82653045-1.50448608 0-.61108398-.30793-1.1732483-.82295227-1.50326538-.29062653-.18856812-.6242218-.28704834-.96736908-.28704834zM27.5118866 33.41937256h-3.7507248c-.24706268-.6928711-.90351867-1.193573-1.6805191-1.193573-.14083862 0-.27690124.02029419-.40938568.05075073l-4.25201416-6.61526489 4.98724365-7.75805664h7.70316315l4.98724365 7.75805664-3.58721924 5.58044434c-.34135437-.13308716-.70300293-.20947266-1.07418823-.20947266-1.4406128 0-2.6461029 1.02703857-2.92359924 2.38711548zm-23.93123627-.00003052c-.65824127 0-1.19355011-.53530884-1.19355011-1.19354248 0-.65823364.53530884-1.19354248 1.19355011-1.19354248.25661468 0 .49472046.07818604.7059784.23632813.30495452.21661376.4875717.57409667.4875717.95721435 0 .65823364-.53530883 1.19354248-1.1935501 1.19354248zm25.06450653.59677124c0 .98706055.80325317 1.79034424 1.79032898 1.79034424.98706055 0 1.79031372-.8032837 1.79031372-1.79034424 0-.61108398-.30793762-1.17324829-.82295227-1.50326538-.2906189-.18856811-.6242218-.28704834-.96736145-.28704834-.9870758 0-1.79032898.80325317-1.79032898 1.79031372zm-7.1612854 0c0 .32943726.26735687.59677124.59677124.59677124.329422 0 .59677887-.26733398.59677887-.59677124 0-.32940674-.26735687-.59677124-.59677887-.59677124-.11875153 0-.2231903.0298462-.310318.08831787-.18201446.11636353-.28645324.30734253-.28645324.50845337z"/>
    <path fill="rgb(18,42,136)" fill-rule="evenodd" d="M8.35483871 14.32258065h4.77419355v1.19354838H8.3548387v-1.19354838z"/>
    <path fill="rgb(18,42,136)" fill-rule="evenodd" d="M14.32258065 14.32258065h2.38709677v1.19354838h-2.38709677v-1.19354838z"/>
    <path fill="rgb(18,42,136)" fill-rule="evenodd" d="M8.35483871 16.70967742h8.3548387v1.19354839h-8.3548387v-1.1935484z"/>
    <path fill="rgb(18,42,136)" fill-rule="evenodd" d="M15.51612903 19.0967742h1.19354839v1.19354838h-1.19354839V19.0967742z"/>
    <path fill="rgb(18,42,136)" fill-rule="evenodd" d="M13.12903226 19.0967742h1.19354839v1.19354838h-1.1935484V19.0967742z"/>
    <path fill="rgb(18,42,136)" fill-rule="evenodd" d="M8.35483871 19.0967742h3.58064516v1.19354838H8.35483871V19.0967742z"/>
    <path fill="rgb(18,42,136)" fill-rule="evenodd" d="M22.08064516 22.67741935h4.77419355v1.1935484h-4.77419355v-1.1935484z"/>
    <path fill="rgb(18,42,136)" fill-rule="evenodd" d="M28.0483871 22.67741935h2.38709677v1.1935484H28.0483871v-1.1935484z"/>
    <path fill="rgb(18,42,136)" fill-rule="evenodd" d="M22.08064516 25.06451613h8.35483871v1.19354839h-8.3548387v-1.1935484z"/>
    <path fill="rgb(18,42,136)" fill-rule="evenodd" d="M29.24193548 27.4516129h1.1935484v1.19354839h-1.1935484V27.4516129z"/>
    <path fill="rgb(18,42,136)" fill-rule="evenodd" d="M26.85483871 27.4516129h1.19354839v1.19354839H26.8548387V27.4516129z"/>
    <path fill="rgb(18,42,136)" fill-rule="evenodd" d="M22.08064516 27.4516129h3.58064516v1.19354839h-3.58064516V27.4516129z"/>
  </g>
</svg>
