<svg xmlns="http://www.w3.org/2000/svg" xmlns:xlink="http://www.w3.org/1999/xlink" width="37" height="36.981" viewBox="0 0 37 36.981">
  <defs>
    <rect id="rect-1" width="37" height="36.981" x="0" y="0"/>
    <mask id="mask-2" maskContentUnits="userSpaceOnUse" maskUnits="userSpaceOnUse">
      <rect width="37" height="36.981" x="0" y="0" fill="black"/>
      <use fill="white" xlink:href="#rect-1"/>
    </mask>
  </defs>
  <g>
    <use fill="none" xlink:href="#rect-1"/>
    <g mask="url(#mask-2)">
      <path fill="rgb(0,0,0)" fill-rule="evenodd" d="M1.67840576 16.15946797h3.1038208c.18359375.66195678.44799805 1.2987976.78808594 1.8956604l-2.19683838 2.19595336c-.10491943.10488892-.16394043.24716187-.16394043.39578248 0 .14859008.059021.29086303.16394043.39578247l2.37341309 2.37405395c.21850586.21810913.5725708.21810913.7911377 0l2.19702148-2.19726562c.59686279.33984375 1.23303222.60449218 1.89501953.78787231v3.10375977c0 .309021.25042724.55947876.55944824.55947876h3.35687256c.309021 0 .55944824-.25045777.55944824-.55947876v-3.10375977c.6619873-.18338013 1.29815674-.44802856 1.89501953-.78787231l2.19702149 2.19726562c.2220459.20980835.56933593.20980835.7911377 0l2.37384032-2.37405395c.10491944-.10491944.16394043-.24719239.16394043-.39578247 0-.14862061-.059021-.29089356-.16394043-.39578248l-2.19720459-2.19595336c.34002686-.5968628.6044922-1.23370362.7880249-1.8956604h3.1038208c.309021 0 .55944825-.25045777.55944825-.55947876v-3.35687256c0-.30877686-.25042725-.55947876-.55944824-.55947876h-3.1038208c-.18353272-.66174317-.44799805-1.29858399-.7880249-1.89541626l2.19677734-2.19595337c.10491943-.10491944.16394043-.24719238.16394043-.39578247 0-.1486206-.059021-.29089356-.16394043-.39578247l-2.37341309-2.37405396c-.21850586-.21835327-.5725708-.21835327-.7911377 0l-2.19702148 2.1972351c-.5968628-.3395996-1.23321533-.60427856-1.89501953-.78784179v-3.1040039c0-.30880738-.25042725-.55947876-.55944824-.55947876h-3.35687256c-.309021 0-.55944824.25067138-.55944824.55947876v3.1040039c-.66174317.18356323-1.29815674.44824219-1.89501953.7878418L6.5380249 4.42664937c-.2220459-.20980836-.56933594-.20980836-.7911377 0L3.37304689 6.80070331c-.10491944.10488891-.16394043.24716186-.16394043.39578247 0 .14859009.059021.29086303.16394042.39578247L5.5703125 9.78822163c-.3400879.59683227-.60449219 1.2336731-.78808594 1.89541626h-3.1038208c-.309021 0-.55944824.2507019-.55944824.55947876v3.35687256c0 .309021.25042725.55947876.55944824.55947876zm.55950928-3.35687256H5.2199707c.26287842 0 .49041748-.18292237.54656983-.43969727.18359375-.83789062.51556396-1.6364746.98016357-2.35766601.1418457-.2211609.1104126-.5116272-.07562256-.69760132L4.55975342 7.19627216 6.14245605 5.6133559l2.11090088 2.11135865c.18597412.18640136.47668457.2178955.6982422.07583618.72143554-.4644165 1.51977538-.79638672 2.35772704-.9801941.25653076-.05636596.43969727-.2838745.43969727-.54678344V3.29151753h2.23791504v2.98205566c0 .26290894.18310547.49041748.43969726.54678345.83789063.18380737 1.63623047.51577759 2.35766602.98019409.22161865.14205933.51226806.11056518.69824219-.07583618l2.1109619-2.11135865 1.58221436 1.58291626-2.11090087 2.11071778c-.18640137.18618774-.21765137.47686767-.07562256.69824219.4645996.72164917.79614258 1.519989.97949218 2.35809326.05639649.25680542.28393555.4399414.54663086.4399414h2.98266602v2.23791504h-2.98266602c-.2626953 0-.49023437.18292237-.54663086.43969727-.1833496.83792114-.51507568 1.63626098-.97949218 2.35702514-.1418457.22137452-.11035157.5118103.07562256.69781495l2.11138916 2.1109314-1.58270264 1.5833435-2.11096191-2.11157227c-.18597413-.18621826-.47662354-.21768188-.6982422-.07562256-.7210083.46463013-1.519104.79660035-2.35699462.98016358-.25701904.05596924-.44036865.2836914-.44036865.54660034v2.98205566h-2.23791504v-2.98205566c0-.26290894-.18334961-.4906311-.44036865-.54660034-.83789063-.18356323-1.63604737-.51553345-2.35705567-.98016358-.22155762-.14205932-.51226807-.1105957-.69824219.07562256L6.14245605 22.2299941l-1.58227539-1.58291626 2.11090088-2.1109314c.1864624-.18597412.2177124-.47665405.07562256-.69824219-.4645996-.72143554-.79656982-1.519989-.98016357-2.35812377-.05639649-.2567749-.2836914-.43927002-.54656983-.43927002H2.23791504V12.8025954z"/>
      <path fill="rgb(0,0,0)" fill-rule="evenodd" d="M12.86798096 18.397383c2.47192383 0 4.47576904-2.00363159 4.47576904-4.47583007 0-2.47195435-2.00384521-4.47579956-4.47576904-4.47579956-2.47198487 0-4.47583008 2.00384521-4.47583008 4.47579956.00262451 2.4706726 2.00512695 4.47320556 4.47583008 4.47583007zm0-7.83267211c1.85369873 0 3.35681152 1.5031433 3.35681152 3.35684204 0 1.85394287-1.5031128 3.35687255-3.35681152 3.35687255-1.85369873 0-3.35687256-1.50292968-3.35687256-3.35687255.00195312-1.85324097 1.50360107-3.35488892 3.35687256-3.35684204z"/>
      <path fill="rgb(0,0,0)" fill-rule="evenodd" d="M12.86791992 20.07578877c3.39880371 0 6.15423584-2.755188 6.15423584-6.15423584 0-3.39880371-2.75543213-6.15423584-6.15423584-6.15423584-3.3988037 0-6.15423584 2.75543213-6.15423584 6.15423584.0041504 3.39727783 2.75695801 6.15029907 6.15423584 6.15423584zm0-11.18951416c2.78100586 0 5.03527832 2.25430297 5.03527832 5.03527832 0 2.78100586-2.25427246 5.03527832-5.03527832 5.03527832-2.78100586 0-5.03527832-2.25427246-5.03527832-5.03527832.00305176-2.77944947 2.25561524-5.03222657 5.03527832-5.03527832z"/>
      <path fill="rgb(0,0,0)" fill-rule="evenodd" d="M33.00909424 23.43266132v4.47579957c1.54425049.00198364 2.79541015 1.2531433 2.79736328 2.7973938v1.11895751c-.00195313 1.54446411-1.2531128 2.79562378-2.79736328 2.79736328H3.9163208c-1.54425049-.0017395-2.79541016-1.25289917-2.79736328-2.79736328v-1.11895752c.00195312-1.54425048 1.2531128-2.79541015 2.79736328-2.7973938h17.90325928v-4.47579956c0-.30880737.25042724-.55947876.55944824-.55947876h2.79742432V18.397383c0-.30880737.25042724-.55947876.55944824-.55947876h5.03527832c.309021 0 .55950928.2506714.55950928.55947876v4.47579956H32.449646c.309021 0 .55944824.2506714.55944824.55947876zm-6.71374512-4.47583007h3.9163208v3.9163208h-3.9163208v-3.9163208zm.55950928 5.03530883h-3.9163208v3.9163208h3.9163208v-3.9163208zm1.11895752 3.9163208h3.9163208v-3.9163208h-3.9163208v3.9163208zM34.6875 31.8248122c0 .927063-.75152588 1.67840577-1.67840576 1.67840577H3.9163208c-.92681885 0-1.67840576-.75134278-1.67840576-1.67840577v-1.11895752c0-.92684936.75158691-1.67843628 1.67840576-1.67843628h29.09277344c.92687988 0 1.67840576.75158692 1.67840576 1.67843628v1.11895752z"/>
      <path fill="rgb(0,0,0)" fill-rule="evenodd" d="M18.46270752 29.58689716c-.92681885 0-1.67840576.75158692-1.67840576 1.67843628 0 .927063.75158691 1.67840577 1.67840576 1.67840577.92687988 0 1.6784668-.75134278 1.6784668-1.67840577 0-.92684936-.75158692-1.67843628-1.6784668-1.67843628zm0 2.23791504c-.309021 0-.55944824-.25045776-.55944824-.55947876 0-.30880737.25042724-.55947876.55944824-.55947876.309021 0 .55950928.2506714.55950928.55947876 0 .309021-.25048828.55947876-.55950928.55947876z"/>
      <path fill="rgb(0,0,0)" fill-rule="evenodd" d="M12.86791992 29.58689716c-.92681885 0-1.67840576.75158692-1.67840576 1.67843628 0 .927063.75158691 1.67840577 1.67840576 1.67840577.92687988 0 1.6784668-.75134278 1.6784668-1.67840577 0-.92684936-.75158692-1.67843628-1.6784668-1.67843628zm0 2.23791504c-.309021 0-.55944824-.25045776-.55944824-.55947876 0-.30880737.25042725-.55947876.55944824-.55947876.309021 0 .55950928.2506714.55950928.55947876 0 .309021-.25048828.55947876-.55950928.55947876z"/>
      <path fill="rgb(0,0,0)" fill-rule="evenodd" d="M24.05743408 29.58689716c-.92681885 0-1.67840576.75158692-1.67840576 1.67843628 0 .927063.75158691 1.67840577 1.67840576 1.67840577.92687988 0 1.6784668-.75134278 1.6784668-1.67840577 0-.92684936-.75158692-1.67843628-1.6784668-1.67843628zm0 2.23791504c-.309021 0-.55944824-.25045776-.55944824-.55947876 0-.30880737.25042725-.55947876.55944824-.55947876.309021 0 .55950928.2506714.55950928.55947876 0 .309021-.25048828.55947876-.55950928.55947876z"/>
      <path fill="rgb(0,0,0)" fill-rule="evenodd" d="M7.27319336 29.58689716c-.92681885 0-1.67840576.75158692-1.67840576 1.67843628 0 .927063.75158691 1.67840577 1.67840576 1.67840577.92687988 0 1.6784668-.75134278 1.6784668-1.67840577 0-.92684936-.75158692-1.67843628-1.6784668-1.67843628zm-.00006104 2.23791504c-.309021 0-.55944824-.25045776-.55944824-.55947876 0-.30880737.25042725-.55947876.55944824-.55947876.309021 0 .55950928.2506714.55950928.55947876 0 .309021-.25048828.55947876-.55950928.55947876z"/>
      <path fill="rgb(0,0,0)" fill-rule="evenodd" d="M29.65222168 29.58689716c-.92681885 0-1.67840576.75158692-1.67840576 1.67843628 0 .927063.75158691 1.67840577 1.67840576 1.67840577.92687988 0 1.6784668-.75134278 1.6784668-1.67840577 0-.92684936-.75158692-1.67843628-1.6784668-1.67843628zm0 2.23791504c-.309021 0-.55944824-.25045776-.55944824-.55947876 0-.30880737.25042724-.55947876.55944824-.55947876.309021 0 .55950928.2506714.55950928.55947876 0 .309021-.25048828.55947876-.55950928.55947876z"/>
    </g>
  </g>
</svg>
