<svg xmlns="http://www.w3.org/2000/svg" width="37" height="37" viewBox="0 0 37 37">
  <g>
    <path fill="rgb(18,42,136)" fill-rule="evenodd" d="M22.7501831.2658081l2.40551758 3.54421998c.06689453.09561157.10253907.20892334.10223389.32489013v11.81408692c-.00292969.97750854-.80895996 1.76919555-1.80413818 1.77212524H9.02075195c-.99517822-.00292969-1.8012085-.7946167-1.80413818-1.77212524V4.1349182c-.00030518-.1159668.03533935-.22927856.10223389-.32489013L9.72436523.2658081C9.83496093.10076904 10.02233887.00100708 10.22351074 0H22.2510376c.20117187.00100708.3885498.10076904.4991455.2658081zm-.82385253.91558838h-11.3781128l-1.60565185 2.3628235h14.5894165l-1.60565185-2.3628235zM13.8317871 4.72561646H8.41937256v2.36282348h5.41241455V4.72561646zm3.60821533 0V8.9373474l-.87200928-.56707763c-.1987915-.13589478-.46270752-.13589478-.66149902 0l-.87200928.56707763V4.72561646h2.40551758zm1.20275879 2.36282348h5.41241455V4.72561646h-5.41241455v2.36282348zm5.41247559 8.86056519c0 .32626342-.26928711.59072876-.6013794.59072876H9.02075195c-.33215332 0-.6013794-.26446534-.6013794-.59072876V8.26986694h5.41241456v1.77212525c-.00158691.21829223.121521.41906738.31872559.5198059.19335937.1062317.43151855.09475709.61340332-.02954101l1.47338867-.96282959 1.47338867.96282959c.1842041.11920166.42016601.12973022.61462402.02740479.19451905-.10229493.31634522-.30096436.31750489-.51766968V8.26986694h5.41241455v7.67913819z"/>
    <path fill="rgb(18,42,136)" fill-rule="evenodd" d="M16.66244374 20.25700668c-.23483818-.2306001-.6155109-.2306001-.85034908 0l-3.60827051 3.54422303c-.17193885.1689379-.22336512.42296557-.13030546.64366313.09305966.22069755.31228504.36461731.55548.36466832h1.20275684v4.13492686h1.20275683v-4.7256307c0-.32623672-.26924628-.59070384-.60137841-.59070384h-.35240776l2.15654301-2.11826396 2.15654301 2.11826396h-.35240775c-.33213213 0-.60137842.26446712-.60137842.59070384v7.08844605h1.20275684v-6.49774221h1.20275683c.24319497-.000051.46242035-.14397077.55548-.36466832.09305966-.22069756.0416334-.47472523-.13030546-.64366313l-3.6082705-3.54422303z"/>
    <path fill="rgb(18,42,136)" fill-rule="evenodd" d="M27.66345915 1.18140767H28.866216V4.7256307h-1.20275684V1.18140767z"/>
    <path fill="rgb(18,42,136)" fill-rule="evenodd" d="M27.66345915 5.90703837H28.866216v1.18140767h-1.20275684V5.90703837z"/>
    <path fill="rgb(18,42,136)" fill-rule="evenodd" d="M31.27172966 2.95351919h1.20275684v2.36281534h-1.20275684V2.9535192z"/>
    <path fill="rgb(18,42,136)" fill-rule="evenodd" d="M31.27172966 6.4977422h1.20275684v1.18140768h-1.20275684V6.49774221z"/>
    <path fill="rgb(18,42,136)" fill-rule="evenodd" d="M3.60832241 1.18140767h1.20275684V4.7256307H3.60832241V1.18140767z"/>
    <path fill="rgb(18,42,136)" fill-rule="evenodd" d="M3.60832241 5.90703837h1.20275684v1.18140767H3.60832241V5.90703837z"/>
    <path fill="rgb(18,42,136)" fill-rule="evenodd" d="M.0000519 2.95351919h1.20275684v2.36281534H.0000519V2.9535192z"/>
    <path fill="rgb(18,42,136)" fill-rule="evenodd" d="M.0000519 6.4977422h1.20275684v1.18140768H.0000519V6.49774221z"/>
    <path fill="rgb(18,42,136)" fill-rule="evenodd" d="M23.45381022 31.8980072h1.20275684v1.18140768h-1.20275684V31.8980072z"/>
    <path fill="rgb(18,42,136)" fill-rule="evenodd" d="M30.67034912 9.45126343c-1.32855225 0-2.40551758 1.05786133-2.40551758 2.36282348v4.98553467c-.08905029.0079956-.1774292.02182007-.26464843.04135132-.61712647.16290283-1.14294434.56036377-1.46130372 1.10461426l-4.20965576 7.15933227c-.05041504.09063721-.0772705.19207764-.07818603.29534912v4.13491822h-.6013794c-.33215332 0-.6013794.26446533-.6013794.59069824v4.72564697c0 .32623291.26922608.59069824.6013794.59069824h9.62207032c.33209228 0 .60137939-.26446533.60137939-.59069824v-4.72564697c0-.32623291-.2692871-.59069824-.6013794-.59069824h-.60137939v-.38394165l2.27319336-2.79403687c.08587647-.10339355.1326294-.2328186.13232422-.36624145V11.8140869c0-1.30496215-1.07702637-2.36282348-2.40551758-2.36282348zm-1.07043457 19.12698364l2.27319336-2.79403686V11.8140564c0-.65246582-.53851318-1.18139649-1.20275879-1.18139649-.66430664 0-1.20275879.52893067-1.20275879 1.18139649v5.10369873c.12402344.0446167.24456787.09790039.36083985.15948486 1.1494751.65512085 1.54223632 2.1005249.87799072 3.23114014l-3.00689697 5.11550903-1.04040528-.59069824 3.00689698-5.11550904c.23706054-.36621093.25054931-.83059692.03527832-1.20953369-.21533204-.37893676-.6248169-.61141967-1.06658936-.6055603-.44171143.00585938-.84466553.24917603-1.04943848.63369751l-4.13146972 7.02346802v3.97543335h6.01379394v-.59069824c-.0003662-.13345337.04638672-.2628479.13232422-.36624146zm1.07043457 5.68258667H22.2510376v-3.54421997h8.41931152v3.54421997z"/>
    <path fill="rgb(18,42,136)" fill-rule="evenodd" d="M11.4262085 29.53518677h-.6013794v-4.13491822c-.00091553-.10327148-.027771-.2047119-.07818603-.29534912L6.5369873 17.94558716c-.36791992-.61993408-1.00311279-1.04168701-1.72595214-1.14596558v-4.98553467c0-1.30496215-1.07696534-2.36282348-2.40551758-2.36282348C1.07702637 9.45126343 0 10.50912476 0 11.8140869V25.9909668c-.00030518.13342285.04644775.2628479.13232422.36624145l2.27319336 2.79403687v.38394165h-.6013794c-.33209228 0-.6013794.26446533-.6013794.59069824v4.72564697c0 .32623291.26928712.59069824.6013794.59069824h9.62207032c.33215332 0 .6013794-.26446533.6013794-.59069824v-4.72564697c0-.32623291-.26922608-.59069824-.6013794-.59069824zM1.20281982 25.7842102V11.8140564c0-.65246582.53851319-1.18139649 1.2027588-1.18139649.6642456 0 1.20275878.52893067 1.20275878 1.18139649v5.10369873c-.12353515.04574585-.24401855.09899902-.36083984.15948486-.55303955.31375122-.95635986.83062744-1.12109375 1.43673706-.16467285.60614014-.07720947 1.25167847.24310303 1.79440308l3.00689697 5.11550903 1.04034424-.59069824-3.00689698-5.11550904c-.2369995-.36621093-.25048828-.83059692-.03521728-1.20953369.21533203-.37893676.6248169-.61141967 1.06652832-.6055603.44177246.00585938.84472656.24917603 1.04949951.63369751l4.13146973 7.02346802v3.97543335H3.6083374v-.59069824c.00030518-.13345337-.04644775-.2628479-.13232422-.36624146l-2.27319336-2.79403686zm1.2027588 8.47662353h8.41931152v-3.54421997H2.4055786v3.54421997z"/>
    <path fill="rgb(18,42,136)" fill-rule="evenodd" d="M8.41934976 31.8980072H9.6221066v1.18140768H8.41934976V31.8980072z"/>
    <path fill="rgb(18,42,136)" fill-rule="evenodd" d="M17.44002604 32.48871104h1.20275684v1.18140767h-1.20275684v-1.18140767z"/>
    <path fill="rgb(18,42,136)" fill-rule="evenodd" d="M13.83175553 30.1258957h1.20275683v1.18140767h-1.20275683v-1.18140768z"/>
  </g>
</svg>
