<svg xmlns="http://www.w3.org/2000/svg" xmlns:xlink="http://www.w3.org/1999/xlink" width="37" height="37" viewBox="0 0 37 37">
  <defs>
    <rect id="rect-1" width="37" height="37" x="0" y="0"/>
    <mask id="mask-2" maskContentUnits="userSpaceOnUse" maskUnits="userSpaceOnUse">
      <rect width="37" height="37" x="0" y="0" fill="black"/>
      <use fill="white" xlink:href="#rect-1"/>
    </mask>
  </defs>
  <g>
    <use fill="none" xlink:href="#rect-1"/>
    <g mask="url(#mask-2)">
      <path fill="rgb(0,0,0)" fill-rule="evenodd" d="M33.38510773 17.05449837c-.39883633 0-.72258822.3237519-.72258822.72258821 0 .39883633.3237519.72258822.72258822.72258822s.72258821-.3237519.72258821-.72258822-.32367963-.72258821-.72258821-.72258821z"/>
      <path fill="rgb(0,0,0)" fill-rule="evenodd" d="M31.50640726 5.4930146c-.39883632 0-.72258821.3237519-.72258821.72258823 0 .39883632.3237519.72258821.72258821.72258821.39883633 0 .72258822-.3237519.72258822-.72258821 0-.39883633-.3237519-.72258822-.72258822-.72258822z"/>
      <path fill="rgb(0,0,0)" fill-rule="evenodd" d="M30.06123083 27.17080569c-.39883632 0-.72258822.3237519-.72258822.72258822s.3237519.72258821.72258822.72258821.72258822-.3237519.72258822-.72258821c0-.39883632-.3237519-.72258822-.72258822-.72258822z"/>
      <path fill="rgb(0,0,0)" fill-rule="evenodd" d="M19.9449235 4.04783817c-.39883632 0-.72258821.3237519-.72258821.72258822s.3237519.72258822.72258822.72258822.72258821-.3237519.72258821-.72258822-.3237519-.72258822-.72258821-.72258822z"/>
      <path fill="rgb(0,0,0)" fill-rule="evenodd" d="M19.9449235 31.506335c-.39883632 0-.72258821.3237519-.72258821.72258822s.3237519.72258821.72258822.72258821.72258821-.3237519.72258821-.72258821c0-.39883632-.3237519-.72258822-.72258821-.72258822z"/>
      <path fill="rgb(0,0,0)" fill-rule="evenodd" d="M18.49974707 15.60932193c-.39883632 0-.72258822.3237519-.72258822.72258822 0 .39890859.3237519.72258822.72258822.72258822s.72258822-.3237519.72258822-.72258822-.3237519-.72258822-.72258822-.72258822z"/>
      <path fill="rgb(0,0,0)" fill-rule="evenodd" d="M14.1641455 17.05449837c-.39883633 0-.72258823.3237519-.72258823.72258821 0 .39883633.3237519.72258822.72258822.72258822.39890859 0 .72258822-.3237519.72258822-.72258822s-.32367963-.72258821-.72258822-.72258821z"/>
      <path fill="rgb(0,0,0)" fill-rule="evenodd" d="M11.27379262 25.72562925c-.39890859 0-.72258822.3237519-.72258822.72258822s.3237519.72258822.72258822.72258822.72258822-.3237519.72258822-.72258822-.3237519-.72258822-.72258822-.72258822z"/>
      <path fill="rgb(0,0,0)" fill-rule="evenodd" d="M9.82861618 6.93819104c-.39883632 0-.72258821.3237519-.72258821.72258822 0 .39890859.3237519.72258822.72258821.72258822.3989086 0 .72258822-.3237519.72258822-.72258822s-.3237519-.72258822-.72258822-.72258822z"/>
      <path fill="rgb(0,0,0)" fill-rule="evenodd" d="M3.61431415 17.05449837c-.3989086 0-.72258822.3237519-.72258822.72258821 0 .39883633.3237519.72258822.72258822.72258822s.72258821-.3237519.72258821-.72258822-.3237519-.72258821-.72258821-.72258821z"/>
      <path fill="rgb(0,0,0)" fill-rule="evenodd" d="M17.77716064 21.39003568c0-1.59375 1.29660035-2.89035034 2.89035035-2.89035034 1.59375763 0 2.89035034 1.29660034 2.89035034 2.89035034s-1.29659271 2.89035035-2.89035034 2.89035035c-1.59375 0-2.89035035-1.29660035-2.89035035-2.89035035zm1.44517518.00009156c0 .796875.64830017 1.4451599 1.44517517 1.4451599.79688263 0 1.44517517-.6482849 1.44517517-1.4451599 0-.79690552-.64829254-1.44519043-1.44517517-1.44519043-.796875 0-1.44517517.6482849-1.44517517 1.44519043z"/>
      <path fill="rgb(0,0,0)" fill-rule="evenodd" d="M29.07176208 15.58510404c.7568512-.07601928 1.66299439-.32714843 2.16386414-.70315551 2.64450073-1.98724366 6.3522644.37493896 5.68560791 3.6472168-.50991821 2.5031433-3.5370636 3.74575805-5.64181518 2.17230224-.5164795-.38595581-1.43585206-.64541626-2.20880127-.72805786-.23060608.96850586-.61036683 1.88259887-1.13400269 2.72946167l.67791748.67785644c.67843628.67886353.88143921.72128296 1.42393494.83462525 1.00160217.2090454 1.95372009.49932861 2.68041992 1.22619629 1.6222992 1.62231445 1.34501648 4.31124877-.588974 5.58825683-1.80245972 1.19094849-4.35987854.50158692-5.2684784-1.5734558-.31384277-.717865-.41278076-1.1977234-.49227905-1.58334351-.17524719-.84970093-.31420898-.91848755-1.49842834-2.10446167-.84753418.52423095-1.76264954.90420532-2.73295593 1.13500976.08642578 1.14230347.38603973 2.73803711.7412262 3.22927857 1.89445495 2.6192932-.40512086 6.29611206-3.68144227 5.63330078-2.52758026-.512146-3.72950744-3.53396607-2.1710205-5.65518189.35106658-.4779663.64605712-2.07165527.72801208-3.20666504-.95175171-.22589111-1.8505249-.5954895-2.68418121-1.10351562-.1775589.2921753-.28277588.62649536-.30171204.96917724-.04964447.88372803-.4200821 1.71313477-1.04301453 2.33605957-1.60235595 1.60229493-4.29499054 1.36691285-5.58724975-.58706665-.73848725-1.11624145-.77671814-2.63656616-.09503174-3.78320312.76558685-1.2887268 2.18525696-1.95892334 3.62862396-1.7513733l.28147888-.2816162c-.52790832-.85324097-.90983581-1.77581787-1.14043426-2.75436402-1.49424744.02624512-3.88935852.21594239-5.61174774 1.07025147C2.54644012 22.33836942-.53433228 20.0221768.07884216 17.022543c.43273163-2.11541748 2.72464753-3.43710327 4.83178711-2.61529541 2.97209168 1.15777588 4.05221558 1.17324829 5.37802124 1.19226074.16907501.0024414.34214783.00491333.52365113.00982666.23031616-.98010254.6123886-1.90377808 1.14079284-2.75827026-.37462616-.29354859-.90332031-1.27737427-3.07159424-1.78567505-3.01204681-.70324707-3.82800293-4.752594-1.12308502-6.540802 2.03710175-1.34713746 4.87174225-.26190186 5.46461487 2.14926147.46741486 1.89291382 1.11303711 2.42840576 1.79595184 3.11175537.83865357-.51901245 1.74443055-.89682007 2.70506287-1.12841797-.09871674-.6545105-.34752655-1.27426147-.73306274-1.81756592-1.87921143-2.65267944.46806335-6.26705932 3.70818328-5.60473632 2.54290009.51879882 3.70580292 3.54421997 2.16841889 5.64700317-.38452912.52630615-.62813568 1.13067627-.71710205 1.77191162.96606445.23132324 1.87675476.61026001 2.71958923 1.13174439.43099976-.51641846 2.05575562-1.6197815 3.38365173-5.00653077 1.06164551-2.70547485 4.75393677-3.10604858 6.3885193-.63327026 1.18597411 1.79489136.51281737 4.35635376-1.57177735 5.26885986-3.21115113 1.40631104-3.9340973 2.2383728-5.12069702 3.42303467l-.01359558.01358032c.52429199.8477478.90455627 1.7633667 1.1355896 2.73388672zm3.07304383 3.9586792c1.23661804.92449951 3.05627441.19021607 3.36050415-1.30316162.40304565-1.97894287-1.81552124-3.39498901-3.4015503-2.2034607-.93086242.69888306-2.45928955 1.01712037-3.48553466 1.01712037-.50535584 0-.78944397-.28152466-.84747315-.6211853-.20205688-1.18371582-.65696716-2.2793274-1.35202026-3.25643921-.20443726-.28741455-.17155457-.6803894.07783508-.9298706 1.76849365-1.71499635 2.38911438-2.5774231 5.99453736-4.15631104 1.22317504-.53518677 1.6674652-2.05581665.94581604-3.14804077-1.0006714-1.51367188-3.21020508-1.23379517-3.83753968.36422729-1.51939392 3.87527466-3.42324829 5.09365845-4.12509155 5.9185791-.24967957.24954224-.642807.28234863-.93014526.0776062-.97920227-.69735717-2.07937622-1.152771-3.2700348-1.35375976-.34145355-.05758667-.60667419-.35128784-.60667419-.7399292 0-1.15515137.35757447-2.2548523 1.033844-3.1802063.91488647-1.25158691.22828674-3.06832886-1.29089356-3.37820435-1.95204925-.3991394-3.37128448 1.7562561-2.24009704 3.35290528.66975402.94387817 1.0319519 2.05865478 1.04691314 3.22357177.00455475.35614014-.25097656.66247559-.60219574.72180176-1.19021606.20089722-2.29010772.65646363-3.26931 1.35375977-.28718566.20449829-.67987823.17190552-.92948913-.07696533-1.14006805-1.1373291-2.01152802-1.83911133-2.59601593-4.20645142-.35070038-1.42565918-2.04013824-2.0991211-3.26439667-1.28952026-1.64752197 1.08905029-1.13046264 3.51119995.6552353 3.92800903 2.79582977.6555481 3.47917938 2.01751709 4.1821823 2.58886719.24938965.24954223.282341.64251709.0777588.92999267-.6975174.98013306-1.15293122 2.08059693-1.35383607 3.27090454-.05195617.3076477-.2936859.54241944-.59300994.59243775-.03504944.00686645-.08607483.01422119-.14627076.01422119-.2557907-.00454712-.4965744-.00613403-.72814941-.00769043-1.76502228-.01177979-2.99554443-.01998901-6.26366425-1.29309082-1.23827362-.48294067-2.62831115.27304077-2.89128875 1.5583496-.37181092 1.81921388 1.48029327 3.19937135 3.06385803 2.41210938 2.30226135-1.14190673 5.2064972-1.19467163 6.36149597-1.21566772.14846039-.00268555.26802063-.0048523.35368347-.00875855.50289917 0 .7871933.28033448.84522248.62057496.20205688 1.18450927.65697479 2.28005981 1.35188293 3.25622558.2046585.28738403.17177582.68051148-.0776825.93005371l-.9708252.97155762-.0089569.0090332c-.20567322.20544434-.5102768.26577759-.77635956.16085816-.93642425-.20928955-1.85195923.18557739-2.35131836 1.02618408-.40454864.6803894-.3812027 1.58361816.05802918 2.24752807.80107116 1.21133423 2.4185257 1.30404664 3.35993957.3624878.37137604-.37136841.59229279-.8666687.62191773-1.39459229.05600738-1.01278686.5754547-1.93310547 1.10068512-2.34002685.0144577-.01119995.02926635-.02206421.04299926-.03417969.25112153-.222229.62206269-.24261475.89595795-.04901123.97537232.68936157 2.0688324 1.13964844 3.25016022 1.3385315.30814361.05187988.54315185.2940979.59287262.5939331.09561157.49142456-.2337799 3.70111084-1.01714325 4.76776123-.91929627 1.25149536-.2327652 3.0739746 1.29312897 3.38320923 2.00538635.4059143 3.34035492-1.82601929 2.22355651-3.37005615-.78256988-1.08261109-1.0397644-3.83444214-1.04034423-4.66101075-.00028992-.35308838.25466156-.65460205.60284423-.71313476 1.1907959-.2000122 2.29257203-.6558838 3.2748108-1.35461426.28753662-.2045288.68074035-.17156982.9300537.078125 1.6137848 1.6152649 2.02807618 1.8883667 2.30941773 3.25216675.06922913.33605957.14778137.71704101.40084839 1.29589844.5424347 1.23919677 2.07194519 1.65777587 3.14797974.94680786 1.2124176-.80056763 1.30570984-2.41845703.36357116-3.36044312-.49595642-.49603271-1.25814819-.68817139-1.95385742-.8334961-.72387695-.15112304-1.21499634-.2913208-2.15055847-1.2274475-1.02011108-1.03399658-1.05059814-1.02612305-1.14982605-1.17636109-.1919403-.24908447-.20176697-.59771728-.01669312-.85864257.69274903-.9768982 1.14527894-2.07122803 1.3453064-3.25271607.05311585-.31420898.30488587-.5539856.61621094-.59561157.5379486-.11135864 2.61198425.16897583 3.75718689 1.0246582z"/>
      <path fill="rgb(0,0,0)" fill-rule="evenodd" d="M20.66751099 14.88670927c0-1.19528198.97248077-2.16775513 2.16776275-2.16775513 1.19528961 0 2.16776276.97247315 2.16776276 2.16775513 0 1.19528198-.97247315 2.16778564-2.16776276 2.16778564-1.19528198 0-2.16776275-.97250366-2.16776275-2.16778564zm1.44517517.00003052c0 .39840698.32418823.72259521.72258758.72259521.39839936 0 .72258759-.32418823.72258759-.72259521 0-.39840699-.32418823-.72259522-.72258759-.72259522-.39839935 0-.72258758.32418823-.72258758.72259522z"/>
      <path fill="rgb(0,0,0)" fill-rule="evenodd" d="M18.65988863 12.08194384c-.13759455-.37455493-.55261847-.56678262-.92746246-.4291158-1.50775884.55377473-2.71561357 1.63856039-3.468409 2.97208578-.19627459.34745516-.07349457.78820579.27403286.98440811.34832235.19656365.78863938.07277191.98455264-.27403286.59142534-1.0480745 1.53738792-1.89597204 2.7083147-2.32595503.37448266-.13759456.56663808-.55283527.42897126-.9273902z"/>
    </g>
  </g>
</svg>
