<svg xmlns="http://www.w3.org/2000/svg" xmlns:xlink="http://www.w3.org/1999/xlink" width="37" height="37" viewBox="0 0 37 37">
  <defs>
    <rect id="rect-1" width="37" height="37" x="0" y="0"/>
    <mask id="mask-2" maskContentUnits="userSpaceOnUse" maskUnits="userSpaceOnUse">
      <rect width="37" height="37" x="0" y="0" fill="black"/>
      <use fill="white" xlink:href="#rect-1"/>
    </mask>
    <path id="path-4" fill-rule="evenodd" d="M33.47054613 3.52944946c2.3494873 2.34863282 3.52380371 5.43432617 3.52380371 8.51998902h.00564575v19.63763427h-.0036621c-.07000733 2.89712525-2.41299439 5.23925782-5.31011963 5.30926514V37H9.00439013v-.00564575c-.05136109.00054931-.10272217.0014038-.15411377.0014038-2.26760865 0-4.53521729-.86294555-6.26113892-2.588562-1.72619629-1.72592164-2.58914185-3.99267579-2.58914185-6.2605896 0-1.9517212.63964844-3.90374756 1.91928101-5.51080323L16.42800463 3.52944946C18.70379198 1.25308228 21.7302202 0 24.94884813 0c3.2189331 0 6.24533081 1.25308228 8.521698 3.52944946zM21.09368456 5.39761353c1.16271973-.67492676 2.49090576-1.03286744 3.8421936-1.03485108h.00143433c.5984497 0 1.08398437.48413086 1.08480835 1.08258057.00143432.59899902-.48355103 1.08538818-1.08255005 1.0859375-.96966553.0022583-1.92297363.25888061-2.75628662.74215698-.17190552.09991455-.35906983.14678955-.54394531.14678955-.37374878 0-.73791504-.19366455-.93890381-.53973389-.30062867-.51828003-.12503052-1.18222045.3932495-1.48287963zm6.20690918.38504028c.29922485-.51882935.96176147-.6972351 1.48144531-.39801026 1.16641235.67184449 2.14031983 1.6423645 2.81750488 2.80593873.30065918.51828002.12506104 1.18164062-.3923645 1.48284912-.17190552.0996704-.35906982.14736938-.54425049.14736938-.37432861 0-.73764038-.19366455-.93862915-.53973389-.48635864-.83670043-1.18728637-1.53424072-2.0256958-2.01693725-.51882934-.29925537-.6972351-.96176148-.39801025-1.48147583zM18.28545702 8.2137146c-.66986084 1.16134644-1.0241394 2.48809814-1.0241394 3.8357544v.00732421c0 .59899903.48553466 1.08483887 1.08483886 1.08483887.59899903 0 1.0845337-.48583984 1.0845337-1.08483887V12.049469c0-.96826171.25378417-1.91986084.7342224-2.75259399.29925538-.51800537.12139893-1.18139648-.39746093-1.48062134-.51940918-.29977417-1.18218994-.1213684-1.48199463.39746094zm6.66339111.39520264c-1.89697265 0-3.44052124 1.54354858-3.44052124 3.44052124 0 1.89697265 1.54354859 3.4407959 3.44052124 3.4407959 1.89782715 0 3.44137574-1.54382325 3.44137574-3.4407959 0-1.89697266-1.54354859-3.44052124-3.44137574-3.44052124zm7.68838501 3.44052124l-.00054931-.01495362c0-.5993042-.48580933-1.08483886-1.08398438-1.08483886-.5993042 0-1.08483887.48553466-1.08483887 1.08483886v.01495362c0 .96994018-.25518798 1.9237976-.73788452 2.7576599-.29980468.51828004-.12194824 1.18167115.39602661 1.48144532.1713562.09909058.35766602.14624024.5419922.14624024.37515258 0 .73931884-.19451905.9403076-.54144288.67269898-1.16415405 1.02893067-2.49316406 1.02893067-3.84390258zm2.1933899 15.15631103c-.9126587-.68991089-2.04885865-1.09979248-3.27792359-1.09979248-3.00411987 0-5.44815063 2.44320679-5.44815063 5.44674683 0 1.22991943.4104309 2.3652954 1.09979248 3.27792358H14.656093c.1555481-.13522339.30795289-.27609253.45617676-.4234314 3.4520874-3.45294189 3.4520874-9.06933593 0-12.52142333-2.19338989-2.1933899-5.25958252-2.99255372-8.09008789-2.39944459l5.88739014-7.78295898c-.09118652 3.2000122 1.08114624 6.42965698 3.51843262 8.86636353 2.27578735 2.2755127 5.30221557 3.52944946 8.5208435 3.52944946 3.2189331 0 6.24533081-1.25393677 8.521698-3.52944946.50811768-.508667.96176148-1.05151368 1.3600769-1.62173462v8.25775146zM22.59090746 18.3128357c-.20098877.34835816-.56570435.54284668-.94085693.54284668-.1835022 0-.37008667-.04714966-.54116822-.14624023-1.16583252-.67266846-2.13916015-1.64459229-2.8149414-2.80874634-.2998047-.51828003-.12338257-1.18222046.3946228-1.4822998.51828003-.30062867 1.18222046-.12420655 1.4822998.39379882.48553467.8369751 1.18502808 1.5350647 2.0234375 2.01919556.51797486.29980469.6958313.96316528.39660645 1.48144531zm5.11871338-1.48425293c-.83331299.48269654-1.7871399.73760987-2.7571106.73846436-.59899902.0008545-1.08453369.48638916-1.08453369 1.08538818.00054932.59844971.48638916 1.08398438 1.0845337 1.08398438h.00085448c1.35131836-.00054932 2.68032837-.35681153 3.84362793-1.03118897.51828003-.29980468.69528199-.96316528.39465332-1.48144531-.29980468-.51885986-.96316528-.69528198-1.48202514-.39520264zM8.85027636 31.58657836c-1.89697266 0-3.44052124-1.54354857-3.44052124-3.44052123 0-1.89697266 1.54354858-3.44052124 3.44052124-3.44052124 1.89782714 0 3.44137573 1.54354858 3.44137573 3.44052124 0 1.89697266-1.54354859 3.44052124-3.44137573 3.44052124zm22.7024231 1.4128418c.59817504 0 1.08398437-.48553466 1.08398437-1.08483886v-.72320557c0-.5993042-.48580933-1.08483886-1.08398438-1.08483886-.5993042 0-1.08483887.48553466-1.08483887 1.08483886v.72320557c0 .5993042.48553467 1.08483887 1.08483887 1.08483887z"/>
    <mask id="mask-5" x="0" y="0" maskContentUnits="userSpaceOnUse" maskUnits="userSpaceOnUse">
      <rect width="37" height="37" x="0" y="0" fill="black"/>
      <use fill="white" xlink:href="#path-4"/>
    </mask>
  </defs>
  <g>
    <use fill="none" xlink:href="#rect-1"/>
    <g mask="url(#mask-2)">
      <path fill="rgb(0,0,0)" fill-rule="evenodd" d="M8.85028076 26.8749088c-.7009202 0-1.27114078.57022132-1.27114078 1.27114079 0 .7009202.5702213 1.2717059 1.27114078 1.2717059.70120276 0 1.27198774-.5707857 1.27198774-1.2717059s-.5707857-1.27114078-1.27198774-1.27114078z"/>
      <use fill-opacity="0" stroke="rgb(0,0,0)" stroke-linecap="butt" stroke-linejoin="miter" stroke-width="2.4" mask="url(#mask-5)" xlink:href="#path-4"/>
      <path fill="rgb(0,0,0)" fill-rule="evenodd" d="M26.2208513 12.04943848c0-.70092774-.57022094-1.271698-1.27197265-1.271698-.70092773 0-1.27114868.57077026-1.27114868 1.271698 0 .70120239.57022095 1.27114868 1.27114868 1.27114868.7017517 0 1.27197266-.5699463 1.27197266-1.27114868z"/>
    </g>
  </g>
</svg>
