<svg xmlns="http://www.w3.org/2000/svg" xmlns:xlink="http://www.w3.org/1999/xlink" width="40" height="40" viewBox="0 0 40 40">
  <defs>
    <path id="path-1" fill-rule="evenodd" d="M36.62322998 14.06451416l-2.95419311 4.643219 5.80709838 9.0342102-4.3251648 6.72839355c.6174164.59869385.97805787 1.41998291.97805787 2.30386353C36.12902832 38.55291748 34.68193054 40 32.90322876 40c-1.55807495 0-2.86064148-1.11032104-3.16064453-2.58065796h-4.05484009c-.2671051.74905396-.97677612 1.29034424-1.81677246 1.29034424-1.06710815 0-1.93548584-.8684082-1.93548584-1.93548584 0-.42904663.15870666-.83743286.41548157-1.17163086l-4.63871765-7.21548462H9.36064148L5.8612976 33.19805908c.37289428.44967652.59031677 1.03097534.59031677 1.64065552 0 1.42321777-1.15742493 2.58062744-2.5806427 2.58062744-1.42323303 0-2.5806427-1.15740967-2.5806427-2.58062744 0-1.42321777 1.15740967-2.58065796 2.5806427-2.58065796.33096313 0 .6477356.0683899.94386291.18582153l3.43612671-4.72451782-3.86322021-6.00967407c-.36839295.143219-.7599945.22579956-1.16194153.22579956C1.44709778 21.93548584 0 20.4883728 0 18.70968628c0-1.77871704 1.44709778-3.22583008 3.22579956-3.22583008.4012909 0 .79226685.08261109 1.16130066.22647095l2.75160217-4.28063965c-.43740844-.46905518-.68708801-1.09033203-.68708801-1.7522583 0-1.4232483 1.15742493-2.58065796 2.5806427-2.58065796 1.19935608 0 2.20065308.8251648 2.48902893 1.93548584h6.21484375l3.49935913-4.81097412c-.37290954-.44967651-.59033203-1.03097534-.59033203-1.640625C20.64515686 1.15740966 21.80258179 0 23.22579956 0c1.42323303 0 2.58065796 1.15740967 2.58065796 2.58065796 0 1.42321777-1.15742493 2.58062744-2.58065796 2.58062744-.33096313 0-.6477356-.0683899-.94386291-.18579102l-3.43612671 4.72451783 5.37741089 8.36450195h8.32582092l2.98321533-4.68774414c-.44064331-.46902466-.69354248-1.09484863-.69354248-1.76385498 0-1.4232483 1.15740967-2.58065796 2.5806427-2.58065796C38.84257507 9.03225708 40 10.18966675 40 11.61291504c0 1.42321777-1.15742493 2.58062744-2.5806427 2.58062744-.27420044 0-.54194641-.04644775-.79612732-.12902832zM23.22581482 1.29034424c.71160889 0 1.29031372.57870483 1.29031372 1.29031372 0 .71160889-.57870483 1.29034424-1.29031372 1.29034424-.27742004 0-.53485107-.0845337-.76322937-.25549317-.3296814-.2341919-.52709961-.62063598-.52709961-1.03485107 0-.71160889.57870483-1.29031372 1.29032898-1.29031372zM9.03225708 8.38711548c.71160889 0 1.29031372.57870483 1.29031372 1.29031372 0 .71160889-.57870483 1.29034424-1.29031372 1.29034424-.24710083 0-.48129272-.06970215-.69807434-.20840454-.37097168-.23675537-.59225464-.64065552-.59225464-1.0819397 0-.71160889.57870483-1.29031372 1.29032898-1.29031372zm8.67999268 1.93548584H11.521286c-.28839111 1.11032104-1.28967285 1.93548584-2.48902893 1.93548584-.2748413 0-.54516602-.04904175-.80516052-.13613892l-2.7535553 4.28387451c.61741638.59872437.97805786 1.42001343.97805786 2.30386353 0 .88259888-.3600006 1.70388794-.97805786 2.30325317l3.91096497 6.0838623h8.32774353l5.39161682-8.38711547-5.39161682-8.38708496zm20.99742126 1.29031372c0-.71160889-.57870483-1.29031372-1.29031372-1.29031372-.71162415 0-1.29032898.57870483-1.29032898 1.29031372 0 .44451904.22322083.85098267.59613037 1.08709717.20645142.13485717.44386292.20324707.69419861.20324707.71160889 0 1.29031372-.57873535 1.29031372-1.29034424zM9.03225708 15.48388672h5.1612854v1.29031372h-5.1612854v-1.29031372zm9.03225708 0h-2.5806427v1.29031372h2.5806427v-1.29031372zM3.22581482 16.77420044c-1.0670929 0-1.93548584.86837768-1.93548584 1.93548584 0 1.06710815.86839294 1.93548584 1.93548584 1.93548584.37097168 0 .73161316-.10644531 1.04193115-.30905151.56065369-.35806275.89355469-.9657898.89355469-1.62643433 0-.66064453-.332901-1.2684021-.88967896-1.62515259-.31419372-.20388794-.6748352-.31033325-1.04580688-.31033325zm5.80644226 1.29034424h9.03225708v1.29031372H9.03225708v-1.29031372zm20.71032715 18.06451416h-4.05484009c-.26708984-.74905396-.97677612-1.29034424-1.81677246-1.29034424-.1522522 0-.29934692.02194214-.44258118.05484009l-4.59677124-7.15161133 5.39161682-8.38708496h8.32774353l5.39160157 8.38708496-3.87805176 6.03292847c-.36903381-.14389038-.76000977-.22647095-1.16130066-.22647095-1.55741882 0-2.86064148 1.11032104-3.16064453 2.58065796zM12.90322876 20.64517212H9.03225708v1.29031372h3.87097168v-1.29031372zm1.29031372 0h1.29032898v1.29031372h-1.29032898v-1.29031372zm3.87098694 0h-1.29032898v1.29031372h1.29032898v-1.29031372zm5.80644226 3.87097168h5.1612854v1.29031372h-5.1612854V24.5161438zm9.03225708 0h-2.5806427v1.29031372h2.5806427V24.5161438zm-9.03225708 2.58065796h9.03225708v1.29031372h-9.03225708v-1.29031372zm3.87097168 2.58062744h-3.87097168v1.29031372h3.87097168V29.6774292zm1.29031372 0h1.29032898v1.29031372h-1.29032898V29.6774292zm3.87097168 0h-1.29032898v1.29031372h1.29032898V29.6774292zM3.87097168 36.12905884c-.71162415 0-1.29032898-.57873535-1.29032898-1.29034424s.57870483-1.29031372 1.29032898-1.29031372c.27742004 0 .53483582.08450317.76321411.25549316.3296814.2341919.52709961.62063599.52709961 1.03482056 0 .71160889-.57870483 1.29034424-1.29031372 1.29034424zm27.09677124.6451416c0 1.06710815.86839294 1.93548584 1.93548584 1.93548584s1.93548584-.86837769 1.93548584-1.93548584c0-.66064453-.332901-1.2684021-.88967896-1.62515259-.31419372-.20388794-.6748352-.31033325-1.04580688-.31033325-1.0670929 0-1.93548584.86837769-1.93548584 1.93548584zm-7.74194336.00003052c0 .35610962.28903198.6451416.64515686.6451416.35614014 0 .64517212-.28903198.64517212-.6451416 0-.35614014-.28903198-.64517212-.64517212-.64517212-.12838745 0-.24128723.03225708-.33547974.0954895-.19677734.12579346-.30967712.33224487-.30967712.54968262z"/>
    <mask id="mask-2" x="0" y="0" maskContentUnits="userSpaceOnUse" maskUnits="userSpaceOnUse">
      <rect width="40" height="40" x="0" y="0" fill="black"/>
      <use fill="white" xlink:href="#path-1"/>
    </mask>
  </defs>
  <g>
    <use fill="rgb(18,42,136)" xlink:href="#path-1"/>
    <use fill-opacity="0" stroke="rgb(18,42,136)" stroke-linecap="butt" stroke-linejoin="miter" stroke-width="2" mask="url(#mask-2)" xlink:href="#path-1"/>
  </g>
</svg>
