<svg xmlns="http://www.w3.org/2000/svg" xmlns:xlink="http://www.w3.org/1999/xlink" width="40" height="40" viewBox="0 0 40 40">
  <defs>
    <rect id="rect-1" width="40" height="40" x="0" y="0"/>
    <mask id="mask-2" maskContentUnits="userSpaceOnUse" maskUnits="userSpaceOnUse">
      <rect width="40" height="40" x="0" y="0" fill="black"/>
      <use fill="white" xlink:href="#rect-1"/>
    </mask>
  </defs>
  <g>
    <use fill="none" xlink:href="#rect-1"/>
    <g mask="url(#mask-2)">
      <path fill="rgb(18,42,136)" fill-rule="evenodd" d="M38.40447998 14.4409927l-13.75-6.875c-.17590332-.0880432-.38305664-.0880432-.55895996 0l-13.75003052 6.875c-.21176147.10583497-.34552002.32226563-.3454895.559021v4.99996948H1.875c-.34518433.00003052-.625.2798462-.625.625v17.5c0 .34518433.27981567.625.625.625h36.25c.3451538 0 .625-.27981567.625-.625V15.0000137c0-.23675537-.13372803-.45318603-.34552002-.559021zM24.375 8.8237747l13.125 6.5625v1.72747803L24.65447998 10.6909927c-.17590332-.08804322-.38305664-.08804322-.55895996 0L11.25 17.1137527V15.3862747l13.125-6.5625zm0 3.125l-11.10244751 5.5512085h22.2048645L24.375 11.94877468zM13.75 18.7500137h-2.5v1.25h2.5v-1.25zm20 11.25h-12.5v-.625c0-.34518432-.2798462-.625-.625-.625H18.75v-8.125c0-.34518432-.2798462-.625-.625-.625H15v-1.25h18.75v11.25zm1.25 7.5v-18.75h2.5v18.75H35zm-17.5-16.25v7.5h-15v-7.5h15zm15 0H20v1.25h12.5v-1.25zm0 2.5H20v1.25h12.5v-1.25zm-12.5 2.5h12.5v1.25H20v-1.25zm-17.5 3.75v7.5H20v-7.5H2.5zm31.25 1.25h-12.5v6.25h12.5v-6.25z"/>
    </g>
  </g>
</svg>
