<svg xmlns="http://www.w3.org/2000/svg" xmlns:xlink="http://www.w3.org/1999/xlink" width="37" height="37" viewBox="0 0 37 37">
  <defs>
    <rect id="rect-1" width="37" height="37" x="0" y="0"/>
    <mask id="mask-2" maskContentUnits="userSpaceOnUse" maskUnits="userSpaceOnUse">
      <rect width="37" height="37" x="0" y="0" fill="black"/>
      <use fill="white" xlink:href="#rect-1"/>
    </mask>
  </defs>
  <g>
    <use fill="none" xlink:href="#rect-1"/>
    <g mask="url(#mask-2)">
      <path fill="rgb(0,0,0)" fill-rule="evenodd" d="M9.25 32.375h1.15625v1.15625H9.25V32.375z"/>
      <path fill="rgb(0,0,0)" fill-rule="evenodd" d="M9.25 21.96875h1.15625V23.125H9.25v-1.15625z"/>
      <path fill="rgb(0,0,0)" fill-rule="evenodd" d="M12.140625 3.46875H1.734375c-.3192749 0-.578125.2588501-.578125.578125v31.21875c0 .3192749.2588501.578125.578125.578125h10.40625c.3192749 0 .578125-.2588501.578125-.578125V4.046875c0-.3192749-.2588501-.578125-.578125-.578125zM4.625 7.515625V4.625H2.3125v9.25h9.25v-9.25H9.25v2.890625c0 .3192749-.2588501.578125-.578125.578125h-3.46875c-.3192749 0-.578125-.2588501-.578125-.578125zM5.78125 4.625h2.3125v2.3125h-2.3125V4.625zM2.3125 15.03125v9.25h9.25v-9.25H9.25v2.890625c0 .3192749-.2588501.578125-.578125.578125h-3.46875c-.3192749 0-.578125-.2588501-.578125-.578125V15.03125H2.3125zm3.46875 0h2.3125v2.3125h-2.3125v-2.3125zM2.3125 25.4375v9.25h9.25v-9.25H9.25v2.890625c0 .3192749-.2588501.578125-.578125.578125h-3.46875c-.3192749 0-.578125-.2588501-.578125-.578125V25.4375H2.3125zm3.46875 0h2.3125V27.75h-2.3125v-2.3125z"/>
      <path fill="rgb(0,0,0)" fill-rule="evenodd" d="M9.25 11.5625h1.15625v1.15625H9.25V11.5625z"/>
      <path fill="rgb(0,0,0)" fill-rule="evenodd" d="M33.53125 22.546875h-.6282959l-.47302246-5.203125H33.53125c.3192749 0 .578125-.2588501.578125-.578125v-2.3125c0-.29458618-.22149658-.54205322-.51434326-.57458496L23.703125 12.77944946V8.671875c0-.3192749-.2588501-.578125-.578125-.578125h-9.25V9.25h8.671875v13.875H13.875v1.15625h3.46875v6.9375H13.875V32.375h8.71386719c.28704834 1.99108887 1.9932251 3.46890259 4.00488281 3.46890259 2.01165771 0 3.71783447-1.47781372 4.00488281-3.46890259H35.265625c.3192749 0 .578125-.2588501.578125-.578125v-6.9375c-.00146484-1.2765503-1.0359497-2.31106567-2.3125-2.3125zM18.5 24.28125h4.625c.3192749 0 .578125-.2588501.578125-.578125v-9.76034546l9.25 1.027771V16.1875H26.59375c-.3192749 0-.578125.25881958-.578125.578125v8.69839478c-3.05334473.28302001-5.47167969 2.7013855-5.7546997 5.75473022H18.5v-6.9375zm8.671875-1.734375h4.57006836l-.47302246-5.203125H27.171875v5.203125zm0 2.91714478c3.05334473.28302001 5.47167969 2.7013855 5.7546997 5.75473022H34.6875v-2.3125h-1.15625V27.75h1.15625v-1.15625h-1.734375c-.3192749 0-.578125-.2588501-.578125-.578125v-2.3125h-5.203125v1.76089478zM34.6875 24.859375v.578125h-1.15625v-1.734375c.63824463.00076294 1.15551758.51797485 1.15625 1.15625zM22.58886719 31.21875c.28961181-1.98965454 1.9942627-3.46609497 4.00488281-3.46875 2.01062012.00265503 3.715271 1.47909546 4.00488281 3.46875h1.16540528c-.29418946-2.6333313-2.52056885-4.62484741-5.17028809-4.62484741-2.64971924 0-4.8760376 1.99151611-5.17022705 4.62484741h1.16534424zM26.59375 34.6875c-1.59643555 0-2.890625-1.29418945-2.890625-2.890625s1.29418945-2.890625 2.890625-2.890625 2.890625 1.29418945 2.890625 2.890625c-.00177002 1.59570313-1.29492188 2.88882446-2.890625 2.890625z"/>
      <path fill="rgb(0,0,0)" fill-rule="evenodd" d="M19.65625 10.40625h1.15625v11.5625h-1.15625v-11.5625z"/>
      <path fill="rgb(0,0,0)" fill-rule="evenodd" d="M17.34375 10.40625H18.5v11.5625h-1.15625v-11.5625z"/>
      <path fill="rgb(0,0,0)" fill-rule="evenodd" d="M15.03125 10.40625h1.15625v11.5625h-1.15625v-11.5625z"/>
      <path fill="rgb(0,0,0)" fill-rule="evenodd" d="M24.859375 31.796875c0-.95785522.77648926-1.734375 1.734375-1.734375.95739746.00106812 1.73327637.77694702 1.734375 1.734375 0 .95785522-.77648926 1.734375-1.734375 1.734375s-1.734375-.77651978-1.734375-1.734375zm1.15625 0c0 .3192749.2588501.578125.578125.578125.31915283-.00036621.57775879-.25897217.578125-.578125 0-.3192749-.2588501-.578125-.578125-.578125s-.578125.2588501-.578125.578125z"/>
    </g>
  </g>
</svg>
