<svg xmlns="http://www.w3.org/2000/svg" xmlns:xlink="http://www.w3.org/1999/xlink" width="37" height="37" viewBox="0 0 37 37">
  <defs>
    <rect id="rect-1" width="37" height="37" x="0" y="0"/>
    <mask id="mask-2" maskContentUnits="userSpaceOnUse" maskUnits="userSpaceOnUse">
      <rect width="37" height="37" x="0" y="0" fill="black"/>
      <use fill="white" xlink:href="#rect-1"/>
    </mask>
  </defs>
  <g>
    <use fill="none" xlink:href="#rect-1"/>
    <g mask="url(#mask-2)">
      <path fill="rgb(0,0,0)" fill-rule="evenodd" d="M6.359375 12.71875104h16.1875c.3192749 0 .578125.2588501.578125.578125v21.96875c0 .3192749-.2588501.578125-.578125.578125h-16.1875c-.31930542 0-.578125-.2588501-.578125-.578125v-1.49487305L4.45568848 35.0963145l-.81762696-.81762695 2.890625-2.890625c.50491333-.50488281.7885437-1.18966675.7885437-1.90368652 0-.71401978-.28363037-1.39880372-.7885437-1.90368653-.10842895-.10842895-.16934204-.25549316-.16934204-.40881347 0-.15332032.06091309-.30038453.16934204-.40881348l2.6015625-2.6015625c.25314331-.25314331.25314331-.66360474 0-.91674805-.2531433-.25317383-.66360473-.25317383-.91674804 0l-2.6015625 2.6015625-.81762696-.81762695.98693848-.98693848v-1.49487304H4.046875c-.63827515.00076293-1.15548706.51797485-1.15625 1.15625v5.203125c0 .1533203-.06091309.30038452-.16931152.40881347l-1.15625 1.15625-.81762696-.81762695.98693848-.98684693v-4.9637146c.00143433-1.27655029 1.03591919-2.31106567 2.3125-2.3125H5.78125v-8.09375c0-.3192749.25881958-.578125.578125-.578125zm.578125 21.96875h15.03125v-20.8125H6.9375v9.01049804l.45837402-.45837402c.70559693-.69952393 1.8439331-.69708252 2.5465088.00549316.70257568.70257569.7050476 1.84091187.00549316 2.5465088L7.724823 27.20214946c1.12710571 1.53237915.96627807 3.65817261-.37850952 5.00354004L6.9375 32.614503v2.07299805z"/>
      <path fill="rgb(0,0,0)" fill-rule="evenodd" d="M35.84375 5.20312604v-2.3125c0-.3192749-.2588501-.578125-.578125-.578125h-19.65625c-.3192749 0-.578125.2588501-.578125.578125v2.3125c0 .3192749.2588501.578125.578125.578125v3.46875h1.15625v-3.46875h4.625v3.46875c0 .3192749.2588501.578125.578125.578125h6.9375c.3192749 0 .578125-.2588501.578125-.578125v-3.46875h4.625v6.9375H24.28125v1.15625h4.046875v1.15625H24.28125v1.15625h4.046875v2.890625H24.28125v1.15625h4.625c.3192749 0 .578125-.2588501.578125-.578125v-3.46875h4.625v6.9375H24.28125v1.15625h4.046875v1.15625H24.28125v1.15625h4.046875v2.890625H24.28125v1.15625h4.625c.3192749 0 .578125-.2588501.578125-.578125v-3.46875h4.625v6.9375H24.28125v1.15625H34.6875c.3192749 0 .578125-.2588501.578125-.578125v-7.515625c.3192749 0 .578125-.2588501.578125-.578125v-2.3125c0-.3192749-.2588501-.578125-.578125-.578125v-6.9375c.3192749 0 .578125-.2588501.578125-.578125v-2.3125c0-.3192749-.2588501-.578125-.578125-.578125v-6.9375c.3192749 0 .578125-.2588501.578125-.578125zm-19.65625-1.734375v1.15625h5.203125v-1.15625H16.1875zm12.140625 0v1.15625h-5.78125v-1.15625h5.78125zm6.359375 0h-5.203125v1.15625H34.6875v-1.15625zm-6.359375 5.203125h-5.78125v-2.890625h5.78125v2.890625zm6.359375 5.203125h-5.203125v1.15625H34.6875v-1.15625zm-5.203125 10.40625H34.6875v1.15625h-5.203125v-1.15625z"/>
      <path fill="rgb(0,0,0)" fill-rule="evenodd" d="M31.796875 31.21875h1.15625V32.375h-1.15625v-1.15625z"/>
      <path fill="rgb(0,0,0)" fill-rule="evenodd" d="M31.796875 20.8125h1.15625v1.15625h-1.15625V20.8125z"/>
      <path fill="rgb(0,0,0)" fill-rule="evenodd" d="M31.796875 10.40625h1.15625v1.15625h-1.15625v-1.15625z"/>
      <path fill="rgb(0,0,0)" fill-rule="evenodd" d="M13.875 21.89323242v.65364258h1.15625v-.65364258c.64189249-.20136226 1.09727824-.77223446 1.1509446-1.44282573.05366637-.67059126-.30513288-1.30662141-.90683132-1.6075063l-1.12734375-.56367187c-.20485434-.10239541-.31241712-.33220892-.2598138-.55510578.0526033-.22289686.25156538-.38037098.48058529-.38037274h.16866796c.27259767.00027883.49351219.22119335.49379102.49379102v.08433398h1.15625v-.08433398c-.00090428-.72080067-.46876632-1.3579118-1.15625-1.57452344V15.609375H13.875v.65364258c-.64189249.20136226-1.09727824.77223446-1.1509446 1.44282573-.05366637.67059126.30513288 1.30662141.90683132 1.6075063l1.12734375.56367187c.20485434.10239541.31241712.33220892.2598138.55510578-.0526033.22289686-.25156538.38037098-.48058529.38037274h-.16866796c-.27259767-.00027883-.49351219-.22119335-.49379102-.49379102V20.234375h-1.15625v.08433398c.00090428.72080067.46876632 1.3579118 1.15625 1.57452344z"/>
      <path fill="rgb(0,0,0)" fill-rule="evenodd" d="M10.40625 18.5h1.15625v1.15625h-1.15625V18.5z"/>
      <path fill="rgb(0,0,0)" fill-rule="evenodd" d="M17.34375 18.5H18.5v1.15625h-1.15625V18.5z"/>
      <path fill="rgb(0,0,0)" fill-rule="evenodd" d="M11.5625 24.28125h1.15625v1.15625H11.5625v-1.15625z"/>
      <path fill="rgb(0,0,0)" fill-rule="evenodd" d="M13.875 24.28125h6.359375v1.15625H13.875v-1.15625z"/>
      <path fill="rgb(0,0,0)" fill-rule="evenodd" d="M9.828125 26.59375h10.40625V27.75H9.828125v-1.15625z"/>
      <path fill="rgb(0,0,0)" fill-rule="evenodd" d="M9.828125 28.90625h10.40625v1.15625H9.828125v-1.15625z"/>
      <path fill="rgb(0,0,0)" fill-rule="evenodd" d="M9.828125 31.21875H18.5V32.375H9.828125v-1.15625z"/>
      <path fill="rgb(0,0,0)" fill-rule="evenodd" d="M8.09375 10.40625H18.5v1.15625H8.09375v-1.15625z"/>
      <path fill="rgb(0,0,0)" fill-rule="evenodd" d="M19.65625 10.40625h1.15625v1.15625h-1.15625v-1.15625z"/>
    </g>
  </g>
</svg>
