<svg xmlns="http://www.w3.org/2000/svg" width="37" height="32.226" viewBox="0 0 37 32.226">
  <g>
    <path fill="rgb(0,0,0)" fill-rule="evenodd" d="M27.45159912 28.04837036c0-.98706055.8032837-1.79031372 1.79034424-1.79031372.98706055 0 1.7902832.80325317 1.7902832 1.79031372 0 .98706055-.80322265 1.79034424-1.7902832 1.79034424-.98706055 0-1.79034424-.8032837-1.79034424-1.79034424zm1.19354248 0c0 .32943726.26733399.59677124.59680176.59677124.32940674 0 .59674072-.26733398.59674072-.59677124 0-.32940674-.26733398-.59677124-.59674072-.59677124-.32946777 0-.59680176.2673645-.59680176.59677124z"/>
    <path fill="rgb(0,0,0)" fill-rule="evenodd" d="M8.3548584 28.04837036c0-.98706055.80328369-1.79031372 1.79034424-1.79031372.98706054 0 1.7902832.80325317 1.7902832 1.79031372 0 .98706055-.80322266 1.79034424-1.7902832 1.79034424-.98706055 0-1.79034424-.8032837-1.79034424-1.79034424zm1.19354248 0c0 .32943726.26733398.59677124.59680176.59677124.32940673 0 .59674072-.26733398.59674072-.59677124 0-.32940674-.26733399-.59677124-.59674072-.59677124-.32946778 0-.59680176.2673645-.59680176.59677124z"/>
    <path fill="rgb(0,0,0)" fill-rule="evenodd" d="M35.3505249 18.5l-.79608154-.39804077-.81103516-4.86608887c-.24047851-1.44540405-1.4788208-2.493927-2.94329834-2.493927H24.4677124c-.97094726 0-1.82672119.47323608-2.371521 1.19354248h-1.80584716V5.96774292h-3.58068848V0H8.3548584v5.96774292H4.77416992v5.96774292H1.19354248v5.96774292C.53527832 17.90322876 0 18.4385376 0 19.09677124v1.19354248c0 .65826416.53527832 1.19354248 1.19354248 1.19354248v5.37097168c0 .98706055.8032837 1.79034424 1.79034424 1.79034424h3.03161621c.29119873 2.0206604 2.02960205 3.58062744 4.12963867 3.58062744 2.10009766 0 3.83850098-1.55996704 4.1296997-3.58062744h10.83740235c.29125977 2.0206604 2.02966309 3.58062744 4.1296997 3.58062744 2.10003663 0 3.83843995-1.55996704 4.12963868-3.58062744h1.83807373c.98706055 0 1.79034424-.8032837 1.79034424-1.79034424v-5.68606567c0-1.13745117-.631958-2.15911866-1.6494751-2.66876221zM9.54840088 1.19354248h1.19354248v2.38708496h3.58062744V1.19354248h1.19354248v4.77420044h-5.9677124V1.19354248zm3.58062744 0h-1.19354248v1.19354248h1.19354248V1.19354248zM5.9677124 7.1612854h1.19354248v2.38708496h3.58062744V7.1612854h1.19354248v4.77420044H5.9677124V7.1612854zm3.58068848 0H8.3548584v1.19354248h1.19354248V7.1612854zm3.58062744 4.77420044h5.9677124V7.1612854h-1.19354248v2.38708496H14.3225708V7.1612854h-1.19354248v4.77420044zm2.38708496-4.77420044h1.19354248v1.19354248h-1.19354248V7.1612854zm17.85552979 20.29034424h1.83807373c.32940674 0 .59674072-.2673645.59674072-.59680176V25.4333191l-2.38708496-1.19354248v-2.7558899h2.38708496v-.3151245c0-.6820984-.3795166-1.29559326-.99005127-1.60113526l-1.33917236-.66958618-.91125489-5.46643066c-.14440918-.86651612-.88677978-1.49612427-1.76586914-1.49612427h-6.33233642c-.98706055 0-1.79034424.80325317-1.79034424 1.79031372v13.72583008h1.19354248V14.3225708c0-.65823364.53533936-1.19354248 1.19354248-1.19354248h5.39904785c.574646 0 1.06817627.4105835 1.17321778.97512817l.58905029 3.20230103v7.8243103c.60510254.61883545 1.01690674 1.42449951 1.14581299 2.32086182zM2.38708497 13.12902832h1.19354247v2.38708496h3.58062744v-2.38708496h1.19354248v4.77420044h-5.9677124v-4.77420044zm3.58062743 0H4.77416992v1.19354248H5.9677124v-1.19354248zm8.3548584 0h1.19354248v4.77420044h-5.9677124v-4.77420044h1.19354248v2.38708496h3.58062744v-2.38708496zm-1.19354248 0h-1.19354248v1.19354248h1.19354248v-1.19354248zm3.58062744 0v4.77420044h4.77416992v-2.38711548h-3.58062744v-2.38708496h-1.19354248zm4.77423096.59677124v.59677124h-2.38708496v-1.19354248h2.4473877c-.03942872.19274902-.06030274.39266968-.06030274.59677124zm7.16125488 2.9838562c-.65820312 0-1.19354248.53530884-1.19354248 1.193573 0 .43682861.12652588.84085083.33184815 1.19354248h-2.71893311V14.3225708h5.3984375l.44696045 2.38708496h-2.2647705zm2.38708496 2.38711548v-1.19354248H28.6451416c0 .65823364.53527832 1.19354248 1.19354248 1.19354248h1.19354248zm-9.54833984 0H1.19354248v1.19354248h20.29034424v-1.19354248zm9.54833984 1.19354248h-5.9677124v7.1612854h.0477295c.29125976-2.0206604 2.02966308-3.58062744 4.1296997-3.58062744.64093018 0 1.24664307.14978027 1.7902832.40878296v-3.98944092zm-28.6451416 5.96774292v.59677124c0 .32940674.26733399.59677124.59680176.59677124h3.03155517c.29125977-2.02069092 2.02966309-3.58065796 4.12969971-3.58065796 2.10003662 0 3.83843994 1.55996704 4.1296997 3.58065796h7.20904542V21.4838562H2.38708496v1.19354248h3.74835205l-.89520264 3.58065796h-2.8531494zm33.41937256-2.15914917l-1.19354248-.59677124v-.82473755h1.19354248v1.4215088zm-33.41937256-.22793579h2.21942139l-.29840088 1.19354248h-1.9210205v-1.19354248zm7.75811768 7.1612854c-1.64532471 0-2.98388672-1.33856201-2.98388672-2.98388672 0-1.64529419 1.33856201-2.9838562 2.98388672-2.9838562 1.64526367 0 2.98382568 1.33856201 2.98382568 2.9838562 0 1.6453247-1.33856201 2.98388672-2.98382568 2.98388672zm19.09674072 0c-1.6453247 0-2.98388672-1.33856201-2.98388672-2.98388672 0-1.64529419 1.33856201-2.9838562 2.98388672-2.9838562 1.64526367 0 2.98382568 1.33856201 2.98382568 2.9838562 0 1.6453247-1.338562 2.98388672-2.98382568 2.98388672z"/>
  </g>
</svg>
