<svg xmlns="http://www.w3.org/2000/svg" xmlns:xlink="http://www.w3.org/1999/xlink" width="40" height="40" viewBox="0 0 40 40">
  <defs>
    <rect id="rect-1" width="40" height="40" x="0" y="0"/>
    <mask id="mask-2" maskContentUnits="userSpaceOnUse" maskUnits="userSpaceOnUse">
      <rect width="40" height="40" x="0" y="0" fill="black"/>
      <use fill="white" xlink:href="#rect-1"/>
    </mask>
  </defs>
  <g>
    <use fill="none" xlink:href="#rect-1"/>
    <g mask="url(#mask-2)">
      <path fill="rgb(18,42,136)" fill-rule="evenodd" d="M13.75 4.375c0-.34518433-.2798462-.625-.625-.625H1.875c-.3451538 0-.625.27981567-.625.625v33.75c0 .34518433.2798462.625.625.625h11.25c.3451538 0 .625-.27981567.625-.625V4.375zM5 8.125V5H2.5v10h10V5H10v3.125c0 .34518433-.2798462.625-.625.625h-3.75C5.2798462 8.75 5 8.47018433 5 8.125zM6.25 5h2.5v2.5h-2.5V5zm11.25 6.25h-1.25v12.5h1.25v-12.5zm1.25 0H20v12.5h-1.25v-12.5zm3.75 0h-1.25v12.5h1.25v-12.5zM10 12.5h1.25v1.25H10V12.5zm-7.5 3.75v10h10v-10H10v3.125c0 .34518433-.2798462.625-.625.625h-3.75C5.2798462 20 5 19.72018433 5 19.375V16.25H2.5zm3.75 0h2.5v2.5h-2.5v-2.5zM2.5 27.5v10h10v-10H10v3.125c0 .34518433-.2798462.625-.625.625h-3.75c-.3451538 0-.625-.27981567-.625-.625V27.5H2.5zm3.75 0h2.5V30h-2.5v-2.5zm22.5 5c-1.03552246 0-1.875.83947754-1.875 1.875 0 1.03552246.83947754 1.875 1.875 1.875 1.03552246 0 1.875-.83947754 1.875-1.875-.00115967-1.0350647-.83996582-1.87384033-1.875-1.875z"/>
      <path fill="rgb(18,42,136)" fill-rule="evenodd" d="M36.25 24.375h-.67919922l-.51141357-5.625H36.25c.3451538 0 .625-.27981567.625-.625v-2.5c0-.31848145-.23950195-.58602905-.55603027-.6211853L25.625 13.8156128V9.375c0-.34518433-.2798462-.625-.625-.625H15V10h9.375v15H15v1.25h3.75v7.5H15V35h9.42041016c.31030273 2.15252686 2.15484619 3.75015259 4.32958984 3.75015259 2.17474365 0 4.0192871-1.59762573 4.32958984-3.75015259H38.125c.3451538 0 .625-.27981567.625-.625v-7.5c-.00152588-1.38006592-1.11993408-2.4984436-2.5-2.5zM25 26.25h-5v7.5h1.90368652c.30596924-3.30093384 2.92041016-5.91534424 6.22131348-6.221344V18.125c0-.34518433.2798462-.625.625-.625h6.875v-1.31564331l-10-1.11108398V25.625c0 .3451538-.2798462.625-.625.625zm9.3156128-1.875H29.375V18.75h4.42919922l.51141357 5.625zm1.28070068 9.375c-.30596924-3.30090332-2.92041016-5.91534424-6.22131348-6.22131348V25.625H35v2.5c0 .34518433.2798462.625.625.625H37.5V30h-1.25v1.25h1.25v2.5h-1.90368652zM37.5 27.5v-.625c-.00079346-.69000244-.55999756-1.24917603-1.25-1.25V27.5h1.25zM28.75 30c-2.17364502.00286865-4.01654053 1.59902954-4.32965088 3.75h-1.25982666c.31799317-2.8468628 2.72491455-4.99984741 5.58947754-4.99984741 2.86450195 0 5.27142334 2.15298462 5.5894165 4.99984741h-1.25982666C32.7664795 31.59902954 30.92358398 30.00286865 28.75 30zm-3.125 4.375c0 1.72589111 1.39910889 3.125 3.125 3.125 1.72509766-.0019226 3.12304688-1.39990234 3.125-3.125 0-1.72589111-1.39910889-3.125-3.125-3.125s-3.125 1.39910889-3.125 3.125z"/>
    </g>
  </g>
</svg>
