<svg xmlns="http://www.w3.org/2000/svg" width="22" height="22" viewBox="0 0 22 22">
  <path fill="rgb(210,210,210)" fill-rule="evenodd" d="M18.7677002 3.23226547c-4.3088379-4.30895805-11.2249756-4.31041908-15.5354004 0-4.30895996 4.30891419-4.3104248 11.22509003 0 15.53546524 4.30895997 4.30895996 11.22509766 4.31041718 15.5354004 0 4.30895996-4.30887222 4.3104248-11.22509002 0-15.53546524zm-8.41210938 2.61249924c0-.35588265.28857422-.64440346.64440918-.64440346.35583496 0 .64440918.28852081.64440918.64440346v3.43682098c0 .35588456-.28857422.64440537-.64440918.64440537-.35583496 0-.64440918-.28852081-.64440918-.64440537V5.84476471zM6.23132324 11c0 2.62942505 2.13916016 4.76858902 4.76855469 4.76858902 2.6295166 0 4.76867676-2.13916397 4.76867676-4.7686348 0-1.36235427-.58483887-2.66271972-1.60449219-3.56763458-.26623535-.2361946-.67346191-.21196556-.90966797.05426026-.23620605.2662239-.21191406.6734867.05419922.90972518.7442627.66051484 1.17114258 1.60950852 1.17114258 2.60369492 0 1.91877747-1.56103516 3.4797821-3.47973633 3.4797821-1.91882324 0-3.4798584-1.56100463-3.4798584-3.4797821 0-1.00398254.43395996-1.95924759 1.19055176-2.62079239.26794434-.23426247.29516601-.64139748.06091309-.90929794-.23425293-.26790047-.64135743-.29517937-.90930176-.0609169C6.82580566 8.31528282 6.23132324 9.62415314 6.23132324 11z"/>
</svg>
