<svg xmlns="http://www.w3.org/2000/svg" xmlns:xlink="http://www.w3.org/1999/xlink" width="60" height="60" viewBox="0 0 60 60">
  <defs>
    <rect id="rect-1" width="60" height="60" x="0" y="0"/>
    <mask id="mask-2" maskContentUnits="userSpaceOnUse" maskUnits="userSpaceOnUse">
      <rect width="60" height="60" x="0" y="0" fill="black"/>
      <use fill="white" xlink:href="#rect-1"/>
    </mask>
  </defs>
  <g>
    <use fill="none" xlink:href="#rect-1"/>
    <g mask="url(#mask-2)">
      <path fill="rgb(189,189,189)" fill-rule="evenodd" d="M54.66882593 8.8038514S35.08363378 28.59740143 35.08406927 28.59718135c-.00065324.00066023-.00108873.00121042-.00108873.00121042L29.488129 34.03284524 4.52593926 8.80341124c.63875526-.30887704 1.34479376-.49627199 2.09895392-.49627199h45.94421673"/>
      <path fill="rgb(189,189,189)" fill-rule="evenodd" d="M57.78400966 11.13820044L39.35373753 29.76479602l18.4296189 18.6269257c.30560525-.64559375.4910152-1.35919107.4910152-2.12142524V13.2588554v-.92844678s-.18497446-.54683452-.49036197-1.1922082z"/>
      <path fill="rgb(189,189,189)" fill-rule="evenodd" d="M20.64648022 29.76457595L2.21620808 48.39117153c-.3053875-.64537367-.49057971-1.35908103-.49057971-2.12087505V13.2588554c0-.76223417.18540995-1.47583149.4910152-2.12142524l18.42983665 18.62714578z"/>
      <path fill="rgb(189,189,189)" fill-rule="evenodd" d="M36.23844493 32.56966305l-5.59561366 5.4351137c-.31899657.32241174-.73684942.4836176-1.1545934.4836176s-.83570571-.16120586-1.15459341-.4836176l-5.37786856-5.43533377L4.52517716 51.1961486c.63886413.30909712 1.34533811.49671215 2.09971602.49671215h45.94421673c.75416016 0 1.46019866-.18739495 2.09895392-.496272l-18.4296189-18.6269257z"/>
    </g>
  </g>
</svg>
