<svg xmlns="http://www.w3.org/2000/svg" width="17" height="13" viewBox="0 0 17 13">
  <g>
    <path fill="rgb(200,200,200)" fill-rule="evenodd" d="M15.9161181.1504669s-5.88782404 5.99597589-5.88769312 5.99590922c-.00019638.0002-.0003273.00036667-.0003273.00036667L8.34613811 7.79297866.84184713.15033356C1.03387377.05676676 1.24612751 0 1.4728479 0h13.81204032"/>
    <path fill="rgb(200,200,200)" fill-rule="evenodd" d="M16.85262429.85760132l-5.5406247 5.64247535 5.54042832 5.64257534c.09187298-.19556696.14761209-.41173396.14761209-.64263432V1.50000231v-.28125044s-.0556082-.16565025-.14741571-.36115055z"/>
    <path fill="rgb(200,200,200)" fill-rule="evenodd" d="M5.68810587 6.50001l-5.5406247 5.64247535C.05567365 11.94698505 0 11.7307847 0 11.50001769V1.50000231c0-.23090036.05573911-.44706736.14761209-.64263432L5.68810587 6.50001z"/>
    <path fill="rgb(200,200,200)" fill-rule="evenodd" d="M10.37546068 7.20711109L8.69327199 8.85354695c-.09589876.09766682-.22151632.14650023-.34710115.14650023-.12558483 0-.25123512-.0488334-.34710116-.14650023L6.38234091 7.20704442.84161802 12.8495531c.19205937.09363348.40444403.1504669.63122988.1504669h13.81204032c.22672039 0 .43897414-.05676675.63100077-.15033356l-5.54042831-5.64257535z"/>
  </g>
</svg>
