<svg xmlns="http://www.w3.org/2000/svg" xmlns:xlink="http://www.w3.org/1999/xlink" width="40" height="40" viewBox="0 0 40 40">
  <defs>
    <rect id="rect-1" width="40" height="40" x="0" y="0"/>
    <mask id="mask-2" maskContentUnits="userSpaceOnUse" maskUnits="userSpaceOnUse">
      <rect width="40" height="40" x="0" y="0" fill="black"/>
      <use fill="white" xlink:href="#rect-1"/>
    </mask>
  </defs>
  <g>
    <use fill="none" xlink:href="#rect-1"/>
    <g mask="url(#mask-2)">
      <path fill="rgb(18,42,136)" fill-rule="evenodd" d="M37.06939697 30.4916487h-1.0505371v-3.947052c0-.53842163-.43804932-.97647095-.97650147-.97647095h-3.43737793c-.53839111 0-.97644043.43804932-.97644043.97647095v3.95126343c-.02227783-.002594-.0447998-.00421143-.06774902-.00421143h-3.31445313v-3.947052c0-.53842163-.43804932-.97647095-.97650146-.97647095h-3.4373169c-.53845215 0-.97650146.43804932-.97650146.97647095v3.947052h-1.94274903c-.40075683-.44726562-.90466308-.79986572-1.47381591-1.02133179l-.10595704-2.61642456c.85681153-.27365112 1.47918702-1.07717895 1.47918702-2.02359008v-4.39468384c0-1.0696106-.79486084-1.95663452-1.82489014-2.10250855l-.09967041-2.45614624 3.58935547-3.92947387 3.00286865 4.00439453c.37780762.50350952.9206543.8085022 1.49700928.89508056.22766113 1.42904663 1.46832275 2.52490235 2.96051025 2.52490235.8684082 0 1.69195557-.38372803 2.2557373-1.02630616l1.21044922.59655762c-.16552734.59140015-.16125488 1.23669434.05072022 1.8609314.27111816.79837036.836792 1.44335937 1.59301758 1.8161621.44085693.2173462.9154663.32696534 1.39300537.32696534.34161377 0 .68475342-.05618286 1.0177002-.16921997.30651855-.1040039.47052001-.4367981.36645507-.7432251-.10406494-.30645752-.43695068-.47045898-.74316406-.36639404-.50201416.17047119-1.0402832.13516235-1.51574707-.09921265s-.83117676-.6399231-1.00164795-1.14187622c-.35186768-1.03616333.20489502-2.1654663 1.24108887-2.51733398.50195312-.1704712 1.0402832-.13516236 1.51574707.09921264.4755249.234375.83117676.6399231 1.00164795 1.14187622.10406494.30639649.43688965.47039795.74316406.36639405.30645752-.1039734.47045898-.4367981.36639404-.74319458-.27111816-.79837036-.83679199-1.44335938-1.59295654-1.81616211-.75634766-.37283325-1.61242676-.42883301-2.41070557-.15774536-.6237793.21179199-1.13800049.6008606-1.50616455 1.0918579l-1.14355469-.5635681c.1026001-.3058777.15643311-.62789918.15643311-.95401002 0-1.12185669-.61065674-2.1203003-1.56646729-2.6357727.0933838-.54077149-.00634765-1.11633301-.32281494-1.61773682l-3.63250732-5.7645874c.53582764-1.118927.31469726-2.48727417-.58691406-3.38095093L23.69274903.86078933C22.56079101-.26149461 20.7593994-.28984544 19.59216308.79639723l-8.58380127 7.98858643H8.23272705c-2.76800537 0-5.02435303 2.1665039-5.13671875 4.93218994l-.18829346 4.63720703c-.96832275.19726563-1.69927978 1.05545044-1.69927978 2.0812378v4.39468384c0 .90063476.56378174 1.67156982 1.35662842 1.97991943l-.10803223 2.66009521c-1.43536377.5585022-2.45593262 1.95437622-2.45593262 3.58483887v5.96829224c0 .53842163.43804932.97647094.97650147.97647094h18.94122314c.53845215 0 .97650147-.43804931.97650147-.97647094v-.4963379h13.47576904c.3236084 0 .5859375-.26235961.5859375-.5859375 0-.3236084-.26226807-.5859375-.5859375-.5859375H20.89532471v-4.3001709c0-.49075317-.0933838-.95983886-.26171875-1.3916931h16.43579101c.96917725 0 1.75769043.78851318 1.75769043 1.75772094v2.17648315c0 .96920777-.78851318 1.75775147-1.75769043 1.75775147h-.35467529c-.3236084 0-.5859375.2623291-.5859375.5859375 0 .32357788.26220703.5859375.5859375.5859375h.3546753c1.61535644 0 2.92950439-1.31414795 2.92950439-2.92953491V33.4211836c0-1.61541748-1.31414795-2.9295349-2.9295044-2.9295349zM4.2668457 13.7647505c.086792-2.13531493 1.82879639-3.80795287 3.96594239-3.80795287h4.43096923c.64575196 0 1.26165772.15014648 1.83056641.44641113.28704834.14935303.6408081.03787231.79022217-.24908447.1494751-.28701783.03790283-.64083863-.24902344-.79031372-.70861816-.36895752-1.50531006-.5678711-2.30804443-.57788086L20.390625 1.65412429c.70532227-.65615845 1.79364014-.63919068 2.47747803.0389099l2.1340332 2.11383058c.6729126.66705322.71380615 1.76126098.06201172 2.47680664l-3.9788208 4.35586547-.0032959.00357056-3.2612915 3.5703125-.0201416-.49630737c-.03759766-.9258728-.32403565-1.82391358-.828125-2.59689331-.17681885-.27108765-.53985596-.34741211-.81079102-.17062378-.27105713.17681885-.34753418.5397644-.1706543.81079101.38885498.59625245.60980225 1.28930664.63885498 2.00430298l.18457031 4.54693604H4.08221437l.18463134-4.546875zM22.04943848 3.52247147c1.48181152.53158569 1.59155273 2.60736083.15856933 3.2836914-.89331054.42163086-1.95043945.03585816-2.36834717-.84954834-.67053222-1.42053223.71264649-2.97116089 2.20977784-2.43414306zm7.07141113 10.30432128c.15924072-.3366394.14752197-.74328613-.06610107-1.08163452L25.6642456 7.3642073l-3.3824463 3.70288086 3.13586426 4.18173218c.24975586.33288574.64672852.48937988 1.03259278.4439087l.00323486-.00039674c.175354-.0211792.34820557-.08407592.50384522-.1911621l1.78430175-1.22796631c.164917-.11361695.28942871-.26321411.37188721-.4307251.0022583-.0053711.00494385-.01046753.00732422-.01568604zm-21.02154541.06008912c0-1.29516602 1.05377197-2.34890748 2.34887695-2.34890748 1.29516602 0 2.348938 1.05374146 2.348938 2.34890748 0 1.29516601-1.05377198 2.34890747-2.348938 2.34890747-1.29510498 0-2.34887695-1.05368042-2.34887695-2.34890747zm21.77832031.91976928c.54278565.32351685.8859253.91055298.8859253 1.5670166 0 .3284607-.0880127.650177-.25476075.9307251-.33276367.56085205-.92004394.89578247-1.57098388.89578247-.88909913 0-1.63146973-.63876343-1.79333497-1.4814148.16485596-.0639038.32501221-.147583.47711182-.25219726l1.78442383-1.22802734c.18103027-.12478638.33831787-.27072144.47161865-.43188477zM2.38012695 20.43561843v4.39468384c0 .52508544.42718506.95220947.95220948.95211792H17.6885376c.52508545 0 .95220947-.42709351.95220947-.95211792v-4.39468384c0-.52505493-.42718506-.95217896-.95220947-.95217896H3.33233643c-.52508545 0-.95220948.42718506-.95220948.95217896zm6.30511475 4.41156006H4.2119751c-.3236084 0-.5859375-.26226807-.5859375-.5859375v-3.08874512c0-.3236084.2623291-.5859375.5859375-.5859375h4.4732666c.3236084 0 .5859375.2623291.5859375.5859375v3.08874512c0 .3236084-.2623291.5859375-.5859375.5859375zm2.753479-2.76016236h.23913575c.3236084 0 .5859375-.2623291.5859375-.5859375s-.2623291-.5859375-.5859375-.5859375h-.23913575c-.3236084 0-.5859375.2623291-.5859375.5859375s.2623291.5859375.5859375.5859375zm2.64770508 0h-.23913574c-.3236084 0-.5859375-.2623291-.5859375-.5859375s.2623291-.5859375.5859375-.5859375h.23913574c.3236084 0 .5859375.2623291.5859375.5859375s-.2623291.5859375-.5859375.5859375zm2.1694336 0h.23913574c.3236084 0 .5859375-.2623291.5859375-.5859375s-.2623291-.5859375-.5859375-.5859375h-.23913574c-.3236084 0-.5859375.2623291-.5859375.5859375s.2623291.5859375.5859375.5859375zm-4.57800293 2.26376343h-.23913575c-.3236084 0-.5859375-.2623291-.5859375-.5859375s.2623291-.5859375.5859375-.5859375h.23913575c.3236084 0 .5859375.2623291.5859375.5859375s-.2623291.5859375-.5859375.5859375zm2.16943359 0h.23913574c.3236084 0 .5859375-.2623291.5859375-.5859375s-.2623291-.5859375-.5859375-.5859375h-.23913574c-.3236084 0-.5859375.2623291-.5859375.5859375s.2623291.5859375.5859375.5859375zm2.64770508 0h-.23913574c-.3236084 0-.5859375-.2623291-.5859375-.5859375s.2623291-.5859375.5859375-.5859375h.23913574c.3236084 0 .5859375.2623291.5859375.5859375s-.2623291.5859375-.5859375.5859375zm6.53283691 6.140625h3.0466919V26.7399092h-3.0466919v3.75149536zm11.81915283 0h-3.0466919V26.7399092h3.0466919v3.75149536zm-33.67407226 8.336792v-5.77294923c0-1.47445678 1.19958496-2.67407226 2.67407226-2.67407226h1.66351319c.3236084 0 .5859375-.26235962.5859375-.5859375 0-.3236084-.2623291-.5859375-.5859375-.5859375l-.9249878-.0001831h-.08093261c-.66711426-.00021363-.74383545-.00024415-.82098389.00360107l-.04351807.00228882.09179688-2.26071167h13.4329834l.0914917 2.26071167c-.01141358-.00061036-.01849366-.00115967-.02563477-.00164795-.0670166-.0046692-.13433838-.0046692-3.82965088-.0043335-1.32598877.00012207-3.11914062.00027466-5.54699707.00027466-.32354736 0-.5859375.2623291-.5859375.5859375 0 .32357788.26239014.5859375.5859375.5859375h9.1953125c1.4744873 0 2.67407227 1.19961548 2.67407227 2.67407226l.00006103 5.77294922H1.1729126zm9.02844238-5.43548585h.14141846c.32354736 0 .5859375.26235962.5859375.5859375 0 .3236084-.26239014.5859375-.5859375.5859375h-.14141846V36.658824c0 .32357788-.2623291.5859375-.5859375.5859375s-.5859375-.26235962-.5859375-.5859375v-2.09423828h-.14141846c-.3236084 0-.5859375-.2623291-.5859375-.5859375 0-.32357788.2623291-.5859375.5859375-.5859375h.14141846v-.84225464c0-.3236084.2623291-.5859375.5859375-.5859375s.5859375.2623291.5859375.5859375v.84225464zm3.30114746 1.47280884h-.14141846v-2.31506348c0-.3236084-.2623291-.5859375-.5859375-.5859375s-.5859375.2623291-.5859375.5859375v2.31506348h-.14141845c-.3236084 0-.5859375.26235962-.5859375.5859375 0 .3236084.2623291.5859375.5859375.5859375h.14141845v.62142944c0 .32357788.2623291.5859375.5859375.5859375s.5859375-.26235962.5859375-.5859375v-.62142944h.14141846c.32354736 0 .5859375-.2623291.5859375-.5859375-.00012207-.32357788-.26239014-.5859375-.5859375-.5859375zM16.520813 32.745616h.14141846c.32354736 0 .5859375.26226806.5859375.5859375 0 .3236084-.26239014.5859375-.5859375.5859375h-.14141846v2.74142456c0 .32357788-.2623291.5859375-.5859375.5859375s-.5859375-.26235962-.5859375-.5859375v-2.74142456h-.14141846c-.3236084 0-.5859375-.2623291-.5859375-.5859375 0-.32357788.2623291-.5859375.5859375-.5859375h.14141846v-.19506836c0-.3236084.2623291-.5859375.5859375-.5859375s.5859375.2623291.5859375.5859375v.19506836zm9.5053711 3.73797607c-1.03100587 0-1.86993409-.83883667-1.86993409-1.86993408s.83892822-1.86999512 1.86993408-1.86990357c1.03100586 0 1.86993408.83880616 1.86993408 1.86990357s-.83886718 1.86993408-1.86993408 1.86993408zm8.21063232.00003052c-1.0310669 0-1.86999512-.83883667-1.86999512-1.86993408 0-2.47125245 3.7399292-2.47125245 3.7399292 0 0 1.0310974-.83880615 1.86993408-1.86993408 1.86993408zM2.94525146 35.2626753c0-1.03109741.83892823-1.86993408 1.86999512-1.86993408 1.03112793 0 1.86993408.8388977 1.86993408 1.86993408 0 1.0310669-.83880615 1.86999512-1.86993408 1.86999512-1.0310669 0-1.86999512-.83892822-1.86999512-1.86999512z"/>
    </g>
  </g>
</svg>
