<svg xmlns="http://www.w3.org/2000/svg" width="40" height="44.813" viewBox="0 0 40 44.813">
  <g>
    <path fill="rgb(18,42,136)" fill-rule="evenodd" d="M20.05741486 12.69741774h.4498906c.33838016 0 .61269147-.27431132.61269147-.61269148 0-.33838016-.27431131-.61269148-.61269147-.61269148h-.18695843l.12393873-.81750548c.03702675-.218357-.0466704-.43969887-.21891162-.57892428-.17224123-.13922542-.4062111-.174659-.61195305-.09267728-.20574197.08198171-.351225.26861537-.38051391.48814422l-.1635011 1.0779869c-.04344247.28778368.0407489.58020607.23056751.80083153.18981861.22062546.46639711.34752453.75744127.34752735z"/>
    <path fill="rgb(18,42,136)" fill-rule="evenodd" d="M22.52883723 10.67028422c.64524262 0 1.16831512-.5230725 1.16831512-1.16831512 0-.64524263-.5230725-1.16831513-1.16831512-1.16831513-.64524263 0-1.16831513.5230725-1.16831513 1.16831513.00077167.64492271.5233924 1.16754345 1.16831513 1.16831512z"/>
    <path fill="rgb(18,42,136)" fill-rule="evenodd" d="M19.97128794 15.0196935c.76070976.02615926 1.49458447-.2828002 2.0075274-.84516413.20700441-.2615974.16668294-.64072898-.09071167-.85293653-.2573946-.21220756-.63725837-.17949538-.85458376.07359297-.28290894.27515255-.66777722.41981125-1.06188186.39912473-.39444176.02357079-.78032925-.12151884-1.06153175-.39912473-.2184918-.2477997-.59410375-.27775047-.84910337-.06770634-.25499963.21004414-.29755144.58443796-.09619206.84634968.5124614.56249675 1.24598349.8717254 2.00647707.84586435z"/>
    <path fill="rgb(18,42,136)" fill-rule="evenodd" d="M27.66354193 25.67107228v.13479212h-.13444202c-.33838016 0-.61269148.27431132-.61269148.61269148 0 .33838016.27431132.61269148.61269148.61269148h.13444202v.1340919c0 .33838017.27431132.61269149.61269148.61269149.33838016 0 .61269148-.27431132.61269148-.61269148v-.1340919h.1340919c.33838016 0 .61269148-.27431133.61269148-.61269149s-.27431132-.61269148-.61269148-.61269148h-.1340919v-.13479212c0-.33838016-.27431132-.61269148-.61269148-.61269148-.33838016 0-.61269148.27431132-.61269148.61269148z"/>
    <path fill="rgb(18,42,136)" fill-rule="evenodd" d="M37.02404785 28.62179565h2.36328125c.33825684 0 .6124878.27409363.6126709.6123352v4.26713563c0 .3383789-.274292.61268616-.6126709.61268616h-2.79003906v10.0863037c0 .33837891-.274292.61270142-.6126709.61270142H4.01538086c-.3383789 0-.6126709-.2743225-.6126709-.61270141V34.11395264H.6126709C.274292 34.11395264 0 33.83964539 0 33.50126648V29.2337799c0-.3383789.274292-.61268616.6126709-.61268616h2.36358642v-6.47702026c.00042725-.15628052.0604248-.30653382.16772461-.4201355l3.25604248-3.43351746c-.8418579-1.22419739-.62469482-2.8862152.50341797-3.85299682 1.1281128-.96679688 2.80377198-.92695618 3.88464356.09233093 1.08093261 1.01931763 1.21887207 2.6897583.31982422 3.87257385-.89904786 1.18281555-2.5454712 1.49699402-3.81689453.72834778L4.20129395 22.3898468v6.23194885H6.6282959v-2.93182373c.00402832-2.5968933 1.74047851-4.8718872 4.24432373-5.56077575.70874023-.17840576 1.4331665-.28733826 2.1630249-.32525635 1.26000977-.0829773 1.37347412-.09907532 1.86358643-.14424133.2189331-.00047303.43536377-.0466156.63549804-.13549805.28588868-.12519836.50238038-.3697052.59197998-.66870117.0111084-.03717041.01953125-.07507324.02526856-.11343384l.20690918-1.61785889c-.70233154-.58973694-1.25030518-1.34176635-1.59649658-2.19099426-.23773194-.64219665-.41363526-1.30563354-.52520752-1.9812622-.06756592.00630187-.13409424.01119994-.20410157.01119994-.74591064.00192261-1.44067382-.37889099-1.840271-1.00872802-.39959716-.62982178-.44818114-1.42060852-.12872314-2.09463501V5.49671936C12.06677246 2.46208191 14.52618408.00270081 17.56079101 0h4.87841797c3.03326416.003479 5.49145508 2.46134949 5.4953003 5.49461365V9.9903717c.26464843.66998291.1800537 1.42753601-.22583008 2.0226593-.40588379.5951233-1.08026123.95045472-1.80059815.94871522-.04937744 0-.09838867-.00419617-.1473999-.0077057-.1116333.67445374-.28735351 1.33670045-.52478027 1.97778321-.3456421.84934998-.89300537 1.60171509-1.5947876 2.19203186l.20690918 1.62416077c.0604248.33135986.27380371.61471557.57562256.76428222.23339844.08361817.47686768.13612366.72399902.1561432 1.09991455.1110382 1.34851075.12586974 1.54156494.13739013.11376954.00679016.20825196.01242065.4463501.03591919.6715088.03404236 1.3383789.13096619 1.9918213.28953552 2.50250243.68920899 4.23809814 2.96296692 4.24298095 5.5586853v2.93112183h2.42694092V22.3891449l-3.08868409-3.25811768c-1.2845459.78016663-2.95074462.46476746-3.86132812-.73088074-.91052246-1.19564819-.77154541-2.8857727.32202148-3.91665649 1.09362793-1.03088379 2.78900147-1.06990051 3.92883301-.09040832 1.13989258.97947692 1.35644531 2.66140747.50183106 3.89767456l3.25604248 3.43353271c.10754394.11349487.16766357.26377869.16802978.42012024v6.47738647zM22.43920898 1.22538757h-4.87841796c-2.3567505.00289917-4.2666626 1.91249085-4.2699585 4.26924134v3.24760437c.11175537-.04124451.2267456-.07310486.34381103-.0952301V7.7986908c0-.33837891.274292-.61268616.6126709-.61268616h3.9989624c1.37536622-.00082398 2.72674561-.35980225 3.92120362-1.0415802l.19537353-.11132813c.09259034-.0532074.19750977-.08120727.30426026-.08123779h1.47607422c1.2265625.00057983 2.2211914.99383545 2.22351074 2.22039795v.4862976c.1173706.02534486.23236084.06048585.34381103.10504151V5.49671936c-.00213623-2.35810852-1.913208-4.26921082-4.27130127-4.27133179zM15.3081665 12.06442261c.04516602.20831299.08685303.41838073.12854004.62844848.09973145.60600281.25531006 1.20149231.46453858 1.77890015.29681396.73057556.7838745 1.36828613 1.41064453 1.84683228.04095459.02290344.0791626.05052185.11376953.08227539 1.5411377 1.09907531 3.60998535 1.09907531 5.15112305 0 .03442382-.03144837.07226562-.05892945.11273193-.08192444.6272583-.4787445 1.1147461-1.11683655 1.41168213-1.84788513.20880127-.57720948.36383057-1.17248536.4631958-1.77819825.039917-.20167541.07983398-.4015808.12249756-.5990448v-.00524902c.0014038-.00770569.00457764-.01576233.00457764-.02345276l.34729003-1.58215332c.06677247-.31066894.10058594-.6275177.10083008-.94529724V8.17225647c-.00073242-.55018616-.44659424-.9960022-.99676513-.99676514h-1.31286622l-.05426025.0308075c-1.38018799.78793335-2.94189453 1.20266723-4.53112793 1.20332336h-.37078857c.53167724.19519043.84680175.74359131.74768066 1.30122376-.0991211.55761718-.58392334.96385193-1.15026855.96385193-.56640625 0-1.0512085-.40623475-1.1503296-.96385193-.09912109-.55763245.21600342-1.10603333.74768067-1.30122376h-2.2084961v1.12734986c.00036622.31781005.03442383.63467407.10150147.94529724l.34661865 1.58215332zm-2.22668457-1.27931214c.00067139-.37915039.22576905-.72192382.57348633-.87316894.01623535.27922058.05273438.55688476.10925293.83081055l.2166748.98976135c-.50341796-.02763367-.89794921-.44319153-.89941406-.94740296zm12.93762207.94146729l.21600342-.98591614c.0545044-.26321411.09033203-.52996826.10717774-.79824829.37548828.18774414.58221435.600708.50744629 1.01387024-.07476807.41314697-.41308594.72746277-.83062745.77168274v-.00138855zM8.80072021 14.9591217c.9315796 0 1.68682862.75521851 1.68682862 1.68682862 0 .9316101-.75524903 1.68682861-1.68682862 1.68682861-.93164062 0-1.6868286-.7552185-1.6868286-1.68682861.00097655-.93121338.75561523-1.68586731 1.6868286-1.68682862zm22.39855958 0c-.93164063 0-1.68682862.75521851-1.68682862 1.68682862.00097656.93121338.75561524 1.68585205 1.68682862 1.68682861.93157959 0 1.6868286-.7552185 1.6868286-1.68682861s-.75524901-1.68682862-1.6868286-1.68682862zM20 18.4507599c.86706543.00065613 1.72265625-.19795227 2.50079346-.58047486l.12078857.94529725c-1.4724121 1.38737487-3.77081299 1.38737487-5.2432251 0l.12078858-.94529725c.7781372.38252259 1.63372803.58113099 2.50085449.58047486zm.07525635 9.6630249l3.33795166-7.79904175c-.11004639-.0922699-.21051026-.19541931-.29986572-.30784607-1.83197022 1.43605042-4.40887452 1.43197632-6.23632813-.01005554-.09240723.11460877-.19561768.2201233-.30810547.315094l3.50634766 7.80184936zm5.09863281-7.20770264c.09863281.01029969.13745117.01472473.17633057.01852417.09332275.00912476.18695068.01467896 1.10931396.0893097l.31860352 1.0622406-2.1616211.79264831c-.166687.06114197-.29864502.19158936-.36169433.3575592-.06304932.16596985-.0510254.35113526.03295898.5075531l.72540283 1.35247803-3.05255127 3.5354004h-.77026367l.49749756-1.16236878 2.84570313-6.64717102c.1533203.02801514.04516601.01049805.64031982.0938263zm-9.71765137-.07737732c-.16625976.03282166-.33502197.05143738-.50445556.05566407-.89593506.08227539-1.07415772.09103393-1.4064331.11308288l-.32348634 1.07868958 2.16015625.7919464c.16674805.06108094.29882813.19149781.36193848.35748292.06317139.16596985.0512085.35118103-.03283691.50764465l-.72540284 1.35246277 3.0536499 3.53611755h.92114258l-3.50427246-7.79309082zm-7.6026001 4.86128235c.00421143-2.04447937 1.37115479-3.83526611 3.3421631-4.37846374.34020995-.0901947.68621825-.15675354 1.03558349-.19921875l-.35009766 1.16410827c-.09313965.31048584.07165527.63980103.3760376.75134278l2.04077148.74853515-.5906372 1.10249329c-.11981202.22364807-.08947754.4980011.07635498.69006348l2.6373291 3.052948H7.8536377v-2.93180848zm24.29266358-.00001526c-.00421143-2.04457092-1.3713379-3.83538818-3.34246826-4.37846374-.3381958-.08833313-.68286133-.14967346-1.03070069-.18345642l.34448243 1.1483612c.09338379.3103943-.0713501.63978577-.3756714.75132752l-2.04077147.74853515.59130859 1.1024933c.1196289.22369384.08929443.4979248-.07629395.69006347l-2.63739013 3.05296325h8.56750488v-2.93182373zm-30.92089844 4.1572113v3.0413971H38.7746582v-3.0413971H1.22540283zm34.14654541 13.74040223h-2.27575683V37.0023651c.00012207-.16252136-.0643921-.31840515-.1793213-.43333435-.1149292-.1149292-.27081298-.17944336-.4333496-.1793518H7.51654053c-.16253662-.00009156-.31842041.0644226-.43334961.1793518-.1149292.1149292-.17944336.27081299-.17938233.43333435v6.58625794H4.6281128V34.1139679h30.74383545v9.47361755zM8.12921143 37.61505127v5.97251892l23.74163818.00105286v-5.97357178H8.12921143z"/>
  </g>
</svg>
