<svg xmlns="http://www.w3.org/2000/svg" width="34" height="30.874" viewBox="0 0 34 30.874">
  <path fill="rgb(18,42,136)" fill-rule="evenodd" d="M31.36384583.97357178v15.0711975c1.4716339.11099244 2.6362152 1.37353516 2.63615417 2.9105835v8.70309449c0 1.6097412-1.2770691 2.91934204-2.8467865 2.91934204h-1.57984924c-.92808533 0-1.75361634-.45791626-2.27363587-1.16479493l-3.2070465.74667359c-3.222641.71478271-4.90959168.71463013-8.52096558.71426391h-.24118042c-4.40377808 0-7.36605835-.38922119-10.15464783-3.5661621L.67095947 21.99154663c-1.10183716-1.2531128-.7907257-3.2850647.52468872-4.19302368.41726685-.30154419.88894654-.4838562 1.37142945-.55227661V.97357178C2.56707764.43591308 3.01487732 0 3.56723022 0h26.79644776c.55236816 0 1.00016785.43591309 1.00016785.97357178zM12.7522583 6.0326538V1.94717407H4.56739807v4.08547974h8.18486023zm6.31114197-4.08547974v4.08547974h-4.3107605V1.94717407h4.3107605zm2.00032043 4.0854187h8.2998047l.00006103-4.0854187H21.0637207v4.0854187zm4.47198487 11.35604859l1.33261108.658844c.3522644-1.10110474 1.32669067-1.91488648 2.49526978-2.0027771V7.97973632H21.0637207v3.56890869c0 .5376587-.44781494.97357178-1.00016784.97357178h-6.31108094c-.5523529 0-1.00015258-.43591309-1.00015258-.97357178v-3.5689087H4.5674591v9.6591797c.2409668.14175415.46546936.3184204.66531372.52957153l3.30218506 3.48910522c.00846862.00897217.0174713.01733399.02607727.02618409v-.71002198c0-1.49313354 1.24794006-2.70785522 2.78178405-2.70785522h4.62420655c.48835754.01855469 1.29885864-.37026978 1.94483947-.68017578.26272583-.1260376.49822998-.2390442.67378235-.3062439 2.22569275-1.0072937 4.75897217-.96743774 6.95005799.10916138zm-10.7831421-9.40890503h4.3107605v2.5953064h-4.3107605v-2.5953064zM31.15327455 28.6305542c.4667511 0 .84646606-.4360962.84646606-.97216797v-8.70303345c0-.5361328-.37971497-.972229-.84646606-.972229h-1.57984925c-.4666748 0-.84640503.43615723-.84640503.972229v8.70303345c0 .53607178.37965393.97216797.84640503.97216797h1.57984925zm-7.5248108-.36495972c-2.92654418.65249634-4.7334442.65194702-7.88172912.65097046l-.38032532-.00009155c-4.13400268 0-6.13145447-.06503296-8.64733887-2.84780884L2.2141571 20.75244141c-.78359985-.9932251.63569642-2.16574097 1.54743958-1.26474L7.063797 22.9768982c.8727417.89642334 1.97099304 1.38977051 3.32460022 1.41876221h9.15534973c.5523529 0 1.00015259-.43588257 1.00015259-.97357178 0-.5376892-.44779969-.97357177-1.0001526-.97357177h-8.98245238v-1.47485352c0-.4194336.3505249-.76071167.78146362-.76071167h4.62420654c.83140564.0579834 1.95700073-.46966553 2.84390259-.8854065.22418213-.10510253.43307495-.20303344.61805725-.28250121 1.66693115-.75445557 3.56430054-.72460938 5.20317078.08062744l2.09460449 1.03561401v7.38287354l-3.09823608.72143554z"/>
</svg>
