<svg xmlns="http://www.w3.org/2000/svg" xmlns:xlink="http://www.w3.org/1999/xlink" width="40" height="40" viewBox="0 0 40 40">
  <defs>
    <rect id="rect-1" width="40" height="40" x="0" y="0"/>
    <mask id="mask-2" maskContentUnits="userSpaceOnUse" maskUnits="userSpaceOnUse">
      <rect width="40" height="40" x="0" y="0" fill="black"/>
      <use fill="white" xlink:href="#rect-1"/>
    </mask>
  </defs>
  <g>
    <use fill="rgb(200,200,200)" fill-opacity="0" opacity="0" xlink:href="#rect-1"/>
    <g mask="url(#mask-2)">
      <path fill="rgb(18,42,136)" fill-rule="evenodd" d="M38.70714257 13.23251073l1.0419151 1.80471721c.24936881.4319252.31561858.93495422.18647588 1.4168123-.12913316.48189623-.4381811.88452543-.87012538 1.13396099l-2.75523492 1.59068097c-.29326511.16929118-.61388079.24974073-.93051022.24974073-.07476582 0-.14921694-.0049971-.22312448-.01384693l-3.32825199 3.32826153 1.82338006 1.82340866c1.0957484 1.09581516 1.0957484 2.8788274 0 3.97464256-.53077057.53091362-1.23667817.82326323-1.98736897.82326323-.3058437 0-.60396287-.04932255-.88614663-.14274168-.10897309.53434674-.37146406 1.02543611-.76591098 1.41994025-.53076103.53087547-1.23660187.82318694-1.98728313.82318694-.55295237 0-1.08121485-.1590681-1.53347177-.4547364-.13327199.4305138-.3697475.82513238-.69755366 1.15291947-.54779315.54788851-1.26769073.82177555-1.98728314.82185184-.5869403.00007629-1.17364219-.18218447-1.66737316-.5465534-.13210853.41125015-.36022058.79812512-.68607176 1.12396678l-1.11136913 1.11130237c-.53077057.53083732-1.23661141.8231488-1.98729267.8231488-.75068126 0-1.45643628-.29238777-1.98728314-.8231488-.53083732-.53076104-.8231774-1.23661141-.8231774-1.98728314 0-.02040802.0010204-.04054901.00148769-.06088074-.02031266.0004959-.04047273.00148769-.06086167.00148769-.75068126 0-1.45643627-.29231147-1.98728314-.82318694-.53083732-.53076103-.8231774-1.23649697-.8231774-1.98728314 0-.02036987.0010204-.04051086.00148769-.06084259-.02031266.00045775-.04047272.00148769-.06086167.00148769-.75068126 0-1.45643627-.29234962-1.98728313-.82318694-.53084687-.53076104-.8231774-1.23653512-.8231774-1.98728314 0-.09982763.0055502-.19873976.01578283-.29669824-.66677952-.03681072-1.3228496-.3089049-1.83112366-.8170836-.53083732-.53076104-.8231774-1.23661142-.8231774-1.98728314 0-.1847021.01789039-.36646696.0524219-.54373062L4.9632298 21.04634003c-.11280675.02094206-.22756847.03211878-.3429596.03211878-.31662943 0-.63716881-.0804877-.93051976-.24985516L.93452507 19.23788453c-.43202056-.24935927-.74107805-.65202662-.87013491-1.1338847-.12905687-.48185808-.06273082-.98511598.18663799-1.41704117L5.79375028 7.086684c.2493688-.4319252.65209337-.74098269 1.13387517-.87006816.48161967-.12904734.98504922-.06286433 1.41706024.18657123l2.75523492 1.59071912c.45076923.26030713.75177795.68155149.87293863 1.14960078h2.42524491c.72293971 0 1.44182642.08601884 2.14352844.25325015l.80028991-.8002613c.77552373-.77546651 1.80650053-1.2024709 2.90311675-1.2024709h7.81070134c.13632365-.42780544.42591723-.80819563.84450092-1.04988759l2.75523492-1.59075726c.89192572-.51489237 2.0361098-.20812363 2.55085911.68349692l.98528764 1.70660614c.21577187.37363838.08772586.851453-.28593158 1.06716765-.3735907.21582909-.85138625.0878117-1.06715812-.28594112l-.98528763-1.70660614c-.08397804-.14560262-.27100702-.19545921-.41662872-.1115384l-2.75514909 1.59064283c-.14561215.0841497-.19569763.2710261-.11163376.41662872l5.54279843 9.60019836c.08406386.14545004.27077815.19553551.41655242.1116147l2.75522539-1.59071913c.09515476-.05492999.12992468-.13961373.14211227-.18515984.0121876-.04554612.02445148-.1361806-.03054527-.2313163l-1.04192465-1.8047172c-.21577186-.37363838-.0877354-.851453.28593159-1.06716765.37397214-.2156765.851453-.08762097 1.0671581.28594111zM1.57363933 17.69961592c.01218759.0456224.04687168.13022985.14202645.18515984l2.7553112 1.59075727c.145698.08403525.33241228.0338735.41655243-.11165284l5.54272214-9.60027465c.08405433-.14560262.0339021-.33247902-.1116433-.41655242L7.56338287 7.756334c-.05452946-.03139402-.10757123-.04085419-.1515629-.04085419-.03265284 0-.06030856.00522598-.07976293.01037567-.04553658.01220666-.13022985.04688122-.1851503.14205506l-5.54272214 9.6003128c-.05499675.09525012-.04273287.18584646-.03054527.23139258zm25.3011923-5.33698262c0 1.44252259-.6968575 2.77030252-1.8336985 3.59306986l5.68248843 5.68250751 3.07693775-3.07695682c-.01382786-.02178126-.02804672-.04325736-.04109259-.0658397L28.25221067 8.956478h-8.00718095c-.6793581 0-1.31800507.2645413-1.79830871.7448354l-3.0438844 3.0438844c-.23577935.23577935-.3656182.54918547-.3656182.88254185 0 .33335637.12983885.64680063.3656182.88246555.48662632.48655002 1.27839064.48662631 1.76501695 0l2.66578295-2.66578295c.30514754-.30505218.79896434-.2970797 1.10411188.00797247l2.97552707 2.97556522c.86005489-.51397687 1.3991031-1.44481134 1.3991031-2.46532664 0-.43146744.34983538-.78122653.78122653-.78122653.43139116 0 .78122653.34975909.78122653.78122653zm5.67217953 15.07359045c-.23577936.23577936-.54912825.36562775-.88255139.36562775-.33334684 0-.64670527-.1298484-.88247509-.36562775l-7.45680343-7.45678435c-.30507125-.30501403-.79959374-.30509032-1.10489387 0-.30507125.30505218-.30507125.79972726 0 1.10481758l6.6872972 6.68734488c.23577936.23570307.36561822.54914732.36561822.8825037 0 .33331824-.12983886.6467625-.36561822.88254185-.23569352.23570306-.54904242.36555146-.88247509.36555146-.33342313 0-.64677203-.1298484-.88246556-.36555146l-8.03578078-8.03576171c-.30507125-.30501403-.7997368-.30501403-1.10488434 0-.30507124.30505217-.30507124.79972726 0 1.10477943l6.6872972 6.68738303c.23576982.23570306.36560868.54914732.36560868.88246556 0 .33335638-.12983886.64680063-.36560867.8825037-.48655002.48662631-1.27832388.4867789-1.76502648 0l-1.47073142-1.4707505c-.0020408-.00202173-.00430094-.00373829-.0063322-.00568373-.56264142-.5592941-1.30480662-.8303202-2.04196519-.81445154.00046729-.02071319.00147815-.04131193.00147815-.0621777 0-.75067172-.29233054-1.4565221-.8231774-1.98735943-.56333757-.56333756-1.30831603-.8362328-2.0482211-.82036415.0004673-.02071318.0014877-.04135007.0014877-.0621014 0-.75078616-.29234009-1.4565221-.82317741-1.98735943-.61607418-.61609325-1.44941744-.88570795-2.25563903-.80907298-.03226183-.70096771-.32045355-1.35547381-.81997315-1.85499341-1.0958247-1.09585331-2.87890369-1.09558629-3.9747284 0l-.67419887.67418934-.00233643.00240319-1.7347959-1.73475776 5.43835514-9.41957787h2.7077243c.26530422 0 .52991228.0140758.79302312.04138822l-.89301287.89303195c-.53084687.53083732-.8231774 1.2366877-.8231774 1.98735943 0 .75074801.29233053 1.4565221.8231774 1.98735942.54794572.54788851 1.26769072.82185184 1.98728313.82185184.719745 0 1.43949-.27388704 1.98735943-.82185184l2.10899693-2.10900647 12.1652668 12.16520004c.4866263.48655002.4866263 1.2783811.00007629 1.76493111zM8.72834688 23.84517563c0-.33343268.12983886-.64680064.36561821-.88258l.67419888-.67418934c.24326547-.24333223.56287028-.36497927.88255138-.36497927.31951898 0 .63919055.12172333.88246556.36497927.23577935.23577936.36561821.54914732.36561821.88246556 0 .33335638-.12983886.64680063-.36561821.8825037l-.67419888.67418934c-.48662631.4867026-1.27839063.48662631-1.76501694 0-.23577935-.23562677-.36561821-.54903288-.36561821-.88238926zm3.00413644 3.98360683c.23569352.23570306.54904242.36555145.88246555.36555145.33335638 0 .64678157-.1297721.88255139-.36555145l1.11130237-1.11126423c.23576981-.23570306.36560867-.54914732.36560867-.8825037 0-.33331823-.12983886-.6467625-.36560867-.88246555-.24327501-.24325594-.56287982-.36490298-.88255139-.36490298-.3196048 0-.63920008.12164704-.88247509.36490298l-1.11129283 1.11130237c-.23577936.23570306-.36561822.54910917-.36561822.88246555s.12983886.64680064.36561822.88246556zm3.75230007 3.23545273c-.33342313 0-.64677203-.1298484-.88246555-.36555146-.23577936-.23566492-.36561822-.54910918-.36561822-.88246555 0-.33335638.12983886-.6467625.36561822-.88254185l1.11129283-1.11130237c.243275-.24325594.56287028-.36490298.8824751-.36490298.31959526 0 .63927637.12164704.88255137.36497927.23576982.23570306.36560868.54914732.36560868.88246556 0 .33335637-.12983886.64680063-.36560868.8825037l-1.11130237 1.11126422c-.23569352.23570306-.5491187.36555146-.88255138.36555146zm3.75230961 2.50438796l1.11137866-1.11137866c.48662632-.48662631.48662632-1.27849553 0-1.76504555-.243275-.24317965-.5629561-.36490298-.88247509-.36490298-.3196811 0-.63927637.12164704-.88255138.36497927l-1.11129284 1.11130237c-.23577935.23577936-.3656182.54910918-.3656182.88254185 0 .33335638.12983885.64672435.3656182.8825037.23569353.23566492.54904242.36551331.88246556.36551331.33343267 0 .64678157-.1298484.8824751-.36551331z"/>
      <path fill="rgb(0,0,0)" fill-rule="evenodd" d="M36.27298742 11.36014238c.20546257 0 .4062378-.08359123.55232715-.22889937.14523002-.14608936.22889938-.34686458.22889938-.55232716 0-.2062438-.08359124-.40701902-.22889938-.55310838-.14608936-.14530814-.34686458-.22811815-.55232715-.22811815-.2062438 0-.40701903.08281001-.55232716.22811815-.14608936.14608936-.22889937.34686458-.22889937.55310838 0 .20546258.08281.4062378.22889937.55232716.14530813.14538626.34608335.22889937.55232716.22889937z"/>
    </g>
  </g>
</svg>
