<svg xmlns="http://www.w3.org/2000/svg" width="14.262" height="14.264" viewBox="0 0 14.262 14.264">
  <g>
    <path fill="rgb(200,200,200)" fill-rule="evenodd" d="M5.89829106 8.3663C4.54309891 7.01098391 4.23710357 5.65566783 4.16807103 5.11266005c-.0192898-.15014307.03237384-.30071428.13977867-.40737824l1.09668728-1.09629794c.16132407-.16123919.18995283-.41252532.06903255-.60592618L3.72743774.29144627C3.59366057.07729082 3.31897989 0 3.0931706.11297347L.29000852 1.43328048C.1074049 1.52320433 0 1.7172344.02073262 1.91973515.1676104 3.3152015.77592912 6.7456005 4.14677375 10.1169982c3.37084463 3.37139771 6.80044037 3.97952725 8.1965135 4.12641845.20248225.02073452.39649456-.0866802.48641019-.26930053l1.32018628-2.80341842c.11254036-.2253427.03576816-.49931216-.1774773-.63334587L11.26104294 8.79155c-.193273-.12105766-.44452474-.09263061-.60587077.06854922L9.55897447 9.9568868c-.1066542.10741465-.25721164.15908302-.40734099.13979145C8.60867536 10.0276394 7.25348321 9.72161607 5.89829106 8.3663z"/>
    <path fill="rgb(200,200,200)" fill-rule="evenodd" d="M11.27964746 7.63600594c-.2703945 0-.48959254-.21921809-.48959254-.4896373-.00229338-2.02719337-1.64493605-3.66998626-3.67194405-3.67227984-.2703945 0-.48959254-.2192181-.48959254-.48963732 0-.27041922.21919805-.4896373.48959254-.4896373 2.56757324.0028334 4.64829598 2.08374642 4.65112913 4.65155445 0 .27041922-.21919805.48963731-.48959254.48963731z"/>
    <path fill="rgb(200,200,200)" fill-rule="evenodd" d="M13.72761015 7.63600594c-.27039449 0-.48959254-.21921809-.48959254-.4896373-.00377742-3.37867422-2.74154147-6.11668863-6.11990674-6.1204664-.2703945 0-.48959254-.2192181-.48959254-.48963731 0-.27041922.21919805-.48963731.48959254-.48963731 3.91893051.00431759 7.09477462 3.18045213 7.09909182 7.09974101 0 .1298599-.05158192.25440106-.14339832.34622588-.09181642.09182479-.2163462.14341143-.34619422.14341143z"/>
  </g>
</svg>
