<svg xmlns="http://www.w3.org/2000/svg" xmlns:xlink="http://www.w3.org/1999/xlink" width="40" height="40" viewBox="0 0 40 40">
  <defs>
    <rect id="rect-1" width="40" height="40" x="0" y="0"/>
    <mask id="mask-2" maskContentUnits="userSpaceOnUse" maskUnits="userSpaceOnUse">
      <rect width="40" height="40" x="0" y="0" fill="black"/>
      <use fill="white" xlink:href="#rect-1"/>
    </mask>
  </defs>
  <g>
    <use fill="none" xlink:href="#rect-1"/>
    <g mask="url(#mask-2)">
      <path fill="rgb(18,42,136)" fill-rule="evenodd" d="M12.47353871 23.7405492c.2813129.42464757.4296879.91544838.4296879 1.42074112 0 1.4232613-1.15738387 2.58064516-2.58064516 2.58064516-.50529193 0-.99609355-.14837419-1.42074113-.4296871l-.71226048 1.07610888c.63634113.42118226 1.37380322.64390161 2.13300161.64390161 2.13489194 0 3.87096774-1.7360758 3.87096774-3.87096774 0-.75919839-.22271935-1.49666048-.6439008-2.13363145l-1.07610968.71288951z"/>
      <path fill="rgb(18,42,136)" fill-rule="evenodd" d="M11.74269104 23.0097151c-.42338562-.28070068-.91481018-.42907714-1.42010498-.42907714-1.42326355 0-2.5806427 1.15737915-2.5806427 2.58065796 0 .50527954.1483612.99609375.4296875 1.4213562l-1.07611084.71228027c-.42118835-.6369934-.64390564-1.37445068-.64390564-2.13363647 0-2.1348877 1.73606873-3.87097168 3.87097168-3.87097168.7601471 0 1.49728394.22271728 2.1329956.64389038l-.71289062 1.07550049z"/>
      <path fill="rgb(18,42,136)" fill-rule="evenodd" d="M23.22579956 30.96775344v-3.87097168h1.29032898v2.58065796h1.29031372v1.29031372h-2.5806427z"/>
      <path fill="rgb(18,42,136)" fill-rule="evenodd" d="M19.3800354 24.82831862c1.26322937-1.03356933 2.85818481-1.60250854 4.49092102-1.60250854 3.91287232 0 7.0967865 3.18389892 7.0967865 7.09677124 0 1.63275146-.56956482 3.22769165-1.60314941 4.49093628l-.99829102-.81747437c.70848084-.86569214 1.14604187-1.9225769 1.2704773-3.0282898h-1.24969483V29.6774092h1.25221253c-.29864502-2.68649292-2.43605042-4.82452393-5.12316895-5.12316895v1.25222779h-1.29032898V24.5567732c-1.10508728.12442017-2.16261291.5619812-3.02766418 1.2704773l-.81809998-.99893189z"/>
      <path fill="rgb(18,42,136)" fill-rule="evenodd" d="M24.51612854 34.8386946v1.24969482c1.10572815-.12445068 2.16261292-.56201171 3.02766418-1.2704773l.81811524.9989319c-1.26324463 1.03356933-2.85818482 1.60250854-4.49093628 1.60250854-3.91285706 0-7.09677124-3.18392944-7.09677124-7.09677124 0-1.63275147.56954956-3.22769165 1.60313415-4.49093628l.99830628.81747436c-.70848084.86569214-1.14604187 1.9225769-1.2704773 3.0282898h1.24967957v1.29031372h-1.25219727c.29862976 2.68649292 2.43605042 4.82455444 5.12316895 5.12319946V34.8386946h1.29031372z"/>
      <path fill="rgb(18,42,136)" fill-rule="evenodd" d="M36.12902832 29.6774092H34.8387146V11.61289504h-3.87097168v12.15222168c-.39408875-.4265442-.82566834-.81622315-1.29032898-1.1665039V14.8386946h-3.87095642v6.00115967c-.41992188-.08569336-.85276794-.13327027-1.29032898-.16256714v-2.61276245h-3.87097168v3.1451416c-.64894104.23028564-1.26574707.52767944-1.84318542.88458252-.129776-.35943604-.27279664-.71224976-.44573975-1.04901123l1.02003479-1.42861939-3.50901794-3.51028442-1.429245 1.02069092c-.43031311-.21990967-.8798523-.40576172-1.34449768-.55474854l-.28825378-1.73358154H7.8405304l-.28823853 1.73358154c-.46464539.14898682-.91418457.33483887-1.34449768.55474854l-1.42893982-1.02069092-3.50932312 3.51028442 1.02003479 1.42861939c-.22052002.4296875-.40637207.87921142-.55537415 1.34451294L0 22.67924025v4.96408081l1.73355103.2888794c.14900207.46530151.335495.91482544.5553894 1.34451294l-1.02003479 1.42828369 3.50900269 3.5105896 1.42924499-1.0206604c.43032837.21987915.8798523.40576172 1.34451294.55474853l.28823853 1.7341919h4.96472167l.28823853-1.73355103c.46466064-.14901733.91418457-.33486938 1.34451294-.55474853l.2579956.18429565c1.28465272 3.84069824 4.90864564 6.62011719 9.17559815 6.62011719 5.11875915 0 9.3104248-3.99664307 9.64465332-9.03222656H40V6.45160964h-3.87097168V29.6774092zM37.4193573 7.74192336h1.29032898V29.6774092H37.4193573V7.74192336zm-5.1612854 5.16131592h1.29032898v16.77420044H33.515625c-.10017395-1.50769043-.543396-2.92056275-1.2575531-4.16204834v-12.6121521zM12.3541565 32.62382033c.63822936-.17294311 1.24653625-.42434692 1.81040954-.7475586l.15216064-.08724975c-.07339477-.47946167-.12316894-.9664917-.12316894-1.46643066 0-.00567627.00062561-.01165772.00062561-.01733399-1.10697937.83102417-2.46250916 1.3076477-3.87159729 1.3076477-3.55752564 0-6.45161438-2.89407348-6.45161438-6.45159911 0-3.55752564 2.89408874-6.45159912 6.45161438-6.45159912 3.12657165 0 5.73934936 2.23599243 6.32717895 5.19277954.32572937-.36575318.67225647-.7135315 1.0496521-1.02697754-.16853332-.54464722-.38275146-1.07043457-.66122436-1.55557251l-.20602417-.35943604.8600006-1.20431518-1.96446227-1.96383667-1.20306397.86001587-.35943603-.20602417c-.56388855-.32321167-1.17282105-.57458496-1.8104248-.7475586l-.39944459-.10836792-.24382019-1.46136474H8.93429565l-.24383544 1.46136474-.39944458.10836792c-.63822938.17297364-1.246521.42434693-1.81040955.7475586l-.35943604.20602417-1.20306396-.86001587-1.96447754 1.96383667.86001587 1.20431518-.20602417.35943604c-.32258606.56137085-.57333374 1.1703186-.74754334 1.80981445l-.10836792.39944458-1.46138.24319458v2.77783203l1.46138.24319458.10774231.39944458c.17294312.6388855.42495728 1.24716187.74754334 1.80981446l.20600891.35943603-.86000061 1.20431519 1.96446228 1.96383667 1.20306396-.86001587.35943604.20602417c.56388855.32321167 1.17282104.57461548 1.8104248.7475586l.39944458.10836791.24383545 1.46136475h2.77720642l.24383545-1.46136475.39944458-.10836792zm16.03294372-16.4947815h-1.29032898v5.08126832c.4451294.15814209.8779602.34118652 1.29032898.56011963v-5.64138794zm-6.45161438 3.22579957h1.29032898v1.3230896c-.4375763.02929687-.8704071.07687378-1.29032898.16287231V19.3548384zm-6.46768188 6.18637085c-.48576355.85119629-.84960938 1.77893066-1.06004334 2.76525879-.97436523 1.26260376-2.48960876 2.01611328-4.08518982 2.01611328-2.84588623 0-5.1612854-2.31539917-5.1612854-5.1612854 0-2.84588623 2.31539917-5.1612854 5.1612854-5.1612854 2.84590149 0 5.16130066 2.31539917 5.16130066 5.1612854 0 .12854004-.00724792.25421142-.0160675.37991333zm.0160675 4.78137207c0 4.62451172 3.76260376 8.38711548 8.38710022 8.38711548 4.62449646 0 8.38708496-3.76260376 8.38708496-8.38711548 0-4.6244812-3.7625885-8.38708496-8.38708496-8.38708496s-8.38710022 3.76260376-8.38710022 8.38708496z"/>
      <path fill="rgb(18,42,136)" fill-rule="evenodd" d="M36.12902832.00001052v1.29031372h1.38641357l-4.56433105 3.6517334-1.98336792-1.98336792-3.0418396 3.0418396c-.25231934-.12130738-.53112793-.19406128-.82913208-.19406128-1.06697082 0-1.93548584.86849975-1.93548584 1.93548584 0 .33358764.09294128.6432495.24194336.91732788l-3.3722992 3.74716186c-.22837829-.09481811-.47787475-.14837646-.74060058-.14837646-.01229858 0-.02331543.0031433-.03559876.00378418l-2.5941925-6.91845703c.42086792-.3550415.69430542-.87954712.69430542-1.47241211 0-1.06698609-.86851501-1.93548584-1.93548584-1.93548584-1.06697083 0-1.93548584.86849975-1.93548584 1.93548584 0 .13922119.0160675.27468872.04441833.40637207L10.2394104 7.53150466c-.33171082-.26776123-.74848938-.4347229-1.20715332-.4347229-.83984375 0-1.54959106.54119873-1.81672668 1.29031372H3.75221252c-.26715087-.749115-.97688293-1.29031372-1.81672668-1.29031372C.86851501 7.09678176 0 7.9652815 0 9.0322676c0 1.06698608.86851501 1.93548584 1.93548584 1.93548584.83984375 0 1.5495758-.54119873 1.81672668-1.29031372h3.46395874c.26713562.74911499.97686768 1.29031372 1.81671143 1.29031372 1.06697083 0 1.93548584-.86849976 1.93548584-1.93548584 0-.13925171-.0160675-.27468872-.04441833-.40637207l5.28887939-3.2541504c.3310852.26776124.74786377.4347229 1.20652771.4347229.01228332 0 .02331543-.0031433.03559875-.00378417l2.59419251 6.91784668c-.42086792.35565185-.69430542.88015747-.69430542 1.47302246 0 1.06698608.86849976 1.93548584 1.93548584 1.93548584 1.06697082 0 1.93547058-.86849976 1.93547058-1.93548584 0-.33358765-.09230041-.64328003-.2419281-.91732788l3.37228394-3.74716187c.22839355.09481812.47789001.14837647.74061584.14837647 1.06697083 0 1.93548584-.86853028 1.93548584-1.93548584 0-.29800415-.07276916-.57681275-.19404602-.82913208l2.12953186-2.12954712 1.88760376 1.88760376 5.8543396-4.68310547V3.8709822H40V.00001052h-3.87097168zM16.77420044 3.8709822c0-.35534668.28918457-.64517212.64515686-.64517212.35597229 0 .64517212.28982544.64517212.64517212s-.28919983.6451416-.64517212.6451416-.64515686-.28979492-.64515686-.6451416zm10.3225708 4.51611328c-.35597229 0-.64515686-.28979492-.64515686-.6451416 0-.35534668.28918457-.64517212.64515686-.64517212.35597229 0 .64517212.28982544.64517212.64517212s-.28919983.6451416-.64517212.6451416zM1.93548584 9.6774092c-.35597229 0-.64515686-.28979492-.64515686-.6451416 0-.35534668.28918457-.64517212.64515686-.64517212.35597229 0 .64517212.28982544.64517212.64517212s-.28919983.6451416-.64517212.6451416zm6.45161438-.6451416c0 .35534668.28918457.6451416.64515686.6451416.35597229 0 .64517212-.28979492.64517212-.6451416 0-.35534668-.28919983-.64517212-.64517212-.64517212s-.64515686.28982544-.64515686.64517212zm12.25805664 5.1612854c0 .35534668.28918457.6451416.64515686.6451416.3559723 0 .64517212-.28979492.64517212-.6451416 0-.35534668-.28919983-.64517212-.64517212-.64517212s-.64515686.28982544-.64515686.64517212z"/>
    </g>
  </g>
</svg>
