<svg xmlns="http://www.w3.org/2000/svg" width="37" height="37" viewBox="0 0 37 37">
  <g>
    <path fill="rgb(18,42,136)" fill-rule="evenodd" d="M34.01612903 31.03225806H23.87096774v-7.16129032h-1.19354839V12.35143578L20.0128225 8.35483871h-2.70637088V5.37096774h9.5483871v.5967742c0 .65824174.53530607 1.19354838 1.19354839 1.19354838h1.79032258v7.24603238c-.87666235.22796772-1.56175841.93454838-1.74257956 1.82911322-2.43961364.52993464-4.22516238 2.70577215-4.22516238 5.24743505 0 1.44061378 1.02704879 2.64609564 2.38709678 2.92359573v5.43124298h8.3548387V24.4074667C35.97295123 24.12996661 37 22.9250812 37 21.48387097c0-2.5416629-1.78554873-4.71750041-4.22516238-5.24743505-.18082114-.89456484-.8659172-1.6011455-1.74257956-1.82911322V7.16129032h1.79032259c.65824231 0 1.19354838-.53530664 1.19354838-1.19354838v-.5967742h.5967742c.98706411 0 1.79032258-.80325846 1.79032258-1.79032258 0-.9870644-.80325847-1.79032258-1.79032258-1.79032258h-.5967742v-.5967742C34.01612903.5353065 33.48082296 0 32.82258065 0H28.0483871c-.65824232 0-1.19354839.5353065-1.19354839 1.19354839v.5967742h-9.5483871C17.30645161.80325803 16.50319315 0 15.51612903 0H8.35483871c-.98706468 0-1.79032258.80325804-1.79032258 1.79032258v6.56451613H3.85814525L1.1935484 12.35143578v19.29251674C.47324193 32.18940273 0 33.04517807 0 34.01612903 0 35.66143547 1.33856453 37 2.98387097 37h31.03225806C35.66143547 37 37 35.66143547 37 34.01612903c0-1.64530643-1.33856453-2.98387097-2.98387097-2.98387097zM8.35483871 1.1935484h7.16129032c.3288218 0 .5967742.26795154.5967742.5967742v.59677418H7.75806452v-.59677419c0-.32882265.26795182-.5967742.59677419-.5967742zm19.69354839 0h4.77419355l.00059644 4.77419355h-4.77479V1.19354839zM17.3064516 4.17741935h9.5483871V2.98387097h-9.5483871v1.19354838zm17.9032258-.59677419c0-.32882265-.26795239-.5967742-.59677418-.5967742h-.5967742v1.1935484h.5967742c.3288218 0 .59677419-.26795155.59677419-.5967742zM16.11290324 4.77419355H7.75806452V3.58064516h8.3548387v1.19354839zm0 1.19354839H7.75806452V8.3548387h8.3548387V5.96774194zM4.49669346 9.5483871h14.87758082l1.59159667 2.38709677H2.90509679L4.49669346 9.5483871zm16.9871775 3.58064516H2.38709678v17.96349876c.19275804-.03938595.39267742-.06027296.5967742-.06027296h1.79032258v-7.16129032h8.3548387v7.16129032h2.38709678v-7.16129032h5.96774194V13.12903226zm10.1451613 3.58064516c0 .65824232-.53530607 1.19354839-1.19354839 1.19354839-.65824232 0-1.19354839-.53530607-1.19354839-1.1935484 0-.6582423.53530607-1.19354838 1.1935484-1.19354838.6582423 0 1.19354838.53530607 1.19354838 1.19354839zm-6.56451613 4.77419355c0-1.91624106 1.30574177-3.56095219 3.11277396-4.03598416.25183923.76685474.87487073 1.36004798 1.66141959 1.5641442v2.47183996h-3.58064516v1.68051726c-.69285442-.2470654-1.1935484-.90351837-1.1935484-1.68051726zm10.74193548 0c0-1.91624106-1.30574177-3.56154864-3.11277395-4.03598416-.2512428.76685474-.87487073 1.35945154-1.6614196 1.5641442v2.47183996h3.58064517v1.68051726c.69285442-.2470654 1.19354838-.90351837 1.19354838-1.68051726zm-2.38709677 7.16129032H27.4516129v-5.96774194h1.19354839v2.38709678h3.58064516v-2.38709678h1.19354839v5.96774194zm-3.58064516-5.96774194v1.1935484h1.19354838v-1.1935484h-1.19354838zm-19.0967742 2.38709678h1.1935484v5.96774193H5.96774193v-5.96774193h1.19354838v2.38709677h3.58064516v-2.38709677zm-1.19354838 0H8.3548387v1.19354839H9.5483871v-1.1935484zm7.16129032 5.96774193v-5.96774193h1.19354839v2.38709677h3.58064516v-2.38709677h1.19354838v5.96774193h-5.96774193zm3.58064516-5.96774193H19.0967742v1.19354839h1.1935484v-1.1935484zm-19.0967742 8.9516129c0-.98706411.8032579-1.79032258 1.79032259-1.79032258h2.40261291c-.37895174.50009752-.61229033 1.1159671-.61229033 1.79032258s.23333859 1.29022506.61229033 1.79032258H2.98387097c-.98706469 0-1.79032258-.80325846-1.79032258-1.79032258zm4.77419356 0c0-.98706411.8032579-1.79032258 1.79032258-1.79032258.98706411 0 1.79032258.80325847 1.79032258 1.79032258 0 .98706412-.80325847 1.79032258-1.79032258 1.79032258-.98706469 0-1.79032258-.80325846-1.79032258-1.79032258zm6.57943639-1.79032258h-2.41753261c.37895175.50009752.61228976 1.1159671.61228976 1.79032258s-.23333801 1.29022506-.61169332 1.79032258h2.41753262c-.37895175-.50009752-.6122909-1.1159671-.6122909-1.79032258 0-.67435547.23333915-1.29022506.61169445-1.79032258zm.58185393 1.79032258c0-.98706411.80325846-1.79032258 1.79032258-1.79032258.98706411 0 1.79032258.80325847 1.79032258 1.79032258 0 .98706412-.80325847 1.79032258-1.79032258 1.79032258-.98706412 0-1.79032258-.80325846-1.79032258-1.79032258zm6.5794364-1.79032258h-2.41753262c.37895175.50009752.61228977 1.1159671.61228977 1.79032258s-.23333802 1.29022506-.61169332 1.79032258h2.4175326c-.3789506-.50009752-.6122909-1.1159671-.6122909-1.79032258 0-.67435547.2333403-1.29022506.61169446-1.79032258zm.58185392 1.79032258c0-.98706411.80325847-1.79032258 1.79032258-1.79032258.98706412 0 1.79032258.80325847 1.79032258 1.79032258 0 .98706412-.80325846 1.79032258-1.79032258 1.79032258-.98706411 0-1.79032258-.80325846-1.79032258-1.79032258zm6.57943412-1.79032258h-2.41753148c.37895061.50009752.6122909 1.1159671.6122909 1.79032258s-.23334029 1.29022506-.61169445 1.79032258h2.41753375c-.37895289-.50009752-.6122909-1.1159671-.6122909-1.79032258 0-.67435547.23333801-1.29022506.61169218-1.79032258zm2.37217878 3.58064516c.98706412 0 1.79032258-.80325846 1.79032258-1.79032258 0-.98706411-.80325846-1.79032258-1.79032258-1.79032258-.98706411 0-1.79032258.80325847-1.79032258 1.79032258 0 .98706412.80325847 1.79032258 1.79032258 1.79032258zm2.37158007 0h2.40261348c.98706412 0 1.79032258-.80325846 1.79032258-1.79032258 0-.98706411-.80325846-1.79032258-1.79032258-1.79032258h-2.40261348c.3789506.50009752.6122909 1.1159671.6122909 1.79032258s-.2333403 1.29022506-.6122909 1.79032258z"/>
    <path fill="rgb(18,42,136)" fill-rule="evenodd" d="M28.64516129 3.58064516c0-.98706468.80325847-1.79032258 1.79032258-1.79032258.98706412 0 1.79032258.8032579 1.79032258 1.79032258 0 .98706412-.80325846 1.79032258-1.79032258 1.79032258-.98706411 0-1.79032258-.80325846-1.79032258-1.79032258zm1.19354839 0c0 .32882265.2679524.5967742.5967742.5967742.32882179 0 .59677418-.26795155.59677418-.5967742 0-.32882265-.2679524-.5967742-.59677419-.5967742-.3288218 0-.5967742.26795155-.5967742.5967742z"/>
    <path fill="rgb(18,42,136)" fill-rule="evenodd" d="M3.58064516 14.32258065h7.16129032v8.3548387H3.58064516v-8.3548387zm1.19354839 7.16129032H9.5483871v-5.96774194H4.77419355v5.96774194z"/>
    <path fill="rgb(18,42,136)" fill-rule="evenodd" d="M15.51612903 16.11290323c0 .98706411-.80325846 1.79032258-1.79032258 1.79032258-.98706411 0-1.79032258-.80325847-1.79032258-1.79032258 0-.98706412.80325847-1.79032258 1.79032258-1.79032258.98706412 0 1.79032258.80325846 1.79032258 1.79032258zm-1.19354838 0c0-.32882294-.26795126-.5967742-.5967742-.5967742-.32882293 0-.5967742.26795126-.5967742.5967742 0 .32882293.26795127.59677419.5967742.59677419.32882294 0 .5967742-.26795126.5967742-.5967742z"/>
    <path fill="rgb(18,42,136)" fill-rule="evenodd" d="M20.29032258 16.11290323c0 .98706411-.80325846 1.79032258-1.79032258 1.79032258s-1.79032258-.80325847-1.79032258-1.79032258c0-.98706412.80325846-1.79032258 1.79032258-1.79032258s1.79032258.80325846 1.79032258 1.79032258zm-1.19354839 0c0-.32882294-.2679524-.5967742-.59677419-.5967742-.32882294 0-.5967742.26795126-.5967742.5967742 0 .32882293.26795126.59677419.5967742.59677419.3288218 0 .5967742-.26795126.5967742-.5967742z"/>
    <path fill="rgb(18,42,136)" fill-rule="evenodd" d="M11.93548387 19.0967742h8.35483871v1.19354838h-8.3548387V19.0967742z"/>
    <path fill="rgb(18,42,136)" fill-rule="evenodd" d="M11.93548387 21.48387097h1.19354839v1.19354838h-1.19354839v-1.19354838z"/>
    <path fill="rgb(18,42,136)" fill-rule="evenodd" d="M14.32258065 21.48387097h3.58064516v1.19354838h-3.58064516v-1.19354838z"/>
    <path fill="rgb(18,42,136)" fill-rule="evenodd" d="M19.0967742 21.48387097h1.19354838v1.19354838H19.0967742v-1.19354838z"/>
  </g>
</svg>
