<svg xmlns="http://www.w3.org/2000/svg" xmlns:xlink="http://www.w3.org/1999/xlink" width="22" height="22" viewBox="0 0 22 22">
  <defs>
    <rect id="rect-1" width="22" height="22" x="0" y="0"/>
    <mask id="mask-2" maskContentUnits="userSpaceOnUse" maskUnits="userSpaceOnUse">
      <rect width="22" height="22" x="0" y="0" fill="black"/>
      <use fill="white" xlink:href="#rect-1"/>
    </mask>
  </defs>
  <g>
    <use fill="none" xlink:href="#rect-1"/>
    <g mask="url(#mask-2)">
      <path fill="rgb(130,130,130)" fill-rule="evenodd" d="M11 0c2.9382019 0 5.70057678 1.14416504 7.77820587 3.22180176C20.85578537 5.29946899 22 8.0617981 22 11s-1.14417267 5.70059204-3.22179413 7.77819824C16.70057678 20.85583496 13.9382019 22 11 22s-5.70062065-1.14413452-7.77820206-3.22180176C1.14421463 16.70053101 0 13.9382019 0 11s1.14417267-5.70059204 3.22179794-7.77819824C5.29942131 1.14416504 8.0617981 0 11 0zm3.09375 13.40625c0-1.7059021-1.3878479-3.09375-3.09375-3.09375-.98832703 0-1.7844925-.83850098-1.71445465-1.84152222.059124-.84664917.74494934-1.53250122 1.59160614-1.5916748C11.88012695 6.80917358 12.71875 7.6053772 12.71875 8.59375c0 .38641357.3187828.69836426.707695.68719482.37477113-.01074218.66954041-.33151245.66725922-.70639038-.0085907-1.40454101-.95820236-2.58932495-2.24863815-2.9562683-.09285736-.02642823-.15756607-.11019898-.15756607-.2067566V4.8125c0-.39071655-.32587433-.70529175-.72071457-.68673706-.36978912.01739502-.65428543.3359375-.65428543.70614624v.5794983c0 .09680175-.0650978.18054198-.15821075.20706176C8.85830688 5.98730469 7.90625 7.18106079 7.90625 8.59375c0 1.7059021 1.3878479 3.09375 3.09375 3.09375.98832321 0 1.7844925.83850098 1.71445084 1.84152222-.059124.84664917-.74494934 1.53250122-1.59160233 1.5916748C10.11986923 15.19082642 9.28125 14.3946228 9.28125 13.40625c0-.38641357-.31878662-.69836426-.707695-.68719482-.37477494.01074218-.66954041.33148193-.66726304.70639038.00859451 1.40454101.95820236 2.58929443 2.24864197 2.9562683.09285355.02642823.15756607.11019898.15756607.2067566V17.1875c0 .39071655.32587433.70529175.72071457.68673706.36978912-.01742554.65428543-.3359375.65428543-.70614624v-.5794983c0-.09680175.0650978-.18054198.15821075-.20706176C13.1416893 16.01269531 14.09375 14.81893921 14.09375 13.40625z"/>
    </g>
  </g>
</svg>
