<svg xmlns="http://www.w3.org/2000/svg" xmlns:xlink="http://www.w3.org/1999/xlink" width="40" height="40" viewBox="0 0 40 40">
  <defs>
    <rect id="rect-4" width="40" height="40" x="0" y="0"/>
    <mask id="mask-5" maskContentUnits="userSpaceOnUse" maskUnits="userSpaceOnUse">
      <rect width="40" height="40" x="0" y="0" fill="black"/>
      <use fill="white" xlink:href="#rect-4"/>
    </mask>
    <path id="path-6" fill-rule="evenodd" d="M7.34375 19.35546875H6.25v-.9375h2.6953125v-1.171875H6.25V15.78125H5.078125v1.46484375h-1.09375c-.9046936 0-1.640625.73602295-1.640625 1.640625s.7359314 1.640625 1.640625 1.640625h1.09375v1.0546875H2.3828125v1.171875H5.078125V24.21875H6.25v-1.46484375h1.09375c.9046936 0 1.640625-.73602295 1.640625-1.640625v-.1171875c0-.90460205-.7359314-1.640625-1.640625-1.640625zm-3.359375 0h1.09375v-.9375h-1.09375c-.2585144 0-.46875.2102356-.46875.46875 0 .2585144.2102356.46875.46875.46875zm3.828125 1.7578125c0 .2585144-.2102356.46875-.46875.46875H6.25v-1.0546875h1.09375c.2585144 0 .46875.2102356.46875.46875v.1171875z"/>
    <mask id="mask-7" x="0" y="0" maskContentUnits="userSpaceOnUse" maskUnits="userSpaceOnUse">
      <rect width="40" height="40" x="0" y="0" fill="black"/>
      <use fill="white" xlink:href="#path-6"/>
    </mask>
    <path id="path-8" fill-rule="evenodd" d="M29.91461182 7.3046875h7.15570068C38.68579102 7.3046875 40 8.61889648 40 10.234375v19.53125c0 1.61547852-1.31420898 2.9296875-2.9296875 2.9296875h-7.15570068c-.10095215 1.52459717-1.37265015 2.734375-2.92242432 2.734375h-14.0625c-1.54968262 0-2.82147217-1.20977783-2.92242432-2.734375H2.9296875C1.31420898 32.6953125 0 31.38110352 0 29.765625v-19.53125c0-1.61547852 1.31420898-2.9296875 2.9296875-2.9296875h7.07757568c.10095215-1.52459717 1.37265015-2.734375 2.92242432-2.734375h14.0625c1.54968262 0 2.82147217 1.20977783 2.92242432 2.734375zM28.75 32.5c0 .96920776-.78851318 1.7578125-1.7578125 1.7578125h-14.0625c-.96929932 0-1.7578125-.78860474-1.7578125-1.7578125v-25c0-.96920776.78851318-1.7578125 1.7578125-1.7578125h14.0625C27.96148682 5.7421875 28.75 6.53079224 28.75 7.5v25zm-25.8203125-.9765625H10V8.4765625H2.9296875c-.96929932 0-1.7578125.78860474-1.7578125 1.7578125v19.53125c0 .96920776.78851318 1.7578125 1.7578125 1.7578125zm34.140625 0c.96929932 0 1.7578125-.78860474 1.7578125-1.7578125v-19.53125c0-.96920776-.78851318-1.7578125-1.7578125-1.7578125H29.921875v23.046875h7.1484375z"/>
    <mask id="mask-9" x="0" y="0" maskContentUnits="userSpaceOnUse" maskUnits="userSpaceOnUse">
      <rect width="40" height="40" x="0" y="0" fill="black"/>
      <use fill="white" xlink:href="#path-8"/>
    </mask>
    <path id="path-10" fill-rule="evenodd" d="M12.890625 11.71875v-1.171875H14.0625v1.171875h-1.171875zm2.34375 0v-1.171875H24.6875v1.171875h-9.453125zm10.625 0v-1.171875h1.171875v1.171875h-1.171875zm-12.96875 17.734375V28.28125H14.0625v1.171875h-1.171875zm2.34375 0V28.28125H24.6875v1.171875h-9.453125zm10.625 0V28.28125h1.171875v1.171875h-1.171875z"/>
    <mask id="mask-11" x="0" y="0" maskContentUnits="userSpaceOnUse" maskUnits="userSpaceOnUse">
      <rect width="40" height="40" x="0" y="0" fill="black"/>
      <use fill="white" xlink:href="#path-10"/>
    </mask>
  </defs>
  <g>
    <path fill="rgb(0,0,0)" fill-rule="evenodd" d="M2.65625 11.953125V10.78125h1.171875v1.171875H2.65625zm2.34375 0V10.78125h1.171875v1.171875H5zm2.34375 0V10.78125h1.171875v1.171875H7.34375zm24.1015625 0V10.78125h1.171875v1.171875h-1.171875zm2.34375 0V10.78125h1.171875v1.171875h-1.171875zm2.34375 0V10.78125h1.171875v1.171875h-1.171875zM2.65625 29.21875v-1.171875h1.171875v1.171875H2.65625zm2.34375 0v-1.171875h1.171875v1.171875H5zm2.34375 0v-1.171875h1.171875v1.171875H7.34375zm24.1015625 0v-1.171875h1.171875v1.171875h-1.171875zm2.34375 0v-1.171875h1.171875v1.171875h-1.171875zm2.34375 0v-1.171875h1.171875v1.171875h-1.171875z"/>
    <path fill="rgb(18,42,136)" fill-rule="evenodd" d="M22.1484375 19.375H20.546875v-1.796875h3.6328125V16.40625H20.546875v-1.6015625H19.375V16.40625h-1.6015625c-1.14157104 0-2.0703125.92874146-2.0703125 2.0703125s.92874146 2.0703125 2.0703125 2.0703125H19.375v1.9921875h-3.6328125v1.171875H19.375v1.25h1.171875v-1.25h1.6015625c1.14157104 0 2.0703125-.92874146 2.0703125-2.0703125v-.1953125c0-1.14157104-.92874146-2.0703125-2.0703125-2.0703125zm-4.375 0H19.375v-1.796875h-1.6015625c-.49539185 0-.8984375.40304565-.8984375.8984375s.40304565.8984375.8984375.8984375zm5.2734375 2.265625c0 .49539185-.40304565.8984375-.8984375.8984375H20.546875V20.546875h1.6015625c.49539185 0 .8984375.40304565.8984375.8984375v.1953125z"/>
    <path fill="rgb(18,42,136)" fill-rule="evenodd" d="M36.015625 19.35546875h-1.09375v-.9375h2.6953125v-1.171875H34.921875V15.78125H33.75v1.46484375h-1.09375c-.9046936 0-1.640625.73602295-1.640625 1.640625s.7359314 1.640625 1.640625 1.640625H33.75v1.0546875h-2.6953125v1.171875H33.75V24.21875h1.171875v-1.46484375h1.09375c.9046936 0 1.640625-.73602295 1.640625-1.640625v-.1171875c0-.90460205-.7359314-1.640625-1.640625-1.640625zm-3.359375 0H33.75v-.9375h-1.09375c-.2585144 0-.46875.2102356-.46875.46875 0 .2585144.2102356.46875.46875.46875zm3.828125 1.7578125c0 .2585144-.2102356.46875-.46875.46875h-1.09375v-1.0546875h1.09375c.2585144 0 .46875.2102356.46875.46875v.1171875z"/>
    <use fill="none" xlink:href="#rect-4"/>
    <g mask="url(#mask-5)">
      <g>
        <use fill="rgb(18,42,136)" xlink:href="#path-6"/>
        <use fill-opacity="0" stroke="rgb(18,42,136)" stroke-linecap="butt" stroke-linejoin="miter" stroke-width="4" mask="url(#mask-7)" xlink:href="#path-6"/>
      </g>
      <g>
        <use fill="rgb(18,42,136)" xlink:href="#path-8"/>
        <use fill-opacity="0" stroke="rgb(18,42,136)" stroke-linecap="butt" stroke-linejoin="miter" stroke-width="4" mask="url(#mask-9)" xlink:href="#path-8"/>
      </g>
      <use fill="rgb(18,42,136)" xlink:href="#path-10"/>
      <use fill-opacity="0" stroke="rgb(18,42,136)" stroke-linecap="butt" stroke-linejoin="miter" stroke-width="4" mask="url(#mask-11)" xlink:href="#path-10"/>
    </g>
  </g>
</svg>
