<svg xmlns="http://www.w3.org/2000/svg" xmlns:xlink="http://www.w3.org/1999/xlink" width="141" height="141" viewBox="0 0 141 141">
  <defs>
    <path id="path-1" fill-rule="evenodd" d="M7 2h123c2.75957512 0 5 2.24042488 5 5v123c0 2.75957512-2.24042488 5-5 5H7c-2.75957512 0-5-2.24042488-5-5V7c0-2.75957512 2.24042488-5 5-5z"/>
    <filter id="filter-2" width="200%" height="200%" x="-50%" y="-50%" color-interpolation-filters="sRGB" filterUnits="userSpaceOnUse">
      <feOffset dx="2" dy="2" in="SourceAlpha" result="shadow-1-feOffset-shadow"/>
      <feGaussianBlur in="shadow-1-feOffset-shadow" result="shadow-1-feGaussianBlur-shadow" stdDeviation="2.41"/>
      <feColorMatrix in="shadow-1-feGaussianBlur-shadow" result="shadow-1-feColorMatrix-shadow" type="matrix" values="0 0 0 0 0  0 0 0 0 0  0 0 0 0 0  0 0 0 0.19 0"/>
    </filter>
  </defs>
  <g>
    <g>
      <use fill="black" stroke="black" stroke-opacity="0" stroke-width="0" filter="url(#filter-2)" xlink:href="#path-1"/>
      <use fill="rgb(138,199,223)" xlink:href="#path-1"/>
    </g>
    <path fill="rgb(255,255,255)" fill-rule="evenodd" d="M99.34177017 38.07104492v32.05957031c3.112854.23614502 5.57621765 2.92181397 5.57608032 6.19140625v18.5133667c0 3.42425537-2.7013092 6.21002198-6.02163696 6.21002198h-3.3417511c-1.96310425 0-3.7093048-.97406006-4.80924988-2.4777832l-6.78366088 1.5883789c-6.81634522 1.52044678-10.3846283 1.5201416-18.02368164 1.51947021l-.51026917-.00006103c-9.31500244 0-15.5809021-.82800293-21.47940063-7.58599854l-9.52895356-11.30871582c-2.33065796-2.66571045-1.6725769-6.9880371 1.10982514-8.91949463.88261413-.64141845 1.88031769-1.02929687 2.90087127-1.17480468V38.07104492C38.42994308 36.9272461 39.3771553 36 40.54551315 36H97.2262001c1.16835022 0 2.11557007.9272461 2.11557007 2.07104492zM59.9739418 48.83270264V40.1420288H42.66109085v8.69067383H59.9739418zm13.34953308-8.69067383v8.69067383h-9.11825561V40.1420288h9.11825561zm4.23114014 8.69055176h17.55599976l.00013733-8.69055176H77.55461502v8.69055176zm9.45928955 24.15673828l2.81878662 1.4015503c.74510193-2.3423462 2.80622864-4.0734253 5.27806092-4.26037599V52.97460937H77.55461502v7.59179688c0 1.1437378-.94720459 2.07104492-2.11557007 2.07104492H62.0896492c-1.16835022 0-2.11557007-.92730713-2.11557007-2.07104492v-7.59179688H42.66122818v20.54711915c.50970459.30151367.98458862.67736816 1.40727234 1.12646484l6.98492432 7.42211914c.01789855.01904297.03694152.03686523.05514526.05566406v-1.51031494c0-3.17626953 2.6396637-5.76019287 5.8841095-5.76019287h9.78126525c1.03294373.03942871 2.74719239-.78759766 4.11381531-1.44696045.55569458-.26812744 1.05383301-.50842285 1.4251709-.65142822 4.70785523-2.14263916 10.0663147-2.05786133 14.70097351.23223877zM64.20508194 52.97460937h9.11825561v5.52075196h-9.11825561v-5.52075196zm34.69128418 43.9286499c.98725891 0 1.79048157-.92767333 1.79048157-2.06799316V76.32202148c0-1.14044189-.80322266-2.06811523-1.79048157-2.06811523h-3.3417511c-.98713684 0-1.79034424.92779541-1.79034424 2.06811523v18.51324463c0 1.14031983.80307007 2.06799317 1.79034424 2.06799317h3.3417511zm-15.91671753-.77642822c-6.19042969 1.38806153-10.01246643 1.38684082-16.67189026 1.38476563l-.80427551-.0001831c-8.7443695 0-12.9694519-.1383667-18.29109192-6.05786133l-9.52896118-11.30871582c-1.65747833-2.112854 1.3446579-4.60705567 3.27321625-2.6904297l6.98491668 7.42224122c1.84603882 1.90686035 4.16908264 2.95635986 7.0322876 3.0180664h19.36566162c1.16836548 0 2.11557007-.92730712 2.11557007-2.07104492 0-1.14373779-.94720459-2.07098388-2.11557007-2.07098388H55.33957291v-3.1373291c0-.89221192.74142456-1.61816407 1.6529541-1.61816407h9.78128052c1.75872802.12329102 4.13978576-.99920654 6.01525878-1.88336181.4743042-.22357178.91624451-.4319458 1.30758667-.60101319 3.52593995-1.60491943 7.53933716-1.54138183 11.00590516.17144776l4.4305725 2.20300293v15.70495605l-6.55348205 1.53460693z"/>
  </g>
</svg>
