<svg xmlns="http://www.w3.org/2000/svg" xmlns:xlink="http://www.w3.org/1999/xlink" width="141" height="141" viewBox="0 0 141 141">
  <defs>
    <path id="path-1" fill-rule="evenodd" d="M7 2h123c2.75957512 0 5 2.24042488 5 5v123c0 2.75957512-2.24042488 5-5 5H7c-2.75957512 0-5-2.24042488-5-5V7c0-2.75957512 2.24042488-5 5-5z"/>
    <filter id="filter-2" width="200%" height="200%" x="-50%" y="-50%" color-interpolation-filters="sRGB" filterUnits="userSpaceOnUse">
      <feOffset dx="2" dy="2" in="SourceAlpha" result="shadow-1-feOffset-shadow"/>
      <feGaussianBlur in="shadow-1-feOffset-shadow" result="shadow-1-feGaussianBlur-shadow" stdDeviation="2.41"/>
      <feColorMatrix in="shadow-1-feGaussianBlur-shadow" result="shadow-1-feColorMatrix-shadow" type="matrix" values="0 0 0 0 0  0 0 0 0 0  0 0 0 0 0  0 0 0 0.19 0"/>
    </filter>
    <rect id="rect-3" width="76" height="76" x="31" y="31"/>
    <mask id="mask-4" maskContentUnits="userSpaceOnUse" maskUnits="userSpaceOnUse">
      <rect width="141" height="141" x="0" y="0" fill="black"/>
      <use fill="white" xlink:href="#rect-3"/>
    </mask>
  </defs>
  <g>
    <g>
      <use fill="black" stroke="black" stroke-opacity="0" stroke-width="0" filter="url(#filter-2)" xlink:href="#path-1"/>
      <use fill="rgb(138,199,223)" xlink:href="#path-1"/>
    </g>
    <g>
      <use fill="none" xlink:href="#rect-3"/>
      <g mask="url(#mask-4)">
        <path fill="rgb(255,255,255)" fill-rule="evenodd" d="M100.171875 90.80963135V79.5390625c0-1.2296753-.9968872-2.2265625-2.2265625-2.2265625h-13.359375c-1.2296753 0-2.2265625.9968872-2.2265625 2.2265625V90.671875H77.90625V79.5390625c0-1.2296753-.9968872-2.2265625-2.2265625-2.2265625h-13.359375c-1.2296753 0-2.2265625.9968872-2.2265625 2.2265625V90.671875h-4.453125V79.5390625c0-1.2296753-.9968872-2.2265625-2.2265625-2.2265625h-13.359375c-1.2296753 0-2.2265625.9968872-2.2265625 2.2265625v11.27056885c-3.79510498.70019531-6.6796875 4.03167724-6.6796875 8.02630615C31.1484375 103.33758545 34.81085205 107 39.3125 107h59.375c4.50164795 0 8.1640625-3.66241455 8.1640625-8.1640625 0-3.9946289-2.88458252-7.32611084-6.6796875-8.02630615zM51.1875 81.765625h-8.90625v8.90625h8.90625v-8.90625zm13.359375 0h8.90625v8.90625h-8.90625v-8.90625zm31.171875 0H86.8125v8.90625h8.90625v-8.90625zM35.6015625 98.8359375c0-2.04620361 1.66473389-3.7109375 3.7109375-3.7109375s3.7109375 1.66473389 3.7109375 3.7109375-1.66473389 3.7109375-3.7109375 3.7109375-3.7109375-1.66473389-3.7109375-3.7109375zM61.73175049 95.125c-.571167 1.11431885-.89581299 2.375-.89581299 3.7109375s.324646 2.59661865.89581299 3.7109375H46.5807495c.571167-1.11431885.89581299-2.375.89581299-3.7109375s-.324646-2.59661865-.89581299-3.7109375H61.7317505zM69 95.125c-2.04620361 0-3.7109375 1.66473389-3.7109375 3.7109375S66.95379639 102.546875 69 102.546875s3.7109375-1.66473389 3.7109375-3.7109375S71.04620361 95.125 69 95.125zm7.26824951 0H91.4192505c-.571167 1.11431885-.89581299 2.375-.89581299 3.7109375s.324646 2.59661865.89581299 3.7109375H76.2682495c.571167-1.11431885.89581299-2.375.89581299-3.7109375s-.324646-2.59661865-.89581299-3.7109375zm18.70831299 3.7109375c0 2.04620361 1.66473389 3.7109375 3.7109375 3.7109375s3.7109375-1.66473389 3.7109375-3.7109375S100.73370361 95.125 98.6875 95.125s-3.7109375 1.66473389-3.7109375 3.7109375z"/>
        <path fill="rgb(255,255,255)" fill-rule="evenodd" d="M75.6796875 50.87921143c0 3.6831665-2.996521 6.6796875-6.6796875 6.6796875s-6.6796875-2.996521-6.6796875-6.6796875S65.3168335 44.19952393 69 44.19952393s6.6796875 2.996521 6.6796875 6.6796875zm-4.453125 0c0-1.22772217-.99884033-2.2265625-2.2265625-2.2265625-1.22772217 0-2.2265625.99884033-2.2265625 2.2265625 0 1.22772216.99884033 2.2265625 2.2265625 2.2265625 1.22772217 0 2.2265625-.99884034 2.2265625-2.2265625z"/>
        <path fill="rgb(255,255,255)" fill-rule="evenodd" d="M36.97473145 71.04089355c.86956787.86956788.86956787 2.27941895 0 3.14880372-.86938477.86938476-2.27923584.86938476-3.14880372 0C32.00360107 72.36749267 31 69.94439697 31 67.3671875c0-2.57714844 1.00360107-5.00024414 2.82592773-6.82232666 1.28521729-1.28533936 2.86975098-2.16107178 4.59594727-2.56689453v-7.09875488c0-1.2296753.9968872-2.2265625 2.2265625-2.2265625h8.3125v-2.2265625c0-1.2296753.9968872-2.2265625 2.2265625-2.2265625h3.74224854c.35821533-.75689698.77545166-1.48083497 1.24938964-2.16760254l-1.86999511-3.23895264c-.61499024-1.06500244-.25012207-2.42663574.8149414-3.04144287l7.71295166-4.453125c.51147461-.29541016 1.11950684-.37512207 1.68963623-.22253418.57019043.15289307 1.0565796.52606201 1.35186768 1.03741455l1.8670044 3.23358154c.83648681-.07141113 1.65405273-.07196045 2.50872802.00091553l1.8673706-3.23449707c.29522706-.51135254.78149415-.88452148 1.35180665-1.03741455.5703125-.1525879 1.17828369-.0727539 1.68969726.22253418l7.71295166 4.453125c1.06500244.61468506 1.4298706 1.97644043.8149414 3.04144287l-1.87005614 3.23864746c.47393799.68682861.89105224 1.4105835 1.24938965 2.16778565H86.8125c1.2296753 0 2.2265625.9968872 2.2265625 2.2265625v2.2265625h8.3125c1.2296753 0 2.2265625.9968872 2.2265625 2.2265625v7.09869384c1.72619629.40600586 3.31072998 1.28161621 4.59594727 2.56695557C105.99639893 62.36694336 107 64.79003907 107 67.3671875c0 2.57720947-1.00360107 5.00030518-2.82611084 6.82250977-.43463135.43475341-1.00463867.65222168-1.57434082.65222168-.56970215 0-1.13952637-.21746827-1.57427979-.65222168-.86956787-.86956788-.86956787-2.27941895 0-3.14880372 2.02557374-2.02557373 2.02557374-5.32177734 0-7.34735107-.98132324-.98120117-2.2859497-1.52166748-3.67370605-1.52166748-1.38775635 0-2.69238281.5404663-3.67370605 1.52166748-2.02557374 2.02557373-2.02557374 5.32177734 0 7.34735107.86956787.86956788.86956787 2.27941895 0 3.14880372-.86950684.86938476-2.27935791.86938476-3.14880372 0-1.82232666-1.8222046-2.82592773-4.2453003-2.82592773-6.82250977 0-2.57714844 1.00360107-5.00024414 2.82592773-6.82232666 1.28521729-1.28533936 2.86975098-2.16107178 4.59594727-2.56689453v-4.87219238h-6.0859375v2.2265625c0 1.22967529-.9968872 2.2265625-2.2265625 2.2265625h-3.74243164c-.35827637.75701904-.77539063 1.48083496-1.24938965 2.16778564l1.87005615 3.23876953c.6149292 1.06500244.25006104 2.42663574-.8149414 3.0415039l-7.71295166 4.453125c-.34143067.19708253-.72589112.29833985-1.11328125.29833985-.19311524 0-.38684082-.02508545-.57641602-.0758667-.5701294-.15289306-1.05657959-.526062-1.35180664-1.03741455l-1.86730957-3.23443603c-.85430908.07269287-1.671875.07196045-2.50878906.00085449l-1.86688233 3.23358154c-.29522705.51135254-.78149414.88452149-1.35180664 1.03741455-.57061767.15246582-1.1784668.0727539-1.68969726-.22247314l-7.71295166-4.453125c-1.06500244-.61468506-1.4298706-1.97650147-.81488037-3.0415039l1.86999511-3.23889161c-.47393798-.68682861-.89123535-1.4107666-1.24938965-2.16778564H51.1875c-1.2296753 0-2.2265625-.99694825-2.2265625-2.2265625v-2.2265625H42.875v4.87213134c1.72619629.40600586 3.31072998 1.28161621 4.59594727 2.56695557 1.82232666 1.82220459 2.82592773 4.2453003 2.82592773 6.82244873 0 2.57720947-1.00360107 5.00030518-2.82611084 6.82250977-.43463135.43475341-1.00463867.65222168-1.57434082.65222168-.56970215 0-1.13952637-.21746827-1.57427979-.65222168-.86956787-.86956788-.86956787-2.27941895 0-3.14880372 2.02557374-2.02557373 2.02557374-5.32177734 0-7.34735107-.98132324-.98120117-2.2859497-1.52166748-3.67370605-1.52166748-1.38775635 0-2.69238281.5404663-3.67370605 1.52166748-2.02557374 2.02557373-2.02557374 5.32177734 0 7.34735107zm19.4421997-22.38824462H53.4140625v4.453125h3.00274658c.94329834 0 1.78424072.59436035 2.09887696 1.48345947.45941162 1.29797363 1.14135742 2.48083496 2.02679443 3.51593017.61334228.71722413.70806885 1.7432251.23614502 2.56054688l-1.49993897 2.5982666 3.85638428 2.2265625 1.49969482-2.59753418c.47143555-.81640625 1.40673829-1.2468872 2.33251954-1.07629394 1.4239502.26287841 2.6420288.26287841 4.0651245 0 .13549805-.02496338.27087403-.03710938.40509034-.03710938.7849121 0 1.52502441.41619873 1.9276123 1.11340332l1.4996338 2.59753418 3.8564453-2.2265625-1.5-2.5982666c-.47186279-.81744385-.37713622-1.84344482.23632813-2.56072998.88500977-1.03442383 1.56677246-2.21746826 2.02661133-3.51586914.31481934-.88916016 1.15576172-1.4833374 2.09893799-1.4833374h3.00286865v-4.453125h-3.00286865c-.94317627 0-1.78411865-.59417725-2.098938-1.4831543-.45971679-1.29858399-1.14160155-2.48144531-2.02661132-3.51593018-.61346435-.71722412-.70831299-1.7432251-.23632812-2.56066894l1.5-2.5982666-3.85644532-2.2265625-1.49951171 2.59753418c-.47125245.81640625-1.40539551 1.24700927-2.33270264 1.07629394-1.42437744-.2631836-2.64007569-.2631836-4.06506348 0-.92584228.17071533-1.86114502-.25976562-2.33258056-1.07629394l-1.4996338-2.59753418-3.8564453 2.2265625 1.5 2.5982666c.47186279.81726074.37713622 1.84326172-.23620606 2.56054687-.88543701 1.03503418-1.5671997 2.21795655-2.0267334 3.51574707-.31469726.88909912-1.15576172 1.48345948-2.09893799 1.48345948z"/>
      </g>
    </g>
  </g>
</svg>
