<svg xmlns="http://www.w3.org/2000/svg" width="69" height="83.498" viewBox="0 0 69 83.498">
  <g>
    <path fill="rgb(32,58,159)" fill-rule="evenodd" d="M11.71575928 15.32836914h-1.39141846c-.76849365 0-1.39141846-.62390137-1.39141846-1.39349365V6.96740723c0-.02783203.01391602-.0557251.01391602-.08355713.01446533-.12805176.04248047-.2541504.0834961-.37628174l.04174804-.12542725c.06677246-.14331054.15600586-.27502441.26434326-.39013672v-.01391601l5.5656128-5.57397461C15.1673584.14746094 15.52105712.00274658 15.8899536 0H56.2407837c.43725586.00299072.84838867.2088623 1.11315918.55737305l4.17419434 5.5739746c.04992675.07434083.09191894.15374756.12524414.23687745.01391601.02789306.04174804.04180908.04174804.08361816.06671143.14886475.09991456.31060791.09735108.47381592 0 .01391602.01391601.02783203.01391601.04174805v6.96746826c0 .76959228-.6229248 1.39349365-1.39135742 1.39349365h-1.39141845V45.9850464c0 .76965332-.62298584 1.39349365-1.39141846 1.39349365H13.1071167c-.76843262 0-1.39135742-.62384033-1.39135742-1.39349365V15.32836914zM16.46044922 2.7869873h39.08465576l2.08709717 2.7869873H13.6776123l2.78283692-2.7869873zm42.56311035 5.57391358H11.71569824v4.18048096h47.30786133V8.36090088zM14.49853516 44.59161377h41.74224853V15.32836914H14.49853516v29.26324463z"/>
    <path fill="rgb(32,58,159)" fill-rule="evenodd" d="M43.0223999 27.86975098H27.71691895c-2.6895752 0-4.86993409-2.18359375-4.86993409-4.87719727 0-2.69360351 2.18035889-4.87719726 4.86993409-4.87719726H43.0223999c2.6895752 0 4.86993408 2.18359375 4.86993408 4.87719726 0 2.69360352-2.18035888 4.87719727-4.86993408 4.87719727zm0-6.96746827H27.71691895c-1.15264893 0-2.08709717.93585206-2.08709717 2.09020997 0 1.15441894.93444824 2.090271 2.08709717 2.090271H43.0223999c1.15270996 0 2.0871582-.93585206 2.0871582-2.090271 0-1.15435791-.93444824-2.09020997-2.0871582-2.09020997z"/>
    <path fill="rgb(32,58,159)" fill-rule="evenodd" d="M67.78942871 48.60479736l-1.6418457-1.6442871c-1.63537598-1.61645508-4.2642212-1.61645508-5.89959717 0l-9.73986816 9.75439453c-.26025391.26593017-.61602784.4165039-.987854.41802978h-6.05267335c.16204834-.44683838.2467041-.91809082.25048828-1.39349365v-1.39349365c-.00689697-2.3059082-1.8717041-4.17352295-4.17425537-4.18041993h-19.4796753c-.36889648.00274659-.7225952.1473999-.98791503.40411377L8.75201416 60.90930176l-.4730835-.47381592c-.546875-.543396-1.4290161-.543396-1.97583007 0L.40356445 66.34387207c-.26177978.262146-.40722656.61871338-.40350341.98937988-.00360108.36657715.14208984.71881104.40350341.97546387l14.74890137 14.78491211c.26257324.26080322.618042.40625.98791504.40411377.37036133.00494385.72686768-.14086914.987854-.40411377l5.89959717-5.90838623c.26177979-.262146.40722656-.61871338.40350342-.98937988.00360107-.36657715-.14208984-.71881104-.40350342-.97546387l-.6817627-.6967163 2.5880127-3.4558716h24.58618164c1.11151123.0027466 2.17822266-.43859862 2.96368408-1.22625732L67.78942871 54.5131836c1.61401367-1.63775634 1.61401367-4.27056884 0-5.90838623zm-17.28125 19.2579956l15.30548096-15.32836913c.26037597-.25756836.40692138-.60888672.40692138-.97540283 0-.36657715-.1465454-.71783448-.40692138-.97546387l-1.6418457-1.64428711c-.25720215-.26080322-.6079712-.40753174-.97399903-.40753174-.3659668 0-.71673584.14672852-.97393799.40753174l-9.73986816 9.75439453c-.78546143.78759766-1.85217285 1.2290039-2.96368408 1.22625732H32.58685303v-2.7869873h6.95703125c.76849365 0 1.39141845-.62384033 1.39141845-1.39349365V54.3460083c0-.76965332-.6229248-1.39349365-1.39141845-1.39349365H20.63464355l-9.90679931 9.93554687 9.62854004 9.65686035 2.7689209-3.70666503c.26275634-.35089112.6751709-.55743409 1.11309814-.55743409h25.28192139c.37182617-.00152587.7276001-.15203857.987854-.41802978zM16.14038086 80.1394043L3.35333252 67.33325195l3.9376831-3.94354248 12.78704834 12.80615235-3.9376831 3.94354248z"/>
  </g>
</svg>
