<svg xmlns="http://www.w3.org/2000/svg" xmlns:xlink="http://www.w3.org/1999/xlink" width="40" height="40" viewBox="0 0 40 40">
  <defs>
    <rect id="rect-1" width="40" height="40" x="0" y="0"/>
    <mask id="mask-2" maskContentUnits="userSpaceOnUse" maskUnits="userSpaceOnUse">
      <rect width="40" height="40" x="0" y="0" fill="black"/>
      <use fill="white" xlink:href="#rect-1"/>
    </mask>
  </defs>
  <g>
    <use fill="none" xlink:href="#rect-1"/>
    <g mask="url(#mask-2)">
      <path fill="rgb(18,42,136)" fill-rule="evenodd" d="M20.7810669 5.46875c0 .43148804-.34979249.78125-.78125.78125-.43145752 0-.78125-.34976196-.78125-.78125V.78125c0-.43148804.34979248-.78125.78125-.78125.43145751 0 .78125.34976196.78125.78125v4.6875zm4.45874023.55239868l3.125-3.125c.30511475-.3050537.30511475-.79974365 0-1.10491943-.30505371-.30514527-.79974365-.30505371-1.10491943 0l-3.125 3.125c-.30505372.30508423-.30505372.79977417 0 1.10491943.30511474.30508423.79980468.30517578 1.10491943 0zm-9.37496948.00003052c-.30514527.30508423-.7998352.30508423-1.10491944 0l-3.125-3.125c-.3050537-.30514526-.30514526-.7998352 0-1.10491943.30517578-.30508423.79986573-.30508423 1.10491944 0l3.125 3.125c.30508422.30514526.30508422.7998352 0 1.10491943zM.2008667 18.49172974c-.00219727-.00234986-.00405884-.00509644-.00616455-.00750733-.24758911-.28164673-.25930786-.7001648-.0296936-.99468994.0022583-.00289917.0038147-.00601196.00610351-.00881958l6.25-7.8125c.1482544-.18533325.37271118-.29321289.6100769-.29321289h25.9375c.2373047 0 .46185303.10787964.6100464.2932129l6.25 7.8125c.0022583.0028076.00390624.00601195.0061035.00881957.22729493.29147339.22070313.70983887-.02966308.99468994-.00219726.0024109-.00402832.00506592-.00616455.00750733l-.0008545.00106811-19.21875 21.25C20.4350586 39.9022522 20.21844484 40 19.99993897 40c-.21923828 0-.4362793-.09881592-.57946777-.25720215l-19.21875-21.25-.0008545-.00106811zM13.93249512 10.9375H7.40655518l-5 6.25h7.77593994l3.75-6.25zm1.82220459 0h8.49041748l3.75 6.25H12.0046997l3.75-6.25zm21.83843994 6.25H29.8171997l-3.75-6.25h6.52593994l5 6.25zM17.32946777 35.10140991L10.1156311 18.75H2.54101563l14.78845214 16.35140991zm2.67034912 2.18188477L28.1762085 18.75H11.8234253l8.1763916 18.53329468zM29.88415527 18.75h7.57458496L22.67022705 35.10140991 29.88415527 18.75zm-8.32177734 1.5625h-5.79846191c-.43148804 0-.78125.34976196-.78125.78125s.34976196.78125.78125.78125h5.79846191c.43145752 0 .78125-.34976196.78125-.78125s-.34979248-.78125-.78125-.78125z"/>
    </g>
  </g>
</svg>
