<svg xmlns="http://www.w3.org/2000/svg" xmlns:xlink="http://www.w3.org/1999/xlink" width="37" height="37" viewBox="0 0 37 37">
  <defs>
    <rect id="rect-1" width="37" height="37" x="0" y="0"/>
    <mask id="mask-2" maskContentUnits="userSpaceOnUse" maskUnits="userSpaceOnUse">
      <rect width="37" height="37" x="0" y="0" fill="black"/>
      <use fill="white" xlink:href="#rect-1"/>
    </mask>
  </defs>
  <g>
    <use fill="none" xlink:href="#rect-1"/>
    <g mask="url(#mask-2)">
      <path fill="rgb(0,0,0)" fill-rule="evenodd" d="M35.8437456 30.640625h-1.82397462l-3.18041992-11.88479614c-.17340088-1.77957154-1.66558838-3.1390686-3.45355224-3.14645386h-3.68267823v-.29122925c.84771729-.63650512 1.43347168-1.56100464 1.64691162-2.59939575h.08746338c.95733643-.00128174 1.73309327-.77703857 1.734375-1.734375V7.2265625c-.0036621-3.35101318-2.71929931-6.0666504-6.0703125-6.0703125h-.578125c-3.35101318.0036621-6.06665039 2.71929932-6.0703125 6.0703125v3.7578125c.00128174.95733643.77703858 1.73309326 1.734375 1.734375h.08746338c.21343994 1.03839111.79919434 1.96289063 1.64691162 2.59939575v.29122925h-3.68267822c-1.78692627.00732422-3.27868652 1.36517334-3.45355224 3.14355469L8.7658037 26.015625H7.2265581c-1.1170044.0012207-2.0222168.9064331-2.0234375 2.0234375v.578125c.0012207 1.1170044.9064331 2.0222168 2.0234375 2.0234375H1.1562456c-.3192749 0-.578125.25881958-.578125.578125v2.3125c0 .31930542.2588501.578125.578125.578125h.578125v1.15625c0 .31930542.2588501.578125.578125.578125h32.375c.3192749 0 .578125-.25881958.578125-.578125v-1.15625h.578125c.3192749 0 .578125-.25881958.578125-.578125v-2.3125c0-.31930542-.2588501-.578125-.578125-.578125zM15.6093706 8.09375v-.8671875c.00280761-2.71279907 2.20129394-4.91122437 4.9140625-4.9140625h.578125c2.71276855.00283813 4.91125488 2.20126343 4.9140625 4.9140625V8.09375h-.578125v-.2890625c0-.11056519-.0043335-.22113037-.01226807-.3295288-.01428223-.18325807-.11480713-.34881593-.27087403-.44595338-.1560669-.09713745-.34899902-.11428833-.51971435-.0461731C21.8798784 8.0800171 16.81621874 8.09375 16.76562059 8.09375h-1.15625zm1.734375 1.147583v2.6102295c.00207519 1.75524902 1.42443847 3.1776123 3.1796875 3.1796875h.578125c1.75524902-.0020752 3.1776123-1.42443848 3.1796875-3.1796875V8.32861328c-2.39489747.72625733-5.6295166.88018799-6.9375.91271973zm-1.734375 1.743042c.00042724.31912231.2590332.57769775.578125.578125V9.25h-.578125v1.734375zm10.40625 0c-.00042725.31912231-.2590332.57769775-.578125.578125V9.25h.578125v1.734375zm-3.46875 4.9545288V16.1875c0 .64749146-.22546387 1.734375-1.734375 1.734375-1.50891114 0-1.734375-1.08688354-1.734375-1.734375v-.2485962c.46405029.16470338.95288085.2487793 1.4453125.2485962h.578125c.49243163.0001831.9812622-.08389282 1.4453125-.2485962zm-10.61291505 2.9614563c-.00286865.03738404-.0093994.07443238-.01953125.1105652l-2.01330566 7.23739623c.66540527.3496399 1.0824585 1.0390625 1.08325195 1.79074097v.578125c-.0012207 1.1170044-.9064331 2.0222168-2.0234375 2.0234375h3.1796875v-8.9609375c.0012207-1.1170044.9064331-2.02218628 2.0234375-2.0234375h13.296875c1.1170044.00125122 2.0222168.9064331 2.0234375 2.0234375v8.9609375h3.33868409l-3.11395264-11.63476563c-.00921631-.0345459-.01525879-.06985473-.0180664-.10549926-.09747315-1.20224-1.09906007-2.12976074-2.30523682-2.13473511h-3.68267823c-.01519775 0-.02960205-.00143433-.04406738-.00216675-.22406006 1.42364502-1.29138183 2.31466675-2.84655762 2.31466675-1.55517578 0-2.62249755-.89102173-2.84655761-2.31466675-.01446534.00073242-.02886963.00216675-.04406739.00216675h-3.68267822c-1.20617676.00497437-2.20776367.93249512-2.30523682 2.1347351zm16.39416504 2.7793274v8.9609375h-15.03125v-8.9609375c.00042725-.47875977.38842774-.86679077.8671875-.8671875h13.296875c.47875977.00039673.86676026.38842773.8671875.8671875zm-21.96875 6.359375v.578125c.00042725.47875977.38842774.86679077.8671875.8671875h1.734375c.47875977-.00039673.86676026-.38842773.8671875-.8671875v-.578125c-.00042724-.47875977-.38842773-.86679077-.8671875-.8671875h-1.734375c-.47875976.00039673-.86676025.38842773-.8671875.8671875zm-4.625 4.9140625h33.53125v-1.15625h-33.53125v1.15625zm32.375 1.734375h-31.21875v-.578125h31.21875v.578125z"/>
      <path fill="rgb(0,0,0)" fill-rule="evenodd" d="M18.4999956 26.59375c0-1.27716064 1.03533935-2.3125 2.3125-2.3125 1.27655029.00143433 2.31109619 1.0359497 2.3125 2.3125 0 1.27716064-1.03533936 2.3125-2.3125 2.3125-1.27716065 0-2.3125-1.03533936-2.3125-2.3125zm1.15625 0c0 .63858032.51770019 1.15625 1.15625 1.15625.63824462-.00076294 1.15551757-.51797485 1.15625-1.15625 0-.63858032-.5177002-1.15625-1.15625-1.15625-.63854981 0-1.15625.51766968-1.15625 1.15625z"/>
      <ellipse cx="19.078" cy="10.406" fill="rgb(0,0,0)" rx=".578" ry=".578"/>
      <ellipse cx="22.547" cy="10.406" fill="rgb(0,0,0)" rx=".578" ry=".578"/>
      <path fill="rgb(0,0,0)" fill-rule="evenodd" d="M20.234375 13.875h1.15625c.31928962 0 .578125-.25883538.578125-.578125s-.25883538-.578125-.578125-.578125h-1.15625c-.31928962 0-.578125.25883538-.578125.578125s.25883538.578125.578125.578125z"/>
      <path fill="rgb(0,0,0)" fill-rule="evenodd" d="M12.7187456 2.3125h-1.734375v-.578125c0-.3192749-.2588501-.578125-.578125-.578125s-.578125.2588501-.578125.578125V2.3125h-2.3125v-.578125c0-.3192749-.2588501-.578125-.578125-.578125s-.578125.2588501-.578125.578125V2.3125h-2.3125v-.578125c0-.3192749-.2588501-.578125-.578125-.578125s-.578125.2588501-.578125.578125V2.3125h-1.734375c-.3192749 0-.578125.2588501-.578125.578125v10.40625c0 .3192749.2588501.578125.578125.578125h11.5625c.3192749 0 .578125-.2588501.578125-.578125V2.890625c0-.3192749-.2588501-.578125-.578125-.578125zM1.7343706 3.46875v1.734375h10.40625V3.46875h-1.15625v.578125c0 .3192749-.2588501.578125-.578125.578125s-.578125-.2588501-.578125-.578125V3.46875h-2.3125v.578125c0 .3192749-.2588501.578125-.578125.578125s-.578125-.2588501-.578125-.578125V3.46875h-2.3125v.578125c0 .3192749-.2588501.578125-.578125.578125s-.578125-.2588501-.578125-.578125V3.46875h-1.15625zm0 9.25V6.359375h10.40625v6.359375h-10.40625z"/>
      <path fill="rgb(0,0,0)" fill-rule="evenodd" d="M5.203125 7.515625c-.31928962 0-.578125.25883538-.578125.578125v2.890625c0 .31928962.25883538.578125.578125.578125s.578125-.25883538.578125-.578125V8.09375c0-.31928962-.25883538-.578125-.578125-.578125z"/>
      <path fill="rgb(0,0,0)" fill-rule="evenodd" d="M8.671875 7.515625c-.31928962 0-.578125.25883538-.578125.578125V9.25h-.578125V8.09375c0-.31928962-.25883538-.578125-.578125-.578125s-.578125.25883538-.578125.578125v1.734375c0 .31928962.25883538.578125.578125.578125h1.15625v.578125c0 .31928962.25883538.578125.578125.578125S9.25 11.30366462 9.25 10.984375V8.09375c0-.31928962-.25883538-.578125-.578125-.578125z"/>
    </g>
  </g>
</svg>
