<svg xmlns="http://www.w3.org/2000/svg" width="37" height="37" viewBox="0 0 37 37">
  <g>
    <path fill="rgb(0,0,0)" fill-rule="evenodd" d="M19.09680176 37H37V22.6774292H19.09680176V37zm5.9677124-13.12902832h-4.77416992v11.93548584h15.51611328V23.87097168H31.0322876v2.38708496h-5.96777344v-2.38708496zm1.19354248 0h3.58062744v1.19354248h-3.58062744v-1.19354248z"/>
    <path fill="rgb(0,0,0)" fill-rule="evenodd" d="M33.41935484 33.41935484h1.19354839v1.19354839h-1.1935484v-1.1935484z"/>
    <path fill="rgb(0,0,0)" fill-rule="evenodd" d="M31.03225806 33.41935484h1.1935484v1.19354839h-1.1935484v-1.1935484z"/>
    <path fill="rgb(0,0,0)" fill-rule="evenodd" d="M28.64516129 33.41935484h1.19354839v1.19354839h-1.19354839v-1.1935484z"/>
    <path fill="rgb(0,0,0)" fill-rule="evenodd" d="M34.61291504 11.93548584h1.19354248c.65826416 0 1.19354248.53530884 1.19354248 1.19354248v1.19354248c0 .65826416-.53527832 1.193573-1.19354248 1.193573H13.56884766c.09906005.38250732.15698242.78057861.15698242 1.19354248 0 1.6590271-.85162354 3.1217041-2.13946533 3.97747803 3.65405273 1.12792968 6.3168335 4.53549194 6.3168335 8.55477905V37H1.79034423v-5.02722168C.7382202 31.51086426 0 30.46234131 0 29.24194336c0-4.01928711 2.66278076-7.42684937 6.3168335-8.55477905-1.2878418-.85577393-2.1394043-2.31845093-2.1394043-3.97747803 0-.41296387.05786133-.81103516.15692139-1.19354248H1.19354248C.53527832 15.5161438 0 14.98083496 0 14.3225708v-1.19354248c0-.65823364.53527832-1.19354248 1.19354248-1.19354248h1.19354248V0h15.51611328v11.93548584h1.19360352V0h15.51611328v11.93548584zM7.16125488 1.19354248H3.58062744v10.74194336h3.58062744V9.54837036h5.96777344v2.38711548h3.58062744V1.19354248h-3.58062744v2.38708496H7.16125488V1.19354248zm1.19360352 0h3.58062744v1.19354248H8.3548584V1.19354248zm11.93548584 0h3.58062744v2.38708496h5.96777344V1.19354248h3.58062744v10.74194336h-3.58062744V9.54837036h-5.96777344v2.38711548h-3.58062744V1.19354248zm8.35479736 0h-3.58062744v1.19354248h3.58062744V1.19354248zM8.3548584 11.93548584v-1.19354248h3.58062744v1.19354248H8.3548584zm16.70965576 0h3.58062744v-1.19354248h-3.58062744v1.19354248zM1.19354248 13.12902832v1.19354248h3.62957764c.26141357-.44937134.59320068-.85217285.9810791-1.19354248H1.19354248zm7.75805664 7.1612854c-1.97473144 0-3.58062744-1.60592651-3.58062744-3.58062744 0-1.97473145 1.605896-3.58065796 3.58062744-3.58065796 1.97473145 0 3.58068848 1.60592651 3.58068848 3.58065796 0 1.97470093-1.60595703 3.58062744-3.58068848 3.58062744zm4.128479-5.96774292h22.7263794v-1.19354248h-23.7074585c.38787842.34136963.72033692.74417114.9810791 1.19354248zm3.62957764 21.4838562v-6.56451416c0-4.27767944-3.48034668-7.75805664-7.75805664-7.75805664-4.27764892 0-7.75805664 3.4803772-7.75805664 7.75805664 0 .98706055.8032837 1.79034424 1.79034424 1.79034424h5.66931152c.49353028 0 .89520264-.40164185.89520264-.89517212s-.40167236-.89517212-.89520264-.89517212h-5.0725708v-1.19354248h1.79034424v-4.1774292h6.21478271l3.33361817 3.33358765v8.6018982h1.7902832zm-10.1451416-7.75805664h2.08868408c1.15179444 0 2.08874512.93695068 2.08874512 2.0887146 0 1.15179443-.93695068 2.0887146-2.08874512 2.0887146H6.56451416v3.58065796h7.16131592v-7.75808716h-2.98388672v-2.9838562h-4.1774292v2.9838562zm5.37097168-2.14001465l.94647217.94647217h-.94647217v-.94647217zm-6.56451416 6.31744385v3.58065796H2.98388672v-3.58065796h2.38708496z"/>
    <path fill="rgb(0,0,0)" fill-rule="evenodd" d="M28.64516129 31.03225806h5.96774194v1.1935484h-5.96774194v-1.1935484z"/>
  </g>
</svg>
