<svg xmlns="http://www.w3.org/2000/svg" xmlns:xlink="http://www.w3.org/1999/xlink" width="37" height="37.077" viewBox="0 0 37 37.077">
  <defs>
    <rect id="rect-1" width="37" height="37.077" x="0" y="0"/>
    <mask id="mask-2" maskContentUnits="userSpaceOnUse" maskUnits="userSpaceOnUse">
      <rect width="37" height="37.077" x="0" y="0" fill="black"/>
      <use fill="white" xlink:href="#rect-1"/>
    </mask>
  </defs>
  <g>
    <use fill="none" xlink:href="#rect-1"/>
    <g mask="url(#mask-2)">
      <path fill="rgb(0,0,0)" fill-rule="evenodd" d="M3.12838745 36.38207178V14.75365381c0-.34155273.27670288-.61795044.61795044-.61795044h12.97705078V9.19206934c0-.16412354.06518555-.32104492.18103028-.43692017L25.55578613.1038125c.24139405-.24139404.6324463-.24139404.87384033 0l7.41540528 7.4154358c.24108887.24108886.24108887.63244628 0 .87353515l-7.234375 7.23440552v20.75488281c0 .34124756-.2767334.61795044-.61798096.61795044H3.7463379c-.34124756 0-.61795044-.27670288-.61795044-.61795044zm29.4059143-28.42590332L25.99267579 1.4142373l-5.3057251 5.30603027 6.54162598 6.54159546 5.3057251-5.30569458zm-14.5750122 1.49145508l1.85388184-1.85385132 6.54162597 6.54193115-1.85388183 1.85385132h-6.54162598V9.44762354zM4.36428833 15.37160425h6.17953491v6.17953491c0 .24984741.15026856.47525025.38110352.57089234.07513428.03137207.15570068.0470581.23687744.0470581.16381836-.00030517.32104492-.06515503.43688965-.18133545l2.65283203-2.65286255v2.21624756c0 .34127808.2767334.61795044.61798096.61795044h3.70770263c.3413086 0 .61798096-.27667236.61798096-.61795044v-4.3256836h5.56158447c.16381836-.00030517.32104492-.06515502.43688965-.18133544l.1810913-.18103027v18.90100097H4.36428834V15.37160425zm13.59500122 1.85385132h-.61798096c-.34124755 0-.61798095-.27667236-.61798095-.61795044v-1.23590088h-4.94360352v4.68777466l2.65283203-2.65286255c.17681885-.17681885.44238281-.22961426.67321778-.13397217.2310791.0956421.38165283.32073975.38165283.57086182v3.08978271h2.4718628v-3.70773315z"/>
      <path fill="rgb(0,0,0)" fill-rule="evenodd" d="M18.5772705 24.02297144h-7.4154663c-.34124756 0-.61795044.2763977-.61795044.61795044v2.47183227c0 .34124756.27670288.61795044.61795044.61795044h7.4154663c.34124757 0 .61791993-.27670288.61791993-.61795044v-2.47183227c0-.34155274-.27667236-.61795044-.61791992-.61795044zm-.61798095 2.47180176h-6.17956543v-1.23590088h6.17956543v1.23590088z"/>
      <path fill="rgb(0,0,0)" fill-rule="evenodd" d="M21.04907227 11.04592066c-1.02380372 0-1.85388184.82977295-1.85388184 1.85385132 0 1.0238037.83007812 1.85388183 1.85388184 1.85388183 1.02374267 0 1.8538208-.83007812 1.8538208-1.85388183 0-1.02407837-.83007813-1.85385132-1.8538208-1.85385132zm0 2.47183227c-.3413086 0-.61798096-.27667236-.61798096-.61795044 0-.34155273.27667236-.61795044.61798096-.61795044.34124755 0 .61791992.2763977.61791992.61795044 0 .34127808-.27667237.61795044-.61791992.61795044z"/>
      <path fill="rgb(0,0,0)" fill-rule="evenodd" d="M22.46540664 6.90098973l3.70772442-3.7074224.87382568.87382568-3.7074224 3.70772442-.8741277-.8741277z"/>
      <path fill="rgb(0,0,0)" fill-rule="evenodd" d="M24.31987213 8.75485194l3.7074224-3.7074224.8741277.87382568-3.70772442 3.70772443-.87382568-.8741277z"/>
      <path fill="rgb(0,0,0)" fill-rule="evenodd" d="M26.17343232 10.60871415l3.70772442-3.7074224.87382568.87382568-3.70772442 3.70772443-.87382568-.8741277z"/>
    </g>
  </g>
</svg>
