<svg xmlns="http://www.w3.org/2000/svg" xmlns:xlink="http://www.w3.org/1999/xlink" width="37" height="37" viewBox="0 0 37 37">
  <defs>
    <rect id="rect-1" width="37" height="37" x="0" y="0"/>
    <mask id="mask-2" maskContentUnits="userSpaceOnUse" maskUnits="userSpaceOnUse">
      <rect width="37" height="37" x="0" y="0" fill="black"/>
      <use fill="white" xlink:href="#rect-1"/>
    </mask>
  </defs>
  <g>
    <use fill="none" xlink:href="#rect-1"/>
    <g mask="url(#mask-2)">
      <path fill="rgb(0,0,0)" fill-rule="evenodd" d="M14.453125.2890625L28.90625 7.51507568l-.00341797 9.76968384c4.31115723.76864624 7.59240723 4.29867554 8.04437256 8.65463257.45166016 4.35571289-2.03527832 8.48416138-6.09710693 10.12115479-4.06158448 1.6369934-8.7164917.38671875-11.41119385-3.06506348L14.453125 36.31658936l-6.47201538-4.31280518C2.99053955 28.68240356-.00564575 23.08294678 0 17.08828735V7.515625L14.453125.2890625zm0 34.64007568l-5.83035278-3.88623047C3.95343018 27.9357605 1.15032959 22.69677734 1.15625 17.08828735V8.23010254l13.296875-6.6484375L27.75 8.23010254v8.92227173c-.19195557-.01159668-.38220215-.02935791-.578125-.02935791-.19592285 0-.38671875.01776123-.578125.0293579v-8.2092285L14.453125 2.87341308 2.3125 8.94372559v8.14456176c-.00421143 5.22146607 2.60552979 10.0982666 6.9519043 12.99142456l5.1887207 3.45718384 3.7821045-2.51998901c.16174316.35287475.34436034.69586181.54675292 1.02697754l-4.32885742 2.8852539zm2.890625-17.22802734v.8446045l3.51501465.88327026c1.31097412-1.10232544 2.88812256-1.84106446 4.57421875-2.14254761.00054931-.0657959.0045166-.13183594.0045166-.19818115V9.6581726L14.453125 4.1659851 3.46875 9.6581726v7.43008423c-.00112915 2.3977661.59506226 4.75796508 1.734375 6.86749267v-1.56103515c-.0014038-1.3253479.90048218-2.4815979 2.18658447-2.80255127L11.5625 18.5429077v-.84179687l-1.15625-.8671875v-4.3359375H9.25v-.578125c-.05899048-1.70220947 1.08343506-3.21243286 2.7373352-3.61865234 1.47494507-.46124268 3.55740357-.35849 4.39382935.14990234h.38446045c.9578247 0 1.734375.77630615 1.734375 1.734375v6.6484375l-1.15625.8671875zm-5.65112305-8.03024292c-.659729.32293701-1.12124633.94595337-1.23840332 1.67086792h2.70629883c.76019287-.00112915 1.50994873-.17840576 2.19055176-.51742554l.12194824-.06069946h1.00354004l.8671875 1.15625v-1.734375c0-.3192749-.2588501-.578125-.578125-.578125h-.88049316l-.13293457-.19195557c-1.34002686-.40423584-2.78082276-.31362915-4.05957032.25546265zM11.5625 12.49798584h1.59802246c.89233399-.00112915 1.7736206-.19873047 2.5812378-.578125h.15667724l1.4453125 1.92687988v2.40905762l-1.92687988 1.4453125h-1.92749024L11.5625 16.25579834v-3.7578125zm15.609375 23.125c-4.78930664 0-8.671875-3.88256836-8.671875-8.671875 0-4.7895813 3.88256836-8.671875 8.671875-8.671875 4.78930664 0 8.671875 3.8822937 8.671875 8.671875-.0053711 4.78704834-3.88482666 8.66622925-8.671875 8.671875zM16.1875 18.56829834v.8671875c0 .95779419-.7765503 1.734375-1.734375 1.734375s-1.734375-.77658081-1.734375-1.734375v-.8671875l.38562012.2890625h2.69750976l.38562012-.2890625zm-1.734375 13.57946777l3.34960938-2.23147583c-1.05603028-3.3244934-.26165772-6.95922851 2.0847168-9.53964233l-2.5736084-.64642334c-.12561036 1.2536316-1.04925538 2.28088379-2.28259278 2.53805542v2.37036133H13.875v-2.37036133c-1.2333374-.25744629-2.15722656-1.28442383-2.28314209-2.53805542l-3.92068481.98291016c-.77093506.19366455-1.31152344.88668823-1.3117981 1.6816101v3.35949707c.51940918.69244385 1.09979248 1.33691407 1.734375 1.92520142v-4.197052H9.25v5.16726684c.21453857.16119385.43188477.31842041.65631104.46832276L14.453125 32.1477661z"/>
      <path fill="rgb(0,0,0)" fill-rule="evenodd" d="M30.0625 10.18550092H37v1.15625h-6.9375v-1.15625z"/>
      <path fill="rgb(0,0,0)" fill-rule="evenodd" d="M30.0625 12.49798584h4.625v1.15625h-4.625v-1.15625z"/>
      <path fill="rgb(0,0,0)" fill-rule="evenodd" d="M30.0625 14.81050092h2.3125v1.15625h-2.3125v-1.15625z"/>
      <path fill="rgb(0,0,0)" fill-rule="evenodd" d="M25.04315186 26.5423584l-2.04351807-2.0437622-3.27056885 3.27001952 5.31408692 5.31408692 8.99334716-8.9934082-3.27056884-3.26974488-5.72277832 5.72280884zm0 4.90533447l-3.67907715-3.67904663 1.63555908-1.63500977 2.04351807 2.04348755 5.72332763-5.72338867 1.63562012 1.63500977-7.35894775 7.35894775z"/>
    </g>
  </g>
</svg>
