<svg xmlns="http://www.w3.org/2000/svg" xmlns:xlink="http://www.w3.org/1999/xlink" width="40" height="40" viewBox="0 0 40 40">
  <defs>
    <rect id="rect-1" width="40" height="40" x="0" y="0"/>
    <mask id="mask-2" maskContentUnits="userSpaceOnUse" maskUnits="userSpaceOnUse">
      <rect width="40" height="40" x="0" y="0" fill="black"/>
      <use fill="white" xlink:href="#rect-1"/>
    </mask>
  </defs>
  <g>
    <use fill="none" xlink:href="#rect-1"/>
    <g mask="url(#mask-2)">
      <path fill="rgb(18,42,136)" fill-rule="evenodd" d="M19.2111206 27.03466797c-.2689209 0-.52661132-.10583496-.7166748-.2939148l-2.03948975-2.0204773c-.39562988-.3922119-.39562988-1.02798461 0-1.41992187.39593506-.39196777 1.03741456-.39196777 1.43334961 0l1.32281495 1.31048584 2.90118408-2.8741455c.39562988-.39196778 1.03741455-.39196778 1.43304443 0 .39587402.39221191.39587402 1.02770996 0 1.41992187l-3.61785889 3.58413696c-.1901245.18832398-.4477539.2939148-.71636962.2939148z"/>
      <path fill="rgb(18,42,136)" fill-rule="evenodd" d="M20.00030518 32.20837402c4.43579101 0 8.04449462-3.57528686 8.04449462-7.9697876 0-4.3944702-3.6087036-7.96951293-8.04449462-7.96951293-4.4360962 0-8.0447998 3.57504272-8.0447998 7.96951294 0 4.39450073 3.60894775 7.9697876 8.0447998 7.9697876zm-.00006104-13.93154907c3.31829834 0 6.0178833 2.67440796 6.0178833 5.96176148 0 3.28738403-2.69958496 5.96203613-6.0178833 5.96203613s-6.01812744-2.6746521-6.01812744-5.96203613c0-3.28735352 2.6998291-5.96176148 6.01812744-5.96176148z"/>
      <path fill="rgb(18,42,136)" fill-rule="evenodd" d="M31.64007568 5.13769531h1.84832764c1.80700684 0 3.27722168 1.45654297 3.27722168 3.24691773v25.3687439C36.765625 35.54345703 35.2956543 37 33.48840332 37H6.51159668C4.70458984 37 3.234375 35.54345703 3.234375 33.75335693V8.38461303c0-1.79037475 1.47021484-3.24691772 3.27722168-3.24691772h1.84857178V4.00387573C8.36016846 3.44952393 8.8139038 3 9.37347412 3c.55981445 0 1.01361084.44952393 1.01361084 1.00387573v1.13381958h1.99127197V4.00387573C12.37835693 3.44952393 12.83215332 3 13.3916626 3c.55981445 0 1.01361084.44952393 1.01361084 1.00387573v1.13381958h11.19000244V4.00387573C25.59527588 3.44952393 26.04901123 3 26.60858154 3c.55981446 0 1.01361084.44952393 1.01361084 1.00387573v1.13381958h1.99127198V4.00387573C29.61346436 3.44952393 30.06726074 3 30.62677002 3c.55957031 0 1.01330566.44952393 1.01330566 1.00387573v1.13381958zM5.26104736 8.38461304c0-.68325806.5610962-1.2388916 1.25054932-1.2388916h1.84857178v1.13381958c0 .5543518.45379638 1.00390625 1.01361084 1.00390625.5595703 0 1.01330566-.44955445 1.01330566-1.00390625V7.14572144h1.99127197v1.13381958c0 .5543518.45379639 1.00390625 1.01361084 1.00390625.55957032 0 1.01330567-.44955445 1.01330567-1.00390625V7.14572144h11.19000244v1.13381958c0 .5543518.45379639 1.00390625 1.01361084 1.00390625.55957031 0 1.01330566-.44955445 1.01330566-1.00390625V7.14572144h1.99127198v1.13381958c0 .5543518.45379638 1.00390625 1.0133667 1.00390625.55981445 0 1.0135498-.44955445 1.0135498-1.00390625V7.14572144h1.8480835c.68945312 0 1.25054931.55563354 1.25054931 1.2388916v3.09280395H5.26104737V8.38461304zm28.227417 26.6076355c.68945312 0 1.25030517-.5559082 1.25030517-1.2388916V13.48544311H5.26104736v20.26791381c0 .6829834.5610962 1.2388916 1.25054932 1.2388916h26.97686768z"/>
    </g>
  </g>
</svg>
