<svg xmlns="http://www.w3.org/2000/svg" xmlns:xlink="http://www.w3.org/1999/xlink" width="22" height="22" viewBox="0 0 22 22">
  <defs>
    <rect id="rect-1" width="22" height="22" x="0" y="0"/>
    <mask id="mask-2" maskContentUnits="userSpaceOnUse" maskUnits="userSpaceOnUse">
      <rect width="22" height="22" x="0" y="0" fill="black"/>
      <use fill="white" xlink:href="#rect-1"/>
    </mask>
  </defs>
  <g>
    <use fill="none" xlink:href="#rect-1"/>
    <g mask="url(#mask-2)">
      <path fill="rgb(0,0,0)" fill-rule="evenodd" d="M0 9.68833923C0 4.34632873 4.34631348 0 9.6883545 0c5.34228515 0 9.68829345 4.34632874 9.68829345 9.68833923 0 5.34230042-4.3460083 9.6883316-9.68829346 9.6883316C4.34631348 19.37667084 0 15.03063966 0 9.68833924zm1.78863525.00004578c0 4.35586548 3.54382325 7.89971924 7.89971924 7.89971924 4.355896 0 7.89971924-3.5438919 7.89971924-7.89976502 0-4.3558731-3.54382324-7.89971923-7.89971924-7.89971923-4.355896 0-7.89971924 3.5438919-7.89971924 7.89976501z"/>
      <path fill="rgb(0,0,0)" fill-rule="evenodd" d="M21.73797656 20.47340625l-5.127375-5.127375c-.3493789-.3493789-.9151914-.3493789-1.26457031 0-.3493789.34907812-.3493789.91549219 0 1.26457031l5.127375 5.127375C20.64807422 21.91264453 20.87675391 22 21.10569141 22c.22863672 0 .45757422-.08735547.63228515-.26202344.3493789-.34907812.3493789-.91549219 0-1.26457031z"/>
    </g>
  </g>
</svg>
