<svg xmlns="http://www.w3.org/2000/svg" xmlns:xlink="http://www.w3.org/1999/xlink" width="22" height="22" viewBox="0 0 22 22">
  <defs>
    <rect id="rect-1" width="22" height="22" x="0" y="0"/>
    <mask id="mask-2" maskContentUnits="userSpaceOnUse" maskUnits="userSpaceOnUse">
      <rect width="22" height="22" x="0" y="0" fill="black"/>
      <use fill="white" xlink:href="#rect-1"/>
    </mask>
  </defs>
  <g>
    <use fill="none" xlink:href="#rect-1"/>
    <g mask="url(#mask-2)">
      <path fill="rgb(130,130,130)" fill-rule="evenodd" d="M13.90029912 8.29103675c-.14199653-.14193509-.33990689-.22334807-.54303996-.22334807-.20602093 0-.39877.07926245-.54297851.22334807l-2.68890186 2.68884042-.92853812-.928661c-.14500727-.14457717-.3376949-.22420829-.54248696-.22420829-.20497639 0-.3977869.079754-.54297851.22482273-.14506872.14513016-.22500706.33806357-.22500706.54316284 0 .2052836.07999978.39821701.22494561.5431014l1.47151663 1.47163952c.14383984.14353262.33652748.2225493.54242552.2225493h.00006144c.20602093 0 .39864712-.07907812.54316285-.2231023L13.900422 9.377301c.299354-.299354.29941544-.78654158-.0001229-1.08626425z"/>
      <path fill="rgb(130,130,130)" fill-rule="evenodd" d="M20.47977448 4.20944214c.13690185.06140137.22876739.18463135.24195861.32455444.0118599.1257019.27826691 3.12127686-.74799347 6.78005982-.60449218 2.15527343-1.53541946 4.0887146-2.7667961 5.74667358-1.54441453 2.0793457-3.56568528 3.72607422-6.00751878 4.89440918C11.13693237 21.98504639 11.06845093 22 11.00003434 22c-.0684166 0-.13690186-.01495361-.19939042-.04486084-2.44190216-1.16833496-4.4630394-2.81512451-6.00745392-4.89440918-1.23137665-1.65795898-2.16230392-3.59140015-2.76686477-5.74667358C1 7.65527344 1.266407 4.65963745 1.278265 4.53393555c.01312447-.1399231.10505867-.26309204.24195862-.32455445L10.81050492.0402527c.1195793-.05371094.25934219-.05371094.37892532 0l9.29034424 4.16918945zM5.92004395 10.38552856c0 2.80108643 2.27882766 5.07992554 5.07992553 5.07992554 2.80109787 0 5.07992554-2.27883911 5.07992554-5.07992554 0-2.80108642-2.27882767-5.07992553-5.07992554-5.07992553-2.80109787 0-5.07992553 2.2788391-5.07992553 5.07992553z"/>
    </g>
  </g>
</svg>
