<svg xmlns="http://www.w3.org/2000/svg" xmlns:xlink="http://www.w3.org/1999/xlink" width="22.511" height="22" viewBox="0 0 22.511 22">
  <defs>
    <rect id="rect-1" width="22.511" height="22" x="0" y="0"/>
    <mask id="mask-2" maskContentUnits="userSpaceOnUse" maskUnits="userSpaceOnUse">
      <rect width="22.511" height="22" x="0" y="0" fill="black"/>
      <use fill="white" xlink:href="#rect-1"/>
    </mask>
  </defs>
  <g>
    <use fill="none" xlink:href="#rect-1"/>
    <g mask="url(#mask-2)">
      <path fill="rgb(130,130,130)" fill-rule="evenodd" d="M19.60749395 11.54232974L2.01239493 3.1317655C1.7322268 3 1.39791993 3.0784986 1.20302037 3.328012 1.00676735 3.5775254 1 3.93217086 1.18677874 4.18869307l5.78608064 7.99003602-5.78608064 7.99003601c-.18677874.25652221-.1800114.61256943.01488816.86068108.13128651.16961304.32753954.26072749.5264995.26072749.09609632 0 .19219263-.02102641.28287506-.064481l17.59509902-8.41056422C19.84705798 12.70018408 20 12.45207243 20 12.1787291c0-.27334334-.15294201-.52145499-.39250605-.63639936z"/>
    </g>
  </g>
</svg>
