<svg xmlns="http://www.w3.org/2000/svg" width="34" height="30.874" viewBox="0 0 34 30.874">
  <path fill="rgb(18,42,136)" fill-rule="evenodd" d="M31.36383057.97357178v15.0711975c1.47164917.11099244 2.63623047 1.37353516 2.63616943 2.9105835v8.70309449c0 1.6097412-1.2770691 2.91934204-2.84680176 2.91934204h-1.57983398c-.92810059 0-1.7536316-.45791626-2.27365113-1.16479493l-3.20703125.74667359c-3.22265625.71478271-4.90957641.71463013-8.52096557.71426391h-.24118042c-4.40377808 0-7.36605835-.38922119-10.15463257-3.5661621L.67095947 21.99154663c-1.10183716-1.2531128-.79071045-3.2850647.52468872-4.19302368.41726685-.30154419.88894654-.4838562 1.37142945-.55227661V.97357178C2.56707764.43591308 3.01489258 0 3.56723022 0h26.79644776c.55236816 0 1.00015259.43591309 1.00015259.97357178zM12.75222778 6.0326538V1.94717407H4.56738281v4.08547974h8.18484497zm6.31115723-4.08547974v4.08547974h-4.3107605V1.94717407h4.3107605zm2.0003357 4.0854187h8.29980468l.00006104-4.0854187H21.0637207v4.0854187zm4.47195434 11.35604859l1.3326416.658844c.35223389-1.10110474 1.32666016-1.91488648 2.49526978-2.0027771V7.97973632h-8.29989624v3.56890869c0 .5376587-.44778443.97357178-1.0001526.97357178h-6.31106567c-.55236816 0-1.0001831-.43591309-1.0001831-.97357178v-3.5689087H4.56744385v9.6591797c.2409668.14175415.46548462.3184204.66531372.52957153l3.30218506 3.48910522c.00848388.00897217.01748657.01733399.02609253.02618409v-.71002198c0-1.49313354 1.2479248-2.70785522 2.7817688-2.70785522h4.62420654c.48834228.01855469 1.29882812-.37026978 1.9447937-.68017578.26272583-.1260376.4982605-.23901367.67382812-.3062439 2.22570801-1.0072937 4.75897217-.96743774 6.95004273.10916138zM14.75256348 7.97973633h4.3107605v2.5953064h-4.3107605v-2.5953064zM31.15328979 28.6305542c.46673584 0 .84646607-.4360962.84646607-.97216797v-8.70303345c0-.5361328-.37973023-.972229-.84646607-.972229h-1.5798645c-.4666748 0-.84640503.43615723-.84640503.972229v8.70303345c0 .53607178.3796692.97216797.84640503.97216797h1.5798645zm-7.5248413-.36495972c-2.9265442.65249634-4.73342896.65194702-7.88174439.65097046l-.38031006-.00009155c-4.13400268 0-6.13146972-.06503296-8.64733886-2.84780884l-4.50491333-5.31622314c-.78359986-.9932251.63568115-2.16574097 1.54745483-1.26474l3.30218506 3.48919678c.8727417.89642334 1.97097778 1.38977051 3.32461548 1.41876221h9.15533447c.55233765 0 1.00015259-.43588257 1.00015259-.97357178 0-.5376892-.44781494-.97357177-1.0001526-.97357177H10.5612793v-1.47485352c0-.4194336.3505249-.76071167.78146362-.76071167h4.62420654c.83148194.0579834 1.9571228-.46969604 2.8439026-.8854065.22418212-.10510253.43307494-.20303344.61804198-.28250121 1.66696167-.75445557 3.56433106-.72460938 5.20318604.08062744l2.09460449 1.03561401v7.38287354l-3.09823608.72143554z"/>
</svg>
