<svg xmlns="http://www.w3.org/2000/svg" width="81.065" height="75" viewBox="0 0 81.065 75">
  <g>
    <path fill="rgb(46,70,165)" fill-rule="evenodd" d="M77.0469513 49.13787842c1.39048766.37573242 2.57521057 1.29089355 3.29327392 2.54394531 1.49168396 2.60614014.60908508 5.93237305-1.9763031 7.44818115L55.5446167 72.3572998c-1.4456482.83721924-3.085083 1.27832032-4.75402832 1.27911377h-20.3431244c-1.47569274-.00146484-2.93095397-.34643554-4.25144958-1.00775146l-1.74676513-.87683106v1.88458252c0 .7531128-.60812378 1.36358643-1.35829163 1.36358643h-10.866333c-.75016785 0-1.35829163-.61047363-1.35829163-1.36358643v-1.36364746H1.35829163C.60812378 72.27276611 0 71.66223145 0 70.90911865V51.81817627c0-.7531128.60812378-1.36358643 1.35829163-1.36358643H10.866333v-1.36364746c0-.75311279.60812378-1.36364746 1.35829162-1.36364746h10.86633301c.75016785 0 1.35829163.61053467 1.35829163 1.36364746v2.34405518l7.13102722-1.79724121c1.56687927-.39312744 3.20765686-.37902832 4.76760864.04089355l20.2657013 5.45452881c1.25675964.34350586 2.3468933 1.13269043 3.06838989 2.22137451l13.24468994-7.67590332c1.2475586-.72198486 2.72979736-.9165039 4.12028503-.54077148zM21.73266601 72.27270508h-8.14974976V50.4545288h8.14974976v21.81817627zm32.44958496-2.27178955L77.0015564 56.7736206c1.28808593-.7611084 1.72601318-2.42126465.9820404-3.72271729-.76649475-1.27758789-2.40182495-1.71844482-3.70271301-.99816895L60.60017395 59.9822998c.14015198 1.51641846-.36535645 3.02160645-1.39152527 4.14324952-1.02615356 1.1217041-2.47714233 1.75506591-3.99409485 1.74353027-.47792053-.00061035-.95372009-.06384277-1.41534424-.18817139l-16.19761657-4.36364746c-.72137451-.1973877-1.1481781-.94299316-.95489502-1.66809082.19328308-.72515869.93395996-1.15710449 1.65711975-.96643066l16.2003479 4.36090088c.94448852.27386474 1.96266174.01403808 2.66226196-.6793213.69961548-.6934204.97148133-1.7121582.71089173-2.66375732-.2605896-.95166015-1.01296997-1.68774414-1.96731568-1.92462158L35.64428711 52.3213501c-1.11486816-.29846192-2.28691101-.30828858-3.40660095-.0286255l-7.7884369 1.95544435v14.45458984l2.96243287 1.49182129c.94303894.47192383 1.98207092.71838379 3.03578186.7199707h20.33906555c1.19215393-.00006103 2.36331177-.31512451 3.39572144-.91363525zM2.71658325 53.18182373v16.36364746h8.14974976V53.18182373H2.71658325z"/>
    <path fill="rgb(46,70,165)" fill-rule="evenodd" d="M41.77154541 32.72729492h-5.0976715c-.75016786 0-1.35829163-.61053467-1.35829163-1.36364746v-8.18182373c0-.7531128.60812377-1.36364746 1.35829162-1.36364746h5.09767151c.0774231-.1963501.1548462-.3859253.23634338-.5713501l-3.60490417-3.61907959c-.53025818-.53253174-.53025818-1.39569092 0-1.92822265l5.75915527-5.78179932c.53881836-.51153565 1.38179016-.51153565 1.92062378 0l3.60490418 3.61907959c.1847229-.08044434.3735199-.1595459.56912231-.23724365V8.18182373c0-.7531128.60812378-1.36364746 1.35829163-1.36364746h8.14974975c.75016785 0 1.35829163.61053467 1.35829163 1.36364746v5.11773682c.19558716.07769775.38439941.15679931.56912231.23724365l3.60490418-3.6190796c.53041076-.53234862 1.39021301-.53234862 1.92062378 0l5.75915527 5.78179933c.53025818.53253173.53025818 1.39569091 0 1.92822265l-3.60490417 3.6190796c.08149719.1854248.15892028.375.23634338.57135009h5.0976715c.75016786 0 1.35829163.61053467 1.35829163 1.36364746v8.18182373c0 .7531128-.60812377 1.36364746-1.35829162 1.36364746h-5.09767151c-.0774231.1963501-.1548462.38586426-.23634338.5699463l3.60490417 3.62048339c.53025818.5324707.53025818 1.39569092 0 1.92816162l-5.75915527 5.78186035c-.53881836.51153565-1.38179016.51153565-1.92062378 0l-3.60490418-3.61914062c-.1847229.08050537-.37353515.1595459-.56912231.23730468v5.11773682c0 .7531128-.60812378 1.36364746-1.35829163 1.36364746H51.6150818c-.75016785 0-1.35829163-.61053467-1.35829163-1.36364746v-5.11773682c-.19560242-.07775878-.38439941-.15679931-.56912231-.23730468l-3.60490418 3.61914062c-.53041076.5322876-1.39021301.5322876-1.92062378 0l-5.75915527-5.78186035c-.53025818-.5324707-.53025818-1.39569092 0-1.92816162l3.60490417-3.6204834c-.08149719-.18408203-.15892028-.37359619-.23634338-.56994629zm.96031189-8.18182373h-4.69969177V30h4.69969177c.59251404-.00292969 1.11857605.38006592 1.29988098.94641113.21076965.68200684.48594666 1.34228516.82176209 1.97180176.28952026.53118897.19548034 1.19036865-.23091126 1.61865234l-3.33052063 3.3449707 3.8303833 3.8536377 3.33187866-3.34503174c.42678833-.42871093 1.08422852-.52313232 1.61366272-.23181152.6266327.3380127 1.28439331.61431885 1.96408081.8250122.56118775.1817627.94146729.7062378.94129944 1.29821778V45h5.4331665v-4.71813965c-.00016784-.59197998.3801117-1.11645508.94129945-1.29821777.6796875-.21069336 1.33744812-.48699951 1.9640808-.8250122.52943421-.29132081 1.18685914-.19689942 1.61364747.23181151l3.33189392 3.34503174 3.83717346-3.8536377-3.33053589-3.3449707c-.42637634-.42828369-.52041626-1.08746337-.230896-1.61865234.33581543-.6295166.61099244-1.28979492.82176209-1.97180176.180542-.56396484.70307922-.9463501 1.29309082-.94641113h4.69969177v-5.4545288h-4.69969177c-.5900116 0-1.11254883-.3824463-1.29309082-.9463501-.21076965-.68206788-.48594666-1.3423462-.82176209-1.97180176-.28952026-.53118897-.19548034-1.1904297.230896-1.61865235l3.33053589-3.34503174-3.83717346-3.8536377-3.33189392 3.34503175c-.42678833.42871093-1.08421326.52313232-1.61364746.23181152-.6266327-.3380127-1.28439331-.61431885-1.96408081-.8250122-.56118775-.18170167-.94146729-.70617676-.94129944-1.29815675V9.5454712h-5.4331665v4.71820068c.00112914.59014893-.37600709 1.11401368-.93450928 1.29815674-.6796875.21069336-1.33744812.48699952-1.96408081.82501221-.5294342.2913208-1.1868744.19689941-1.61366272-.23181152l-3.33187867-3.34503174-3.83717346 3.8536377 3.32373047 3.34503173c.4263916.42822266.52043152 1.08746338.23091126 1.61865235-.33581543.62945556-.61099244 1.28973388-.82176209 1.97180175-.180542.56390381-.70307922.9463501-1.29309082.9463501z"/>
    <path fill="rgb(46,70,165)" fill-rule="evenodd" d="M47.5402069 27.27270508c0 4.51867676 3.6487732 8.18182373 8.14974977 8.18182373 4.49911499-.0045166 8.1452484-3.66497803 8.14974975-8.18182373 0-4.51867676-3.6487732-8.18182373-8.14974975-8.18182373-4.50097657 0-8.14974976 3.66314697-8.14974976 8.18182373zm2.71658326 0c0-3.01245117 2.43251038-5.45452881 5.4331665-5.45452881 3.00065613 0 5.4331665 2.44207764 5.4331665 5.4545288 0 3.01245118-2.43251037 5.45458985-5.4331665 5.45458985-3.00065612 0-5.4331665-2.44213867-5.4331665-5.45458984z"/>
    <path fill="rgb(46,70,165)" fill-rule="evenodd" d="M16.29949951 27.27270508h5.4331665c.75016785 0 1.35829163-.61047363 1.35829163-1.36358643v-2.39459228l1.6883545 1.69500732c.53041076.53234863 1.390213.53234863 1.92062377 0l3.84396363-3.85906982c.53025817-.53253174.53025817-1.39569092 0-1.92816162l-1.6883545-1.69500733h2.38516236c.75016784 0 1.35829162-.61053467 1.35829162-1.36364746v-5.4545288c0-.7531128-.60812378-1.36364747-1.35829162-1.36364747h-2.38516236l1.6883545-1.69500732c.53025817-.53253174.53025817-1.39569092 0-1.92816162L26.6999359 2.06317139c-.53041076-.53234864-1.39021301-.53234864-1.92062378 0L23.09095764 3.7581787V1.36364746C23.09095764.61053466 22.48283386 0 21.73266602 0h-5.4331665c-.75016785 0-1.35829163.61053467-1.35829163 1.36364746v2.39453125l-1.6883545-1.69500732c-.53041076-.53234864-1.390213-.53234864-1.92062378 0L7.488266 5.92230225c-.53025818.5324707-.53025818 1.39562988 0 1.92816162l1.6883545 1.69500732H6.79145812c-.75016785 0-1.35829163.61053467-1.35829163 1.36364746v5.45452881c0 .7531128.60812378 1.36364746 1.35829163 1.36364746h2.38516235L7.488266 19.42230225c-.53025818.5324707-.53025818 1.39562988 0 1.92816162l3.84396362 3.85906982c.53041077.53234863 1.39021302.53234863 1.92062378 0l1.6883545-1.69500732v2.39459228c0 .7531128.60812378 1.36358643 1.35829162 1.36358643zm4.07487488-2.72723389h-2.71658325v-3.2045288c.00131225-.60504151-.39466858-1.13861085-.97253418-1.31048585-.18788147-.059021-.3697815-.13574218-.5433197-.22906494-.52630616-.27661133-1.170578-.17773437-1.59056092.2440796l-2.25883484 2.27185058-1.92333984-1.9309082 2.25883484-2.26776124c.4201355-.42163086.51863098-1.0684204.24313354-1.59680175-.09446716-.17651368-.1713562-.36199952-.22955322-.5536499-.1735382-.57495118-.7014618-.96813965-1.29988098-.96820069H8.14974976v-2.72723389h3.19606018c.59843444-.00006103 1.12634277-.3932495 1.29988098-.96820068.05819702-.1916504.13508606-.37713623.22955322-.5536499.27549744-.52838135.17701721-1.1751709-.24313354-1.59680176l-2.26290894-2.2677002 1.92333984-1.9309082 2.26290894 2.2677002c.41998291.42181396 1.06425476.52069091 1.59056091.24407959.17353821-.09332276.35543823-.17004395.5433197-.22906495.57479859-.1729126.96850586-.70397949.96846009-1.30639648v-3.2045288h2.71658325v3.2045288c-.00131226.6050415.39466858 1.13861084.97253418 1.31048584.18788147.059021.3697815.13574219.5433197.22906494.52630615.27661133 1.170578.17773438 1.59056091-.24407959l2.25883484-2.27178955 1.92333985 1.9309082-2.25883484 2.2677002c-.42015076.42163086-.51863098 1.06842041-.24313355 1.59680176.09446717.17651367.1713562.3619995.22955323.5536499.1735382.57495117.70144653.96813965 1.29988098.96820068h3.19198608V15H26.6904297c-.59992981-.00177002-1.12997437.39178467-1.30395508.96820068-.05819702.1916504-.13508606.37713623-.22955322.5536499-.27549744.52838135-.17701722 1.1751709.24313354 1.59680176l2.25883484 2.26776123-1.92333984 1.9309082-2.25883484-2.26776122c-.41998291-.42181397-1.06425476-.52062989-1.59056092-.2440796-.1735382.09332276-.35543823.17004395-.5433197.22906495-.57479858.1729126-.96850586.7039795-.96846008 1.30639648v3.20452881z"/>
    <path fill="rgb(46,70,165)" fill-rule="evenodd" d="M13.58291626 13.63635254c0 3.01245117 2.43251038 5.45458984 5.4331665 5.45458984 3.00065613 0 5.4331665-2.44213867 5.4331665-5.45458984s-2.43251037-5.45452881-5.4331665-5.45452881c-3.00065612 0-5.4331665 2.44207764-5.4331665 5.4545288zm2.71658325.00006103c0-1.50622558 1.21626282-2.72729492 2.71658325-2.72729492 1.50032044 0 2.71658326 1.22106934 2.71658326 2.72729492 0 1.50622559-1.21626282 2.7272339-2.71658326 2.7272339-1.50032043 0-2.71658325-1.22100831-2.71658325-2.7272339z"/>
  </g>
</svg>
