<svg xmlns="http://www.w3.org/2000/svg" xmlns:xlink="http://www.w3.org/1999/xlink" width="60" height="60" viewBox="0 0 60 60">
  <defs>
    <rect id="rect-1" width="60" height="60" x="0" y="0"/>
    <mask id="mask-2" maskContentUnits="userSpaceOnUse" maskUnits="userSpaceOnUse">
      <rect width="60" height="60" x="0" y="0" fill="black"/>
      <use fill="white" xlink:href="#rect-1"/>
    </mask>
  </defs>
  <g>
    <use fill="none" xlink:href="#rect-1"/>
    <g mask="url(#mask-2)">
      <path fill="rgb(188,188,188)" fill-rule="evenodd" d="M48.75 31.31392535C55.1943132 32.80215993 60 38.57245352 60 45.46872606 60 53.49421482 53.49421482 60 45.46872606 60c-6.98010014 0-12.80804204-4.9223537-14.20872707-11.4844109-.20951214-.98294128-.32245112-2.00157016-.32245112-3.04686304 0-.55500105.0342156-1.10195982.09470622-1.6405891.78088498-6.94647096 6.45696303-12.40833357 13.49901985-12.85734886.31029196-.01971077.6219602-.03333597.93745212-.03333597 1.12921023 0 2.22607781.13313443 3.28127394.37647322zM35.85931516 45.46872606c0 5.30715644 4.30225447 9.6094109 9.6094109 9.6094109 5.30715644 0 9.6094109-4.30225446 9.6094109-9.6094109 0-5.30715643-4.30225446-9.6094109-9.6094109-9.6094109-5.30715643 0-9.6094109 4.30225447-9.6094109 9.6094109z"/>
      <path fill="rgb(188,188,188)" fill-rule="evenodd" d="M10.78125 0c-.90469796 0-1.64057268.73597935-1.64057268 1.64057268V9.375c0 .90469796.73587472 1.64057268 1.64057268 1.64057268h1.40630232c.90469796 0 1.64057268-.73597935 1.64057268-1.64057268V1.64057268C13.828125.73597935 13.09225028 0 12.18744768 0H10.78125zm24.14072963 1.64057268C34.92197963.73597935 35.65785435 0 36.56255232 0H37.96875c.90469796 0 1.64067732.73597935 1.64067732 1.64057268V9.375c0 .90459333-.73587473 1.64057268-1.64057269 1.64057268h-1.40630231c-.90459334 0-1.64057269-.73587472-1.64057269-1.64057268V1.64057268zM3.75 48.51557268h23.203125C26.72440011 47.37833078 26.60292271 46.2032122 26.60292271 45c0-.39425223.01736886-.78421456.04268973-1.171875H7.03125c-1.55341448 0-2.8125-1.25913783-2.8125-2.81255232v-22.5h40.3125v8.69677735c.31033761-.01600865.62297712-.02479771.9375-.02479771 1.12123326 0 2.21662249.10871233 3.28125.30793108V9.14057268c0-2.07097516-1.67902483-3.75-3.75-3.75h-3.046875V9.375c0 2.19705636-1.78726632 3.984375-3.984375 3.984375h-1.40630232c-2.19705636 0-3.98442731-1.78731864-3.98442731-3.984375V5.39057268H16.171875V9.375c0 2.19705636-1.78737095 3.984375-3.98442732 3.984375h-1.40625c-2.19705636 0-3.98442731-1.78731864-3.98442731-3.984375V5.39057268H3.75c-2.07097517 0-3.75 1.67912947-3.75 3.75v35.625c0 2.07097517 1.67902483 3.75 3.75 3.75zm5.74213518-22.96875c0-2.05365862 1.66730609-3.7209647 3.7209647-3.7209647 2.05365863 0 3.72101703 1.66730608 3.72101703 3.7209647 0 2.05365863-1.6673584 3.72101702-3.72101702 3.72101702s-3.7209647-1.6673584-3.7209647-3.72101702zM24.375 21.82585798c-2.05365862 0-3.7209647 1.66730608-3.7209647 3.7209647 0 2.05365863 1.66730608 3.72101702 3.7209647 3.72101702s3.72101702-1.6673584 3.72101702-3.72101702-1.6673584-3.7209647-3.72101702-3.7209647zm7.44098772 3.7209647c0-2.05365862 1.66730609-3.7209647 3.7209647-3.7209647 2.05365863 0 3.72101703 1.66730608 3.72101703 3.7209647 0 2.05365863-1.6673584 3.72101702-3.72101702 3.72101702s-3.7209647-1.6673584-3.7209647-3.72101702zm-22.3237479 11.25c0-2.0536063 1.66725376-3.72086007 3.72086007-3.72086007 2.05365862 0 3.72091239 1.66725377 3.72091239 3.72086007 0 2.05365863-1.66725377 3.7209124-3.7209124 3.7209124-2.0536063 0-3.72086006-1.66725377-3.72086006-3.7209124zM24.375 33.07596261c-2.0536063 0-3.72086007 1.66725377-3.72086007 3.72086007 0 2.05365863 1.66725376 3.7209124 3.72086007 3.7209124 2.05365862 0 3.72091239-1.66725377 3.72091239-3.7209124 0-2.0536063-1.66725377-3.72086007-3.72091239-3.72086007zM47.34369768 38.90625H44.0625v5.15625h-5.15625v3.28119768h8.43744768V38.90625z"/>
    </g>
  </g>
</svg>
