<svg xmlns="http://www.w3.org/2000/svg" xmlns:xlink="http://www.w3.org/1999/xlink" width="40" height="40" viewBox="0 0 40 40">
  <defs>
    <rect id="rect-1" width="40" height="40" x="0" y="0"/>
    <mask id="mask-2" maskContentUnits="userSpaceOnUse" maskUnits="userSpaceOnUse">
      <rect width="40" height="40" x="0" y="0" fill="black"/>
      <use fill="white" xlink:href="#rect-1"/>
    </mask>
  </defs>
  <g>
    <use fill="none" xlink:href="#rect-1"/>
    <g mask="url(#mask-2)">
      <path fill="rgb(18,42,136)" fill-rule="evenodd" d="M33.55355835 28.63336182h1.17858887c.97512817.00305175 1.7649231.8295288 1.76785278 1.8500061v2.46664429c0 .34057617-.26382446.6166687-.58929443.6166687h-.58929444v1.8500061c0 .34057617-.26382446.6166687-.58926391.6166687H24.125c-.32543945 0-.58929443-.27609253-.58929443-.6166687v-1.8500061h-.58926392c-.32546997 0-.58929443-.27609253-.58929443-.6166687v-2.46664429c.00289917-1.0204773.79269409-1.84695435 1.76785278-1.8500061h1.17858887c-.00030518-.12109375.03463745-.23937989.10015869-.33917237l.78375244-1.2333374c.19332886-.302948.29589844-.6593628.29464722-1.02365112V24.3043518c.00750732-.91516114-.27194214-1.8076477-.79553223-2.54067994-.63446045-.85754394-.97671509-1.91247558-.97232056-2.99697875.00027466-2.13873291 1.31738282-4.03369141 3.26171875-4.692688 1.94433594-.65896606 4.07299805.06814576 5.2713623 1.80062867 1.19839478 1.7324829 1.19354249 4.0756836-.01202392 5.80273437-.5498352.75808716-.85153198 1.68145752-.86035156 2.6331482v1.72668457c-.00125122.36428833.10131836.72070312.29464722 1.02365112l.78375244 1.2333374c.06552124.09979248.10046387.21807862.10015869.33917237zm-7.66067505-9.8666687c-.00061035-1.6036377.98602295-3.02514649 2.44354248-3.52050782 1.45748901-.49536133 3.0539856.04818726 3.95394898 1.3461914.89993286 1.29797364.8984375 3.05487061-.00375367 4.35113526-.69812011.97146607-1.0802002 2.1515503-1.09017944 3.3670044v1.72668457c-.00100708.60821533.17132568 1.2029419.49499512 1.7081604l.56570434.88800049h-5.657135l.56573486-.8880005c.32363891-.5052185.4960022-1.09994506.49499511-1.7081604v-1.73284911c.00683594-1.18478394-.35745239-2.33926392-1.03713989-3.28683472-.47503662-.64489746-.73205566-1.43658447-.73071289-2.25082397zm-2.35717773 13.5666809h11.78570556v-1.8500061c0-.34057617-.26382446-.6166687-.58929443-.6166687H24.125c-.32546997 0-.58929443.27609253-.58929443.6166687v1.8500061zm1.17858886 2.4666443h9.42855835V33.5666809h-9.42855835v1.2333374z"/>
      <path fill="rgb(18,42,136)" fill-rule="evenodd" d="M6.44641113 37.2666626h21.21429444c.43051147-.00003052.84625244-.16448975 1.16912841-.4624939l.77963257.92501831c-.53805542.49700928-1.23110962.77114868-1.94876098.77081299H6.44641113C4.81997681 38.49798584 3.50195313 37.11871338 3.5 35.41668701V4.58334351C3.50195313 2.88128662 4.8199768 1.50204468 6.44641113 1.5h18.85714722c.15628052.00003052.30612183.06503296.41662598.18069458l4.71426391 4.9333191c.11053467.1156311.17263794.27246093.17266846.43597411v5.55001831h-1.17855835V7.6666565H26.4821167c-.97634888 0-1.76785278-.82824708-1.76785278-1.8499756V2.7333374H6.44641113c-.97634887 0-1.76785278.82827759-1.76785278 1.8500061v30.83334351c0 1.02172852.7915039 1.84997559 1.76785278 1.84997559zM25.89282227 3.60531616v2.21136475c0 .34057617.26382446.6166687.58929443.6166687h2.11315918l-2.70245361-2.82803345z"/>
      <path fill="rgb(18,42,136)" fill-rule="evenodd" d="M18.82141113 28.63336182c0 3.40576172-2.63830566 6.166687-5.89285278 6.166687-3.25305176-.00375365-5.88928223-2.76248168-5.89285278-6.166687 0-3.4057312 2.63830566-6.1666565 5.89285278-6.1666565 3.25454712 0 5.89285278 2.7609253 5.89285278 6.1666565zm-1.17858886.00003051c0-2.72460937-2.11065674-4.9333496-4.71426392-4.9333496-2.602417.00305175-4.71136475 2.20999145-4.71429443 4.9333496 0 2.72457886 2.11065673 4.9333191 4.71429443 4.9333191 2.60360718 0 4.71426392-2.20874024 4.71426392-4.9333191z"/>
      <path fill="rgb(18,42,136)" fill-rule="evenodd" d="M15.87496948 10.13336182c0 .34057617.26385498.61663818.58929444.61663818h1.17855835c.32546997 0 .58929443-.27606201.58929443-.61663818 0-.34057618-.26382446-.6166687-.58929443-.6166687h-1.17855835c-.97634888 0-1.76785279-.8282776-1.76785279-1.8500061 0-1.02172852.7915039-1.85000611 1.76785279-1.85000611v-.6166687h1.17855835v.6166687c.97637939 0 1.7678833.82827759 1.7678833 1.8500061H18.2321167c0-.34057617-.26382446-.6166687-.58929443-.6166687h-1.17855835c-.32543946 0-.58929444.27609253-.58929444.6166687 0 .34057617.26385498.6166687.58929444.6166687h1.17855835c.97637939 0 1.7678833.8282776 1.7678833 1.8500061 0 1.021698-.79150391 1.8499756-1.7678833 1.8499756v.6166687h-1.17855835v-.6166687c-.97634888 0-1.76785279-.8282776-1.76785279-1.8499756h1.17855835zm-3.53570556-.6166687v-1.2333374h1.17855835v1.2333374h-1.17855835zm8.25 0v-1.2333374h1.17855835v1.2333374h-1.17855835zM7.03570557 15.0666809v-1.2333374h2.35714721v1.2333374H7.03570557zm3.53570556 0v-1.2333374h14.14285279v1.2333374H10.57141113zm-3.53570556 2.4666748v-1.2333374h16.5v1.2333374h-16.5zm0 2.4666748v-1.2333374h16.5v1.2333374h-16.5zm0 2.4666443v-1.2333374h2.35714721v1.2333374H7.03570557zm9.42855835 0v-1.2333374h7.07141113v1.2333374h-7.07141113zm2.94644165 2.4666748v-1.2333374H24.125v1.2333374h-4.71429443zm-3.11911011 2.28598022l-3.53570557 3.6999817c-.11047363.11566161-.26034546.18066406-.41662597.18069457-.15628052-.00003051-.30612183-.06503296-.41662598-.18069458l-1.76785278-1.8500061.83325195-.87194824 1.3512268 1.41400146 3.1190796-3.26400757.83325195.87197876z"/>
    </g>
  </g>
</svg>
