<svg xmlns="http://www.w3.org/2000/svg" width="34" height="34" viewBox="0 0 34 34">
  <path fill="rgb(18,42,136)" fill-rule="evenodd" d="M32.88551636 12.76154327l-2.43347779-2.1875412V6.23920442c0-1.46480255-1.3263092-2.65653534-2.95653076-2.65653534H22.6763855L18.90881653.19537964c-.13857117-.12451172-.32653198-.1945755-.52253418-.19465332L15.63280945 0c-.19615784 0-.38411865.06993408-.5227417.19439392L11.33684387 3.5827469h-4.8325592c-1.63027344 0-2.95653076 1.19170685-2.95653076 2.65653534v4.34169769L1.1158844 12.76107635C.39631042 13.40726624 0 14.26660461 0 15.18078003v15.3982605c0 .92149048.40829468 1.75836487 1.0699707 2.37407531.01426697.01535645.02910462.03042756.0451355.04490204.015979.0143448.03268433.02757416.04970093.04031067C1.85003663 33.63300171 2.78153992 34 3.80725708 34h9.86661987c.4082428 0 .7391327-.29740143.7391327-.66414032 0-.3667389-.3308899-.66414032-.7391327-.66414032H3.80715332c-.37301636 0-.72548828-.07960968-1.03842773-.22033386l8.71203308-7.82810364 2.83632507 2.54704285c.7190033.64572296 1.67468262 1.00122986 2.69121704 1.00122986h.00119324c1.01694946-.0002594 1.97288818-.35636292 2.69178772-1.00270844l2.82449646-2.53952026 8.7052887 7.82205963c-.31288758.14064636-.66541138.22033386-1.03847962.22033386h-9.866568c-.40819091 0-.7390808.29740143-.7390808.66414032 0 .3667389.33088989.66414032.7390808.66414032h9.86672364c1.02556152 0 1.95706482-.36694641 2.64229431-.96154175.01706848-.01281433.03387756-.02609558.04985657-.04044037.01608276-.01447448.03086853-.02954559.04523926-.04495392C33.59170532 32.33735352 34 31.50047913 34 30.57904053V15.17976837c-.00005188-.9133194-.39579163-1.77211304-1.11448364-2.4182251zM18.07967224 1.32900696l-2.14118652-.00067444-2.51051941 2.25441437h7.15838623l-2.5066803-2.25373993zm.57607422 24.90096893c-.43978577.39535065-1.02447205.6131424-1.64729004.61332398-.62183227 0-1.20646667-.21750641-1.6463562-.61251984l-10.33602905-9.2815445V6.23923035c0-.73241425.66312866-1.32828064 1.47826538-1.32828064h20.99127502c.81508484 0 1.4782135.5958664 1.4782135 1.32828064v4.52498932c-.00700378.05281372-.00700378.10606842 0 .1588562v6.0299469l-10.31807861 9.27695312zm-8.63442078-12.26331482c0-3.4576126 3.13058777-6.27048797 6.97862244-6.27048797 3.84798279 0 6.97857056 2.81287536 6.97862244 6.27048797v1.36101685c0 1.25546722-1.13668824 2.27685241-2.534021 2.27685241s-2.534021-1.02138519-2.534021-2.27685241v-1.53727875c0-1.08587189-.98317565-1.96936035-2.19171752-1.96936035-1.31276856 0-2.3808197.95967407-2.3808197 2.13924103 0 1.17964477 1.06805114 2.13931884 2.3808197 2.13931884h1.17580566c.40819092 0 .73913269.29740143.73913269.66411438 0 .3667389-.33094177.66414032-.7391327.66414032h-1.17580565c-2.12790528 0-3.85908509-1.55554046-3.85908509-3.46749572 0-1.91205902 1.73112793-3.46757355 3.85908509-3.46757355 2.0236267 0 3.6699829 1.47927704 3.6699829 3.29761505v1.53727875c0 .52305298.47361146.94857177 1.05575562.94857177.58214417 0 1.0558075-.4255188 1.0558075-.94857177v-1.36101685c0-2.72514648-2.46745911-4.94220733-5.50040894-4.94220733-3.03294983 0-5.50035706 2.21706085-5.50035706 4.94220733 0 2.77248688 2.5103119 5.02809448 5.59586792 5.02809448h4.49233094c.4082428 0 .73913269.29740143.73913269.66414032 0 .36671296-.3308899.66411438-.7391327.66411438h-4.49233093c-3.90069274 0-7.0741333-2.85144806-7.0741333-6.35634918zm20.43076477-1.51382904l1.38783875 1.24763336c.12819519.11522522.23895874.24181214.33249817.37677765l-1.72033692 1.54677277v-3.17118378zm-28.29170837 1.2481781l1.3874237-1.24379425v3.16459503L1.8279358 14.07742462c.09348755-.13486175.20435486-.26139679.33244629-.37641449zm-.6821167 16.87810822c0 .33516998.08861084.65189666.24518433.93303375l8.7117218-7.8278183L1.47826538 15.641214v14.93790436zm30.79823303.93303375c.15657349-.28111115.24518433-.59783783.24518433-.93303375v-14.936763l-8.9507843 8.04750366 8.70559997 7.82229309zm-15.27655029 1.15938568c-.19439392 0-.38510437.0710495-.52258606.19460144-.13748169.123526-.21654663.29485932-.21654663.46953888 0 .17465363.07906494.34601288.21654663.46953888.13748169.12420044.32819214.1945755.52258606.1945755.19439392 0 .38510437-.07037506.52258606-.1945755.1374298-.123526.21654663-.29488525.21654663-.46953888 0-.17467956-.07911682-.34601288-.21654663-.46953888-.13748169-.12347412-.32819214-.19460144-.52258606-.19460144z"/>
</svg>
