<svg xmlns="http://www.w3.org/2000/svg" xmlns:xlink="http://www.w3.org/1999/xlink" width="27.667" height="27.667" viewBox="0 0 27.667 27.667">
  <defs>
    <rect id="rect-1" width="27.667" height="27.667" x="0" y="0"/>
    <mask id="mask-2" maskContentUnits="userSpaceOnUse" maskUnits="userSpaceOnUse">
      <rect width="27.667" height="27.667" x="0" y="0" fill="black"/>
      <use fill="white" xlink:href="#rect-1"/>
    </mask>
  </defs>
  <g>
    <use fill="none" xlink:href="#rect-1"/>
    <g mask="url(#mask-2)">
      <path fill="rgb(34,122,101)" fill-rule="evenodd" d="M0 13.83343506C0 6.20558166 6.20574951 0 13.83343506 0c7.62786865 0 13.83343506 6.20558167 13.83343506 13.83343506 0 7.62783813-6.20574951 13.83355713-13.83343506 13.83355713C6.2057495 27.66699219 0 21.46127319 0 13.83343506zm13.08599854 6.35424805l8.6907959-8.69082642c.76275634-.76275635.76275634-2.00372315-.00024415-2.76675415-.36956787-.36953735-.8607788-.57292175-1.38330078-.57292175-.522583 0-1.01379394.2033844-1.38330078.57292175l-7.30743408 7.30740356-3.04589844-3.04577636c-.36938476-.36968995-.8607788-.57321167-1.38330078-.57321167-.52270508 0-1.01391602.20352172-1.38330078.57305908-.36950684.36953735-.57305908.86074829-.57305908 1.38345337 0 .52255249.20355224 1.01376343.57305908 1.38330078l4.42938232 4.4293518c.36950684.36953736.86071778.57293702 1.38330078.57293702.52252198 0 1.01373291-.20339966 1.38330079-.57293701z"/>
    </g>
  </g>
</svg>
