<svg xmlns="http://www.w3.org/2000/svg" xmlns:xlink="http://www.w3.org/1999/xlink" width="27.667" height="27.667" viewBox="0 0 27.667 27.667">
  <defs>
    <rect id="rect-1" width="27.667" height="27.667" x="0" y="0"/>
    <mask id="mask-2" maskContentUnits="userSpaceOnUse" maskUnits="userSpaceOnUse">
      <rect width="27.667" height="27.667" x="0" y="0" fill="black"/>
      <use fill="white" xlink:href="#rect-1"/>
    </mask>
  </defs>
  <g>
    <use fill="none" xlink:href="#rect-1"/>
    <g mask="url(#mask-2)">
      <path fill="rgb(200,200,200)" fill-rule="evenodd" d="M0 13.83342895C0 6.20557561 6.20572538 0 13.83342895 0c7.62785335 0 13.83342896 6.2055756 13.83342896 13.83342895 0 7.62784894-6.20572539 13.83356992-13.83342896 13.83356992C6.20572538 27.66699887 0 21.4612779 0 13.83342895zm13.0859825 6.35425963l8.69084366-8.69084367c.76274129-.76274128.76274129-2.00371015-.00029074-2.76674217-.36953389-.3695339-.8607568-.57292159-1.3833006-.57292159-.52254382 0-1.01376672.2033877-1.3833006.57292159l-7.3073933 7.30739769-3.04591678-3.04577141c-.36938411-.36967926-.8607568-.57321233-1.3833006-.57321233-.52268478 0-1.01390768.20353307-1.3833006.57306696-.3695339.36953389-.57306256.86075679-.57306256 1.38344597 0 .52254382.20352866 1.01376231.57306255 1.3832962l4.42936716 4.42936276c.3695339.3695339.86074799.57292158 1.3832918.57292158.52255262 0 1.01376671-.20338769 1.3833006-.57292158z"/>
    </g>
  </g>
</svg>
