<svg xmlns="http://www.w3.org/2000/svg" xmlns:xlink="http://www.w3.org/1999/xlink" width="22" height="22.001" viewBox="0 0 22 22.001">
  <defs>
    <rect id="rect-1" width="22" height="22.001" x="0" y="0"/>
    <mask id="mask-2" maskContentUnits="userSpaceOnUse" maskUnits="userSpaceOnUse">
      <rect width="22" height="22.001" x="0" y="0" fill="black"/>
      <use fill="white" xlink:href="#rect-1"/>
    </mask>
  </defs>
  <g>
    <use fill="none" xlink:href="#rect-1"/>
    <g mask="url(#mask-2)">
      <path fill="rgb(130,130,130)" fill-rule="evenodd" d="M21.02340889 11.00024414l.97654724-1.74224853-1.467165-1.35522461.39045716-1.9588318-1.8141365-.83547973-.23396492-1.98358154-1.98352051-.23397827-.83548165-1.81417847-1.95872688.3904419L12.74222946 0l-1.7422514.9765625L9.25777055 0 7.90262508 1.4671936l-1.9587264-.39041137-.83548308 1.81417846-1.98351931.23397827L2.89093184 5.10849l-1.81418001.83551025.3904562 1.95880127L0 9.25799561l.97659183 1.74224853L0 12.74249268l1.46716511 1.3552246-.39045632 1.95880127 1.81413722.83551026.2339642 1.98355102 1.98351956.23397828.83548308 1.81417846 1.9587264-.39047241 1.35514546 1.4671936 1.74220752-.9765625 1.74220753.9765625 1.35514641-1.4671936 1.95872688.39047241.83548165-1.81417846 1.9835205-.23397828.23396492-1.98355102 1.81413651-.83551026-.39045715-1.95880126 1.46716499-1.35522461-.97637558-1.74224854zm-9.80051518 2.4118042c-.12294101.1232605-.3228712.1232605-.44594383 0l-2.5893116-2.59521484c-.07533073-.07562256-.09776401-.18917847-.05696869-.28826905.04079628-.09869384.13672352-.16299438.24351406-.16299438h1.21619511v-4.7876587C9.59037876 5.25854493 9.84838295 5 10.16691685 5h1.66640758c.31855679 0 .57653904.25857544.57653904.57791138v4.78765869h1.21577454c.10690021 0 .2028284.06433105.24362373.16299438.04079533.09909058.01838494.21264649-.05705643.28826905l-2.5893116 2.59521484zm4.0382681-.78793335c-.40804577 0-.73892499.33154297-.73892499.74053955v1.15426636H7.47767258v-1.15426636c0-.40896606-.33079052-.74053955-.7388363-.74053955-.40804576 0-.73883628.33154297-.73883628.74053955v1.8947754c0 .40896606.33079052.7406311.73883629.7406311h8.52234745c.40802383 0 .73883533-.33166504.73883533-.7406311v-1.8947754c0-.40899658-.3308115-.74053955-.73885727-.74053955z"/>
    </g>
  </g>
</svg>
