<svg xmlns="http://www.w3.org/2000/svg" xmlns:xlink="http://www.w3.org/1999/xlink" width="22" height="21.788" viewBox="0 0 22 21.788">
  <defs>
    <ellipse id="ellipse-1" cx="11" cy="10.894" rx="11" ry="10.894"/>
    <mask id="mask-2" maskContentUnits="userSpaceOnUse" maskUnits="userSpaceOnUse">
      <rect width="22" height="21.788" x="0" y="0" fill="black"/>
      <use fill="white" xlink:href="#ellipse-1"/>
    </mask>
  </defs>
  <g>
    <use fill="rgb(210,210,210)" xlink:href="#ellipse-1"/>
    <g mask="url(#mask-2)">
      <path fill="rgb(18,42,136)" fill-rule="evenodd" d="M13.6478101 14.35122684l-2.2965798-1.07294738C11.13462626 13.17696052 11 12.97342402 11 12.74697282v-.75955509c.05505253-.0629031.1129899-.13456773.1728505-.21364592.29786061-.39314446.53658182-.8307704.71015354-1.3027684.3392101-.14535111.5594202-.4587434.5594202-.81257341v-.8986159c0-.21634177-.08654545-.42594393-.24040404-.58971668V6.97516294c.01346263-.12355968.06635152-.85907679-.50292525-1.46586717-.4937899-.52636426-1.29505657-.79325318-2.38192323-.79325318-1.08686667 0-1.88813334.26688892-2.38192324.79302852-.56927676.60679039-.51638787 1.34253215-.50292525 1.46586718v1.19493448c-.15385858.16377275-.24040404.3733749-.24040404.58971668v.8986159c0 .27340388.13294344.52838614.35988485.6984492.2202101.81481995.68106465 1.42879926.84213535 1.6258208v.74338c0 .21746504-.12693333.41695777-.33103636.52119721l-2.14464444 1.09316623c-.69741213.3558519-1.1303798 1.03745205-1.1303798 1.77970878v.95208353h11.05858586v-.908276"/>
      <path fill="rgb(18,42,136)" fill-rule="evenodd" d="M17.1223697 14.6066584l-2.33744849-.94579322c-.05529293-.0258352-.11659596-.08896297-.16924444-.17320821l1.56863636-.00112327s.09063232.0083122.23126869.0083122c.25795353 0 .63418586-.0274078.96161616-.15883037.1964101-.0790782.34257576-.2352127.40123434-.42841512.0591394-.19499965.02163637-.40145665-.10241212-.56680198-.44835353-.59623164-1.49483232-2.15420694-1.52752727-3.73442299-.00072121-.02718313-.0954404-2.71449396-2.93533333-2.7362854-.2853596.00224655-.55509293.03504603-.81064243.0927821.1904.47042542.1728505.89142696.15986869 1.02801658v1.06328725c.15578182.20713097.24040404.45312707.24040404.70563813V9.65843c0 .42841512-.24136566.82492938-.62673333 1.04733682-.17982223.45425033-.41782223.87862169-.70895152 1.26277998-.0360606.0478513-.0716404.09300674-.10649899.135691v.64251036c0 .09929706.05673535.18533953.15169495.22959636l2.2965798 1.07294738c.8623293.40302923 1.3979495 1.2129068 1.3979495 2.11399388v.90872532h3.0052909v-.83054573"/>
    </g>
  </g>
</svg>
