<svg xmlns="http://www.w3.org/2000/svg" xmlns:xlink="http://www.w3.org/1999/xlink" width="22" height="22" viewBox="0 0 22 22">
  <defs>
    <rect id="rect-1" width="22" height="22" x="0" y="0"/>
    <mask id="mask-2" maskContentUnits="userSpaceOnUse" maskUnits="userSpaceOnUse">
      <rect width="22" height="22" x="0" y="0" fill="black"/>
      <use fill="white" xlink:href="#rect-1"/>
    </mask>
  </defs>
  <g>
    <use fill="none" xlink:href="#rect-1"/>
    <g mask="url(#mask-2)">
      <path fill="rgb(130,130,130)" fill-rule="evenodd" d="M12.83338928 5.05603027c0 2.53131104-2.0520935 4.58325196-4.58338928 4.58325196-2.53129578 0-4.58338928-2.05194092-4.58338928-4.58325196 0-2.53128051 2.0520935-4.58337402 4.58338928-4.58337402 2.53129578 0 4.58338928 2.0520935 4.58338928 4.58337402zm-.45838928 11.6875c0-1.2375183.75816345-2.29998779 1.83338928-2.75v-.22924804c0-.55725098.13461304-1.07977295.35835266-1.55377198-.69303894-.46478271-1.52539062-.737854-2.42085266-.737854H4.35411072C1.95339966 11.47265625 0 13.42605591 0 15.82678223v3.20837402c0 .3795166.30799866.6875.6875.6875H12.375v-2.97912598zm8.02088928-1.60424804h-.22927856v-1.375c0-1.26306153-1.0283966-2.29162598-2.29161072-2.29162598-1.26321411 0-2.29161072 1.02856445-2.29161072 2.29162598v1.375h-.22927856c-.884552 0-1.60411072.71954345-1.60411072 1.60424804v3.20825196c0 .88470459.71955872 1.60424804 1.60411072 1.60424804h5.04177856c.884552 0 1.60411072-.71954345 1.60411072-1.60424804v-3.20825196c0-.88470459-.71955872-1.60424804-1.60411072-1.60424804zm-3.4375-1.375c0-.50506592.41156006-.91662598.91661072-.91662598s.91661072.41156006.91661072.91662598v1.375h-1.83322144v-1.375z"/>
    </g>
  </g>
</svg>
