<svg xmlns="http://www.w3.org/2000/svg" xmlns:xlink="http://www.w3.org/1999/xlink" width="22" height="22.413" viewBox="0 0 22 22.413">
  <defs>
    <rect id="rect-1" width="22" height="22.413" x="0" y="0"/>
    <mask id="mask-2" maskContentUnits="userSpaceOnUse" maskUnits="userSpaceOnUse">
      <rect width="22" height="22.413" x="0" y="0" fill="black"/>
      <use fill="white" xlink:href="#rect-1"/>
    </mask>
  </defs>
  <g>
    <use fill="none" xlink:href="#rect-1"/>
    <g mask="url(#mask-2)">
      <path fill="rgb(130,130,130)" fill-rule="evenodd" d="M2.65860558 6.83903295c0-2.39175415 1.80137825-4.33758545 4.0156002-4.33758545 2.21426773 0 4.01564407 1.9458313 4.01564407 4.33758545 0 2.39175415-1.80142212 4.33758545-4.01564407 4.33758545-2.21422195 0-4.0156002-1.9458313-4.0156002-4.33758545zm13.1178875-3.71679688c.00906371-.00006103.01826095-.00009155.02732848-.00009155 1.88843155 0 3.4333725 1.64822388 3.44991684 3.68789673.00794983.98431396-.33756256 1.91485596-.97298431 2.62020874-.64676666.71801758-1.51473618 1.11779785-2.44397736 1.12561035l-.02775573.00009155c-.91893006 0-1.78238678-.38442993-2.43422318-1.08444213-.6467247-.69464112-1.00727463-1.61923218-1.01526642-2.60348511-.00794983-.98428345.33756256-1.91482544.97298432-2.62017822.64676666-.7180481 1.51473236-1.11776734 2.44397735-1.12561036zm-4.176651 9.73117066c1.0699234-.98583985 2.48703002-1.5873108 4.0399208-1.5873108h.33343887C19.2964058 11.26609594 22 14.02049048 22 17.40568334v1.30758668h-7.37300873c-.04683685-.92062378-.24793243-1.81451416-.60027313-2.66290283-.39101791-.94204712-.95046997-1.78781128-1.66289139-2.51361084-.2414856-.24603272-.4962883-.47409058-.76398468-.68334961zm-.86109162.9836731c1.48199081 1.12503051 2.47499847 2.88043212 2.59659958 4.87619018.00859451.13745117.01289367.2762146.01289367.41586304v.78271484H0v-.78271484c0-3.64257813 2.89824295-6.59524537 6.47367096-6.59527588H6.875c1.4484787 0 2.7856636.48458862 3.86375046 1.30322265z"/>
    </g>
  </g>
</svg>
