<svg xmlns="http://www.w3.org/2000/svg" xmlns:xlink="http://www.w3.org/1999/xlink" width="40" height="40" viewBox="0 0 40 40">
  <defs>
    <rect id="rect-1" width="40" height="40" x="0" y="0"/>
    <mask id="mask-2" maskContentUnits="userSpaceOnUse" maskUnits="userSpaceOnUse">
      <rect width="40" height="40" x="0" y="0" fill="black"/>
      <use fill="white" xlink:href="#rect-1"/>
    </mask>
  </defs>
  <g>
    <use fill="none" xlink:href="#rect-1"/>
    <g mask="url(#mask-2)">
      <path fill="rgb(18,42,136)" fill-rule="evenodd" d="M1.66662598 31.6665039H10c.92041016 0 1.66662598.74609376 1.66662598 1.66650391v5C11.66662598 39.25390625 10.92041016 40 10 40H1.66662598C.74621582 40 0 39.25390625 0 38.33300781v-5c0-.92041015.74621582-1.6665039 1.66662598-1.6665039zm0 6.6669922H10v-5H1.66662598v5z"/>
      <path fill="rgb(18,42,136)" fill-rule="evenodd" d="M30 31.6665039h8.33337402C39.25378418 31.6665039 40 32.41259767 40 33.33300782v5C40 39.25341797 39.25378418 40 38.33337402 40H30c-.92041016 0-1.66662598-.74658203-1.66662598-1.66699219v-5c0-.92041015.74621582-1.6665039 1.66662598-1.6665039zm0 6.6669922h8.33337402v-5H30v5z"/>
      <path fill="rgb(18,42,136)" fill-rule="evenodd" d="M38.33337402 14.9975586h-3.31665039c-.23583984-.71435547-.52270508-1.41015626-.85839843-2.0834961L36.5 10.57226562c.65112305-.65136718.65100098-1.70654296 0-2.35742187L31.78503418 3.5c-.6595459-.62939453-1.69726563-.62939453-2.35668945 0l-2.3449707 2.34326172C26.41040038 5.5078125 25.71411132 5.22070312 25 4.98486328V1.66650391C25 .74609375 24.25378418 0 23.33337402 0h-6.66662597C15.74621582 0 15 .74609375 15 1.6665039v3.31835938c-.71496582.23535156-1.4119873.52148438-2.08581543.8569336L10.57250977 3.5c-.65942383-.6303711-1.69799805-.6303711-2.35754395 0L3.5 8.21484375c-.65063477.6508789-.65063477 1.70605469 0 2.3569336l2.34338379 2.34472656C5.50769043 13.58984375 5.22082519 14.28564453 4.98498535 15H1.66662598C.74621582 15 0 15.74609375 0 16.6665039V20h1.66662598v-3.3334961h3.93249511c.37145996 0 .69799805-.24560546.80090332-.60253906.2890625-1.00976562.68981934-1.98388672 1.1949463-2.90478515.17980956-.32519532.12268066-.72998047-.14001466-.99267578L4.67919922 9.3930664l4.71411133-4.7138672 2.77661132 2.77587891c.26245118.26220704.66674805.31933594.99169922.14013672.92004395-.5048828 1.8935547-.90576171 2.90246582-1.1953125.35681153-.10302734.60253907-.42919921.602417-.80078125V1.66650391h6.66674804v3.93261718c-.00012207.37158204.24560547.69775391.602417.80078125 1.01000976.2890625 1.98461914.68994141 2.90588378 1.1953125.3248291.17919922.72912598.12207032.99169922-.14013671l2.77331543-2.77587891 4.71411133 4.71386719-2.7758789 2.7758789c-.26257325.26269532-.31970215.66748047-.14001465.99267578.50500488.91992188.90588379 1.8935547 1.19506836 2.90234375.10290527.3569336.42944335.60253907.80090332.60253907h3.93249511V20H40v-3.3359375c0-.92041016-.74621582-1.6665039-1.66662598-1.6665039zM20.83300782 3.3334961h-1.66662598V5h1.66662597V3.3334961zm-12.49938966 5h1.66662598V10H8.33361816V8.3334961zm23.33300782 0H30V10h1.66662598V8.3334961zM20 10.8334961c-4.602417 0-8.33337402 3.73095703-8.33337402 8.33349609V20h1.66662597v-.83300781C13.33337402 15.48486329 16.31811523 12.5 20 12.5s6.66662598 2.98486328 6.66662598 6.66699219V20h1.66662597v-.83300781c.00012207-4.60253906-3.73095703-8.3334961-8.33325195-8.3334961zm-15 7.5H3.33337402V20H5v-1.6665039zm30 0h1.66662598V20H35v-1.6665039z"/>
      <path fill="rgb(18,42,136)" fill-rule="evenodd" d="M15.83337402 31.6665039h8.33325196c.92053222 0 1.66674804.74609376 1.66674804 1.66650391v5C25.83337402 39.25341797 25.0871582 40 24.16674805 40h-8.33337403c-.92041015 0-1.66662597-.74658203-1.66662597-1.66699219v-5c0-.92041015.74621582-1.6665039 1.66662597-1.6665039zm0 6.6669922h8.33337403v-5h-8.33337403v5z"/>
      <path fill="rgb(18,42,136)" fill-rule="evenodd" d="M19.16638184 30V19.1665039h1.66662597V30h-1.66662597zM3.33337402 36.6665039V35H5v1.6665039H3.33337402zm3.33300782 0V35H8.3330078v1.6665039H6.66638184zm10.83361816 0V35h1.66662598v1.6665039H17.5zm3.33361816 0V35h1.66662598v1.6665039h-1.66662598zm10.83276368 0V35h1.66662597v1.6665039h-1.66662597zm3.33361816 0V35h1.66662598v1.6665039H35z"/>
      <path fill="rgb(18,42,136)" fill-rule="evenodd" d="M15.83337402 20v-.8334961C15.83337402 16.86523439 17.69885254 15 20 15s4.16662598 1.86523438 4.16662598 4.1665039V20H22.5v-.8334961c0-1.38037109-1.1192627-2.5-2.5-2.5s-2.5 1.11962891-2.5 2.5V20h-1.66662598zM5 25.8334961C5 25.37304686 5.37316895 25 5.83337402 25h28.33325196C34.62683105 25 35 25.37304688 35 25.8334961V30h-1.66674805v-3.3334961H6.66662598V30H5v-4.1665039z"/>
    </g>
  </g>
</svg>
