<svg xmlns="http://www.w3.org/2000/svg" xmlns:xlink="http://www.w3.org/1999/xlink" width="40" height="40" viewBox="0 0 40 40">
  <defs>
    <rect id="rect-1" width="40" height="40" x="0" y="0"/>
    <mask id="mask-2" maskContentUnits="userSpaceOnUse" maskUnits="userSpaceOnUse">
      <rect width="40" height="40" x="0" y="0" fill="black"/>
      <use fill="white" xlink:href="#rect-1"/>
    </mask>
  </defs>
  <g>
    <use fill="none" xlink:href="#rect-1"/>
    <g mask="url(#mask-2)">
      <path fill="rgb(18,42,136)" fill-rule="evenodd" d="M19.18745422 34.84942627c-.3340454.04013061-.67166137.06951904-1.01005554.08810425v-3.03833008c0-.47869873-.38796997-.8666687-.86665344-.8666687s-.8666687.38796997-.8666687.8666687v2.96850586c-1.72244263-.37393189-3.34858704-1.85638428-4.65100098-4.26773071-.70420837-1.30386353-1.26994324-2.7991333-1.68382263-4.4248047 1.51693726.20886231 3.05595398.35098267 4.61276245.42541505.47686768.02215576.8841858-.34606934.9071045-.82427979.02282714-.4781189-.34617615-.88418579-.8242798-.90710449-1.71946716-.08224487-3.41639709-.24978638-5.08357238-.50131226-.2800293-1.58494567-.42533874-3.2623291-.42533874-4.98399353 0-1.34796142.08917236-2.66903686.26231384-3.9397583 2.24542236.36390686 4.54545593.56622315 6.88583374.60473633v1.57588196c0 .47868347.38798523.8666687.8666687.8666687.47868347 0 .86665344-.38798523.86665344-.8666687V16.0472412c1.86651611-.03448486 3.73022461-.17555237 5.55262757-.42044067.47434997-.06373596.80725097-.49995423.74349975-.97441101-.06375122-.4744568-.50016785-.80725098-.97441101-.74349976-1.74624634.23477173-3.53233337.37045288-5.3217163.40472412V3.90132141c2.47134399.5415802 4.73275756 3.3705597 6.04075622 7.65332031.13972473.45770264.62399292.71548462 1.08197021.5757599.4577942-.13983155.71557617-.6241913.57575989-1.08198548-.79415894-2.60028076-1.95558167-4.7974701-3.35977173-6.35688782 2.78189087.98106384 5.25073242 2.75012207 7.1210022 5.16667175.29292297.37843323.83728027.44787598 1.21582031.15493775.37854004-.29293824.44787598-.83729553.15493775-1.21583557-3.3028412-4.26783753-8.28674317-6.71780396-13.67642212-6.72415162-.0137787-.00028991-.02764893-.00028991-.04141236 0C7.7545166 2.08451843 0 9.84567261 0 19.38389587c0 9.54524231 7.76559448 17.3108368 17.3108368 17.3108368.69468688 0 1.39561462-.04190064 2.08317565-.12432862.47521973-.05700683.81427002-.48849487.75726318-.9637146-.05709838-.47531128-.48851013-.81448364-.9638214-.75726318zM16.4441681 3.900177v10.4151764c-2.24282837-.03822327-4.44587707-.2322693-6.5962677-.58018494.4220581-2.06948853 1.07899475-3.96324158 1.94517517-5.56715393 1.30241394-2.41134644 2.92855835-3.8939209 4.65109253-4.26783753zm-6.1761322 3.44412232c.5505371-1.01930237 1.1609497-1.90145874 1.8187561-2.63677979-3.72039795 1.3283081-6.79252624 4.03326416-8.5990448 7.49865723 1.51695252.49130249 3.07087708.89787292 4.65600586 1.2188263.45654297-2.25227357 1.1741333-4.32157899 2.12428284-6.08070374zm29.63220215 14.73483276c-.15589905-.97027588-.534729-1.98303223-1.19223023-3.18778992-.24855041-.4546051-1.05464172-.80484008-1.41064453-.84402466-.20732117-.02253723-.40628052.02975464-.56863403.13577271-.11767578-.49775696-.35609436-1.10394287-.77651978-2.07035828-.53839111-1.23730468-1.2507019-2.01403808-2.1172638-2.30870056-.39866637-.1355896-.81225585-.16592407-1.23672484-.09158325-.02619935-.2776184-.04737854-.53781128-.06008912-.77218628-.00183105-.08079529-.01493835-.16033935-.03842163-.23641968-.01916504-.06219482-.04507446-.12141418-.07695007-.17660522-.08088684-.14086914-.20173645-.2599945-.35417175-.33828736-.03167725-.01635742-.06451416-.03089904-.09831238-.04333496-1.49432373-.57911682-2.82080078-.27346801-3.94265747.90875245-1.06108093 1.11819458-1.13368225 2.96716308-1.21052551 4.92562866-.0597992 1.52832031-.6753235 3.95874023-1.23153687 5.72373962-.19664001.62408447-.59934998.94573975-.80955505.96670532-.08099366.008667-.16918946-.07028198-.25914002-.23361206-.06471252-.1173706-.1331787-.2626953-.20327759-.43081665-.07154846-.17236328-.14039611-.40231323-.2131958-.6458435-.12460327-.41648865-.26577758-.88853455-.49293518-1.3262024-.55418396-1.06715393-1.15315246-1.81210327-1.83049011-2.27720642-.48428345-.33279419-1.19715881-.52519226-1.86323547-.502182-.58306885.02041626-1.10076905.25883484-1.49702454.68948364-.5453186.59260559-.84114075 1.56393433-.79145813 2.5974884.02774048.5858612.35157776 1.69075012.5538025 2.16453553.4061737.95141601.68966674 1.71704101.96392821 2.45758056.65028382 1.75488281 1.21188355 3.2704773 2.43647766 5.06399536.19471741.28512574.4059906.52069092.63323975.77392578.51933289.57806397 1.10740662 1.23269654 1.17837524 2.8078003-.00028991.01513672-.00048828.03033447-.00048828.04547119 0 1.14263916.8727417 2.07217407 1.9455719 2.07217407h9.0369873c.04467774 0 .08850098-.00344849.13134766-.01000976.75227356-.052948 1.40188599-.55679322 1.6769104-1.31240845.36351014-.9942627.7319336-2.02838135 1.09506226-3.07397461.3309784-.95388794.68572998-1.99591065 1.08448792-3.18545532 1.22912597-3.66906739 1.90686035-5.8616333 1.53929138-8.26605225zm-4.26158142 10.88305664c.32884216-.94781494.68167114-1.98416138 1.07850647-3.16784668 1.14419555-3.41482544 1.77676391-5.44436645 1.47091674-7.44665527-.11689758-.72721863-.41156005-1.52090454-.92366027-2.48173523-.06799317-.03987122-.15647889-.0844574-.20646668-.10246277-.10255432-.01724243-.1981659-.05218506-.28425598-.10121155-.01203919.09794617-.02600098.20088196-.04141235.31018067-.02763367.19720459-.06480408.41281128-.11354065.65866088-.11439515.57585144-.2177124 1.14120484-.31758118 1.68788147-.24295044 1.3291626-.47242737 2.58468628-.81013489 3.7098999-.13760376.45846558-.62052917.71844483-1.07928467.58093262-.45846557-.1376953-.71856689-.62081909-.58094787-1.07928466.31007385-1.03305054.53115845-2.24261475.76516723-3.52326966.10110474-.55302429.20558167-1.1249237.32249451-1.71357727.04226685-.21330261.07414246-.39741516.09725952-.56246948.14039612-.99569702.15185547-1.0769806-.65298462-2.92681885-.3258667-.74919128-.71153259-1.23191833-1.08573913-1.35913086-.06396485-.02172851-.22070313-.07496643-.49765015.00289917.1646576 1.60072327.29205322 3.30429077.0054779 4.5923462-.46876525 2.10850524-.8861084 3.95074462-1.24606323 5.1402893-.13867187.4581604-.62236023.71731567-1.08053588.57855225-.45817566-.13867188-.71711731-.62246704-.57855225-1.0805359.3425293-1.131958.7520752-2.94070434 1.21313477-5.01461791.26770019-1.20350647.05700683-3.16641236-.11236573-4.74354553-.04882812-.45547486-.0960083-.89450074-.13087463-1.29960633-.58721924-.09841919-1.06523132.10023499-1.56462097.62649536-.61206055.64509583-.67503357 2.248703-.73588562 3.7995453-.0836792 2.13931274-1.02410889 5.26933288-1.31039429 6.17778014-.37806702 1.19955445-1.29893494 2.07189942-2.29136658 2.17050171-.80262756.07946778-1.51223755-.32931518-1.94874572-1.1220398-.09619141-.17446899-.18960572-.37130737-.2855072-.60147094-.10621644-.2557373-.1875-.52731323-.27348328-.81484985-.10766602-.35986328-.21897889-.7319336-.37065125-1.024292-.41964722-.80801391-.83622742-1.3468933-1.27360535-1.6471405-.14501953-.0996704-.45866394-.19952392-.77182006-.19952392-.01655579 0-.03302002.00028991-.04959107.00085449-.11843872.00415039-.20019531.04208374-.28186035.13087463-.2273407.24710083-.36225891.78605652-.335495 1.34121704.01348877.28588867.25094605 1.17855835.4165802 1.56661988.4228363.99023437.72683716 1.81152343.99513245 2.53607177.63574219 1.71551514 1.1379242 3.07077027 2.24243164 4.68844605.13009644.1904602.29621887.37554931.48851013.58999634.61273194.68215942 1.53448487 1.70831298 1.62480164 3.92773437.00086975.02215576.00086975.044281.00010681.06634522l-.00048828.02059936c0 .20684815.12576294.33886719.2122345.33886719h8.94030761c.0315857-.00357056.06375123-.00540161.09629822-.00540161.05566406 0 .13587952-.05563355.18026734-.17773438.36073303-.98666382.72598266-2.01184082 1.0859375-3.04837036zM2.05744934 22.55348206c-.2124176-1.02371216-.3241272-2.08384705-.3241272-3.16957093 0-1.96858215.36727906-3.85366821 1.03652954-5.58921814.00875855.00317383.0176239.00616455.02648926.00915528 1.6461792.54011535 3.3337555.98394775 5.05601502 1.33061218-.19114685 1.37289429-.2896576 2.79777527-.2896576 4.24945068 0 1.60244751.12007142 3.17314148.3523407 4.67642212-1.9720459-.37469482-3.89814758-.86935425-5.76551819-1.48210144-.03062439-.01000976-.06135559-.01820373-.09207153-.02474975zm6.20205689 3.33183288c-1.92669678-.33886719-3.81312561-.7875061-5.64881897-1.3440857 1.55700683 4.42547608 5.05987548 7.94238282 9.47610473 9.51913453-.65769958-.73529053-1.268219-1.61746216-1.81874084-2.63677979-.87330628-1.61697387-1.55027771-3.49591064-2.00854492-5.53826904z"/>
    </g>
  </g>
</svg>
